M48
; DRILL file {KiCad 5.1.5-52549c5~86~ubuntu18.04.1} date Sun 26 Apr 2020 07:40:12 PM PDT
; FORMAT={-:-/ absolute / inch / decimal}
; #@! TF.CreationDate,2020-04-26T19:40:12-07:00
; #@! TF.GenerationSoftware,Kicad,Pcbnew,5.1.5-52549c5~86~ubuntu18.04.1
FMAT,2
INCH
T1C0.0079
T2C0.0157
T3C0.0217
T4C0.0315
T5C0.0335
T6C0.0394
T7C0.1260
T8C0.0315
T9C0.0787
%
G90
G05
T1
X1.8898Y-4.6181
X1.8898Y-4.685
X2.689Y-4.2323
X2.8504Y-4.1575
X2.8504Y-4.1969
X2.8937Y-4.3425
X2.9055Y-3.8583
X2.9213Y-4.189
X2.9685Y-4.1693
X2.9764Y-4.0748
X3.1496Y-3.8268
X3.1732Y-3.811
X3.2087Y-3.8465
X3.2087Y-3.937
X3.2402Y-3.937
X3.2717Y-3.8648
X3.2717Y-3.937
X3.2933Y-3.7874
X3.2972Y-3.8484
X3.2972Y-3.9528
X3.315Y-4.1575
X3.3189Y-4.0472
X3.3228Y-3.7953
X3.3228Y-3.9685
X3.3307Y-3.8543
X3.3425Y-4.1378
X3.3504Y-3.874
X3.3504Y-3.9055
X3.3504Y-4.0472
X3.3543Y-3.8051
X3.374Y-3.689
X3.374Y-4.1181
X3.3819Y-4.0472
X3.3858Y-3.815
X3.3937Y-3.7323
X3.3976Y-3.6654
X3.4016Y-4.0984
X3.4055Y-4.0157
X3.4173Y-3.7087
X3.4173Y-3.8248
X3.437Y-3.9843
X3.4409Y-4.0315
X3.4724Y-4.0
X3.5157Y-4.1772
X3.5512Y-3.8248
X3.5512Y-4.0472
X3.5669Y-3.685
X3.5669Y-4.189
X3.5748Y-3.5827
X3.6299Y-3.748
X3.6299Y-3.7795
X3.6299Y-3.811
X3.6299Y-3.8425
X3.6299Y-3.874
X3.6299Y-3.9055
X3.6299Y-3.9685
X3.6299Y-4.0315
X3.6299Y-4.063
X3.6299Y-4.0945
X3.6614Y-3.7795
X3.6614Y-3.811
X3.6614Y-3.8425
X3.6614Y-3.874
X3.6614Y-3.937
X3.6614Y-3.9685
X3.6614Y-4.0315
X3.6614Y-4.063
X3.6614Y-4.0945
X3.6929Y-3.7795
X3.6929Y-3.811
X3.6929Y-3.9055
X3.6929Y-3.9685
X3.6929Y-4.063
X3.6929Y-4.0945
X3.6929Y-4.126
X3.6932Y-3.7478
X3.7244Y-3.748
X3.7244Y-3.7795
X3.7244Y-3.811
X3.7244Y-3.874
X3.7244Y-3.937
X3.7244Y-4.0315
X3.7244Y-4.063
X3.7244Y-4.0945
X3.7556Y-3.9373
X3.7559Y-3.748
X3.7559Y-3.7795
X3.7559Y-3.8425
X3.7559Y-3.874
X3.7559Y-3.9055
X3.7559Y-3.9685
X3.7559Y-4.0
X3.7559Y-4.0315
X3.7559Y-4.126
X3.7717Y-3.0866
X3.7717Y-3.5
X3.7874Y-3.748
X3.7874Y-3.7795
X3.7874Y-3.874
X3.7874Y-3.9685
X3.7874Y-4.0
X3.7874Y-4.0315
X3.7874Y-4.063
X3.7874Y-4.0945
X3.7874Y-4.126
X3.79Y-3.9029
X3.8189Y-3.748
X3.8189Y-3.811
X3.8189Y-3.874
X3.8189Y-3.9055
X3.8189Y-3.937
X3.8189Y-3.9685
X3.8189Y-4.0
X3.8189Y-4.0315
X3.8189Y-4.063
X3.8189Y-4.0945
X3.8189Y-4.126
X3.8346Y-3.6811
X3.8346Y-4.2047
X3.8504Y-3.748
X3.8504Y-3.7795
X3.8504Y-3.811
X3.8504Y-3.8425
X3.8504Y-3.874
X3.8504Y-3.9055
X3.8504Y-3.937
X3.8504Y-3.9685
X3.8504Y-4.0
X3.8819Y-3.748
X3.8819Y-3.7795
X3.8819Y-3.8425
X3.8819Y-3.874
X3.8819Y-3.9055
X3.8819Y-3.937
X3.8819Y-3.9685
X3.8819Y-4.0
X3.8819Y-4.0315
X3.8819Y-4.0945
X3.8819Y-4.126
X3.9134Y-3.748
X3.9134Y-3.7795
X3.9134Y-3.8425
X3.9134Y-4.0
X3.9134Y-4.0315
X3.9134Y-4.0945
X3.9134Y-4.126
X3.9449Y-3.7795
X3.9449Y-3.811
X3.9449Y-3.8425
X3.9449Y-3.937
X3.9449Y-3.9685
X3.9449Y-4.0315
X3.9449Y-4.063
X3.9449Y-4.0945
X3.9449Y-4.126
X3.9764Y-3.7165
X3.9764Y-3.748
X3.9764Y-3.7795
X3.9764Y-3.811
X3.9764Y-3.8425
X3.9764Y-3.874
X3.9764Y-3.937
X3.9764Y-3.9685
X3.9764Y-4.0
X3.9764Y-4.063
X3.9764Y-4.0945
X4.0079Y-3.748
X4.0079Y-3.7795
X4.0079Y-3.811
X4.0079Y-3.8425
X4.0079Y-3.874
X4.0079Y-3.9055
X4.0079Y-3.9685
X4.0079Y-4.0
X4.0079Y-4.0315
X4.0079Y-4.063
X4.0079Y-4.0945
X4.0079Y-4.126
X4.0709Y-3.685
X4.0709Y-4.189
X4.0709Y-4.2539
X4.1339Y-4.2913
X4.1732Y-3.687
X4.2736Y-3.6909
X4.5197Y-3.6535
X4.5512Y-3.6535
X4.6142Y-3.7165
X4.6457Y-3.7165
X4.6457Y-3.748
X4.878Y-3.0827
X4.878Y-3.1142
X4.878Y-3.1457
X4.878Y-3.1772
X4.878Y-3.2087
X4.878Y-4.3425
X4.878Y-4.374
X4.878Y-4.4055
X4.878Y-4.437
X4.878Y-4.626
X4.878Y-4.6575
X4.878Y-4.689
X4.878Y-4.7205
X4.8819Y-3.9055
X4.8819Y-3.937
X4.8819Y-3.9685
X4.8819Y-4.0
X4.9094Y-3.0984
X4.9094Y-3.1299
X4.9094Y-3.1614
X4.9094Y-3.1929
X4.9094Y-4.3583
X4.9094Y-4.3898
X4.9094Y-4.4213
X4.9094Y-4.4528
X4.9094Y-4.6102
X4.9094Y-4.6417
X4.9094Y-4.6732
X4.9094Y-4.7047
X4.9094Y-4.7362
X4.9134Y-3.9213
X4.9134Y-3.9528
X4.9134Y-3.9843
X4.9764Y-3.7795
X4.9764Y-3.811
X4.9764Y-3.8425
X4.9764Y-3.874
X5.0Y-4.4685
X5.0Y-4.5
X5.0Y-4.5315
X5.0Y-4.563
X5.0Y-4.5945
X5.0039Y-3.0551
X5.0079Y-3.2441
X5.0079Y-3.7638
X5.0079Y-3.7953
X5.0079Y-3.8268
X5.0079Y-3.8583
X5.0079Y-3.8898
X5.0118Y-2.7795
X5.0118Y-3.3425
X5.0157Y-4.752
X5.0157Y-4.7835
X5.0157Y-4.815
X5.0157Y-4.8465
X5.0197Y-4.3031
X5.0276Y-3.5315
X5.0315Y-3.4724
X5.0315Y-4.4843
X5.0315Y-4.5157
X5.0315Y-4.5472
X5.0315Y-4.5787
X5.0354Y-3.3189
X5.0472Y-4.7677
X5.0472Y-4.7992
X5.0472Y-4.8307
X5.1457Y-2.7717
X5.1457Y-3.0
X5.1457Y-3.0512
X5.1496Y-3.2441
X5.1496Y-3.5197
X5.1496Y-4.0433
X5.1732Y-4.2087
X5.248Y-4.311
X5.2638Y-4.0315
X5.2913Y-4.0315
X5.2953Y-3.2677
X5.2953Y-3.5787
X5.3346Y-3.2913
X5.3346Y-3.4646
X5.3563Y-4.9429
X5.3583Y-2.7559
X5.3622Y-5.185
X5.3937Y-4.0315
X5.3937Y-4.2598
X5.4252Y-2.7559
X5.4252Y-3.2913
X5.4291Y-3.0118
X5.4754Y-4.1821
X5.4803Y-4.0551
X5.4921Y-2.7559
X5.4961Y-4.2953
X5.4961Y-4.9331
X5.4961Y-5.1575
X5.4961Y-5.2087
X5.5Y-4.0787
X5.5276Y-2.5906
X5.5591Y-2.7559
X5.5669Y-4.252
X5.5709Y-3.0118
X5.5748Y-3.2402
X5.5748Y-3.2913
X5.5866Y-4.9606
X5.5866Y-4.9843
X5.5866Y-5.0079
X5.5866Y-5.0315
X5.5906Y-4.1575
X5.6142Y-3.6929
X5.6142Y-4.9291
X5.626Y-2.7559
X5.6378Y-3.7008
X5.6378Y-4.1299
X5.6614Y-2.9882
X5.685Y-2.9646
X5.6929Y-2.7559
X5.7087Y-2.9409
X5.7244Y-2.5906
X5.7323Y-2.9134
X5.7559Y-2.8858
X5.7598Y-2.7559
X5.7795Y-2.8622
X5.8031Y-2.8386
X5.8268Y-2.7559
X5.8268Y-2.815
X5.8504Y-2.2008
X5.8504Y-3.2126
X5.874Y-3.189
X5.8976Y-3.1614
X5.9213Y-3.1378
X5.9331Y-2.4724
X5.9449Y-3.1142
X5.9488Y-4.8425
X5.9685Y-3.0906
X5.9921Y-3.063
X5.9961Y-2.1811
X6.0Y-2.3071
X6.0039Y-2.0551
X6.0157Y-3.0378
X6.0394Y-2.4724
X6.0394Y-4.3071
X6.0591Y-4.2874
X6.0709Y-2.2165
X6.0827Y-3.811
X6.0866Y-3.8819
X6.0866Y-4.2638
X6.0906Y-2.7402
X6.0906Y-2.815
X6.0906Y-2.8386
X6.0906Y-2.8622
X6.0906Y-2.8858
X6.0906Y-2.9134
X6.0906Y-2.9409
X6.0906Y-2.9646
X6.0906Y-2.9882
X6.0906Y-3.0354
X6.0906Y-3.063
X6.0906Y-3.0906
X6.0906Y-3.1142
X6.0906Y-3.1378
X6.0906Y-3.1614
X6.0906Y-3.189
X6.0906Y-3.2126
X6.0906Y-3.2402
X6.0906Y-3.2638
X6.0906Y-3.2913
X6.0906Y-3.315
X6.1102Y-4.2441
X6.1496Y-3.4724
X6.1654Y-2.4567
X6.1693Y-4.2638
X6.2047Y-3.7953
X6.2047Y-3.9213
X6.2047Y-4.1535
X6.2047Y-4.2047
X6.2087Y-3.563
X6.2087Y-3.8327
X6.2559Y-3.0118
X6.2559Y-3.2874
X6.2559Y-3.9724
X6.2559Y-4.7087
X6.2559Y-4.8189
X6.2598Y-4.563
X6.2677Y-4.9567
X6.2717Y-3.1693
X6.2717Y-5.374
X6.2795Y-3.9449
X6.2953Y-2.189
X6.2953Y-5.0079
X6.3078Y-3.8812
X6.3268Y-2.3071
X6.3268Y-5.0551
X6.3307Y-2.4252
X6.3346Y-3.5669
X6.3346Y-4.2047
X6.3386Y-2.5945
X6.3386Y-4.8268
X6.3583Y-3.4055
X6.3583Y-4.2165
X6.3622Y-4.7874
X6.3858Y-3.4055
X6.4055Y-4.2047
X6.4055Y-4.5709
X6.4094Y-3.5669
X6.4331Y-4.0492
X6.437Y-3.3898
X6.437Y-5.3307
X6.4449Y-2.5945
X6.4567Y-2.4252
X6.4587Y-4.0236
X6.4606Y-2.3701
X6.4646Y-2.189
X6.4685Y-2.2165
X6.4685Y-2.2402
X6.4685Y-2.2638
X6.4685Y-2.2913
X6.4685Y-2.3189
X6.4685Y-2.3425
X6.4843Y-3.998
X6.4882Y-4.7283
X6.4921Y-4.9803
X6.5079Y-4.0748
X6.5079Y-4.5669
X6.5315Y-4.1004
X6.5472Y-5.0551
X6.5551Y-4.126
X6.563Y-4.3701
X6.5787Y-2.1457
X6.5827Y-3.5886
X6.6063Y-2.1732
X6.6083Y-3.6142
X6.6339Y-3.6398
X6.6378Y-4.5197
X6.6378Y-4.7283
X6.6378Y-4.9567
X6.6417Y-2.3031
X6.6575Y-3.6654
X6.6575Y-5.3307
X6.6831Y-3.6909
X6.685Y-2.4291
X6.7087Y-2.4291
X6.7087Y-3.7165
X6.7087Y-5.1614
X6.7283Y-4.5709
X6.7283Y-5.0079
X6.7323Y-2.5945
X6.7323Y-3.7421
X6.7323Y-5.1693
X6.7559Y-2.4291
X6.7579Y-3.7677
X6.7598Y-5.1772
X6.7835Y-2.4291
X6.8091Y-4.435
X6.8212Y-5.2542
X6.8228Y-4.2913
X6.8307Y-4.4094
X6.8307Y-4.4567
X6.8307Y-5.0866
X6.8307Y-5.1102
X6.8307Y-5.1339
X6.8346Y-4.5079
X6.8346Y-4.5354
X6.8346Y-4.5591
X6.8346Y-4.5827
X6.8346Y-4.6102
X6.8346Y-4.6339
X6.8346Y-4.6575
X6.8346Y-4.6811
X6.8346Y-4.7087
X6.8346Y-4.7323
X6.8346Y-4.7598
X6.8346Y-4.7835
X6.8346Y-4.8071
X6.8346Y-4.8307
X6.8346Y-4.8583
X6.8346Y-4.8858
X6.8346Y-4.9094
X6.8346Y-4.9331
X6.8346Y-4.9567
X6.8346Y-4.9843
X6.8346Y-5.0079
X6.8346Y-5.0315
X6.8346Y-5.0591
X6.8898Y-2.563
X6.9016Y-2.1614
X6.9094Y-2.3071
X6.9882Y-2.6614
X7.0Y-2.937
X7.0Y-3.1654
X7.0039Y-4.4843
X7.0079Y-2.689
X7.0276Y-2.7126
X7.0276Y-4.8268
X7.0354Y-4.4094
X7.0591Y-3.1378
X7.0591Y-4.7953
X7.0591Y-5.6693
X7.0591Y-5.8976
X7.0669Y-4.8583
X7.0827Y-3.1142
X7.0866Y-3.7953
X7.0866Y-5.5354
X7.1063Y-3.0906
X7.1102Y-3.8268
X7.1102Y-5.5157
X7.1299Y-3.063
X7.1378Y-3.8543
X7.1378Y-5.4961
X7.1496Y-3.0394
X7.1614Y-4.7244
X7.1614Y-5.4764
X7.1732Y-3.0157
X7.189Y-4.752
X7.189Y-5.4567
X7.1969Y-2.9882
X7.2126Y-4.7756
X7.2126Y-5.437
X7.2165Y-2.9134
X7.2165Y-2.9606
X7.2323Y-2.8898
X7.2402Y-4.752
X7.2402Y-5.4173
X7.248Y-2.8622
X7.2638Y-2.8386
X7.2638Y-4.7756
X7.2638Y-5.3976
X7.2795Y-2.815
X7.2913Y-5.6693
X7.2992Y-2.7874
X7.315Y-2.7638
X7.3307Y-2.7362
X7.3425Y-5.6693
X7.3425Y-5.8976
X7.4528Y-5.6693
X7.4528Y-5.8976
X7.4803Y-3.3622
X7.4803Y-4.6142
X7.4803Y-5.2598
X7.5039Y-3.3386
X7.5039Y-4.6339
X7.5039Y-5.2795
X7.5315Y-3.315
X7.5315Y-4.6535
X7.5315Y-5.2992
X7.5591Y-3.2874
X7.5591Y-5.2992
X7.5591Y-5.6339
X7.5827Y-3.2598
X7.5827Y-5.3189
X7.5827Y-5.6142
X7.6063Y-3.2362
X7.6063Y-5.3386
X7.6063Y-5.5945
X7.6339Y-3.2126
X7.6339Y-5.3583
X7.6339Y-5.5748
X7.6575Y-3.189
X7.6575Y-5.378
X7.6575Y-5.5551
X7.685Y-5.6693
X7.7165Y-4.7402
X7.7205Y-3.9528
X7.7362Y-5.6693
X7.7362Y-5.8976
X7.878Y-4.8583
X7.8976Y-4.0551
X7.9055Y-4.8307
X8.0039Y-5.3031
X8.0079Y-4.5197
X8.0551Y-4.2717
X8.0551Y-4.3504
X8.1063Y-4.5197
X8.1063Y-5.1339
X8.126Y-4.311
X8.1575Y-4.2913
X8.1575Y-4.3504
X8.1811Y-4.3307
X8.2008Y-5.3031
X8.3071Y-4.3307
X8.3189Y-5.1142
X8.3465Y-4.3307
X8.3543Y-4.0354
X8.3543Y-4.8228
X8.4055Y-4.5197
X8.4055Y-5.3071
T2
X2.1457Y-2.0079
X2.185Y-2.1063
X2.2244Y-2.0079
X2.2441Y-4.0669
X2.2598Y-2.8209
X2.2598Y-3.0965
X2.2598Y-4.2638
X2.2835Y-3.9055
X2.3031Y-3.5118
X2.315Y-4.4843
X2.3504Y-4.3543
X2.3583Y-4.2323
X2.4193Y-2.7343
X2.4193Y-3.0098
X2.4409Y-3.7402
X2.4882Y-4.4843
X2.5433Y-4.3031
X2.5453Y-4.2028
X2.5453Y-4.252
X2.6181Y-4.4173
X2.622Y-3.5118
X2.6378Y-4.0709
X2.7795Y-3.5118
X2.8287Y-2.8661
X2.8307Y-2.5984
X2.8346Y-4.4094
X2.8346Y-4.4724
X2.874Y-3.9016
X2.8937Y-4.1339
X2.9055Y-3.1181
X2.9094Y-2.7953
X2.9252Y-4.0236
X2.9331Y-4.3268
X2.9567Y-2.9843
X2.9567Y-3.6024
X2.9843Y-4.3504
X2.9961Y-3.5472
X3.0079Y-2.9843
X3.0315Y-2.5866
X3.0472Y-4.3504
X3.0591Y-2.9843
X3.0591Y-4.4764
X3.063Y-5.3858
X3.1102Y-2.9843
X3.126Y-2.7579
X3.1299Y-4.4764
X3.1339Y-3.1142
X3.1417Y-5.7402
X3.1614Y-4.6417
X3.1732Y-4.4764
X3.185Y-4.0748
X3.185Y-4.1575
X3.185Y-4.2756
X3.2244Y-5.4331
X3.2244Y-5.4882
X3.2244Y-5.5472
X3.2717Y-4.7795
X3.3071Y-5.6102
X3.3071Y-5.6693
X3.3209Y-2.8661
X3.3228Y-2.5984
X3.3228Y-5.811
X3.3386Y-3.5276
X3.3465Y-5.6102
X3.3465Y-5.6693
X3.3858Y-5.6102
X3.3858Y-5.6693
X3.3976Y-3.1181
X3.4016Y-2.7953
X3.4016Y-3.5276
X3.437Y-5.8583
X3.4488Y-2.9843
X3.5Y-2.9843
X3.5236Y-2.5866
X3.5512Y-2.9843
X3.5591Y-4.7795
X3.5709Y-5.5709
X3.6024Y-2.9843
X3.6181Y-2.7579
X3.626Y-3.1142
X3.6398Y-4.4354
X3.6398Y-4.5945
X3.7717Y-5.3858
X3.813Y-2.8661
X3.815Y-2.5984
X3.8504Y-4.8346
X3.8898Y-3.1181
X3.8937Y-2.7953
X3.9291Y-5.7402
X3.9409Y-2.9843
X3.9921Y-2.9843
X4.0118Y-5.4331
X4.0118Y-5.4882
X4.0118Y-5.5472
X4.0157Y-2.5866
X4.0433Y-2.9843
X4.0551Y-2.1811
X4.0551Y-2.3071
X4.0551Y-2.4331
X4.0709Y-3.1142
X4.0945Y-2.9843
X4.0945Y-5.6102
X4.0945Y-5.6693
X4.1102Y-2.7579
X4.1102Y-5.811
X4.1339Y-5.6102
X4.1339Y-5.6693
X4.1732Y-5.6102
X4.1732Y-5.6693
X4.2244Y-5.8583
X4.3583Y-5.5709
X4.6752Y-3.25
X4.8484Y-3.25
X5.1142Y-2.6102
X5.2874Y-2.6102
X5.437Y-3.6142
X5.5236Y-3.7165
X5.7362Y-5.1063
X5.7992Y-5.1063
X5.8425Y-2.5827
X6.0157Y-2.5827
T4
X2.5787Y-5.7874
X2.6772Y-5.7874
T6
X1.9134Y-2.6811
X1.9134Y-2.7811
X1.9134Y-2.8811
X1.9134Y-2.9811
X2.0134Y-2.6811
X2.0134Y-2.7811
X2.0134Y-2.8811
X2.0134Y-2.9811
X3.1583Y-4.9606
X3.1583Y-5.0606
X3.2583Y-4.9606
X3.2583Y-5.0606
X3.3583Y-4.9606
X3.3583Y-5.0606
X3.4583Y-4.9606
X3.4583Y-5.0606
X3.5583Y-4.9606
X3.5583Y-5.0606
X3.6583Y-4.9606
X3.6583Y-5.0606
X3.7583Y-4.9606
X3.7583Y-5.0606
X3.8583Y-4.9606
X3.8583Y-5.0606
X2.6024Y-2.9409
X2.6024Y-3.0409
X2.7024Y-2.9409
X2.7024Y-3.0409
X5.526Y-2.5048
X5.626Y-2.5048
X5.726Y-2.5048
X5.3827Y-3.5197
X5.4827Y-3.5197
X5.5827Y-3.5197
X2.1339Y-4.0228
X2.1339Y-4.1228
X2.1339Y-4.2228
X2.1339Y-4.3228
X4.8819Y-3.622
X4.9819Y-3.622
X5.0819Y-3.622
X5.1819Y-3.622
X2.4803Y-5.2756
X2.6772Y-5.2756
X3.4217Y-4.4354
X3.4217Y-4.5354
X3.5217Y-4.4354
X3.5217Y-4.5354
X5.3976Y-5.3583
X5.4976Y-5.3583
X5.5976Y-5.3583
X5.6976Y-5.3583
X3.7307Y-2.1425
X3.7307Y-2.2425
X3.7307Y-2.3425
X3.8307Y-2.1425
X3.8307Y-2.2425
X3.8307Y-2.3425
T7
X8.3071Y-5.8268
X8.3071Y-2.1654
X1.8504Y-5.8268
X1.8504Y-2.1654
T8
X1.7543Y-4.4577
X1.7543Y-4.6545
T9
X1.6969Y-5.2362
T3
G00X1.6589Y-4.4035
M15
G01X1.6333Y-4.4035
M16
G05
G00X1.6589Y-4.7087
M15
G01X1.6333Y-4.7087
M16
G05
T5
G00X1.8065Y-4.4094
M15
G01X1.7848Y-4.4094
M16
G05
G00X1.8065Y-4.7028
M15
G01X1.7848Y-4.7028
M16
G05
T0
M30
