G04 #@! TF.GenerationSoftware,KiCad,Pcbnew,5.1.6-c6e7f7d~87~ubuntu18.04.1*
G04 #@! TF.CreationDate,2020-08-16T18:02:23-07:00*
G04 #@! TF.ProjectId,spla-board,73706c61-2d62-46f6-9172-642e6b696361,10*
G04 #@! TF.SameCoordinates,Original*
G04 #@! TF.FileFunction,Paste,Top*
G04 #@! TF.FilePolarity,Positive*
%FSLAX46Y46*%
G04 Gerber Fmt 4.6, Leading zero omitted, Abs format (unit mm)*
G04 Created by KiCad (PCBNEW 5.1.6-c6e7f7d~87~ubuntu18.04.1) date 2020-08-16 18:02:23*
%MOMM*%
%LPD*%
G01*
G04 APERTURE LIST*
G04 #@! TA.AperFunction,Profile*
%ADD10C,0.050000*%
G04 #@! TD*
%ADD11R,0.650000X0.400000*%
%ADD12R,0.650000X1.060000*%
%ADD13R,0.650000X1.220000*%
%ADD14R,1.220000X0.650000*%
%ADD15R,0.400000X1.100000*%
%ADD16R,3.500000X2.600000*%
%ADD17R,0.510000X0.900000*%
%ADD18R,1.903000X2.790000*%
%ADD19C,0.320000*%
%ADD20R,1.300000X0.450000*%
G04 APERTURE END LIST*
D10*
X53000000Y-155000000D02*
X53000000Y-48000000D01*
X218000000Y-48000000D02*
X218000000Y-155000000D01*
X53000000Y-48000000D02*
X218000000Y-48000000D01*
X53000000Y-155000000D02*
X218000000Y-155000000D01*
G36*
G01*
X190850000Y-146356250D02*
X190850000Y-145843750D01*
G75*
G02*
X191068750Y-145625000I218750J0D01*
G01*
X191506250Y-145625000D01*
G75*
G02*
X191725000Y-145843750I0J-218750D01*
G01*
X191725000Y-146356250D01*
G75*
G02*
X191506250Y-146575000I-218750J0D01*
G01*
X191068750Y-146575000D01*
G75*
G02*
X190850000Y-146356250I0J218750D01*
G01*
G37*
G36*
G01*
X189275000Y-146356250D02*
X189275000Y-145843750D01*
G75*
G02*
X189493750Y-145625000I218750J0D01*
G01*
X189931250Y-145625000D01*
G75*
G02*
X190150000Y-145843750I0J-218750D01*
G01*
X190150000Y-146356250D01*
G75*
G02*
X189931250Y-146575000I-218750J0D01*
G01*
X189493750Y-146575000D01*
G75*
G02*
X189275000Y-146356250I0J218750D01*
G01*
G37*
G36*
G01*
X192643750Y-147237500D02*
X193156250Y-147237500D01*
G75*
G02*
X193375000Y-147456250I0J-218750D01*
G01*
X193375000Y-147893750D01*
G75*
G02*
X193156250Y-148112500I-218750J0D01*
G01*
X192643750Y-148112500D01*
G75*
G02*
X192425000Y-147893750I0J218750D01*
G01*
X192425000Y-147456250D01*
G75*
G02*
X192643750Y-147237500I218750J0D01*
G01*
G37*
G36*
G01*
X192643750Y-145662500D02*
X193156250Y-145662500D01*
G75*
G02*
X193375000Y-145881250I0J-218750D01*
G01*
X193375000Y-146318750D01*
G75*
G02*
X193156250Y-146537500I-218750J0D01*
G01*
X192643750Y-146537500D01*
G75*
G02*
X192425000Y-146318750I0J218750D01*
G01*
X192425000Y-145881250D01*
G75*
G02*
X192643750Y-145662500I218750J0D01*
G01*
G37*
G36*
G01*
X190850000Y-147956250D02*
X190850000Y-147443750D01*
G75*
G02*
X191068750Y-147225000I218750J0D01*
G01*
X191506250Y-147225000D01*
G75*
G02*
X191725000Y-147443750I0J-218750D01*
G01*
X191725000Y-147956250D01*
G75*
G02*
X191506250Y-148175000I-218750J0D01*
G01*
X191068750Y-148175000D01*
G75*
G02*
X190850000Y-147956250I0J218750D01*
G01*
G37*
G36*
G01*
X189275000Y-147956250D02*
X189275000Y-147443750D01*
G75*
G02*
X189493750Y-147225000I218750J0D01*
G01*
X189931250Y-147225000D01*
G75*
G02*
X190150000Y-147443750I0J-218750D01*
G01*
X190150000Y-147956250D01*
G75*
G02*
X189931250Y-148175000I-218750J0D01*
G01*
X189493750Y-148175000D01*
G75*
G02*
X189275000Y-147956250I0J218750D01*
G01*
G37*
G36*
G01*
X81843750Y-116550000D02*
X82356250Y-116550000D01*
G75*
G02*
X82575000Y-116768750I0J-218750D01*
G01*
X82575000Y-117206250D01*
G75*
G02*
X82356250Y-117425000I-218750J0D01*
G01*
X81843750Y-117425000D01*
G75*
G02*
X81625000Y-117206250I0J218750D01*
G01*
X81625000Y-116768750D01*
G75*
G02*
X81843750Y-116550000I218750J0D01*
G01*
G37*
G36*
G01*
X81843750Y-114975000D02*
X82356250Y-114975000D01*
G75*
G02*
X82575000Y-115193750I0J-218750D01*
G01*
X82575000Y-115631250D01*
G75*
G02*
X82356250Y-115850000I-218750J0D01*
G01*
X81843750Y-115850000D01*
G75*
G02*
X81625000Y-115631250I0J218750D01*
G01*
X81625000Y-115193750D01*
G75*
G02*
X81843750Y-114975000I218750J0D01*
G01*
G37*
G36*
G01*
X89143750Y-116550000D02*
X89656250Y-116550000D01*
G75*
G02*
X89875000Y-116768750I0J-218750D01*
G01*
X89875000Y-117206250D01*
G75*
G02*
X89656250Y-117425000I-218750J0D01*
G01*
X89143750Y-117425000D01*
G75*
G02*
X88925000Y-117206250I0J218750D01*
G01*
X88925000Y-116768750D01*
G75*
G02*
X89143750Y-116550000I218750J0D01*
G01*
G37*
G36*
G01*
X89143750Y-114975000D02*
X89656250Y-114975000D01*
G75*
G02*
X89875000Y-115193750I0J-218750D01*
G01*
X89875000Y-115631250D01*
G75*
G02*
X89656250Y-115850000I-218750J0D01*
G01*
X89143750Y-115850000D01*
G75*
G02*
X88925000Y-115631250I0J218750D01*
G01*
X88925000Y-115193750D01*
G75*
G02*
X89143750Y-114975000I218750J0D01*
G01*
G37*
D11*
X69000000Y-86300000D03*
X69000000Y-85000000D03*
X70900000Y-85650000D03*
X70900000Y-85000000D03*
X70900000Y-86300000D03*
X69000000Y-90300000D03*
X69000000Y-89000000D03*
X70900000Y-89650000D03*
X70900000Y-89000000D03*
X70900000Y-90300000D03*
G36*
G01*
X160125000Y-110325000D02*
X160125000Y-107525000D01*
G75*
G02*
X160225000Y-107425000I100000J0D01*
G01*
X160425000Y-107425000D01*
G75*
G02*
X160525000Y-107525000I0J-100000D01*
G01*
X160525000Y-110325000D01*
G75*
G02*
X160425000Y-110425000I-100000J0D01*
G01*
X160225000Y-110425000D01*
G75*
G02*
X160125000Y-110325000I0J100000D01*
G01*
G37*
G36*
G01*
X160775000Y-110325000D02*
X160775000Y-107525000D01*
G75*
G02*
X160875000Y-107425000I100000J0D01*
G01*
X161075000Y-107425000D01*
G75*
G02*
X161175000Y-107525000I0J-100000D01*
G01*
X161175000Y-110325000D01*
G75*
G02*
X161075000Y-110425000I-100000J0D01*
G01*
X160875000Y-110425000D01*
G75*
G02*
X160775000Y-110325000I0J100000D01*
G01*
G37*
G36*
G01*
X161425000Y-110325000D02*
X161425000Y-107525000D01*
G75*
G02*
X161525000Y-107425000I100000J0D01*
G01*
X161725000Y-107425000D01*
G75*
G02*
X161825000Y-107525000I0J-100000D01*
G01*
X161825000Y-110325000D01*
G75*
G02*
X161725000Y-110425000I-100000J0D01*
G01*
X161525000Y-110425000D01*
G75*
G02*
X161425000Y-110325000I0J100000D01*
G01*
G37*
G36*
G01*
X162075000Y-110325000D02*
X162075000Y-107525000D01*
G75*
G02*
X162175000Y-107425000I100000J0D01*
G01*
X162375000Y-107425000D01*
G75*
G02*
X162475000Y-107525000I0J-100000D01*
G01*
X162475000Y-110325000D01*
G75*
G02*
X162375000Y-110425000I-100000J0D01*
G01*
X162175000Y-110425000D01*
G75*
G02*
X162075000Y-110325000I0J100000D01*
G01*
G37*
G36*
G01*
X162725000Y-110325000D02*
X162725000Y-107525000D01*
G75*
G02*
X162825000Y-107425000I100000J0D01*
G01*
X163025000Y-107425000D01*
G75*
G02*
X163125000Y-107525000I0J-100000D01*
G01*
X163125000Y-110325000D01*
G75*
G02*
X163025000Y-110425000I-100000J0D01*
G01*
X162825000Y-110425000D01*
G75*
G02*
X162725000Y-110325000I0J100000D01*
G01*
G37*
G36*
G01*
X163375000Y-110325000D02*
X163375000Y-107525000D01*
G75*
G02*
X163475000Y-107425000I100000J0D01*
G01*
X163675000Y-107425000D01*
G75*
G02*
X163775000Y-107525000I0J-100000D01*
G01*
X163775000Y-110325000D01*
G75*
G02*
X163675000Y-110425000I-100000J0D01*
G01*
X163475000Y-110425000D01*
G75*
G02*
X163375000Y-110325000I0J100000D01*
G01*
G37*
G36*
G01*
X164025000Y-110325000D02*
X164025000Y-107525000D01*
G75*
G02*
X164125000Y-107425000I100000J0D01*
G01*
X164325000Y-107425000D01*
G75*
G02*
X164425000Y-107525000I0J-100000D01*
G01*
X164425000Y-110325000D01*
G75*
G02*
X164325000Y-110425000I-100000J0D01*
G01*
X164125000Y-110425000D01*
G75*
G02*
X164025000Y-110325000I0J100000D01*
G01*
G37*
G36*
G01*
X164675000Y-110325000D02*
X164675000Y-107525000D01*
G75*
G02*
X164775000Y-107425000I100000J0D01*
G01*
X164975000Y-107425000D01*
G75*
G02*
X165075000Y-107525000I0J-100000D01*
G01*
X165075000Y-110325000D01*
G75*
G02*
X164975000Y-110425000I-100000J0D01*
G01*
X164775000Y-110425000D01*
G75*
G02*
X164675000Y-110325000I0J100000D01*
G01*
G37*
G36*
G01*
X165325000Y-110325000D02*
X165325000Y-107525000D01*
G75*
G02*
X165425000Y-107425000I100000J0D01*
G01*
X165625000Y-107425000D01*
G75*
G02*
X165725000Y-107525000I0J-100000D01*
G01*
X165725000Y-110325000D01*
G75*
G02*
X165625000Y-110425000I-100000J0D01*
G01*
X165425000Y-110425000D01*
G75*
G02*
X165325000Y-110325000I0J100000D01*
G01*
G37*
G36*
G01*
X165975000Y-110325000D02*
X165975000Y-107525000D01*
G75*
G02*
X166075000Y-107425000I100000J0D01*
G01*
X166275000Y-107425000D01*
G75*
G02*
X166375000Y-107525000I0J-100000D01*
G01*
X166375000Y-110325000D01*
G75*
G02*
X166275000Y-110425000I-100000J0D01*
G01*
X166075000Y-110425000D01*
G75*
G02*
X165975000Y-110325000I0J100000D01*
G01*
G37*
G36*
G01*
X166625000Y-110325000D02*
X166625000Y-107525000D01*
G75*
G02*
X166725000Y-107425000I100000J0D01*
G01*
X166925000Y-107425000D01*
G75*
G02*
X167025000Y-107525000I0J-100000D01*
G01*
X167025000Y-110325000D01*
G75*
G02*
X166925000Y-110425000I-100000J0D01*
G01*
X166725000Y-110425000D01*
G75*
G02*
X166625000Y-110325000I0J100000D01*
G01*
G37*
G36*
G01*
X167275000Y-110325000D02*
X167275000Y-107525000D01*
G75*
G02*
X167375000Y-107425000I100000J0D01*
G01*
X167575000Y-107425000D01*
G75*
G02*
X167675000Y-107525000I0J-100000D01*
G01*
X167675000Y-110325000D01*
G75*
G02*
X167575000Y-110425000I-100000J0D01*
G01*
X167375000Y-110425000D01*
G75*
G02*
X167275000Y-110325000I0J100000D01*
G01*
G37*
G36*
G01*
X167925000Y-110325000D02*
X167925000Y-107525000D01*
G75*
G02*
X168025000Y-107425000I100000J0D01*
G01*
X168225000Y-107425000D01*
G75*
G02*
X168325000Y-107525000I0J-100000D01*
G01*
X168325000Y-110325000D01*
G75*
G02*
X168225000Y-110425000I-100000J0D01*
G01*
X168025000Y-110425000D01*
G75*
G02*
X167925000Y-110325000I0J100000D01*
G01*
G37*
G36*
G01*
X168575000Y-110325000D02*
X168575000Y-107525000D01*
G75*
G02*
X168675000Y-107425000I100000J0D01*
G01*
X168875000Y-107425000D01*
G75*
G02*
X168975000Y-107525000I0J-100000D01*
G01*
X168975000Y-110325000D01*
G75*
G02*
X168875000Y-110425000I-100000J0D01*
G01*
X168675000Y-110425000D01*
G75*
G02*
X168575000Y-110325000I0J100000D01*
G01*
G37*
G36*
G01*
X169225000Y-110325000D02*
X169225000Y-107525000D01*
G75*
G02*
X169325000Y-107425000I100000J0D01*
G01*
X169525000Y-107425000D01*
G75*
G02*
X169625000Y-107525000I0J-100000D01*
G01*
X169625000Y-110325000D01*
G75*
G02*
X169525000Y-110425000I-100000J0D01*
G01*
X169325000Y-110425000D01*
G75*
G02*
X169225000Y-110325000I0J100000D01*
G01*
G37*
G36*
G01*
X169875000Y-110325000D02*
X169875000Y-107525000D01*
G75*
G02*
X169975000Y-107425000I100000J0D01*
G01*
X170175000Y-107425000D01*
G75*
G02*
X170275000Y-107525000I0J-100000D01*
G01*
X170275000Y-110325000D01*
G75*
G02*
X170175000Y-110425000I-100000J0D01*
G01*
X169975000Y-110425000D01*
G75*
G02*
X169875000Y-110325000I0J100000D01*
G01*
G37*
G36*
G01*
X170525000Y-110325000D02*
X170525000Y-107525000D01*
G75*
G02*
X170625000Y-107425000I100000J0D01*
G01*
X170825000Y-107425000D01*
G75*
G02*
X170925000Y-107525000I0J-100000D01*
G01*
X170925000Y-110325000D01*
G75*
G02*
X170825000Y-110425000I-100000J0D01*
G01*
X170625000Y-110425000D01*
G75*
G02*
X170525000Y-110325000I0J100000D01*
G01*
G37*
G36*
G01*
X171175000Y-110325000D02*
X171175000Y-107525000D01*
G75*
G02*
X171275000Y-107425000I100000J0D01*
G01*
X171475000Y-107425000D01*
G75*
G02*
X171575000Y-107525000I0J-100000D01*
G01*
X171575000Y-110325000D01*
G75*
G02*
X171475000Y-110425000I-100000J0D01*
G01*
X171275000Y-110425000D01*
G75*
G02*
X171175000Y-110325000I0J100000D01*
G01*
G37*
G36*
G01*
X171825000Y-110325000D02*
X171825000Y-107525000D01*
G75*
G02*
X171925000Y-107425000I100000J0D01*
G01*
X172125000Y-107425000D01*
G75*
G02*
X172225000Y-107525000I0J-100000D01*
G01*
X172225000Y-110325000D01*
G75*
G02*
X172125000Y-110425000I-100000J0D01*
G01*
X171925000Y-110425000D01*
G75*
G02*
X171825000Y-110325000I0J100000D01*
G01*
G37*
G36*
G01*
X172475000Y-110325000D02*
X172475000Y-107525000D01*
G75*
G02*
X172575000Y-107425000I100000J0D01*
G01*
X172775000Y-107425000D01*
G75*
G02*
X172875000Y-107525000I0J-100000D01*
G01*
X172875000Y-110325000D01*
G75*
G02*
X172775000Y-110425000I-100000J0D01*
G01*
X172575000Y-110425000D01*
G75*
G02*
X172475000Y-110325000I0J100000D01*
G01*
G37*
G36*
G01*
X174500000Y-112100000D02*
X174500000Y-111900000D01*
G75*
G02*
X174600000Y-111800000I100000J0D01*
G01*
X177400000Y-111800000D01*
G75*
G02*
X177500000Y-111900000I0J-100000D01*
G01*
X177500000Y-112100000D01*
G75*
G02*
X177400000Y-112200000I-100000J0D01*
G01*
X174600000Y-112200000D01*
G75*
G02*
X174500000Y-112100000I0J100000D01*
G01*
G37*
G36*
G01*
X174500000Y-112750000D02*
X174500000Y-112550000D01*
G75*
G02*
X174600000Y-112450000I100000J0D01*
G01*
X177400000Y-112450000D01*
G75*
G02*
X177500000Y-112550000I0J-100000D01*
G01*
X177500000Y-112750000D01*
G75*
G02*
X177400000Y-112850000I-100000J0D01*
G01*
X174600000Y-112850000D01*
G75*
G02*
X174500000Y-112750000I0J100000D01*
G01*
G37*
G36*
G01*
X174500000Y-113400000D02*
X174500000Y-113200000D01*
G75*
G02*
X174600000Y-113100000I100000J0D01*
G01*
X177400000Y-113100000D01*
G75*
G02*
X177500000Y-113200000I0J-100000D01*
G01*
X177500000Y-113400000D01*
G75*
G02*
X177400000Y-113500000I-100000J0D01*
G01*
X174600000Y-113500000D01*
G75*
G02*
X174500000Y-113400000I0J100000D01*
G01*
G37*
G36*
G01*
X174500000Y-114050000D02*
X174500000Y-113850000D01*
G75*
G02*
X174600000Y-113750000I100000J0D01*
G01*
X177400000Y-113750000D01*
G75*
G02*
X177500000Y-113850000I0J-100000D01*
G01*
X177500000Y-114050000D01*
G75*
G02*
X177400000Y-114150000I-100000J0D01*
G01*
X174600000Y-114150000D01*
G75*
G02*
X174500000Y-114050000I0J100000D01*
G01*
G37*
G36*
G01*
X174500000Y-114700000D02*
X174500000Y-114500000D01*
G75*
G02*
X174600000Y-114400000I100000J0D01*
G01*
X177400000Y-114400000D01*
G75*
G02*
X177500000Y-114500000I0J-100000D01*
G01*
X177500000Y-114700000D01*
G75*
G02*
X177400000Y-114800000I-100000J0D01*
G01*
X174600000Y-114800000D01*
G75*
G02*
X174500000Y-114700000I0J100000D01*
G01*
G37*
G36*
G01*
X174500000Y-115350000D02*
X174500000Y-115150000D01*
G75*
G02*
X174600000Y-115050000I100000J0D01*
G01*
X177400000Y-115050000D01*
G75*
G02*
X177500000Y-115150000I0J-100000D01*
G01*
X177500000Y-115350000D01*
G75*
G02*
X177400000Y-115450000I-100000J0D01*
G01*
X174600000Y-115450000D01*
G75*
G02*
X174500000Y-115350000I0J100000D01*
G01*
G37*
G36*
G01*
X174500000Y-116000000D02*
X174500000Y-115800000D01*
G75*
G02*
X174600000Y-115700000I100000J0D01*
G01*
X177400000Y-115700000D01*
G75*
G02*
X177500000Y-115800000I0J-100000D01*
G01*
X177500000Y-116000000D01*
G75*
G02*
X177400000Y-116100000I-100000J0D01*
G01*
X174600000Y-116100000D01*
G75*
G02*
X174500000Y-116000000I0J100000D01*
G01*
G37*
G36*
G01*
X174500000Y-116650000D02*
X174500000Y-116450000D01*
G75*
G02*
X174600000Y-116350000I100000J0D01*
G01*
X177400000Y-116350000D01*
G75*
G02*
X177500000Y-116450000I0J-100000D01*
G01*
X177500000Y-116650000D01*
G75*
G02*
X177400000Y-116750000I-100000J0D01*
G01*
X174600000Y-116750000D01*
G75*
G02*
X174500000Y-116650000I0J100000D01*
G01*
G37*
G36*
G01*
X174500000Y-117300000D02*
X174500000Y-117100000D01*
G75*
G02*
X174600000Y-117000000I100000J0D01*
G01*
X177400000Y-117000000D01*
G75*
G02*
X177500000Y-117100000I0J-100000D01*
G01*
X177500000Y-117300000D01*
G75*
G02*
X177400000Y-117400000I-100000J0D01*
G01*
X174600000Y-117400000D01*
G75*
G02*
X174500000Y-117300000I0J100000D01*
G01*
G37*
G36*
G01*
X174500000Y-117950000D02*
X174500000Y-117750000D01*
G75*
G02*
X174600000Y-117650000I100000J0D01*
G01*
X177400000Y-117650000D01*
G75*
G02*
X177500000Y-117750000I0J-100000D01*
G01*
X177500000Y-117950000D01*
G75*
G02*
X177400000Y-118050000I-100000J0D01*
G01*
X174600000Y-118050000D01*
G75*
G02*
X174500000Y-117950000I0J100000D01*
G01*
G37*
G36*
G01*
X174500000Y-118600000D02*
X174500000Y-118400000D01*
G75*
G02*
X174600000Y-118300000I100000J0D01*
G01*
X177400000Y-118300000D01*
G75*
G02*
X177500000Y-118400000I0J-100000D01*
G01*
X177500000Y-118600000D01*
G75*
G02*
X177400000Y-118700000I-100000J0D01*
G01*
X174600000Y-118700000D01*
G75*
G02*
X174500000Y-118600000I0J100000D01*
G01*
G37*
G36*
G01*
X174500000Y-119250000D02*
X174500000Y-119050000D01*
G75*
G02*
X174600000Y-118950000I100000J0D01*
G01*
X177400000Y-118950000D01*
G75*
G02*
X177500000Y-119050000I0J-100000D01*
G01*
X177500000Y-119250000D01*
G75*
G02*
X177400000Y-119350000I-100000J0D01*
G01*
X174600000Y-119350000D01*
G75*
G02*
X174500000Y-119250000I0J100000D01*
G01*
G37*
G36*
G01*
X174500000Y-119900000D02*
X174500000Y-119700000D01*
G75*
G02*
X174600000Y-119600000I100000J0D01*
G01*
X177400000Y-119600000D01*
G75*
G02*
X177500000Y-119700000I0J-100000D01*
G01*
X177500000Y-119900000D01*
G75*
G02*
X177400000Y-120000000I-100000J0D01*
G01*
X174600000Y-120000000D01*
G75*
G02*
X174500000Y-119900000I0J100000D01*
G01*
G37*
G36*
G01*
X174500000Y-120550000D02*
X174500000Y-120350000D01*
G75*
G02*
X174600000Y-120250000I100000J0D01*
G01*
X177400000Y-120250000D01*
G75*
G02*
X177500000Y-120350000I0J-100000D01*
G01*
X177500000Y-120550000D01*
G75*
G02*
X177400000Y-120650000I-100000J0D01*
G01*
X174600000Y-120650000D01*
G75*
G02*
X174500000Y-120550000I0J100000D01*
G01*
G37*
G36*
G01*
X174500000Y-121200000D02*
X174500000Y-121000000D01*
G75*
G02*
X174600000Y-120900000I100000J0D01*
G01*
X177400000Y-120900000D01*
G75*
G02*
X177500000Y-121000000I0J-100000D01*
G01*
X177500000Y-121200000D01*
G75*
G02*
X177400000Y-121300000I-100000J0D01*
G01*
X174600000Y-121300000D01*
G75*
G02*
X174500000Y-121200000I0J100000D01*
G01*
G37*
G36*
G01*
X174500000Y-121850000D02*
X174500000Y-121650000D01*
G75*
G02*
X174600000Y-121550000I100000J0D01*
G01*
X177400000Y-121550000D01*
G75*
G02*
X177500000Y-121650000I0J-100000D01*
G01*
X177500000Y-121850000D01*
G75*
G02*
X177400000Y-121950000I-100000J0D01*
G01*
X174600000Y-121950000D01*
G75*
G02*
X174500000Y-121850000I0J100000D01*
G01*
G37*
G36*
G01*
X174500000Y-122500000D02*
X174500000Y-122300000D01*
G75*
G02*
X174600000Y-122200000I100000J0D01*
G01*
X177400000Y-122200000D01*
G75*
G02*
X177500000Y-122300000I0J-100000D01*
G01*
X177500000Y-122500000D01*
G75*
G02*
X177400000Y-122600000I-100000J0D01*
G01*
X174600000Y-122600000D01*
G75*
G02*
X174500000Y-122500000I0J100000D01*
G01*
G37*
G36*
G01*
X174500000Y-123150000D02*
X174500000Y-122950000D01*
G75*
G02*
X174600000Y-122850000I100000J0D01*
G01*
X177400000Y-122850000D01*
G75*
G02*
X177500000Y-122950000I0J-100000D01*
G01*
X177500000Y-123150000D01*
G75*
G02*
X177400000Y-123250000I-100000J0D01*
G01*
X174600000Y-123250000D01*
G75*
G02*
X174500000Y-123150000I0J100000D01*
G01*
G37*
G36*
G01*
X174500000Y-123800000D02*
X174500000Y-123600000D01*
G75*
G02*
X174600000Y-123500000I100000J0D01*
G01*
X177400000Y-123500000D01*
G75*
G02*
X177500000Y-123600000I0J-100000D01*
G01*
X177500000Y-123800000D01*
G75*
G02*
X177400000Y-123900000I-100000J0D01*
G01*
X174600000Y-123900000D01*
G75*
G02*
X174500000Y-123800000I0J100000D01*
G01*
G37*
G36*
G01*
X174500000Y-124450000D02*
X174500000Y-124250000D01*
G75*
G02*
X174600000Y-124150000I100000J0D01*
G01*
X177400000Y-124150000D01*
G75*
G02*
X177500000Y-124250000I0J-100000D01*
G01*
X177500000Y-124450000D01*
G75*
G02*
X177400000Y-124550000I-100000J0D01*
G01*
X174600000Y-124550000D01*
G75*
G02*
X174500000Y-124450000I0J100000D01*
G01*
G37*
G36*
G01*
X174500000Y-125100000D02*
X174500000Y-124900000D01*
G75*
G02*
X174600000Y-124800000I100000J0D01*
G01*
X177400000Y-124800000D01*
G75*
G02*
X177500000Y-124900000I0J-100000D01*
G01*
X177500000Y-125100000D01*
G75*
G02*
X177400000Y-125200000I-100000J0D01*
G01*
X174600000Y-125200000D01*
G75*
G02*
X174500000Y-125100000I0J100000D01*
G01*
G37*
G36*
G01*
X174500000Y-125750000D02*
X174500000Y-125550000D01*
G75*
G02*
X174600000Y-125450000I100000J0D01*
G01*
X177400000Y-125450000D01*
G75*
G02*
X177500000Y-125550000I0J-100000D01*
G01*
X177500000Y-125750000D01*
G75*
G02*
X177400000Y-125850000I-100000J0D01*
G01*
X174600000Y-125850000D01*
G75*
G02*
X174500000Y-125750000I0J100000D01*
G01*
G37*
G36*
G01*
X174500000Y-126400000D02*
X174500000Y-126200000D01*
G75*
G02*
X174600000Y-126100000I100000J0D01*
G01*
X177400000Y-126100000D01*
G75*
G02*
X177500000Y-126200000I0J-100000D01*
G01*
X177500000Y-126400000D01*
G75*
G02*
X177400000Y-126500000I-100000J0D01*
G01*
X174600000Y-126500000D01*
G75*
G02*
X174500000Y-126400000I0J100000D01*
G01*
G37*
G36*
G01*
X174500000Y-127050000D02*
X174500000Y-126850000D01*
G75*
G02*
X174600000Y-126750000I100000J0D01*
G01*
X177400000Y-126750000D01*
G75*
G02*
X177500000Y-126850000I0J-100000D01*
G01*
X177500000Y-127050000D01*
G75*
G02*
X177400000Y-127150000I-100000J0D01*
G01*
X174600000Y-127150000D01*
G75*
G02*
X174500000Y-127050000I0J100000D01*
G01*
G37*
G36*
G01*
X174500000Y-127700000D02*
X174500000Y-127500000D01*
G75*
G02*
X174600000Y-127400000I100000J0D01*
G01*
X177400000Y-127400000D01*
G75*
G02*
X177500000Y-127500000I0J-100000D01*
G01*
X177500000Y-127700000D01*
G75*
G02*
X177400000Y-127800000I-100000J0D01*
G01*
X174600000Y-127800000D01*
G75*
G02*
X174500000Y-127700000I0J100000D01*
G01*
G37*
G36*
G01*
X174500000Y-128350000D02*
X174500000Y-128150000D01*
G75*
G02*
X174600000Y-128050000I100000J0D01*
G01*
X177400000Y-128050000D01*
G75*
G02*
X177500000Y-128150000I0J-100000D01*
G01*
X177500000Y-128350000D01*
G75*
G02*
X177400000Y-128450000I-100000J0D01*
G01*
X174600000Y-128450000D01*
G75*
G02*
X174500000Y-128350000I0J100000D01*
G01*
G37*
G36*
G01*
X174500000Y-129000000D02*
X174500000Y-128800000D01*
G75*
G02*
X174600000Y-128700000I100000J0D01*
G01*
X177400000Y-128700000D01*
G75*
G02*
X177500000Y-128800000I0J-100000D01*
G01*
X177500000Y-129000000D01*
G75*
G02*
X177400000Y-129100000I-100000J0D01*
G01*
X174600000Y-129100000D01*
G75*
G02*
X174500000Y-129000000I0J100000D01*
G01*
G37*
G36*
G01*
X174500000Y-129650000D02*
X174500000Y-129450000D01*
G75*
G02*
X174600000Y-129350000I100000J0D01*
G01*
X177400000Y-129350000D01*
G75*
G02*
X177500000Y-129450000I0J-100000D01*
G01*
X177500000Y-129650000D01*
G75*
G02*
X177400000Y-129750000I-100000J0D01*
G01*
X174600000Y-129750000D01*
G75*
G02*
X174500000Y-129650000I0J100000D01*
G01*
G37*
G36*
G01*
X174500000Y-130300000D02*
X174500000Y-130100000D01*
G75*
G02*
X174600000Y-130000000I100000J0D01*
G01*
X177400000Y-130000000D01*
G75*
G02*
X177500000Y-130100000I0J-100000D01*
G01*
X177500000Y-130300000D01*
G75*
G02*
X177400000Y-130400000I-100000J0D01*
G01*
X174600000Y-130400000D01*
G75*
G02*
X174500000Y-130300000I0J100000D01*
G01*
G37*
G36*
G01*
X174500000Y-130950000D02*
X174500000Y-130750000D01*
G75*
G02*
X174600000Y-130650000I100000J0D01*
G01*
X177400000Y-130650000D01*
G75*
G02*
X177500000Y-130750000I0J-100000D01*
G01*
X177500000Y-130950000D01*
G75*
G02*
X177400000Y-131050000I-100000J0D01*
G01*
X174600000Y-131050000D01*
G75*
G02*
X174500000Y-130950000I0J100000D01*
G01*
G37*
G36*
G01*
X172475000Y-135325000D02*
X172475000Y-132525000D01*
G75*
G02*
X172575000Y-132425000I100000J0D01*
G01*
X172775000Y-132425000D01*
G75*
G02*
X172875000Y-132525000I0J-100000D01*
G01*
X172875000Y-135325000D01*
G75*
G02*
X172775000Y-135425000I-100000J0D01*
G01*
X172575000Y-135425000D01*
G75*
G02*
X172475000Y-135325000I0J100000D01*
G01*
G37*
G36*
G01*
X171825000Y-135325000D02*
X171825000Y-132525000D01*
G75*
G02*
X171925000Y-132425000I100000J0D01*
G01*
X172125000Y-132425000D01*
G75*
G02*
X172225000Y-132525000I0J-100000D01*
G01*
X172225000Y-135325000D01*
G75*
G02*
X172125000Y-135425000I-100000J0D01*
G01*
X171925000Y-135425000D01*
G75*
G02*
X171825000Y-135325000I0J100000D01*
G01*
G37*
G36*
G01*
X171175000Y-135325000D02*
X171175000Y-132525000D01*
G75*
G02*
X171275000Y-132425000I100000J0D01*
G01*
X171475000Y-132425000D01*
G75*
G02*
X171575000Y-132525000I0J-100000D01*
G01*
X171575000Y-135325000D01*
G75*
G02*
X171475000Y-135425000I-100000J0D01*
G01*
X171275000Y-135425000D01*
G75*
G02*
X171175000Y-135325000I0J100000D01*
G01*
G37*
G36*
G01*
X170525000Y-135325000D02*
X170525000Y-132525000D01*
G75*
G02*
X170625000Y-132425000I100000J0D01*
G01*
X170825000Y-132425000D01*
G75*
G02*
X170925000Y-132525000I0J-100000D01*
G01*
X170925000Y-135325000D01*
G75*
G02*
X170825000Y-135425000I-100000J0D01*
G01*
X170625000Y-135425000D01*
G75*
G02*
X170525000Y-135325000I0J100000D01*
G01*
G37*
G36*
G01*
X169875000Y-135325000D02*
X169875000Y-132525000D01*
G75*
G02*
X169975000Y-132425000I100000J0D01*
G01*
X170175000Y-132425000D01*
G75*
G02*
X170275000Y-132525000I0J-100000D01*
G01*
X170275000Y-135325000D01*
G75*
G02*
X170175000Y-135425000I-100000J0D01*
G01*
X169975000Y-135425000D01*
G75*
G02*
X169875000Y-135325000I0J100000D01*
G01*
G37*
G36*
G01*
X169225000Y-135325000D02*
X169225000Y-132525000D01*
G75*
G02*
X169325000Y-132425000I100000J0D01*
G01*
X169525000Y-132425000D01*
G75*
G02*
X169625000Y-132525000I0J-100000D01*
G01*
X169625000Y-135325000D01*
G75*
G02*
X169525000Y-135425000I-100000J0D01*
G01*
X169325000Y-135425000D01*
G75*
G02*
X169225000Y-135325000I0J100000D01*
G01*
G37*
G36*
G01*
X168575000Y-135325000D02*
X168575000Y-132525000D01*
G75*
G02*
X168675000Y-132425000I100000J0D01*
G01*
X168875000Y-132425000D01*
G75*
G02*
X168975000Y-132525000I0J-100000D01*
G01*
X168975000Y-135325000D01*
G75*
G02*
X168875000Y-135425000I-100000J0D01*
G01*
X168675000Y-135425000D01*
G75*
G02*
X168575000Y-135325000I0J100000D01*
G01*
G37*
G36*
G01*
X167925000Y-135325000D02*
X167925000Y-132525000D01*
G75*
G02*
X168025000Y-132425000I100000J0D01*
G01*
X168225000Y-132425000D01*
G75*
G02*
X168325000Y-132525000I0J-100000D01*
G01*
X168325000Y-135325000D01*
G75*
G02*
X168225000Y-135425000I-100000J0D01*
G01*
X168025000Y-135425000D01*
G75*
G02*
X167925000Y-135325000I0J100000D01*
G01*
G37*
G36*
G01*
X167275000Y-135325000D02*
X167275000Y-132525000D01*
G75*
G02*
X167375000Y-132425000I100000J0D01*
G01*
X167575000Y-132425000D01*
G75*
G02*
X167675000Y-132525000I0J-100000D01*
G01*
X167675000Y-135325000D01*
G75*
G02*
X167575000Y-135425000I-100000J0D01*
G01*
X167375000Y-135425000D01*
G75*
G02*
X167275000Y-135325000I0J100000D01*
G01*
G37*
G36*
G01*
X166625000Y-135325000D02*
X166625000Y-132525000D01*
G75*
G02*
X166725000Y-132425000I100000J0D01*
G01*
X166925000Y-132425000D01*
G75*
G02*
X167025000Y-132525000I0J-100000D01*
G01*
X167025000Y-135325000D01*
G75*
G02*
X166925000Y-135425000I-100000J0D01*
G01*
X166725000Y-135425000D01*
G75*
G02*
X166625000Y-135325000I0J100000D01*
G01*
G37*
G36*
G01*
X165975000Y-135325000D02*
X165975000Y-132525000D01*
G75*
G02*
X166075000Y-132425000I100000J0D01*
G01*
X166275000Y-132425000D01*
G75*
G02*
X166375000Y-132525000I0J-100000D01*
G01*
X166375000Y-135325000D01*
G75*
G02*
X166275000Y-135425000I-100000J0D01*
G01*
X166075000Y-135425000D01*
G75*
G02*
X165975000Y-135325000I0J100000D01*
G01*
G37*
G36*
G01*
X165325000Y-135325000D02*
X165325000Y-132525000D01*
G75*
G02*
X165425000Y-132425000I100000J0D01*
G01*
X165625000Y-132425000D01*
G75*
G02*
X165725000Y-132525000I0J-100000D01*
G01*
X165725000Y-135325000D01*
G75*
G02*
X165625000Y-135425000I-100000J0D01*
G01*
X165425000Y-135425000D01*
G75*
G02*
X165325000Y-135325000I0J100000D01*
G01*
G37*
G36*
G01*
X164675000Y-135325000D02*
X164675000Y-132525000D01*
G75*
G02*
X164775000Y-132425000I100000J0D01*
G01*
X164975000Y-132425000D01*
G75*
G02*
X165075000Y-132525000I0J-100000D01*
G01*
X165075000Y-135325000D01*
G75*
G02*
X164975000Y-135425000I-100000J0D01*
G01*
X164775000Y-135425000D01*
G75*
G02*
X164675000Y-135325000I0J100000D01*
G01*
G37*
G36*
G01*
X164025000Y-135325000D02*
X164025000Y-132525000D01*
G75*
G02*
X164125000Y-132425000I100000J0D01*
G01*
X164325000Y-132425000D01*
G75*
G02*
X164425000Y-132525000I0J-100000D01*
G01*
X164425000Y-135325000D01*
G75*
G02*
X164325000Y-135425000I-100000J0D01*
G01*
X164125000Y-135425000D01*
G75*
G02*
X164025000Y-135325000I0J100000D01*
G01*
G37*
G36*
G01*
X163375000Y-135325000D02*
X163375000Y-132525000D01*
G75*
G02*
X163475000Y-132425000I100000J0D01*
G01*
X163675000Y-132425000D01*
G75*
G02*
X163775000Y-132525000I0J-100000D01*
G01*
X163775000Y-135325000D01*
G75*
G02*
X163675000Y-135425000I-100000J0D01*
G01*
X163475000Y-135425000D01*
G75*
G02*
X163375000Y-135325000I0J100000D01*
G01*
G37*
G36*
G01*
X162725000Y-135325000D02*
X162725000Y-132525000D01*
G75*
G02*
X162825000Y-132425000I100000J0D01*
G01*
X163025000Y-132425000D01*
G75*
G02*
X163125000Y-132525000I0J-100000D01*
G01*
X163125000Y-135325000D01*
G75*
G02*
X163025000Y-135425000I-100000J0D01*
G01*
X162825000Y-135425000D01*
G75*
G02*
X162725000Y-135325000I0J100000D01*
G01*
G37*
G36*
G01*
X162075000Y-135325000D02*
X162075000Y-132525000D01*
G75*
G02*
X162175000Y-132425000I100000J0D01*
G01*
X162375000Y-132425000D01*
G75*
G02*
X162475000Y-132525000I0J-100000D01*
G01*
X162475000Y-135325000D01*
G75*
G02*
X162375000Y-135425000I-100000J0D01*
G01*
X162175000Y-135425000D01*
G75*
G02*
X162075000Y-135325000I0J100000D01*
G01*
G37*
G36*
G01*
X161425000Y-135325000D02*
X161425000Y-132525000D01*
G75*
G02*
X161525000Y-132425000I100000J0D01*
G01*
X161725000Y-132425000D01*
G75*
G02*
X161825000Y-132525000I0J-100000D01*
G01*
X161825000Y-135325000D01*
G75*
G02*
X161725000Y-135425000I-100000J0D01*
G01*
X161525000Y-135425000D01*
G75*
G02*
X161425000Y-135325000I0J100000D01*
G01*
G37*
G36*
G01*
X160775000Y-135325000D02*
X160775000Y-132525000D01*
G75*
G02*
X160875000Y-132425000I100000J0D01*
G01*
X161075000Y-132425000D01*
G75*
G02*
X161175000Y-132525000I0J-100000D01*
G01*
X161175000Y-135325000D01*
G75*
G02*
X161075000Y-135425000I-100000J0D01*
G01*
X160875000Y-135425000D01*
G75*
G02*
X160775000Y-135325000I0J100000D01*
G01*
G37*
G36*
G01*
X160125000Y-135325000D02*
X160125000Y-132525000D01*
G75*
G02*
X160225000Y-132425000I100000J0D01*
G01*
X160425000Y-132425000D01*
G75*
G02*
X160525000Y-132525000I0J-100000D01*
G01*
X160525000Y-135325000D01*
G75*
G02*
X160425000Y-135425000I-100000J0D01*
G01*
X160225000Y-135425000D01*
G75*
G02*
X160125000Y-135325000I0J100000D01*
G01*
G37*
G36*
G01*
X155500000Y-130950000D02*
X155500000Y-130750000D01*
G75*
G02*
X155600000Y-130650000I100000J0D01*
G01*
X158400000Y-130650000D01*
G75*
G02*
X158500000Y-130750000I0J-100000D01*
G01*
X158500000Y-130950000D01*
G75*
G02*
X158400000Y-131050000I-100000J0D01*
G01*
X155600000Y-131050000D01*
G75*
G02*
X155500000Y-130950000I0J100000D01*
G01*
G37*
G36*
G01*
X155500000Y-130300000D02*
X155500000Y-130100000D01*
G75*
G02*
X155600000Y-130000000I100000J0D01*
G01*
X158400000Y-130000000D01*
G75*
G02*
X158500000Y-130100000I0J-100000D01*
G01*
X158500000Y-130300000D01*
G75*
G02*
X158400000Y-130400000I-100000J0D01*
G01*
X155600000Y-130400000D01*
G75*
G02*
X155500000Y-130300000I0J100000D01*
G01*
G37*
G36*
G01*
X155500000Y-129650000D02*
X155500000Y-129450000D01*
G75*
G02*
X155600000Y-129350000I100000J0D01*
G01*
X158400000Y-129350000D01*
G75*
G02*
X158500000Y-129450000I0J-100000D01*
G01*
X158500000Y-129650000D01*
G75*
G02*
X158400000Y-129750000I-100000J0D01*
G01*
X155600000Y-129750000D01*
G75*
G02*
X155500000Y-129650000I0J100000D01*
G01*
G37*
G36*
G01*
X155500000Y-129000000D02*
X155500000Y-128800000D01*
G75*
G02*
X155600000Y-128700000I100000J0D01*
G01*
X158400000Y-128700000D01*
G75*
G02*
X158500000Y-128800000I0J-100000D01*
G01*
X158500000Y-129000000D01*
G75*
G02*
X158400000Y-129100000I-100000J0D01*
G01*
X155600000Y-129100000D01*
G75*
G02*
X155500000Y-129000000I0J100000D01*
G01*
G37*
G36*
G01*
X155500000Y-128350000D02*
X155500000Y-128150000D01*
G75*
G02*
X155600000Y-128050000I100000J0D01*
G01*
X158400000Y-128050000D01*
G75*
G02*
X158500000Y-128150000I0J-100000D01*
G01*
X158500000Y-128350000D01*
G75*
G02*
X158400000Y-128450000I-100000J0D01*
G01*
X155600000Y-128450000D01*
G75*
G02*
X155500000Y-128350000I0J100000D01*
G01*
G37*
G36*
G01*
X155500000Y-127700000D02*
X155500000Y-127500000D01*
G75*
G02*
X155600000Y-127400000I100000J0D01*
G01*
X158400000Y-127400000D01*
G75*
G02*
X158500000Y-127500000I0J-100000D01*
G01*
X158500000Y-127700000D01*
G75*
G02*
X158400000Y-127800000I-100000J0D01*
G01*
X155600000Y-127800000D01*
G75*
G02*
X155500000Y-127700000I0J100000D01*
G01*
G37*
G36*
G01*
X155500000Y-127050000D02*
X155500000Y-126850000D01*
G75*
G02*
X155600000Y-126750000I100000J0D01*
G01*
X158400000Y-126750000D01*
G75*
G02*
X158500000Y-126850000I0J-100000D01*
G01*
X158500000Y-127050000D01*
G75*
G02*
X158400000Y-127150000I-100000J0D01*
G01*
X155600000Y-127150000D01*
G75*
G02*
X155500000Y-127050000I0J100000D01*
G01*
G37*
G36*
G01*
X155500000Y-126400000D02*
X155500000Y-126200000D01*
G75*
G02*
X155600000Y-126100000I100000J0D01*
G01*
X158400000Y-126100000D01*
G75*
G02*
X158500000Y-126200000I0J-100000D01*
G01*
X158500000Y-126400000D01*
G75*
G02*
X158400000Y-126500000I-100000J0D01*
G01*
X155600000Y-126500000D01*
G75*
G02*
X155500000Y-126400000I0J100000D01*
G01*
G37*
G36*
G01*
X155500000Y-125750000D02*
X155500000Y-125550000D01*
G75*
G02*
X155600000Y-125450000I100000J0D01*
G01*
X158400000Y-125450000D01*
G75*
G02*
X158500000Y-125550000I0J-100000D01*
G01*
X158500000Y-125750000D01*
G75*
G02*
X158400000Y-125850000I-100000J0D01*
G01*
X155600000Y-125850000D01*
G75*
G02*
X155500000Y-125750000I0J100000D01*
G01*
G37*
G36*
G01*
X155500000Y-125100000D02*
X155500000Y-124900000D01*
G75*
G02*
X155600000Y-124800000I100000J0D01*
G01*
X158400000Y-124800000D01*
G75*
G02*
X158500000Y-124900000I0J-100000D01*
G01*
X158500000Y-125100000D01*
G75*
G02*
X158400000Y-125200000I-100000J0D01*
G01*
X155600000Y-125200000D01*
G75*
G02*
X155500000Y-125100000I0J100000D01*
G01*
G37*
G36*
G01*
X155500000Y-124450000D02*
X155500000Y-124250000D01*
G75*
G02*
X155600000Y-124150000I100000J0D01*
G01*
X158400000Y-124150000D01*
G75*
G02*
X158500000Y-124250000I0J-100000D01*
G01*
X158500000Y-124450000D01*
G75*
G02*
X158400000Y-124550000I-100000J0D01*
G01*
X155600000Y-124550000D01*
G75*
G02*
X155500000Y-124450000I0J100000D01*
G01*
G37*
G36*
G01*
X155500000Y-123800000D02*
X155500000Y-123600000D01*
G75*
G02*
X155600000Y-123500000I100000J0D01*
G01*
X158400000Y-123500000D01*
G75*
G02*
X158500000Y-123600000I0J-100000D01*
G01*
X158500000Y-123800000D01*
G75*
G02*
X158400000Y-123900000I-100000J0D01*
G01*
X155600000Y-123900000D01*
G75*
G02*
X155500000Y-123800000I0J100000D01*
G01*
G37*
G36*
G01*
X155500000Y-123150000D02*
X155500000Y-122950000D01*
G75*
G02*
X155600000Y-122850000I100000J0D01*
G01*
X158400000Y-122850000D01*
G75*
G02*
X158500000Y-122950000I0J-100000D01*
G01*
X158500000Y-123150000D01*
G75*
G02*
X158400000Y-123250000I-100000J0D01*
G01*
X155600000Y-123250000D01*
G75*
G02*
X155500000Y-123150000I0J100000D01*
G01*
G37*
G36*
G01*
X155500000Y-122500000D02*
X155500000Y-122300000D01*
G75*
G02*
X155600000Y-122200000I100000J0D01*
G01*
X158400000Y-122200000D01*
G75*
G02*
X158500000Y-122300000I0J-100000D01*
G01*
X158500000Y-122500000D01*
G75*
G02*
X158400000Y-122600000I-100000J0D01*
G01*
X155600000Y-122600000D01*
G75*
G02*
X155500000Y-122500000I0J100000D01*
G01*
G37*
G36*
G01*
X155500000Y-121850000D02*
X155500000Y-121650000D01*
G75*
G02*
X155600000Y-121550000I100000J0D01*
G01*
X158400000Y-121550000D01*
G75*
G02*
X158500000Y-121650000I0J-100000D01*
G01*
X158500000Y-121850000D01*
G75*
G02*
X158400000Y-121950000I-100000J0D01*
G01*
X155600000Y-121950000D01*
G75*
G02*
X155500000Y-121850000I0J100000D01*
G01*
G37*
G36*
G01*
X155500000Y-121200000D02*
X155500000Y-121000000D01*
G75*
G02*
X155600000Y-120900000I100000J0D01*
G01*
X158400000Y-120900000D01*
G75*
G02*
X158500000Y-121000000I0J-100000D01*
G01*
X158500000Y-121200000D01*
G75*
G02*
X158400000Y-121300000I-100000J0D01*
G01*
X155600000Y-121300000D01*
G75*
G02*
X155500000Y-121200000I0J100000D01*
G01*
G37*
G36*
G01*
X155500000Y-120550000D02*
X155500000Y-120350000D01*
G75*
G02*
X155600000Y-120250000I100000J0D01*
G01*
X158400000Y-120250000D01*
G75*
G02*
X158500000Y-120350000I0J-100000D01*
G01*
X158500000Y-120550000D01*
G75*
G02*
X158400000Y-120650000I-100000J0D01*
G01*
X155600000Y-120650000D01*
G75*
G02*
X155500000Y-120550000I0J100000D01*
G01*
G37*
G36*
G01*
X155500000Y-119900000D02*
X155500000Y-119700000D01*
G75*
G02*
X155600000Y-119600000I100000J0D01*
G01*
X158400000Y-119600000D01*
G75*
G02*
X158500000Y-119700000I0J-100000D01*
G01*
X158500000Y-119900000D01*
G75*
G02*
X158400000Y-120000000I-100000J0D01*
G01*
X155600000Y-120000000D01*
G75*
G02*
X155500000Y-119900000I0J100000D01*
G01*
G37*
G36*
G01*
X155500000Y-119250000D02*
X155500000Y-119050000D01*
G75*
G02*
X155600000Y-118950000I100000J0D01*
G01*
X158400000Y-118950000D01*
G75*
G02*
X158500000Y-119050000I0J-100000D01*
G01*
X158500000Y-119250000D01*
G75*
G02*
X158400000Y-119350000I-100000J0D01*
G01*
X155600000Y-119350000D01*
G75*
G02*
X155500000Y-119250000I0J100000D01*
G01*
G37*
G36*
G01*
X155500000Y-118600000D02*
X155500000Y-118400000D01*
G75*
G02*
X155600000Y-118300000I100000J0D01*
G01*
X158400000Y-118300000D01*
G75*
G02*
X158500000Y-118400000I0J-100000D01*
G01*
X158500000Y-118600000D01*
G75*
G02*
X158400000Y-118700000I-100000J0D01*
G01*
X155600000Y-118700000D01*
G75*
G02*
X155500000Y-118600000I0J100000D01*
G01*
G37*
G36*
G01*
X155500000Y-117950000D02*
X155500000Y-117750000D01*
G75*
G02*
X155600000Y-117650000I100000J0D01*
G01*
X158400000Y-117650000D01*
G75*
G02*
X158500000Y-117750000I0J-100000D01*
G01*
X158500000Y-117950000D01*
G75*
G02*
X158400000Y-118050000I-100000J0D01*
G01*
X155600000Y-118050000D01*
G75*
G02*
X155500000Y-117950000I0J100000D01*
G01*
G37*
G36*
G01*
X155500000Y-117300000D02*
X155500000Y-117100000D01*
G75*
G02*
X155600000Y-117000000I100000J0D01*
G01*
X158400000Y-117000000D01*
G75*
G02*
X158500000Y-117100000I0J-100000D01*
G01*
X158500000Y-117300000D01*
G75*
G02*
X158400000Y-117400000I-100000J0D01*
G01*
X155600000Y-117400000D01*
G75*
G02*
X155500000Y-117300000I0J100000D01*
G01*
G37*
G36*
G01*
X155500000Y-116650000D02*
X155500000Y-116450000D01*
G75*
G02*
X155600000Y-116350000I100000J0D01*
G01*
X158400000Y-116350000D01*
G75*
G02*
X158500000Y-116450000I0J-100000D01*
G01*
X158500000Y-116650000D01*
G75*
G02*
X158400000Y-116750000I-100000J0D01*
G01*
X155600000Y-116750000D01*
G75*
G02*
X155500000Y-116650000I0J100000D01*
G01*
G37*
G36*
G01*
X155500000Y-116000000D02*
X155500000Y-115800000D01*
G75*
G02*
X155600000Y-115700000I100000J0D01*
G01*
X158400000Y-115700000D01*
G75*
G02*
X158500000Y-115800000I0J-100000D01*
G01*
X158500000Y-116000000D01*
G75*
G02*
X158400000Y-116100000I-100000J0D01*
G01*
X155600000Y-116100000D01*
G75*
G02*
X155500000Y-116000000I0J100000D01*
G01*
G37*
G36*
G01*
X155500000Y-115350000D02*
X155500000Y-115150000D01*
G75*
G02*
X155600000Y-115050000I100000J0D01*
G01*
X158400000Y-115050000D01*
G75*
G02*
X158500000Y-115150000I0J-100000D01*
G01*
X158500000Y-115350000D01*
G75*
G02*
X158400000Y-115450000I-100000J0D01*
G01*
X155600000Y-115450000D01*
G75*
G02*
X155500000Y-115350000I0J100000D01*
G01*
G37*
G36*
G01*
X155500000Y-114700000D02*
X155500000Y-114500000D01*
G75*
G02*
X155600000Y-114400000I100000J0D01*
G01*
X158400000Y-114400000D01*
G75*
G02*
X158500000Y-114500000I0J-100000D01*
G01*
X158500000Y-114700000D01*
G75*
G02*
X158400000Y-114800000I-100000J0D01*
G01*
X155600000Y-114800000D01*
G75*
G02*
X155500000Y-114700000I0J100000D01*
G01*
G37*
G36*
G01*
X155500000Y-114050000D02*
X155500000Y-113850000D01*
G75*
G02*
X155600000Y-113750000I100000J0D01*
G01*
X158400000Y-113750000D01*
G75*
G02*
X158500000Y-113850000I0J-100000D01*
G01*
X158500000Y-114050000D01*
G75*
G02*
X158400000Y-114150000I-100000J0D01*
G01*
X155600000Y-114150000D01*
G75*
G02*
X155500000Y-114050000I0J100000D01*
G01*
G37*
G36*
G01*
X155500000Y-113400000D02*
X155500000Y-113200000D01*
G75*
G02*
X155600000Y-113100000I100000J0D01*
G01*
X158400000Y-113100000D01*
G75*
G02*
X158500000Y-113200000I0J-100000D01*
G01*
X158500000Y-113400000D01*
G75*
G02*
X158400000Y-113500000I-100000J0D01*
G01*
X155600000Y-113500000D01*
G75*
G02*
X155500000Y-113400000I0J100000D01*
G01*
G37*
G36*
G01*
X155500000Y-112750000D02*
X155500000Y-112550000D01*
G75*
G02*
X155600000Y-112450000I100000J0D01*
G01*
X158400000Y-112450000D01*
G75*
G02*
X158500000Y-112550000I0J-100000D01*
G01*
X158500000Y-112750000D01*
G75*
G02*
X158400000Y-112850000I-100000J0D01*
G01*
X155600000Y-112850000D01*
G75*
G02*
X155500000Y-112750000I0J100000D01*
G01*
G37*
G36*
G01*
X155500000Y-112100000D02*
X155500000Y-111900000D01*
G75*
G02*
X155600000Y-111800000I100000J0D01*
G01*
X158400000Y-111800000D01*
G75*
G02*
X158500000Y-111900000I0J-100000D01*
G01*
X158500000Y-112100000D01*
G75*
G02*
X158400000Y-112200000I-100000J0D01*
G01*
X155600000Y-112200000D01*
G75*
G02*
X155500000Y-112100000I0J100000D01*
G01*
G37*
G36*
G01*
X160125000Y-64890000D02*
X160125000Y-62090000D01*
G75*
G02*
X160225000Y-61990000I100000J0D01*
G01*
X160425000Y-61990000D01*
G75*
G02*
X160525000Y-62090000I0J-100000D01*
G01*
X160525000Y-64890000D01*
G75*
G02*
X160425000Y-64990000I-100000J0D01*
G01*
X160225000Y-64990000D01*
G75*
G02*
X160125000Y-64890000I0J100000D01*
G01*
G37*
G36*
G01*
X160775000Y-64890000D02*
X160775000Y-62090000D01*
G75*
G02*
X160875000Y-61990000I100000J0D01*
G01*
X161075000Y-61990000D01*
G75*
G02*
X161175000Y-62090000I0J-100000D01*
G01*
X161175000Y-64890000D01*
G75*
G02*
X161075000Y-64990000I-100000J0D01*
G01*
X160875000Y-64990000D01*
G75*
G02*
X160775000Y-64890000I0J100000D01*
G01*
G37*
G36*
G01*
X161425000Y-64890000D02*
X161425000Y-62090000D01*
G75*
G02*
X161525000Y-61990000I100000J0D01*
G01*
X161725000Y-61990000D01*
G75*
G02*
X161825000Y-62090000I0J-100000D01*
G01*
X161825000Y-64890000D01*
G75*
G02*
X161725000Y-64990000I-100000J0D01*
G01*
X161525000Y-64990000D01*
G75*
G02*
X161425000Y-64890000I0J100000D01*
G01*
G37*
G36*
G01*
X162075000Y-64890000D02*
X162075000Y-62090000D01*
G75*
G02*
X162175000Y-61990000I100000J0D01*
G01*
X162375000Y-61990000D01*
G75*
G02*
X162475000Y-62090000I0J-100000D01*
G01*
X162475000Y-64890000D01*
G75*
G02*
X162375000Y-64990000I-100000J0D01*
G01*
X162175000Y-64990000D01*
G75*
G02*
X162075000Y-64890000I0J100000D01*
G01*
G37*
G36*
G01*
X162725000Y-64890000D02*
X162725000Y-62090000D01*
G75*
G02*
X162825000Y-61990000I100000J0D01*
G01*
X163025000Y-61990000D01*
G75*
G02*
X163125000Y-62090000I0J-100000D01*
G01*
X163125000Y-64890000D01*
G75*
G02*
X163025000Y-64990000I-100000J0D01*
G01*
X162825000Y-64990000D01*
G75*
G02*
X162725000Y-64890000I0J100000D01*
G01*
G37*
G36*
G01*
X163375000Y-64890000D02*
X163375000Y-62090000D01*
G75*
G02*
X163475000Y-61990000I100000J0D01*
G01*
X163675000Y-61990000D01*
G75*
G02*
X163775000Y-62090000I0J-100000D01*
G01*
X163775000Y-64890000D01*
G75*
G02*
X163675000Y-64990000I-100000J0D01*
G01*
X163475000Y-64990000D01*
G75*
G02*
X163375000Y-64890000I0J100000D01*
G01*
G37*
G36*
G01*
X164025000Y-64890000D02*
X164025000Y-62090000D01*
G75*
G02*
X164125000Y-61990000I100000J0D01*
G01*
X164325000Y-61990000D01*
G75*
G02*
X164425000Y-62090000I0J-100000D01*
G01*
X164425000Y-64890000D01*
G75*
G02*
X164325000Y-64990000I-100000J0D01*
G01*
X164125000Y-64990000D01*
G75*
G02*
X164025000Y-64890000I0J100000D01*
G01*
G37*
G36*
G01*
X164675000Y-64890000D02*
X164675000Y-62090000D01*
G75*
G02*
X164775000Y-61990000I100000J0D01*
G01*
X164975000Y-61990000D01*
G75*
G02*
X165075000Y-62090000I0J-100000D01*
G01*
X165075000Y-64890000D01*
G75*
G02*
X164975000Y-64990000I-100000J0D01*
G01*
X164775000Y-64990000D01*
G75*
G02*
X164675000Y-64890000I0J100000D01*
G01*
G37*
G36*
G01*
X165325000Y-64890000D02*
X165325000Y-62090000D01*
G75*
G02*
X165425000Y-61990000I100000J0D01*
G01*
X165625000Y-61990000D01*
G75*
G02*
X165725000Y-62090000I0J-100000D01*
G01*
X165725000Y-64890000D01*
G75*
G02*
X165625000Y-64990000I-100000J0D01*
G01*
X165425000Y-64990000D01*
G75*
G02*
X165325000Y-64890000I0J100000D01*
G01*
G37*
G36*
G01*
X165975000Y-64890000D02*
X165975000Y-62090000D01*
G75*
G02*
X166075000Y-61990000I100000J0D01*
G01*
X166275000Y-61990000D01*
G75*
G02*
X166375000Y-62090000I0J-100000D01*
G01*
X166375000Y-64890000D01*
G75*
G02*
X166275000Y-64990000I-100000J0D01*
G01*
X166075000Y-64990000D01*
G75*
G02*
X165975000Y-64890000I0J100000D01*
G01*
G37*
G36*
G01*
X166625000Y-64890000D02*
X166625000Y-62090000D01*
G75*
G02*
X166725000Y-61990000I100000J0D01*
G01*
X166925000Y-61990000D01*
G75*
G02*
X167025000Y-62090000I0J-100000D01*
G01*
X167025000Y-64890000D01*
G75*
G02*
X166925000Y-64990000I-100000J0D01*
G01*
X166725000Y-64990000D01*
G75*
G02*
X166625000Y-64890000I0J100000D01*
G01*
G37*
G36*
G01*
X167275000Y-64890000D02*
X167275000Y-62090000D01*
G75*
G02*
X167375000Y-61990000I100000J0D01*
G01*
X167575000Y-61990000D01*
G75*
G02*
X167675000Y-62090000I0J-100000D01*
G01*
X167675000Y-64890000D01*
G75*
G02*
X167575000Y-64990000I-100000J0D01*
G01*
X167375000Y-64990000D01*
G75*
G02*
X167275000Y-64890000I0J100000D01*
G01*
G37*
G36*
G01*
X167925000Y-64890000D02*
X167925000Y-62090000D01*
G75*
G02*
X168025000Y-61990000I100000J0D01*
G01*
X168225000Y-61990000D01*
G75*
G02*
X168325000Y-62090000I0J-100000D01*
G01*
X168325000Y-64890000D01*
G75*
G02*
X168225000Y-64990000I-100000J0D01*
G01*
X168025000Y-64990000D01*
G75*
G02*
X167925000Y-64890000I0J100000D01*
G01*
G37*
G36*
G01*
X168575000Y-64890000D02*
X168575000Y-62090000D01*
G75*
G02*
X168675000Y-61990000I100000J0D01*
G01*
X168875000Y-61990000D01*
G75*
G02*
X168975000Y-62090000I0J-100000D01*
G01*
X168975000Y-64890000D01*
G75*
G02*
X168875000Y-64990000I-100000J0D01*
G01*
X168675000Y-64990000D01*
G75*
G02*
X168575000Y-64890000I0J100000D01*
G01*
G37*
G36*
G01*
X169225000Y-64890000D02*
X169225000Y-62090000D01*
G75*
G02*
X169325000Y-61990000I100000J0D01*
G01*
X169525000Y-61990000D01*
G75*
G02*
X169625000Y-62090000I0J-100000D01*
G01*
X169625000Y-64890000D01*
G75*
G02*
X169525000Y-64990000I-100000J0D01*
G01*
X169325000Y-64990000D01*
G75*
G02*
X169225000Y-64890000I0J100000D01*
G01*
G37*
G36*
G01*
X169875000Y-64890000D02*
X169875000Y-62090000D01*
G75*
G02*
X169975000Y-61990000I100000J0D01*
G01*
X170175000Y-61990000D01*
G75*
G02*
X170275000Y-62090000I0J-100000D01*
G01*
X170275000Y-64890000D01*
G75*
G02*
X170175000Y-64990000I-100000J0D01*
G01*
X169975000Y-64990000D01*
G75*
G02*
X169875000Y-64890000I0J100000D01*
G01*
G37*
G36*
G01*
X170525000Y-64890000D02*
X170525000Y-62090000D01*
G75*
G02*
X170625000Y-61990000I100000J0D01*
G01*
X170825000Y-61990000D01*
G75*
G02*
X170925000Y-62090000I0J-100000D01*
G01*
X170925000Y-64890000D01*
G75*
G02*
X170825000Y-64990000I-100000J0D01*
G01*
X170625000Y-64990000D01*
G75*
G02*
X170525000Y-64890000I0J100000D01*
G01*
G37*
G36*
G01*
X171175000Y-64890000D02*
X171175000Y-62090000D01*
G75*
G02*
X171275000Y-61990000I100000J0D01*
G01*
X171475000Y-61990000D01*
G75*
G02*
X171575000Y-62090000I0J-100000D01*
G01*
X171575000Y-64890000D01*
G75*
G02*
X171475000Y-64990000I-100000J0D01*
G01*
X171275000Y-64990000D01*
G75*
G02*
X171175000Y-64890000I0J100000D01*
G01*
G37*
G36*
G01*
X171825000Y-64890000D02*
X171825000Y-62090000D01*
G75*
G02*
X171925000Y-61990000I100000J0D01*
G01*
X172125000Y-61990000D01*
G75*
G02*
X172225000Y-62090000I0J-100000D01*
G01*
X172225000Y-64890000D01*
G75*
G02*
X172125000Y-64990000I-100000J0D01*
G01*
X171925000Y-64990000D01*
G75*
G02*
X171825000Y-64890000I0J100000D01*
G01*
G37*
G36*
G01*
X172475000Y-64890000D02*
X172475000Y-62090000D01*
G75*
G02*
X172575000Y-61990000I100000J0D01*
G01*
X172775000Y-61990000D01*
G75*
G02*
X172875000Y-62090000I0J-100000D01*
G01*
X172875000Y-64890000D01*
G75*
G02*
X172775000Y-64990000I-100000J0D01*
G01*
X172575000Y-64990000D01*
G75*
G02*
X172475000Y-64890000I0J100000D01*
G01*
G37*
G36*
G01*
X174500000Y-66665000D02*
X174500000Y-66465000D01*
G75*
G02*
X174600000Y-66365000I100000J0D01*
G01*
X177400000Y-66365000D01*
G75*
G02*
X177500000Y-66465000I0J-100000D01*
G01*
X177500000Y-66665000D01*
G75*
G02*
X177400000Y-66765000I-100000J0D01*
G01*
X174600000Y-66765000D01*
G75*
G02*
X174500000Y-66665000I0J100000D01*
G01*
G37*
G36*
G01*
X174500000Y-67315000D02*
X174500000Y-67115000D01*
G75*
G02*
X174600000Y-67015000I100000J0D01*
G01*
X177400000Y-67015000D01*
G75*
G02*
X177500000Y-67115000I0J-100000D01*
G01*
X177500000Y-67315000D01*
G75*
G02*
X177400000Y-67415000I-100000J0D01*
G01*
X174600000Y-67415000D01*
G75*
G02*
X174500000Y-67315000I0J100000D01*
G01*
G37*
G36*
G01*
X174500000Y-67965000D02*
X174500000Y-67765000D01*
G75*
G02*
X174600000Y-67665000I100000J0D01*
G01*
X177400000Y-67665000D01*
G75*
G02*
X177500000Y-67765000I0J-100000D01*
G01*
X177500000Y-67965000D01*
G75*
G02*
X177400000Y-68065000I-100000J0D01*
G01*
X174600000Y-68065000D01*
G75*
G02*
X174500000Y-67965000I0J100000D01*
G01*
G37*
G36*
G01*
X174500000Y-68615000D02*
X174500000Y-68415000D01*
G75*
G02*
X174600000Y-68315000I100000J0D01*
G01*
X177400000Y-68315000D01*
G75*
G02*
X177500000Y-68415000I0J-100000D01*
G01*
X177500000Y-68615000D01*
G75*
G02*
X177400000Y-68715000I-100000J0D01*
G01*
X174600000Y-68715000D01*
G75*
G02*
X174500000Y-68615000I0J100000D01*
G01*
G37*
G36*
G01*
X174500000Y-69265000D02*
X174500000Y-69065000D01*
G75*
G02*
X174600000Y-68965000I100000J0D01*
G01*
X177400000Y-68965000D01*
G75*
G02*
X177500000Y-69065000I0J-100000D01*
G01*
X177500000Y-69265000D01*
G75*
G02*
X177400000Y-69365000I-100000J0D01*
G01*
X174600000Y-69365000D01*
G75*
G02*
X174500000Y-69265000I0J100000D01*
G01*
G37*
G36*
G01*
X174500000Y-69915000D02*
X174500000Y-69715000D01*
G75*
G02*
X174600000Y-69615000I100000J0D01*
G01*
X177400000Y-69615000D01*
G75*
G02*
X177500000Y-69715000I0J-100000D01*
G01*
X177500000Y-69915000D01*
G75*
G02*
X177400000Y-70015000I-100000J0D01*
G01*
X174600000Y-70015000D01*
G75*
G02*
X174500000Y-69915000I0J100000D01*
G01*
G37*
G36*
G01*
X174500000Y-70565000D02*
X174500000Y-70365000D01*
G75*
G02*
X174600000Y-70265000I100000J0D01*
G01*
X177400000Y-70265000D01*
G75*
G02*
X177500000Y-70365000I0J-100000D01*
G01*
X177500000Y-70565000D01*
G75*
G02*
X177400000Y-70665000I-100000J0D01*
G01*
X174600000Y-70665000D01*
G75*
G02*
X174500000Y-70565000I0J100000D01*
G01*
G37*
G36*
G01*
X174500000Y-71215000D02*
X174500000Y-71015000D01*
G75*
G02*
X174600000Y-70915000I100000J0D01*
G01*
X177400000Y-70915000D01*
G75*
G02*
X177500000Y-71015000I0J-100000D01*
G01*
X177500000Y-71215000D01*
G75*
G02*
X177400000Y-71315000I-100000J0D01*
G01*
X174600000Y-71315000D01*
G75*
G02*
X174500000Y-71215000I0J100000D01*
G01*
G37*
G36*
G01*
X174500000Y-71865000D02*
X174500000Y-71665000D01*
G75*
G02*
X174600000Y-71565000I100000J0D01*
G01*
X177400000Y-71565000D01*
G75*
G02*
X177500000Y-71665000I0J-100000D01*
G01*
X177500000Y-71865000D01*
G75*
G02*
X177400000Y-71965000I-100000J0D01*
G01*
X174600000Y-71965000D01*
G75*
G02*
X174500000Y-71865000I0J100000D01*
G01*
G37*
G36*
G01*
X174500000Y-72515000D02*
X174500000Y-72315000D01*
G75*
G02*
X174600000Y-72215000I100000J0D01*
G01*
X177400000Y-72215000D01*
G75*
G02*
X177500000Y-72315000I0J-100000D01*
G01*
X177500000Y-72515000D01*
G75*
G02*
X177400000Y-72615000I-100000J0D01*
G01*
X174600000Y-72615000D01*
G75*
G02*
X174500000Y-72515000I0J100000D01*
G01*
G37*
G36*
G01*
X174500000Y-73165000D02*
X174500000Y-72965000D01*
G75*
G02*
X174600000Y-72865000I100000J0D01*
G01*
X177400000Y-72865000D01*
G75*
G02*
X177500000Y-72965000I0J-100000D01*
G01*
X177500000Y-73165000D01*
G75*
G02*
X177400000Y-73265000I-100000J0D01*
G01*
X174600000Y-73265000D01*
G75*
G02*
X174500000Y-73165000I0J100000D01*
G01*
G37*
G36*
G01*
X174500000Y-73815000D02*
X174500000Y-73615000D01*
G75*
G02*
X174600000Y-73515000I100000J0D01*
G01*
X177400000Y-73515000D01*
G75*
G02*
X177500000Y-73615000I0J-100000D01*
G01*
X177500000Y-73815000D01*
G75*
G02*
X177400000Y-73915000I-100000J0D01*
G01*
X174600000Y-73915000D01*
G75*
G02*
X174500000Y-73815000I0J100000D01*
G01*
G37*
G36*
G01*
X174500000Y-74465000D02*
X174500000Y-74265000D01*
G75*
G02*
X174600000Y-74165000I100000J0D01*
G01*
X177400000Y-74165000D01*
G75*
G02*
X177500000Y-74265000I0J-100000D01*
G01*
X177500000Y-74465000D01*
G75*
G02*
X177400000Y-74565000I-100000J0D01*
G01*
X174600000Y-74565000D01*
G75*
G02*
X174500000Y-74465000I0J100000D01*
G01*
G37*
G36*
G01*
X174500000Y-75115000D02*
X174500000Y-74915000D01*
G75*
G02*
X174600000Y-74815000I100000J0D01*
G01*
X177400000Y-74815000D01*
G75*
G02*
X177500000Y-74915000I0J-100000D01*
G01*
X177500000Y-75115000D01*
G75*
G02*
X177400000Y-75215000I-100000J0D01*
G01*
X174600000Y-75215000D01*
G75*
G02*
X174500000Y-75115000I0J100000D01*
G01*
G37*
G36*
G01*
X174500000Y-75765000D02*
X174500000Y-75565000D01*
G75*
G02*
X174600000Y-75465000I100000J0D01*
G01*
X177400000Y-75465000D01*
G75*
G02*
X177500000Y-75565000I0J-100000D01*
G01*
X177500000Y-75765000D01*
G75*
G02*
X177400000Y-75865000I-100000J0D01*
G01*
X174600000Y-75865000D01*
G75*
G02*
X174500000Y-75765000I0J100000D01*
G01*
G37*
G36*
G01*
X174500000Y-76415000D02*
X174500000Y-76215000D01*
G75*
G02*
X174600000Y-76115000I100000J0D01*
G01*
X177400000Y-76115000D01*
G75*
G02*
X177500000Y-76215000I0J-100000D01*
G01*
X177500000Y-76415000D01*
G75*
G02*
X177400000Y-76515000I-100000J0D01*
G01*
X174600000Y-76515000D01*
G75*
G02*
X174500000Y-76415000I0J100000D01*
G01*
G37*
G36*
G01*
X174500000Y-77065000D02*
X174500000Y-76865000D01*
G75*
G02*
X174600000Y-76765000I100000J0D01*
G01*
X177400000Y-76765000D01*
G75*
G02*
X177500000Y-76865000I0J-100000D01*
G01*
X177500000Y-77065000D01*
G75*
G02*
X177400000Y-77165000I-100000J0D01*
G01*
X174600000Y-77165000D01*
G75*
G02*
X174500000Y-77065000I0J100000D01*
G01*
G37*
G36*
G01*
X174500000Y-77715000D02*
X174500000Y-77515000D01*
G75*
G02*
X174600000Y-77415000I100000J0D01*
G01*
X177400000Y-77415000D01*
G75*
G02*
X177500000Y-77515000I0J-100000D01*
G01*
X177500000Y-77715000D01*
G75*
G02*
X177400000Y-77815000I-100000J0D01*
G01*
X174600000Y-77815000D01*
G75*
G02*
X174500000Y-77715000I0J100000D01*
G01*
G37*
G36*
G01*
X174500000Y-78365000D02*
X174500000Y-78165000D01*
G75*
G02*
X174600000Y-78065000I100000J0D01*
G01*
X177400000Y-78065000D01*
G75*
G02*
X177500000Y-78165000I0J-100000D01*
G01*
X177500000Y-78365000D01*
G75*
G02*
X177400000Y-78465000I-100000J0D01*
G01*
X174600000Y-78465000D01*
G75*
G02*
X174500000Y-78365000I0J100000D01*
G01*
G37*
G36*
G01*
X174500000Y-79015000D02*
X174500000Y-78815000D01*
G75*
G02*
X174600000Y-78715000I100000J0D01*
G01*
X177400000Y-78715000D01*
G75*
G02*
X177500000Y-78815000I0J-100000D01*
G01*
X177500000Y-79015000D01*
G75*
G02*
X177400000Y-79115000I-100000J0D01*
G01*
X174600000Y-79115000D01*
G75*
G02*
X174500000Y-79015000I0J100000D01*
G01*
G37*
G36*
G01*
X174500000Y-79665000D02*
X174500000Y-79465000D01*
G75*
G02*
X174600000Y-79365000I100000J0D01*
G01*
X177400000Y-79365000D01*
G75*
G02*
X177500000Y-79465000I0J-100000D01*
G01*
X177500000Y-79665000D01*
G75*
G02*
X177400000Y-79765000I-100000J0D01*
G01*
X174600000Y-79765000D01*
G75*
G02*
X174500000Y-79665000I0J100000D01*
G01*
G37*
G36*
G01*
X174500000Y-80315000D02*
X174500000Y-80115000D01*
G75*
G02*
X174600000Y-80015000I100000J0D01*
G01*
X177400000Y-80015000D01*
G75*
G02*
X177500000Y-80115000I0J-100000D01*
G01*
X177500000Y-80315000D01*
G75*
G02*
X177400000Y-80415000I-100000J0D01*
G01*
X174600000Y-80415000D01*
G75*
G02*
X174500000Y-80315000I0J100000D01*
G01*
G37*
G36*
G01*
X174500000Y-80965000D02*
X174500000Y-80765000D01*
G75*
G02*
X174600000Y-80665000I100000J0D01*
G01*
X177400000Y-80665000D01*
G75*
G02*
X177500000Y-80765000I0J-100000D01*
G01*
X177500000Y-80965000D01*
G75*
G02*
X177400000Y-81065000I-100000J0D01*
G01*
X174600000Y-81065000D01*
G75*
G02*
X174500000Y-80965000I0J100000D01*
G01*
G37*
G36*
G01*
X174500000Y-81615000D02*
X174500000Y-81415000D01*
G75*
G02*
X174600000Y-81315000I100000J0D01*
G01*
X177400000Y-81315000D01*
G75*
G02*
X177500000Y-81415000I0J-100000D01*
G01*
X177500000Y-81615000D01*
G75*
G02*
X177400000Y-81715000I-100000J0D01*
G01*
X174600000Y-81715000D01*
G75*
G02*
X174500000Y-81615000I0J100000D01*
G01*
G37*
G36*
G01*
X174500000Y-82265000D02*
X174500000Y-82065000D01*
G75*
G02*
X174600000Y-81965000I100000J0D01*
G01*
X177400000Y-81965000D01*
G75*
G02*
X177500000Y-82065000I0J-100000D01*
G01*
X177500000Y-82265000D01*
G75*
G02*
X177400000Y-82365000I-100000J0D01*
G01*
X174600000Y-82365000D01*
G75*
G02*
X174500000Y-82265000I0J100000D01*
G01*
G37*
G36*
G01*
X174500000Y-82915000D02*
X174500000Y-82715000D01*
G75*
G02*
X174600000Y-82615000I100000J0D01*
G01*
X177400000Y-82615000D01*
G75*
G02*
X177500000Y-82715000I0J-100000D01*
G01*
X177500000Y-82915000D01*
G75*
G02*
X177400000Y-83015000I-100000J0D01*
G01*
X174600000Y-83015000D01*
G75*
G02*
X174500000Y-82915000I0J100000D01*
G01*
G37*
G36*
G01*
X174500000Y-83565000D02*
X174500000Y-83365000D01*
G75*
G02*
X174600000Y-83265000I100000J0D01*
G01*
X177400000Y-83265000D01*
G75*
G02*
X177500000Y-83365000I0J-100000D01*
G01*
X177500000Y-83565000D01*
G75*
G02*
X177400000Y-83665000I-100000J0D01*
G01*
X174600000Y-83665000D01*
G75*
G02*
X174500000Y-83565000I0J100000D01*
G01*
G37*
G36*
G01*
X174500000Y-84215000D02*
X174500000Y-84015000D01*
G75*
G02*
X174600000Y-83915000I100000J0D01*
G01*
X177400000Y-83915000D01*
G75*
G02*
X177500000Y-84015000I0J-100000D01*
G01*
X177500000Y-84215000D01*
G75*
G02*
X177400000Y-84315000I-100000J0D01*
G01*
X174600000Y-84315000D01*
G75*
G02*
X174500000Y-84215000I0J100000D01*
G01*
G37*
G36*
G01*
X174500000Y-84865000D02*
X174500000Y-84665000D01*
G75*
G02*
X174600000Y-84565000I100000J0D01*
G01*
X177400000Y-84565000D01*
G75*
G02*
X177500000Y-84665000I0J-100000D01*
G01*
X177500000Y-84865000D01*
G75*
G02*
X177400000Y-84965000I-100000J0D01*
G01*
X174600000Y-84965000D01*
G75*
G02*
X174500000Y-84865000I0J100000D01*
G01*
G37*
G36*
G01*
X174500000Y-85515000D02*
X174500000Y-85315000D01*
G75*
G02*
X174600000Y-85215000I100000J0D01*
G01*
X177400000Y-85215000D01*
G75*
G02*
X177500000Y-85315000I0J-100000D01*
G01*
X177500000Y-85515000D01*
G75*
G02*
X177400000Y-85615000I-100000J0D01*
G01*
X174600000Y-85615000D01*
G75*
G02*
X174500000Y-85515000I0J100000D01*
G01*
G37*
G36*
G01*
X172475000Y-89890000D02*
X172475000Y-87090000D01*
G75*
G02*
X172575000Y-86990000I100000J0D01*
G01*
X172775000Y-86990000D01*
G75*
G02*
X172875000Y-87090000I0J-100000D01*
G01*
X172875000Y-89890000D01*
G75*
G02*
X172775000Y-89990000I-100000J0D01*
G01*
X172575000Y-89990000D01*
G75*
G02*
X172475000Y-89890000I0J100000D01*
G01*
G37*
G36*
G01*
X171825000Y-89890000D02*
X171825000Y-87090000D01*
G75*
G02*
X171925000Y-86990000I100000J0D01*
G01*
X172125000Y-86990000D01*
G75*
G02*
X172225000Y-87090000I0J-100000D01*
G01*
X172225000Y-89890000D01*
G75*
G02*
X172125000Y-89990000I-100000J0D01*
G01*
X171925000Y-89990000D01*
G75*
G02*
X171825000Y-89890000I0J100000D01*
G01*
G37*
G36*
G01*
X171175000Y-89890000D02*
X171175000Y-87090000D01*
G75*
G02*
X171275000Y-86990000I100000J0D01*
G01*
X171475000Y-86990000D01*
G75*
G02*
X171575000Y-87090000I0J-100000D01*
G01*
X171575000Y-89890000D01*
G75*
G02*
X171475000Y-89990000I-100000J0D01*
G01*
X171275000Y-89990000D01*
G75*
G02*
X171175000Y-89890000I0J100000D01*
G01*
G37*
G36*
G01*
X170525000Y-89890000D02*
X170525000Y-87090000D01*
G75*
G02*
X170625000Y-86990000I100000J0D01*
G01*
X170825000Y-86990000D01*
G75*
G02*
X170925000Y-87090000I0J-100000D01*
G01*
X170925000Y-89890000D01*
G75*
G02*
X170825000Y-89990000I-100000J0D01*
G01*
X170625000Y-89990000D01*
G75*
G02*
X170525000Y-89890000I0J100000D01*
G01*
G37*
G36*
G01*
X169875000Y-89890000D02*
X169875000Y-87090000D01*
G75*
G02*
X169975000Y-86990000I100000J0D01*
G01*
X170175000Y-86990000D01*
G75*
G02*
X170275000Y-87090000I0J-100000D01*
G01*
X170275000Y-89890000D01*
G75*
G02*
X170175000Y-89990000I-100000J0D01*
G01*
X169975000Y-89990000D01*
G75*
G02*
X169875000Y-89890000I0J100000D01*
G01*
G37*
G36*
G01*
X169225000Y-89890000D02*
X169225000Y-87090000D01*
G75*
G02*
X169325000Y-86990000I100000J0D01*
G01*
X169525000Y-86990000D01*
G75*
G02*
X169625000Y-87090000I0J-100000D01*
G01*
X169625000Y-89890000D01*
G75*
G02*
X169525000Y-89990000I-100000J0D01*
G01*
X169325000Y-89990000D01*
G75*
G02*
X169225000Y-89890000I0J100000D01*
G01*
G37*
G36*
G01*
X168575000Y-89890000D02*
X168575000Y-87090000D01*
G75*
G02*
X168675000Y-86990000I100000J0D01*
G01*
X168875000Y-86990000D01*
G75*
G02*
X168975000Y-87090000I0J-100000D01*
G01*
X168975000Y-89890000D01*
G75*
G02*
X168875000Y-89990000I-100000J0D01*
G01*
X168675000Y-89990000D01*
G75*
G02*
X168575000Y-89890000I0J100000D01*
G01*
G37*
G36*
G01*
X167925000Y-89890000D02*
X167925000Y-87090000D01*
G75*
G02*
X168025000Y-86990000I100000J0D01*
G01*
X168225000Y-86990000D01*
G75*
G02*
X168325000Y-87090000I0J-100000D01*
G01*
X168325000Y-89890000D01*
G75*
G02*
X168225000Y-89990000I-100000J0D01*
G01*
X168025000Y-89990000D01*
G75*
G02*
X167925000Y-89890000I0J100000D01*
G01*
G37*
G36*
G01*
X167275000Y-89890000D02*
X167275000Y-87090000D01*
G75*
G02*
X167375000Y-86990000I100000J0D01*
G01*
X167575000Y-86990000D01*
G75*
G02*
X167675000Y-87090000I0J-100000D01*
G01*
X167675000Y-89890000D01*
G75*
G02*
X167575000Y-89990000I-100000J0D01*
G01*
X167375000Y-89990000D01*
G75*
G02*
X167275000Y-89890000I0J100000D01*
G01*
G37*
G36*
G01*
X166625000Y-89890000D02*
X166625000Y-87090000D01*
G75*
G02*
X166725000Y-86990000I100000J0D01*
G01*
X166925000Y-86990000D01*
G75*
G02*
X167025000Y-87090000I0J-100000D01*
G01*
X167025000Y-89890000D01*
G75*
G02*
X166925000Y-89990000I-100000J0D01*
G01*
X166725000Y-89990000D01*
G75*
G02*
X166625000Y-89890000I0J100000D01*
G01*
G37*
G36*
G01*
X165975000Y-89890000D02*
X165975000Y-87090000D01*
G75*
G02*
X166075000Y-86990000I100000J0D01*
G01*
X166275000Y-86990000D01*
G75*
G02*
X166375000Y-87090000I0J-100000D01*
G01*
X166375000Y-89890000D01*
G75*
G02*
X166275000Y-89990000I-100000J0D01*
G01*
X166075000Y-89990000D01*
G75*
G02*
X165975000Y-89890000I0J100000D01*
G01*
G37*
G36*
G01*
X165325000Y-89890000D02*
X165325000Y-87090000D01*
G75*
G02*
X165425000Y-86990000I100000J0D01*
G01*
X165625000Y-86990000D01*
G75*
G02*
X165725000Y-87090000I0J-100000D01*
G01*
X165725000Y-89890000D01*
G75*
G02*
X165625000Y-89990000I-100000J0D01*
G01*
X165425000Y-89990000D01*
G75*
G02*
X165325000Y-89890000I0J100000D01*
G01*
G37*
G36*
G01*
X164675000Y-89890000D02*
X164675000Y-87090000D01*
G75*
G02*
X164775000Y-86990000I100000J0D01*
G01*
X164975000Y-86990000D01*
G75*
G02*
X165075000Y-87090000I0J-100000D01*
G01*
X165075000Y-89890000D01*
G75*
G02*
X164975000Y-89990000I-100000J0D01*
G01*
X164775000Y-89990000D01*
G75*
G02*
X164675000Y-89890000I0J100000D01*
G01*
G37*
G36*
G01*
X164025000Y-89890000D02*
X164025000Y-87090000D01*
G75*
G02*
X164125000Y-86990000I100000J0D01*
G01*
X164325000Y-86990000D01*
G75*
G02*
X164425000Y-87090000I0J-100000D01*
G01*
X164425000Y-89890000D01*
G75*
G02*
X164325000Y-89990000I-100000J0D01*
G01*
X164125000Y-89990000D01*
G75*
G02*
X164025000Y-89890000I0J100000D01*
G01*
G37*
G36*
G01*
X163375000Y-89890000D02*
X163375000Y-87090000D01*
G75*
G02*
X163475000Y-86990000I100000J0D01*
G01*
X163675000Y-86990000D01*
G75*
G02*
X163775000Y-87090000I0J-100000D01*
G01*
X163775000Y-89890000D01*
G75*
G02*
X163675000Y-89990000I-100000J0D01*
G01*
X163475000Y-89990000D01*
G75*
G02*
X163375000Y-89890000I0J100000D01*
G01*
G37*
G36*
G01*
X162725000Y-89890000D02*
X162725000Y-87090000D01*
G75*
G02*
X162825000Y-86990000I100000J0D01*
G01*
X163025000Y-86990000D01*
G75*
G02*
X163125000Y-87090000I0J-100000D01*
G01*
X163125000Y-89890000D01*
G75*
G02*
X163025000Y-89990000I-100000J0D01*
G01*
X162825000Y-89990000D01*
G75*
G02*
X162725000Y-89890000I0J100000D01*
G01*
G37*
G36*
G01*
X162075000Y-89890000D02*
X162075000Y-87090000D01*
G75*
G02*
X162175000Y-86990000I100000J0D01*
G01*
X162375000Y-86990000D01*
G75*
G02*
X162475000Y-87090000I0J-100000D01*
G01*
X162475000Y-89890000D01*
G75*
G02*
X162375000Y-89990000I-100000J0D01*
G01*
X162175000Y-89990000D01*
G75*
G02*
X162075000Y-89890000I0J100000D01*
G01*
G37*
G36*
G01*
X161425000Y-89890000D02*
X161425000Y-87090000D01*
G75*
G02*
X161525000Y-86990000I100000J0D01*
G01*
X161725000Y-86990000D01*
G75*
G02*
X161825000Y-87090000I0J-100000D01*
G01*
X161825000Y-89890000D01*
G75*
G02*
X161725000Y-89990000I-100000J0D01*
G01*
X161525000Y-89990000D01*
G75*
G02*
X161425000Y-89890000I0J100000D01*
G01*
G37*
G36*
G01*
X160775000Y-89890000D02*
X160775000Y-87090000D01*
G75*
G02*
X160875000Y-86990000I100000J0D01*
G01*
X161075000Y-86990000D01*
G75*
G02*
X161175000Y-87090000I0J-100000D01*
G01*
X161175000Y-89890000D01*
G75*
G02*
X161075000Y-89990000I-100000J0D01*
G01*
X160875000Y-89990000D01*
G75*
G02*
X160775000Y-89890000I0J100000D01*
G01*
G37*
G36*
G01*
X160125000Y-89890000D02*
X160125000Y-87090000D01*
G75*
G02*
X160225000Y-86990000I100000J0D01*
G01*
X160425000Y-86990000D01*
G75*
G02*
X160525000Y-87090000I0J-100000D01*
G01*
X160525000Y-89890000D01*
G75*
G02*
X160425000Y-89990000I-100000J0D01*
G01*
X160225000Y-89990000D01*
G75*
G02*
X160125000Y-89890000I0J100000D01*
G01*
G37*
G36*
G01*
X155500000Y-85515000D02*
X155500000Y-85315000D01*
G75*
G02*
X155600000Y-85215000I100000J0D01*
G01*
X158400000Y-85215000D01*
G75*
G02*
X158500000Y-85315000I0J-100000D01*
G01*
X158500000Y-85515000D01*
G75*
G02*
X158400000Y-85615000I-100000J0D01*
G01*
X155600000Y-85615000D01*
G75*
G02*
X155500000Y-85515000I0J100000D01*
G01*
G37*
G36*
G01*
X155500000Y-84865000D02*
X155500000Y-84665000D01*
G75*
G02*
X155600000Y-84565000I100000J0D01*
G01*
X158400000Y-84565000D01*
G75*
G02*
X158500000Y-84665000I0J-100000D01*
G01*
X158500000Y-84865000D01*
G75*
G02*
X158400000Y-84965000I-100000J0D01*
G01*
X155600000Y-84965000D01*
G75*
G02*
X155500000Y-84865000I0J100000D01*
G01*
G37*
G36*
G01*
X155500000Y-84215000D02*
X155500000Y-84015000D01*
G75*
G02*
X155600000Y-83915000I100000J0D01*
G01*
X158400000Y-83915000D01*
G75*
G02*
X158500000Y-84015000I0J-100000D01*
G01*
X158500000Y-84215000D01*
G75*
G02*
X158400000Y-84315000I-100000J0D01*
G01*
X155600000Y-84315000D01*
G75*
G02*
X155500000Y-84215000I0J100000D01*
G01*
G37*
G36*
G01*
X155500000Y-83565000D02*
X155500000Y-83365000D01*
G75*
G02*
X155600000Y-83265000I100000J0D01*
G01*
X158400000Y-83265000D01*
G75*
G02*
X158500000Y-83365000I0J-100000D01*
G01*
X158500000Y-83565000D01*
G75*
G02*
X158400000Y-83665000I-100000J0D01*
G01*
X155600000Y-83665000D01*
G75*
G02*
X155500000Y-83565000I0J100000D01*
G01*
G37*
G36*
G01*
X155500000Y-82915000D02*
X155500000Y-82715000D01*
G75*
G02*
X155600000Y-82615000I100000J0D01*
G01*
X158400000Y-82615000D01*
G75*
G02*
X158500000Y-82715000I0J-100000D01*
G01*
X158500000Y-82915000D01*
G75*
G02*
X158400000Y-83015000I-100000J0D01*
G01*
X155600000Y-83015000D01*
G75*
G02*
X155500000Y-82915000I0J100000D01*
G01*
G37*
G36*
G01*
X155500000Y-82265000D02*
X155500000Y-82065000D01*
G75*
G02*
X155600000Y-81965000I100000J0D01*
G01*
X158400000Y-81965000D01*
G75*
G02*
X158500000Y-82065000I0J-100000D01*
G01*
X158500000Y-82265000D01*
G75*
G02*
X158400000Y-82365000I-100000J0D01*
G01*
X155600000Y-82365000D01*
G75*
G02*
X155500000Y-82265000I0J100000D01*
G01*
G37*
G36*
G01*
X155500000Y-81615000D02*
X155500000Y-81415000D01*
G75*
G02*
X155600000Y-81315000I100000J0D01*
G01*
X158400000Y-81315000D01*
G75*
G02*
X158500000Y-81415000I0J-100000D01*
G01*
X158500000Y-81615000D01*
G75*
G02*
X158400000Y-81715000I-100000J0D01*
G01*
X155600000Y-81715000D01*
G75*
G02*
X155500000Y-81615000I0J100000D01*
G01*
G37*
G36*
G01*
X155500000Y-80965000D02*
X155500000Y-80765000D01*
G75*
G02*
X155600000Y-80665000I100000J0D01*
G01*
X158400000Y-80665000D01*
G75*
G02*
X158500000Y-80765000I0J-100000D01*
G01*
X158500000Y-80965000D01*
G75*
G02*
X158400000Y-81065000I-100000J0D01*
G01*
X155600000Y-81065000D01*
G75*
G02*
X155500000Y-80965000I0J100000D01*
G01*
G37*
G36*
G01*
X155500000Y-80315000D02*
X155500000Y-80115000D01*
G75*
G02*
X155600000Y-80015000I100000J0D01*
G01*
X158400000Y-80015000D01*
G75*
G02*
X158500000Y-80115000I0J-100000D01*
G01*
X158500000Y-80315000D01*
G75*
G02*
X158400000Y-80415000I-100000J0D01*
G01*
X155600000Y-80415000D01*
G75*
G02*
X155500000Y-80315000I0J100000D01*
G01*
G37*
G36*
G01*
X155500000Y-79665000D02*
X155500000Y-79465000D01*
G75*
G02*
X155600000Y-79365000I100000J0D01*
G01*
X158400000Y-79365000D01*
G75*
G02*
X158500000Y-79465000I0J-100000D01*
G01*
X158500000Y-79665000D01*
G75*
G02*
X158400000Y-79765000I-100000J0D01*
G01*
X155600000Y-79765000D01*
G75*
G02*
X155500000Y-79665000I0J100000D01*
G01*
G37*
G36*
G01*
X155500000Y-79015000D02*
X155500000Y-78815000D01*
G75*
G02*
X155600000Y-78715000I100000J0D01*
G01*
X158400000Y-78715000D01*
G75*
G02*
X158500000Y-78815000I0J-100000D01*
G01*
X158500000Y-79015000D01*
G75*
G02*
X158400000Y-79115000I-100000J0D01*
G01*
X155600000Y-79115000D01*
G75*
G02*
X155500000Y-79015000I0J100000D01*
G01*
G37*
G36*
G01*
X155500000Y-78365000D02*
X155500000Y-78165000D01*
G75*
G02*
X155600000Y-78065000I100000J0D01*
G01*
X158400000Y-78065000D01*
G75*
G02*
X158500000Y-78165000I0J-100000D01*
G01*
X158500000Y-78365000D01*
G75*
G02*
X158400000Y-78465000I-100000J0D01*
G01*
X155600000Y-78465000D01*
G75*
G02*
X155500000Y-78365000I0J100000D01*
G01*
G37*
G36*
G01*
X155500000Y-77715000D02*
X155500000Y-77515000D01*
G75*
G02*
X155600000Y-77415000I100000J0D01*
G01*
X158400000Y-77415000D01*
G75*
G02*
X158500000Y-77515000I0J-100000D01*
G01*
X158500000Y-77715000D01*
G75*
G02*
X158400000Y-77815000I-100000J0D01*
G01*
X155600000Y-77815000D01*
G75*
G02*
X155500000Y-77715000I0J100000D01*
G01*
G37*
G36*
G01*
X155500000Y-77065000D02*
X155500000Y-76865000D01*
G75*
G02*
X155600000Y-76765000I100000J0D01*
G01*
X158400000Y-76765000D01*
G75*
G02*
X158500000Y-76865000I0J-100000D01*
G01*
X158500000Y-77065000D01*
G75*
G02*
X158400000Y-77165000I-100000J0D01*
G01*
X155600000Y-77165000D01*
G75*
G02*
X155500000Y-77065000I0J100000D01*
G01*
G37*
G36*
G01*
X155500000Y-76415000D02*
X155500000Y-76215000D01*
G75*
G02*
X155600000Y-76115000I100000J0D01*
G01*
X158400000Y-76115000D01*
G75*
G02*
X158500000Y-76215000I0J-100000D01*
G01*
X158500000Y-76415000D01*
G75*
G02*
X158400000Y-76515000I-100000J0D01*
G01*
X155600000Y-76515000D01*
G75*
G02*
X155500000Y-76415000I0J100000D01*
G01*
G37*
G36*
G01*
X155500000Y-75765000D02*
X155500000Y-75565000D01*
G75*
G02*
X155600000Y-75465000I100000J0D01*
G01*
X158400000Y-75465000D01*
G75*
G02*
X158500000Y-75565000I0J-100000D01*
G01*
X158500000Y-75765000D01*
G75*
G02*
X158400000Y-75865000I-100000J0D01*
G01*
X155600000Y-75865000D01*
G75*
G02*
X155500000Y-75765000I0J100000D01*
G01*
G37*
G36*
G01*
X155500000Y-75115000D02*
X155500000Y-74915000D01*
G75*
G02*
X155600000Y-74815000I100000J0D01*
G01*
X158400000Y-74815000D01*
G75*
G02*
X158500000Y-74915000I0J-100000D01*
G01*
X158500000Y-75115000D01*
G75*
G02*
X158400000Y-75215000I-100000J0D01*
G01*
X155600000Y-75215000D01*
G75*
G02*
X155500000Y-75115000I0J100000D01*
G01*
G37*
G36*
G01*
X155500000Y-74465000D02*
X155500000Y-74265000D01*
G75*
G02*
X155600000Y-74165000I100000J0D01*
G01*
X158400000Y-74165000D01*
G75*
G02*
X158500000Y-74265000I0J-100000D01*
G01*
X158500000Y-74465000D01*
G75*
G02*
X158400000Y-74565000I-100000J0D01*
G01*
X155600000Y-74565000D01*
G75*
G02*
X155500000Y-74465000I0J100000D01*
G01*
G37*
G36*
G01*
X155500000Y-73815000D02*
X155500000Y-73615000D01*
G75*
G02*
X155600000Y-73515000I100000J0D01*
G01*
X158400000Y-73515000D01*
G75*
G02*
X158500000Y-73615000I0J-100000D01*
G01*
X158500000Y-73815000D01*
G75*
G02*
X158400000Y-73915000I-100000J0D01*
G01*
X155600000Y-73915000D01*
G75*
G02*
X155500000Y-73815000I0J100000D01*
G01*
G37*
G36*
G01*
X155500000Y-73165000D02*
X155500000Y-72965000D01*
G75*
G02*
X155600000Y-72865000I100000J0D01*
G01*
X158400000Y-72865000D01*
G75*
G02*
X158500000Y-72965000I0J-100000D01*
G01*
X158500000Y-73165000D01*
G75*
G02*
X158400000Y-73265000I-100000J0D01*
G01*
X155600000Y-73265000D01*
G75*
G02*
X155500000Y-73165000I0J100000D01*
G01*
G37*
G36*
G01*
X155500000Y-72515000D02*
X155500000Y-72315000D01*
G75*
G02*
X155600000Y-72215000I100000J0D01*
G01*
X158400000Y-72215000D01*
G75*
G02*
X158500000Y-72315000I0J-100000D01*
G01*
X158500000Y-72515000D01*
G75*
G02*
X158400000Y-72615000I-100000J0D01*
G01*
X155600000Y-72615000D01*
G75*
G02*
X155500000Y-72515000I0J100000D01*
G01*
G37*
G36*
G01*
X155500000Y-71865000D02*
X155500000Y-71665000D01*
G75*
G02*
X155600000Y-71565000I100000J0D01*
G01*
X158400000Y-71565000D01*
G75*
G02*
X158500000Y-71665000I0J-100000D01*
G01*
X158500000Y-71865000D01*
G75*
G02*
X158400000Y-71965000I-100000J0D01*
G01*
X155600000Y-71965000D01*
G75*
G02*
X155500000Y-71865000I0J100000D01*
G01*
G37*
G36*
G01*
X155500000Y-71215000D02*
X155500000Y-71015000D01*
G75*
G02*
X155600000Y-70915000I100000J0D01*
G01*
X158400000Y-70915000D01*
G75*
G02*
X158500000Y-71015000I0J-100000D01*
G01*
X158500000Y-71215000D01*
G75*
G02*
X158400000Y-71315000I-100000J0D01*
G01*
X155600000Y-71315000D01*
G75*
G02*
X155500000Y-71215000I0J100000D01*
G01*
G37*
G36*
G01*
X155500000Y-70565000D02*
X155500000Y-70365000D01*
G75*
G02*
X155600000Y-70265000I100000J0D01*
G01*
X158400000Y-70265000D01*
G75*
G02*
X158500000Y-70365000I0J-100000D01*
G01*
X158500000Y-70565000D01*
G75*
G02*
X158400000Y-70665000I-100000J0D01*
G01*
X155600000Y-70665000D01*
G75*
G02*
X155500000Y-70565000I0J100000D01*
G01*
G37*
G36*
G01*
X155500000Y-69915000D02*
X155500000Y-69715000D01*
G75*
G02*
X155600000Y-69615000I100000J0D01*
G01*
X158400000Y-69615000D01*
G75*
G02*
X158500000Y-69715000I0J-100000D01*
G01*
X158500000Y-69915000D01*
G75*
G02*
X158400000Y-70015000I-100000J0D01*
G01*
X155600000Y-70015000D01*
G75*
G02*
X155500000Y-69915000I0J100000D01*
G01*
G37*
G36*
G01*
X155500000Y-69265000D02*
X155500000Y-69065000D01*
G75*
G02*
X155600000Y-68965000I100000J0D01*
G01*
X158400000Y-68965000D01*
G75*
G02*
X158500000Y-69065000I0J-100000D01*
G01*
X158500000Y-69265000D01*
G75*
G02*
X158400000Y-69365000I-100000J0D01*
G01*
X155600000Y-69365000D01*
G75*
G02*
X155500000Y-69265000I0J100000D01*
G01*
G37*
G36*
G01*
X155500000Y-68615000D02*
X155500000Y-68415000D01*
G75*
G02*
X155600000Y-68315000I100000J0D01*
G01*
X158400000Y-68315000D01*
G75*
G02*
X158500000Y-68415000I0J-100000D01*
G01*
X158500000Y-68615000D01*
G75*
G02*
X158400000Y-68715000I-100000J0D01*
G01*
X155600000Y-68715000D01*
G75*
G02*
X155500000Y-68615000I0J100000D01*
G01*
G37*
G36*
G01*
X155500000Y-67965000D02*
X155500000Y-67765000D01*
G75*
G02*
X155600000Y-67665000I100000J0D01*
G01*
X158400000Y-67665000D01*
G75*
G02*
X158500000Y-67765000I0J-100000D01*
G01*
X158500000Y-67965000D01*
G75*
G02*
X158400000Y-68065000I-100000J0D01*
G01*
X155600000Y-68065000D01*
G75*
G02*
X155500000Y-67965000I0J100000D01*
G01*
G37*
G36*
G01*
X155500000Y-67315000D02*
X155500000Y-67115000D01*
G75*
G02*
X155600000Y-67015000I100000J0D01*
G01*
X158400000Y-67015000D01*
G75*
G02*
X158500000Y-67115000I0J-100000D01*
G01*
X158500000Y-67315000D01*
G75*
G02*
X158400000Y-67415000I-100000J0D01*
G01*
X155600000Y-67415000D01*
G75*
G02*
X155500000Y-67315000I0J100000D01*
G01*
G37*
G36*
G01*
X155500000Y-66665000D02*
X155500000Y-66465000D01*
G75*
G02*
X155600000Y-66365000I100000J0D01*
G01*
X158400000Y-66365000D01*
G75*
G02*
X158500000Y-66465000I0J-100000D01*
G01*
X158500000Y-66665000D01*
G75*
G02*
X158400000Y-66765000I-100000J0D01*
G01*
X155600000Y-66765000D01*
G75*
G02*
X155500000Y-66665000I0J100000D01*
G01*
G37*
G36*
G01*
X69250000Y-99943750D02*
X69250000Y-100456250D01*
G75*
G02*
X69031250Y-100675000I-218750J0D01*
G01*
X68593750Y-100675000D01*
G75*
G02*
X68375000Y-100456250I0J218750D01*
G01*
X68375000Y-99943750D01*
G75*
G02*
X68593750Y-99725000I218750J0D01*
G01*
X69031250Y-99725000D01*
G75*
G02*
X69250000Y-99943750I0J-218750D01*
G01*
G37*
G36*
G01*
X70825000Y-99943750D02*
X70825000Y-100456250D01*
G75*
G02*
X70606250Y-100675000I-218750J0D01*
G01*
X70168750Y-100675000D01*
G75*
G02*
X69950000Y-100456250I0J218750D01*
G01*
X69950000Y-99943750D01*
G75*
G02*
X70168750Y-99725000I218750J0D01*
G01*
X70606250Y-99725000D01*
G75*
G02*
X70825000Y-99943750I0J-218750D01*
G01*
G37*
G36*
G01*
X125343750Y-148750000D02*
X125856250Y-148750000D01*
G75*
G02*
X126075000Y-148968750I0J-218750D01*
G01*
X126075000Y-149406250D01*
G75*
G02*
X125856250Y-149625000I-218750J0D01*
G01*
X125343750Y-149625000D01*
G75*
G02*
X125125000Y-149406250I0J218750D01*
G01*
X125125000Y-148968750D01*
G75*
G02*
X125343750Y-148750000I218750J0D01*
G01*
G37*
G36*
G01*
X125343750Y-147175000D02*
X125856250Y-147175000D01*
G75*
G02*
X126075000Y-147393750I0J-218750D01*
G01*
X126075000Y-147831250D01*
G75*
G02*
X125856250Y-148050000I-218750J0D01*
G01*
X125343750Y-148050000D01*
G75*
G02*
X125125000Y-147831250I0J218750D01*
G01*
X125125000Y-147393750D01*
G75*
G02*
X125343750Y-147175000I218750J0D01*
G01*
G37*
G36*
G01*
X122543750Y-148750000D02*
X123056250Y-148750000D01*
G75*
G02*
X123275000Y-148968750I0J-218750D01*
G01*
X123275000Y-149406250D01*
G75*
G02*
X123056250Y-149625000I-218750J0D01*
G01*
X122543750Y-149625000D01*
G75*
G02*
X122325000Y-149406250I0J218750D01*
G01*
X122325000Y-148968750D01*
G75*
G02*
X122543750Y-148750000I218750J0D01*
G01*
G37*
G36*
G01*
X122543750Y-147175000D02*
X123056250Y-147175000D01*
G75*
G02*
X123275000Y-147393750I0J-218750D01*
G01*
X123275000Y-147831250D01*
G75*
G02*
X123056250Y-148050000I-218750J0D01*
G01*
X122543750Y-148050000D01*
G75*
G02*
X122325000Y-147831250I0J218750D01*
G01*
X122325000Y-147393750D01*
G75*
G02*
X122543750Y-147175000I218750J0D01*
G01*
G37*
G36*
G01*
X126056250Y-144350000D02*
X125143750Y-144350000D01*
G75*
G02*
X124900000Y-144106250I0J243750D01*
G01*
X124900000Y-143618750D01*
G75*
G02*
X125143750Y-143375000I243750J0D01*
G01*
X126056250Y-143375000D01*
G75*
G02*
X126300000Y-143618750I0J-243750D01*
G01*
X126300000Y-144106250D01*
G75*
G02*
X126056250Y-144350000I-243750J0D01*
G01*
G37*
G36*
G01*
X126056250Y-146225000D02*
X125143750Y-146225000D01*
G75*
G02*
X124900000Y-145981250I0J243750D01*
G01*
X124900000Y-145493750D01*
G75*
G02*
X125143750Y-145250000I243750J0D01*
G01*
X126056250Y-145250000D01*
G75*
G02*
X126300000Y-145493750I0J-243750D01*
G01*
X126300000Y-145981250D01*
G75*
G02*
X126056250Y-146225000I-243750J0D01*
G01*
G37*
G36*
G01*
X123256250Y-144350000D02*
X122343750Y-144350000D01*
G75*
G02*
X122100000Y-144106250I0J243750D01*
G01*
X122100000Y-143618750D01*
G75*
G02*
X122343750Y-143375000I243750J0D01*
G01*
X123256250Y-143375000D01*
G75*
G02*
X123500000Y-143618750I0J-243750D01*
G01*
X123500000Y-144106250D01*
G75*
G02*
X123256250Y-144350000I-243750J0D01*
G01*
G37*
G36*
G01*
X123256250Y-146225000D02*
X122343750Y-146225000D01*
G75*
G02*
X122100000Y-145981250I0J243750D01*
G01*
X122100000Y-145493750D01*
G75*
G02*
X122343750Y-145250000I243750J0D01*
G01*
X123256250Y-145250000D01*
G75*
G02*
X123500000Y-145493750I0J-243750D01*
G01*
X123500000Y-145981250D01*
G75*
G02*
X123256250Y-146225000I-243750J0D01*
G01*
G37*
G36*
G01*
X66450000Y-93456250D02*
X66450000Y-92543750D01*
G75*
G02*
X66693750Y-92300000I243750J0D01*
G01*
X67181250Y-92300000D01*
G75*
G02*
X67425000Y-92543750I0J-243750D01*
G01*
X67425000Y-93456250D01*
G75*
G02*
X67181250Y-93700000I-243750J0D01*
G01*
X66693750Y-93700000D01*
G75*
G02*
X66450000Y-93456250I0J243750D01*
G01*
G37*
G36*
G01*
X64575000Y-93456250D02*
X64575000Y-92543750D01*
G75*
G02*
X64818750Y-92300000I243750J0D01*
G01*
X65306250Y-92300000D01*
G75*
G02*
X65550000Y-92543750I0J-243750D01*
G01*
X65550000Y-93456250D01*
G75*
G02*
X65306250Y-93700000I-243750J0D01*
G01*
X64818750Y-93700000D01*
G75*
G02*
X64575000Y-93456250I0J243750D01*
G01*
G37*
G36*
G01*
X78250000Y-114943750D02*
X78250000Y-115456250D01*
G75*
G02*
X78031250Y-115675000I-218750J0D01*
G01*
X77593750Y-115675000D01*
G75*
G02*
X77375000Y-115456250I0J218750D01*
G01*
X77375000Y-114943750D01*
G75*
G02*
X77593750Y-114725000I218750J0D01*
G01*
X78031250Y-114725000D01*
G75*
G02*
X78250000Y-114943750I0J-218750D01*
G01*
G37*
G36*
G01*
X79825000Y-114943750D02*
X79825000Y-115456250D01*
G75*
G02*
X79606250Y-115675000I-218750J0D01*
G01*
X79168750Y-115675000D01*
G75*
G02*
X78950000Y-115456250I0J218750D01*
G01*
X78950000Y-114943750D01*
G75*
G02*
X79168750Y-114725000I218750J0D01*
G01*
X79606250Y-114725000D01*
G75*
G02*
X79825000Y-114943750I0J-218750D01*
G01*
G37*
G36*
G01*
X79587500Y-142956250D02*
X79587500Y-142043750D01*
G75*
G02*
X79831250Y-141800000I243750J0D01*
G01*
X80318750Y-141800000D01*
G75*
G02*
X80562500Y-142043750I0J-243750D01*
G01*
X80562500Y-142956250D01*
G75*
G02*
X80318750Y-143200000I-243750J0D01*
G01*
X79831250Y-143200000D01*
G75*
G02*
X79587500Y-142956250I0J243750D01*
G01*
G37*
G36*
G01*
X77712500Y-142956250D02*
X77712500Y-142043750D01*
G75*
G02*
X77956250Y-141800000I243750J0D01*
G01*
X78443750Y-141800000D01*
G75*
G02*
X78687500Y-142043750I0J-243750D01*
G01*
X78687500Y-142956250D01*
G75*
G02*
X78443750Y-143200000I-243750J0D01*
G01*
X77956250Y-143200000D01*
G75*
G02*
X77712500Y-142956250I0J243750D01*
G01*
G37*
G36*
G01*
X99587500Y-142956250D02*
X99587500Y-142043750D01*
G75*
G02*
X99831250Y-141800000I243750J0D01*
G01*
X100318750Y-141800000D01*
G75*
G02*
X100562500Y-142043750I0J-243750D01*
G01*
X100562500Y-142956250D01*
G75*
G02*
X100318750Y-143200000I-243750J0D01*
G01*
X99831250Y-143200000D01*
G75*
G02*
X99587500Y-142956250I0J243750D01*
G01*
G37*
G36*
G01*
X97712500Y-142956250D02*
X97712500Y-142043750D01*
G75*
G02*
X97956250Y-141800000I243750J0D01*
G01*
X98443750Y-141800000D01*
G75*
G02*
X98687500Y-142043750I0J-243750D01*
G01*
X98687500Y-142956250D01*
G75*
G02*
X98443750Y-143200000I-243750J0D01*
G01*
X97956250Y-143200000D01*
G75*
G02*
X97712500Y-142956250I0J243750D01*
G01*
G37*
G36*
G01*
X135256250Y-99837500D02*
X134743750Y-99837500D01*
G75*
G02*
X134525000Y-99618750I0J218750D01*
G01*
X134525000Y-99181250D01*
G75*
G02*
X134743750Y-98962500I218750J0D01*
G01*
X135256250Y-98962500D01*
G75*
G02*
X135475000Y-99181250I0J-218750D01*
G01*
X135475000Y-99618750D01*
G75*
G02*
X135256250Y-99837500I-218750J0D01*
G01*
G37*
G36*
G01*
X135256250Y-101412500D02*
X134743750Y-101412500D01*
G75*
G02*
X134525000Y-101193750I0J218750D01*
G01*
X134525000Y-100756250D01*
G75*
G02*
X134743750Y-100537500I218750J0D01*
G01*
X135256250Y-100537500D01*
G75*
G02*
X135475000Y-100756250I0J-218750D01*
G01*
X135475000Y-101193750D01*
G75*
G02*
X135256250Y-101412500I-218750J0D01*
G01*
G37*
G36*
G01*
X133256250Y-99837500D02*
X132743750Y-99837500D01*
G75*
G02*
X132525000Y-99618750I0J218750D01*
G01*
X132525000Y-99181250D01*
G75*
G02*
X132743750Y-98962500I218750J0D01*
G01*
X133256250Y-98962500D01*
G75*
G02*
X133475000Y-99181250I0J-218750D01*
G01*
X133475000Y-99618750D01*
G75*
G02*
X133256250Y-99837500I-218750J0D01*
G01*
G37*
G36*
G01*
X133256250Y-101412500D02*
X132743750Y-101412500D01*
G75*
G02*
X132525000Y-101193750I0J218750D01*
G01*
X132525000Y-100756250D01*
G75*
G02*
X132743750Y-100537500I218750J0D01*
G01*
X133256250Y-100537500D01*
G75*
G02*
X133475000Y-100756250I0J-218750D01*
G01*
X133475000Y-101193750D01*
G75*
G02*
X133256250Y-101412500I-218750J0D01*
G01*
G37*
G36*
G01*
X74050000Y-89543750D02*
X74050000Y-90056250D01*
G75*
G02*
X73831250Y-90275000I-218750J0D01*
G01*
X73393750Y-90275000D01*
G75*
G02*
X73175000Y-90056250I0J218750D01*
G01*
X73175000Y-89543750D01*
G75*
G02*
X73393750Y-89325000I218750J0D01*
G01*
X73831250Y-89325000D01*
G75*
G02*
X74050000Y-89543750I0J-218750D01*
G01*
G37*
G36*
G01*
X75625000Y-89543750D02*
X75625000Y-90056250D01*
G75*
G02*
X75406250Y-90275000I-218750J0D01*
G01*
X74968750Y-90275000D01*
G75*
G02*
X74750000Y-90056250I0J218750D01*
G01*
X74750000Y-89543750D01*
G75*
G02*
X74968750Y-89325000I218750J0D01*
G01*
X75406250Y-89325000D01*
G75*
G02*
X75625000Y-89543750I0J-218750D01*
G01*
G37*
G36*
G01*
X71762500Y-110250000D02*
X70362500Y-110250000D01*
G75*
G02*
X70287500Y-110175000I0J75000D01*
G01*
X70287500Y-110025000D01*
G75*
G02*
X70362500Y-109950000I75000J0D01*
G01*
X71762500Y-109950000D01*
G75*
G02*
X71837500Y-110025000I0J-75000D01*
G01*
X71837500Y-110175000D01*
G75*
G02*
X71762500Y-110250000I-75000J0D01*
G01*
G37*
G36*
G01*
X71762500Y-109750000D02*
X70362500Y-109750000D01*
G75*
G02*
X70287500Y-109675000I0J75000D01*
G01*
X70287500Y-109525000D01*
G75*
G02*
X70362500Y-109450000I75000J0D01*
G01*
X71762500Y-109450000D01*
G75*
G02*
X71837500Y-109525000I0J-75000D01*
G01*
X71837500Y-109675000D01*
G75*
G02*
X71762500Y-109750000I-75000J0D01*
G01*
G37*
G36*
G01*
X71762500Y-109250000D02*
X70362500Y-109250000D01*
G75*
G02*
X70287500Y-109175000I0J75000D01*
G01*
X70287500Y-109025000D01*
G75*
G02*
X70362500Y-108950000I75000J0D01*
G01*
X71762500Y-108950000D01*
G75*
G02*
X71837500Y-109025000I0J-75000D01*
G01*
X71837500Y-109175000D01*
G75*
G02*
X71762500Y-109250000I-75000J0D01*
G01*
G37*
G36*
G01*
X71762500Y-108750000D02*
X70362500Y-108750000D01*
G75*
G02*
X70287500Y-108675000I0J75000D01*
G01*
X70287500Y-108525000D01*
G75*
G02*
X70362500Y-108450000I75000J0D01*
G01*
X71762500Y-108450000D01*
G75*
G02*
X71837500Y-108525000I0J-75000D01*
G01*
X71837500Y-108675000D01*
G75*
G02*
X71762500Y-108750000I-75000J0D01*
G01*
G37*
G36*
G01*
X71762500Y-108250000D02*
X70362500Y-108250000D01*
G75*
G02*
X70287500Y-108175000I0J75000D01*
G01*
X70287500Y-108025000D01*
G75*
G02*
X70362500Y-107950000I75000J0D01*
G01*
X71762500Y-107950000D01*
G75*
G02*
X71837500Y-108025000I0J-75000D01*
G01*
X71837500Y-108175000D01*
G75*
G02*
X71762500Y-108250000I-75000J0D01*
G01*
G37*
G36*
G01*
X71762500Y-107750000D02*
X70362500Y-107750000D01*
G75*
G02*
X70287500Y-107675000I0J75000D01*
G01*
X70287500Y-107525000D01*
G75*
G02*
X70362500Y-107450000I75000J0D01*
G01*
X71762500Y-107450000D01*
G75*
G02*
X71837500Y-107525000I0J-75000D01*
G01*
X71837500Y-107675000D01*
G75*
G02*
X71762500Y-107750000I-75000J0D01*
G01*
G37*
G36*
G01*
X71762500Y-107250000D02*
X70362500Y-107250000D01*
G75*
G02*
X70287500Y-107175000I0J75000D01*
G01*
X70287500Y-107025000D01*
G75*
G02*
X70362500Y-106950000I75000J0D01*
G01*
X71762500Y-106950000D01*
G75*
G02*
X71837500Y-107025000I0J-75000D01*
G01*
X71837500Y-107175000D01*
G75*
G02*
X71762500Y-107250000I-75000J0D01*
G01*
G37*
G36*
G01*
X71762500Y-106750000D02*
X70362500Y-106750000D01*
G75*
G02*
X70287500Y-106675000I0J75000D01*
G01*
X70287500Y-106525000D01*
G75*
G02*
X70362500Y-106450000I75000J0D01*
G01*
X71762500Y-106450000D01*
G75*
G02*
X71837500Y-106525000I0J-75000D01*
G01*
X71837500Y-106675000D01*
G75*
G02*
X71762500Y-106750000I-75000J0D01*
G01*
G37*
G36*
G01*
X71762500Y-106250000D02*
X70362500Y-106250000D01*
G75*
G02*
X70287500Y-106175000I0J75000D01*
G01*
X70287500Y-106025000D01*
G75*
G02*
X70362500Y-105950000I75000J0D01*
G01*
X71762500Y-105950000D01*
G75*
G02*
X71837500Y-106025000I0J-75000D01*
G01*
X71837500Y-106175000D01*
G75*
G02*
X71762500Y-106250000I-75000J0D01*
G01*
G37*
G36*
G01*
X71762500Y-105750000D02*
X70362500Y-105750000D01*
G75*
G02*
X70287500Y-105675000I0J75000D01*
G01*
X70287500Y-105525000D01*
G75*
G02*
X70362500Y-105450000I75000J0D01*
G01*
X71762500Y-105450000D01*
G75*
G02*
X71837500Y-105525000I0J-75000D01*
G01*
X71837500Y-105675000D01*
G75*
G02*
X71762500Y-105750000I-75000J0D01*
G01*
G37*
G36*
G01*
X71762500Y-105250000D02*
X70362500Y-105250000D01*
G75*
G02*
X70287500Y-105175000I0J75000D01*
G01*
X70287500Y-105025000D01*
G75*
G02*
X70362500Y-104950000I75000J0D01*
G01*
X71762500Y-104950000D01*
G75*
G02*
X71837500Y-105025000I0J-75000D01*
G01*
X71837500Y-105175000D01*
G75*
G02*
X71762500Y-105250000I-75000J0D01*
G01*
G37*
G36*
G01*
X71762500Y-104750000D02*
X70362500Y-104750000D01*
G75*
G02*
X70287500Y-104675000I0J75000D01*
G01*
X70287500Y-104525000D01*
G75*
G02*
X70362500Y-104450000I75000J0D01*
G01*
X71762500Y-104450000D01*
G75*
G02*
X71837500Y-104525000I0J-75000D01*
G01*
X71837500Y-104675000D01*
G75*
G02*
X71762500Y-104750000I-75000J0D01*
G01*
G37*
G36*
G01*
X71762500Y-104250000D02*
X70362500Y-104250000D01*
G75*
G02*
X70287500Y-104175000I0J75000D01*
G01*
X70287500Y-104025000D01*
G75*
G02*
X70362500Y-103950000I75000J0D01*
G01*
X71762500Y-103950000D01*
G75*
G02*
X71837500Y-104025000I0J-75000D01*
G01*
X71837500Y-104175000D01*
G75*
G02*
X71762500Y-104250000I-75000J0D01*
G01*
G37*
G36*
G01*
X71762500Y-103750000D02*
X70362500Y-103750000D01*
G75*
G02*
X70287500Y-103675000I0J75000D01*
G01*
X70287500Y-103525000D01*
G75*
G02*
X70362500Y-103450000I75000J0D01*
G01*
X71762500Y-103450000D01*
G75*
G02*
X71837500Y-103525000I0J-75000D01*
G01*
X71837500Y-103675000D01*
G75*
G02*
X71762500Y-103750000I-75000J0D01*
G01*
G37*
G36*
G01*
X71762500Y-103250000D02*
X70362500Y-103250000D01*
G75*
G02*
X70287500Y-103175000I0J75000D01*
G01*
X70287500Y-103025000D01*
G75*
G02*
X70362500Y-102950000I75000J0D01*
G01*
X71762500Y-102950000D01*
G75*
G02*
X71837500Y-103025000I0J-75000D01*
G01*
X71837500Y-103175000D01*
G75*
G02*
X71762500Y-103250000I-75000J0D01*
G01*
G37*
G36*
G01*
X71762500Y-102750000D02*
X70362500Y-102750000D01*
G75*
G02*
X70287500Y-102675000I0J75000D01*
G01*
X70287500Y-102525000D01*
G75*
G02*
X70362500Y-102450000I75000J0D01*
G01*
X71762500Y-102450000D01*
G75*
G02*
X71837500Y-102525000I0J-75000D01*
G01*
X71837500Y-102675000D01*
G75*
G02*
X71762500Y-102750000I-75000J0D01*
G01*
G37*
G36*
G01*
X73062500Y-101450000D02*
X72912500Y-101450000D01*
G75*
G02*
X72837500Y-101375000I0J75000D01*
G01*
X72837500Y-99975000D01*
G75*
G02*
X72912500Y-99900000I75000J0D01*
G01*
X73062500Y-99900000D01*
G75*
G02*
X73137500Y-99975000I0J-75000D01*
G01*
X73137500Y-101375000D01*
G75*
G02*
X73062500Y-101450000I-75000J0D01*
G01*
G37*
G36*
G01*
X73562500Y-101450000D02*
X73412500Y-101450000D01*
G75*
G02*
X73337500Y-101375000I0J75000D01*
G01*
X73337500Y-99975000D01*
G75*
G02*
X73412500Y-99900000I75000J0D01*
G01*
X73562500Y-99900000D01*
G75*
G02*
X73637500Y-99975000I0J-75000D01*
G01*
X73637500Y-101375000D01*
G75*
G02*
X73562500Y-101450000I-75000J0D01*
G01*
G37*
G36*
G01*
X74062500Y-101450000D02*
X73912500Y-101450000D01*
G75*
G02*
X73837500Y-101375000I0J75000D01*
G01*
X73837500Y-99975000D01*
G75*
G02*
X73912500Y-99900000I75000J0D01*
G01*
X74062500Y-99900000D01*
G75*
G02*
X74137500Y-99975000I0J-75000D01*
G01*
X74137500Y-101375000D01*
G75*
G02*
X74062500Y-101450000I-75000J0D01*
G01*
G37*
G36*
G01*
X74562500Y-101450000D02*
X74412500Y-101450000D01*
G75*
G02*
X74337500Y-101375000I0J75000D01*
G01*
X74337500Y-99975000D01*
G75*
G02*
X74412500Y-99900000I75000J0D01*
G01*
X74562500Y-99900000D01*
G75*
G02*
X74637500Y-99975000I0J-75000D01*
G01*
X74637500Y-101375000D01*
G75*
G02*
X74562500Y-101450000I-75000J0D01*
G01*
G37*
G36*
G01*
X75062500Y-101450000D02*
X74912500Y-101450000D01*
G75*
G02*
X74837500Y-101375000I0J75000D01*
G01*
X74837500Y-99975000D01*
G75*
G02*
X74912500Y-99900000I75000J0D01*
G01*
X75062500Y-99900000D01*
G75*
G02*
X75137500Y-99975000I0J-75000D01*
G01*
X75137500Y-101375000D01*
G75*
G02*
X75062500Y-101450000I-75000J0D01*
G01*
G37*
G36*
G01*
X75562500Y-101450000D02*
X75412500Y-101450000D01*
G75*
G02*
X75337500Y-101375000I0J75000D01*
G01*
X75337500Y-99975000D01*
G75*
G02*
X75412500Y-99900000I75000J0D01*
G01*
X75562500Y-99900000D01*
G75*
G02*
X75637500Y-99975000I0J-75000D01*
G01*
X75637500Y-101375000D01*
G75*
G02*
X75562500Y-101450000I-75000J0D01*
G01*
G37*
G36*
G01*
X76062500Y-101450000D02*
X75912500Y-101450000D01*
G75*
G02*
X75837500Y-101375000I0J75000D01*
G01*
X75837500Y-99975000D01*
G75*
G02*
X75912500Y-99900000I75000J0D01*
G01*
X76062500Y-99900000D01*
G75*
G02*
X76137500Y-99975000I0J-75000D01*
G01*
X76137500Y-101375000D01*
G75*
G02*
X76062500Y-101450000I-75000J0D01*
G01*
G37*
G36*
G01*
X76562500Y-101450000D02*
X76412500Y-101450000D01*
G75*
G02*
X76337500Y-101375000I0J75000D01*
G01*
X76337500Y-99975000D01*
G75*
G02*
X76412500Y-99900000I75000J0D01*
G01*
X76562500Y-99900000D01*
G75*
G02*
X76637500Y-99975000I0J-75000D01*
G01*
X76637500Y-101375000D01*
G75*
G02*
X76562500Y-101450000I-75000J0D01*
G01*
G37*
G36*
G01*
X77062500Y-101450000D02*
X76912500Y-101450000D01*
G75*
G02*
X76837500Y-101375000I0J75000D01*
G01*
X76837500Y-99975000D01*
G75*
G02*
X76912500Y-99900000I75000J0D01*
G01*
X77062500Y-99900000D01*
G75*
G02*
X77137500Y-99975000I0J-75000D01*
G01*
X77137500Y-101375000D01*
G75*
G02*
X77062500Y-101450000I-75000J0D01*
G01*
G37*
G36*
G01*
X77562500Y-101450000D02*
X77412500Y-101450000D01*
G75*
G02*
X77337500Y-101375000I0J75000D01*
G01*
X77337500Y-99975000D01*
G75*
G02*
X77412500Y-99900000I75000J0D01*
G01*
X77562500Y-99900000D01*
G75*
G02*
X77637500Y-99975000I0J-75000D01*
G01*
X77637500Y-101375000D01*
G75*
G02*
X77562500Y-101450000I-75000J0D01*
G01*
G37*
G36*
G01*
X78062500Y-101450000D02*
X77912500Y-101450000D01*
G75*
G02*
X77837500Y-101375000I0J75000D01*
G01*
X77837500Y-99975000D01*
G75*
G02*
X77912500Y-99900000I75000J0D01*
G01*
X78062500Y-99900000D01*
G75*
G02*
X78137500Y-99975000I0J-75000D01*
G01*
X78137500Y-101375000D01*
G75*
G02*
X78062500Y-101450000I-75000J0D01*
G01*
G37*
G36*
G01*
X78562500Y-101450000D02*
X78412500Y-101450000D01*
G75*
G02*
X78337500Y-101375000I0J75000D01*
G01*
X78337500Y-99975000D01*
G75*
G02*
X78412500Y-99900000I75000J0D01*
G01*
X78562500Y-99900000D01*
G75*
G02*
X78637500Y-99975000I0J-75000D01*
G01*
X78637500Y-101375000D01*
G75*
G02*
X78562500Y-101450000I-75000J0D01*
G01*
G37*
G36*
G01*
X79062500Y-101450000D02*
X78912500Y-101450000D01*
G75*
G02*
X78837500Y-101375000I0J75000D01*
G01*
X78837500Y-99975000D01*
G75*
G02*
X78912500Y-99900000I75000J0D01*
G01*
X79062500Y-99900000D01*
G75*
G02*
X79137500Y-99975000I0J-75000D01*
G01*
X79137500Y-101375000D01*
G75*
G02*
X79062500Y-101450000I-75000J0D01*
G01*
G37*
G36*
G01*
X79562500Y-101450000D02*
X79412500Y-101450000D01*
G75*
G02*
X79337500Y-101375000I0J75000D01*
G01*
X79337500Y-99975000D01*
G75*
G02*
X79412500Y-99900000I75000J0D01*
G01*
X79562500Y-99900000D01*
G75*
G02*
X79637500Y-99975000I0J-75000D01*
G01*
X79637500Y-101375000D01*
G75*
G02*
X79562500Y-101450000I-75000J0D01*
G01*
G37*
G36*
G01*
X80062500Y-101450000D02*
X79912500Y-101450000D01*
G75*
G02*
X79837500Y-101375000I0J75000D01*
G01*
X79837500Y-99975000D01*
G75*
G02*
X79912500Y-99900000I75000J0D01*
G01*
X80062500Y-99900000D01*
G75*
G02*
X80137500Y-99975000I0J-75000D01*
G01*
X80137500Y-101375000D01*
G75*
G02*
X80062500Y-101450000I-75000J0D01*
G01*
G37*
G36*
G01*
X80562500Y-101450000D02*
X80412500Y-101450000D01*
G75*
G02*
X80337500Y-101375000I0J75000D01*
G01*
X80337500Y-99975000D01*
G75*
G02*
X80412500Y-99900000I75000J0D01*
G01*
X80562500Y-99900000D01*
G75*
G02*
X80637500Y-99975000I0J-75000D01*
G01*
X80637500Y-101375000D01*
G75*
G02*
X80562500Y-101450000I-75000J0D01*
G01*
G37*
G36*
G01*
X83112500Y-102750000D02*
X81712500Y-102750000D01*
G75*
G02*
X81637500Y-102675000I0J75000D01*
G01*
X81637500Y-102525000D01*
G75*
G02*
X81712500Y-102450000I75000J0D01*
G01*
X83112500Y-102450000D01*
G75*
G02*
X83187500Y-102525000I0J-75000D01*
G01*
X83187500Y-102675000D01*
G75*
G02*
X83112500Y-102750000I-75000J0D01*
G01*
G37*
G36*
G01*
X83112500Y-103250000D02*
X81712500Y-103250000D01*
G75*
G02*
X81637500Y-103175000I0J75000D01*
G01*
X81637500Y-103025000D01*
G75*
G02*
X81712500Y-102950000I75000J0D01*
G01*
X83112500Y-102950000D01*
G75*
G02*
X83187500Y-103025000I0J-75000D01*
G01*
X83187500Y-103175000D01*
G75*
G02*
X83112500Y-103250000I-75000J0D01*
G01*
G37*
G36*
G01*
X83112500Y-103750000D02*
X81712500Y-103750000D01*
G75*
G02*
X81637500Y-103675000I0J75000D01*
G01*
X81637500Y-103525000D01*
G75*
G02*
X81712500Y-103450000I75000J0D01*
G01*
X83112500Y-103450000D01*
G75*
G02*
X83187500Y-103525000I0J-75000D01*
G01*
X83187500Y-103675000D01*
G75*
G02*
X83112500Y-103750000I-75000J0D01*
G01*
G37*
G36*
G01*
X83112500Y-104250000D02*
X81712500Y-104250000D01*
G75*
G02*
X81637500Y-104175000I0J75000D01*
G01*
X81637500Y-104025000D01*
G75*
G02*
X81712500Y-103950000I75000J0D01*
G01*
X83112500Y-103950000D01*
G75*
G02*
X83187500Y-104025000I0J-75000D01*
G01*
X83187500Y-104175000D01*
G75*
G02*
X83112500Y-104250000I-75000J0D01*
G01*
G37*
G36*
G01*
X83112500Y-104750000D02*
X81712500Y-104750000D01*
G75*
G02*
X81637500Y-104675000I0J75000D01*
G01*
X81637500Y-104525000D01*
G75*
G02*
X81712500Y-104450000I75000J0D01*
G01*
X83112500Y-104450000D01*
G75*
G02*
X83187500Y-104525000I0J-75000D01*
G01*
X83187500Y-104675000D01*
G75*
G02*
X83112500Y-104750000I-75000J0D01*
G01*
G37*
G36*
G01*
X83112500Y-105250000D02*
X81712500Y-105250000D01*
G75*
G02*
X81637500Y-105175000I0J75000D01*
G01*
X81637500Y-105025000D01*
G75*
G02*
X81712500Y-104950000I75000J0D01*
G01*
X83112500Y-104950000D01*
G75*
G02*
X83187500Y-105025000I0J-75000D01*
G01*
X83187500Y-105175000D01*
G75*
G02*
X83112500Y-105250000I-75000J0D01*
G01*
G37*
G36*
G01*
X83112500Y-105750000D02*
X81712500Y-105750000D01*
G75*
G02*
X81637500Y-105675000I0J75000D01*
G01*
X81637500Y-105525000D01*
G75*
G02*
X81712500Y-105450000I75000J0D01*
G01*
X83112500Y-105450000D01*
G75*
G02*
X83187500Y-105525000I0J-75000D01*
G01*
X83187500Y-105675000D01*
G75*
G02*
X83112500Y-105750000I-75000J0D01*
G01*
G37*
G36*
G01*
X83112500Y-106250000D02*
X81712500Y-106250000D01*
G75*
G02*
X81637500Y-106175000I0J75000D01*
G01*
X81637500Y-106025000D01*
G75*
G02*
X81712500Y-105950000I75000J0D01*
G01*
X83112500Y-105950000D01*
G75*
G02*
X83187500Y-106025000I0J-75000D01*
G01*
X83187500Y-106175000D01*
G75*
G02*
X83112500Y-106250000I-75000J0D01*
G01*
G37*
G36*
G01*
X83112500Y-106750000D02*
X81712500Y-106750000D01*
G75*
G02*
X81637500Y-106675000I0J75000D01*
G01*
X81637500Y-106525000D01*
G75*
G02*
X81712500Y-106450000I75000J0D01*
G01*
X83112500Y-106450000D01*
G75*
G02*
X83187500Y-106525000I0J-75000D01*
G01*
X83187500Y-106675000D01*
G75*
G02*
X83112500Y-106750000I-75000J0D01*
G01*
G37*
G36*
G01*
X83112500Y-107250000D02*
X81712500Y-107250000D01*
G75*
G02*
X81637500Y-107175000I0J75000D01*
G01*
X81637500Y-107025000D01*
G75*
G02*
X81712500Y-106950000I75000J0D01*
G01*
X83112500Y-106950000D01*
G75*
G02*
X83187500Y-107025000I0J-75000D01*
G01*
X83187500Y-107175000D01*
G75*
G02*
X83112500Y-107250000I-75000J0D01*
G01*
G37*
G36*
G01*
X83112500Y-107750000D02*
X81712500Y-107750000D01*
G75*
G02*
X81637500Y-107675000I0J75000D01*
G01*
X81637500Y-107525000D01*
G75*
G02*
X81712500Y-107450000I75000J0D01*
G01*
X83112500Y-107450000D01*
G75*
G02*
X83187500Y-107525000I0J-75000D01*
G01*
X83187500Y-107675000D01*
G75*
G02*
X83112500Y-107750000I-75000J0D01*
G01*
G37*
G36*
G01*
X83112500Y-108250000D02*
X81712500Y-108250000D01*
G75*
G02*
X81637500Y-108175000I0J75000D01*
G01*
X81637500Y-108025000D01*
G75*
G02*
X81712500Y-107950000I75000J0D01*
G01*
X83112500Y-107950000D01*
G75*
G02*
X83187500Y-108025000I0J-75000D01*
G01*
X83187500Y-108175000D01*
G75*
G02*
X83112500Y-108250000I-75000J0D01*
G01*
G37*
G36*
G01*
X83112500Y-108750000D02*
X81712500Y-108750000D01*
G75*
G02*
X81637500Y-108675000I0J75000D01*
G01*
X81637500Y-108525000D01*
G75*
G02*
X81712500Y-108450000I75000J0D01*
G01*
X83112500Y-108450000D01*
G75*
G02*
X83187500Y-108525000I0J-75000D01*
G01*
X83187500Y-108675000D01*
G75*
G02*
X83112500Y-108750000I-75000J0D01*
G01*
G37*
G36*
G01*
X83112500Y-109250000D02*
X81712500Y-109250000D01*
G75*
G02*
X81637500Y-109175000I0J75000D01*
G01*
X81637500Y-109025000D01*
G75*
G02*
X81712500Y-108950000I75000J0D01*
G01*
X83112500Y-108950000D01*
G75*
G02*
X83187500Y-109025000I0J-75000D01*
G01*
X83187500Y-109175000D01*
G75*
G02*
X83112500Y-109250000I-75000J0D01*
G01*
G37*
G36*
G01*
X83112500Y-109750000D02*
X81712500Y-109750000D01*
G75*
G02*
X81637500Y-109675000I0J75000D01*
G01*
X81637500Y-109525000D01*
G75*
G02*
X81712500Y-109450000I75000J0D01*
G01*
X83112500Y-109450000D01*
G75*
G02*
X83187500Y-109525000I0J-75000D01*
G01*
X83187500Y-109675000D01*
G75*
G02*
X83112500Y-109750000I-75000J0D01*
G01*
G37*
G36*
G01*
X83112500Y-110250000D02*
X81712500Y-110250000D01*
G75*
G02*
X81637500Y-110175000I0J75000D01*
G01*
X81637500Y-110025000D01*
G75*
G02*
X81712500Y-109950000I75000J0D01*
G01*
X83112500Y-109950000D01*
G75*
G02*
X83187500Y-110025000I0J-75000D01*
G01*
X83187500Y-110175000D01*
G75*
G02*
X83112500Y-110250000I-75000J0D01*
G01*
G37*
G36*
G01*
X80562500Y-112800000D02*
X80412500Y-112800000D01*
G75*
G02*
X80337500Y-112725000I0J75000D01*
G01*
X80337500Y-111325000D01*
G75*
G02*
X80412500Y-111250000I75000J0D01*
G01*
X80562500Y-111250000D01*
G75*
G02*
X80637500Y-111325000I0J-75000D01*
G01*
X80637500Y-112725000D01*
G75*
G02*
X80562500Y-112800000I-75000J0D01*
G01*
G37*
G36*
G01*
X80062500Y-112800000D02*
X79912500Y-112800000D01*
G75*
G02*
X79837500Y-112725000I0J75000D01*
G01*
X79837500Y-111325000D01*
G75*
G02*
X79912500Y-111250000I75000J0D01*
G01*
X80062500Y-111250000D01*
G75*
G02*
X80137500Y-111325000I0J-75000D01*
G01*
X80137500Y-112725000D01*
G75*
G02*
X80062500Y-112800000I-75000J0D01*
G01*
G37*
G36*
G01*
X79562500Y-112800000D02*
X79412500Y-112800000D01*
G75*
G02*
X79337500Y-112725000I0J75000D01*
G01*
X79337500Y-111325000D01*
G75*
G02*
X79412500Y-111250000I75000J0D01*
G01*
X79562500Y-111250000D01*
G75*
G02*
X79637500Y-111325000I0J-75000D01*
G01*
X79637500Y-112725000D01*
G75*
G02*
X79562500Y-112800000I-75000J0D01*
G01*
G37*
G36*
G01*
X79062500Y-112800000D02*
X78912500Y-112800000D01*
G75*
G02*
X78837500Y-112725000I0J75000D01*
G01*
X78837500Y-111325000D01*
G75*
G02*
X78912500Y-111250000I75000J0D01*
G01*
X79062500Y-111250000D01*
G75*
G02*
X79137500Y-111325000I0J-75000D01*
G01*
X79137500Y-112725000D01*
G75*
G02*
X79062500Y-112800000I-75000J0D01*
G01*
G37*
G36*
G01*
X78562500Y-112800000D02*
X78412500Y-112800000D01*
G75*
G02*
X78337500Y-112725000I0J75000D01*
G01*
X78337500Y-111325000D01*
G75*
G02*
X78412500Y-111250000I75000J0D01*
G01*
X78562500Y-111250000D01*
G75*
G02*
X78637500Y-111325000I0J-75000D01*
G01*
X78637500Y-112725000D01*
G75*
G02*
X78562500Y-112800000I-75000J0D01*
G01*
G37*
G36*
G01*
X78062500Y-112800000D02*
X77912500Y-112800000D01*
G75*
G02*
X77837500Y-112725000I0J75000D01*
G01*
X77837500Y-111325000D01*
G75*
G02*
X77912500Y-111250000I75000J0D01*
G01*
X78062500Y-111250000D01*
G75*
G02*
X78137500Y-111325000I0J-75000D01*
G01*
X78137500Y-112725000D01*
G75*
G02*
X78062500Y-112800000I-75000J0D01*
G01*
G37*
G36*
G01*
X77562500Y-112800000D02*
X77412500Y-112800000D01*
G75*
G02*
X77337500Y-112725000I0J75000D01*
G01*
X77337500Y-111325000D01*
G75*
G02*
X77412500Y-111250000I75000J0D01*
G01*
X77562500Y-111250000D01*
G75*
G02*
X77637500Y-111325000I0J-75000D01*
G01*
X77637500Y-112725000D01*
G75*
G02*
X77562500Y-112800000I-75000J0D01*
G01*
G37*
G36*
G01*
X77062500Y-112800000D02*
X76912500Y-112800000D01*
G75*
G02*
X76837500Y-112725000I0J75000D01*
G01*
X76837500Y-111325000D01*
G75*
G02*
X76912500Y-111250000I75000J0D01*
G01*
X77062500Y-111250000D01*
G75*
G02*
X77137500Y-111325000I0J-75000D01*
G01*
X77137500Y-112725000D01*
G75*
G02*
X77062500Y-112800000I-75000J0D01*
G01*
G37*
G36*
G01*
X76562500Y-112800000D02*
X76412500Y-112800000D01*
G75*
G02*
X76337500Y-112725000I0J75000D01*
G01*
X76337500Y-111325000D01*
G75*
G02*
X76412500Y-111250000I75000J0D01*
G01*
X76562500Y-111250000D01*
G75*
G02*
X76637500Y-111325000I0J-75000D01*
G01*
X76637500Y-112725000D01*
G75*
G02*
X76562500Y-112800000I-75000J0D01*
G01*
G37*
G36*
G01*
X76062500Y-112800000D02*
X75912500Y-112800000D01*
G75*
G02*
X75837500Y-112725000I0J75000D01*
G01*
X75837500Y-111325000D01*
G75*
G02*
X75912500Y-111250000I75000J0D01*
G01*
X76062500Y-111250000D01*
G75*
G02*
X76137500Y-111325000I0J-75000D01*
G01*
X76137500Y-112725000D01*
G75*
G02*
X76062500Y-112800000I-75000J0D01*
G01*
G37*
G36*
G01*
X75562500Y-112800000D02*
X75412500Y-112800000D01*
G75*
G02*
X75337500Y-112725000I0J75000D01*
G01*
X75337500Y-111325000D01*
G75*
G02*
X75412500Y-111250000I75000J0D01*
G01*
X75562500Y-111250000D01*
G75*
G02*
X75637500Y-111325000I0J-75000D01*
G01*
X75637500Y-112725000D01*
G75*
G02*
X75562500Y-112800000I-75000J0D01*
G01*
G37*
G36*
G01*
X75062500Y-112800000D02*
X74912500Y-112800000D01*
G75*
G02*
X74837500Y-112725000I0J75000D01*
G01*
X74837500Y-111325000D01*
G75*
G02*
X74912500Y-111250000I75000J0D01*
G01*
X75062500Y-111250000D01*
G75*
G02*
X75137500Y-111325000I0J-75000D01*
G01*
X75137500Y-112725000D01*
G75*
G02*
X75062500Y-112800000I-75000J0D01*
G01*
G37*
G36*
G01*
X74562500Y-112800000D02*
X74412500Y-112800000D01*
G75*
G02*
X74337500Y-112725000I0J75000D01*
G01*
X74337500Y-111325000D01*
G75*
G02*
X74412500Y-111250000I75000J0D01*
G01*
X74562500Y-111250000D01*
G75*
G02*
X74637500Y-111325000I0J-75000D01*
G01*
X74637500Y-112725000D01*
G75*
G02*
X74562500Y-112800000I-75000J0D01*
G01*
G37*
G36*
G01*
X74062500Y-112800000D02*
X73912500Y-112800000D01*
G75*
G02*
X73837500Y-112725000I0J75000D01*
G01*
X73837500Y-111325000D01*
G75*
G02*
X73912500Y-111250000I75000J0D01*
G01*
X74062500Y-111250000D01*
G75*
G02*
X74137500Y-111325000I0J-75000D01*
G01*
X74137500Y-112725000D01*
G75*
G02*
X74062500Y-112800000I-75000J0D01*
G01*
G37*
G36*
G01*
X73562500Y-112800000D02*
X73412500Y-112800000D01*
G75*
G02*
X73337500Y-112725000I0J75000D01*
G01*
X73337500Y-111325000D01*
G75*
G02*
X73412500Y-111250000I75000J0D01*
G01*
X73562500Y-111250000D01*
G75*
G02*
X73637500Y-111325000I0J-75000D01*
G01*
X73637500Y-112725000D01*
G75*
G02*
X73562500Y-112800000I-75000J0D01*
G01*
G37*
G36*
G01*
X73062500Y-112800000D02*
X72912500Y-112800000D01*
G75*
G02*
X72837500Y-112725000I0J75000D01*
G01*
X72837500Y-111325000D01*
G75*
G02*
X72912500Y-111250000I75000J0D01*
G01*
X73062500Y-111250000D01*
G75*
G02*
X73137500Y-111325000I0J-75000D01*
G01*
X73137500Y-112725000D01*
G75*
G02*
X73062500Y-112800000I-75000J0D01*
G01*
G37*
G36*
G01*
X66450000Y-89456250D02*
X66450000Y-88543750D01*
G75*
G02*
X66693750Y-88300000I243750J0D01*
G01*
X67181250Y-88300000D01*
G75*
G02*
X67425000Y-88543750I0J-243750D01*
G01*
X67425000Y-89456250D01*
G75*
G02*
X67181250Y-89700000I-243750J0D01*
G01*
X66693750Y-89700000D01*
G75*
G02*
X66450000Y-89456250I0J243750D01*
G01*
G37*
G36*
G01*
X64575000Y-89456250D02*
X64575000Y-88543750D01*
G75*
G02*
X64818750Y-88300000I243750J0D01*
G01*
X65306250Y-88300000D01*
G75*
G02*
X65550000Y-88543750I0J-243750D01*
G01*
X65550000Y-89456250D01*
G75*
G02*
X65306250Y-89700000I-243750J0D01*
G01*
X64818750Y-89700000D01*
G75*
G02*
X64575000Y-89456250I0J243750D01*
G01*
G37*
G36*
G01*
X66450000Y-85456250D02*
X66450000Y-84543750D01*
G75*
G02*
X66693750Y-84300000I243750J0D01*
G01*
X67181250Y-84300000D01*
G75*
G02*
X67425000Y-84543750I0J-243750D01*
G01*
X67425000Y-85456250D01*
G75*
G02*
X67181250Y-85700000I-243750J0D01*
G01*
X66693750Y-85700000D01*
G75*
G02*
X66450000Y-85456250I0J243750D01*
G01*
G37*
G36*
G01*
X64575000Y-85456250D02*
X64575000Y-84543750D01*
G75*
G02*
X64818750Y-84300000I243750J0D01*
G01*
X65306250Y-84300000D01*
G75*
G02*
X65550000Y-84543750I0J-243750D01*
G01*
X65550000Y-85456250D01*
G75*
G02*
X65306250Y-85700000I-243750J0D01*
G01*
X64818750Y-85700000D01*
G75*
G02*
X64575000Y-85456250I0J243750D01*
G01*
G37*
G36*
G01*
X68112500Y-67743750D02*
X68112500Y-68256250D01*
G75*
G02*
X67893750Y-68475000I-218750J0D01*
G01*
X67456250Y-68475000D01*
G75*
G02*
X67237500Y-68256250I0J218750D01*
G01*
X67237500Y-67743750D01*
G75*
G02*
X67456250Y-67525000I218750J0D01*
G01*
X67893750Y-67525000D01*
G75*
G02*
X68112500Y-67743750I0J-218750D01*
G01*
G37*
G36*
G01*
X69687500Y-67743750D02*
X69687500Y-68256250D01*
G75*
G02*
X69468750Y-68475000I-218750J0D01*
G01*
X69031250Y-68475000D01*
G75*
G02*
X68812500Y-68256250I0J218750D01*
G01*
X68812500Y-67743750D01*
G75*
G02*
X69031250Y-67525000I218750J0D01*
G01*
X69468750Y-67525000D01*
G75*
G02*
X69687500Y-67743750I0J-218750D01*
G01*
G37*
G36*
G01*
X60912500Y-71356250D02*
X60912500Y-70843750D01*
G75*
G02*
X61131250Y-70625000I218750J0D01*
G01*
X61568750Y-70625000D01*
G75*
G02*
X61787500Y-70843750I0J-218750D01*
G01*
X61787500Y-71356250D01*
G75*
G02*
X61568750Y-71575000I-218750J0D01*
G01*
X61131250Y-71575000D01*
G75*
G02*
X60912500Y-71356250I0J218750D01*
G01*
G37*
G36*
G01*
X59337500Y-71356250D02*
X59337500Y-70843750D01*
G75*
G02*
X59556250Y-70625000I218750J0D01*
G01*
X59993750Y-70625000D01*
G75*
G02*
X60212500Y-70843750I0J-218750D01*
G01*
X60212500Y-71356250D01*
G75*
G02*
X59993750Y-71575000I-218750J0D01*
G01*
X59556250Y-71575000D01*
G75*
G02*
X59337500Y-71356250I0J218750D01*
G01*
G37*
G36*
G01*
X60212500Y-69193750D02*
X60212500Y-69706250D01*
G75*
G02*
X59993750Y-69925000I-218750J0D01*
G01*
X59556250Y-69925000D01*
G75*
G02*
X59337500Y-69706250I0J218750D01*
G01*
X59337500Y-69193750D01*
G75*
G02*
X59556250Y-68975000I218750J0D01*
G01*
X59993750Y-68975000D01*
G75*
G02*
X60212500Y-69193750I0J-218750D01*
G01*
G37*
G36*
G01*
X61787500Y-69193750D02*
X61787500Y-69706250D01*
G75*
G02*
X61568750Y-69925000I-218750J0D01*
G01*
X61131250Y-69925000D01*
G75*
G02*
X60912500Y-69706250I0J218750D01*
G01*
X60912500Y-69193750D01*
G75*
G02*
X61131250Y-68975000I218750J0D01*
G01*
X61568750Y-68975000D01*
G75*
G02*
X61787500Y-69193750I0J-218750D01*
G01*
G37*
G36*
G01*
X72350000Y-67043750D02*
X72350000Y-67556250D01*
G75*
G02*
X72131250Y-67775000I-218750J0D01*
G01*
X71693750Y-67775000D01*
G75*
G02*
X71475000Y-67556250I0J218750D01*
G01*
X71475000Y-67043750D01*
G75*
G02*
X71693750Y-66825000I218750J0D01*
G01*
X72131250Y-66825000D01*
G75*
G02*
X72350000Y-67043750I0J-218750D01*
G01*
G37*
G36*
G01*
X73925000Y-67043750D02*
X73925000Y-67556250D01*
G75*
G02*
X73706250Y-67775000I-218750J0D01*
G01*
X73268750Y-67775000D01*
G75*
G02*
X73050000Y-67556250I0J218750D01*
G01*
X73050000Y-67043750D01*
G75*
G02*
X73268750Y-66825000I218750J0D01*
G01*
X73706250Y-66825000D01*
G75*
G02*
X73925000Y-67043750I0J-218750D01*
G01*
G37*
G36*
G01*
X81943750Y-66962500D02*
X82456250Y-66962500D01*
G75*
G02*
X82675000Y-67181250I0J-218750D01*
G01*
X82675000Y-67618750D01*
G75*
G02*
X82456250Y-67837500I-218750J0D01*
G01*
X81943750Y-67837500D01*
G75*
G02*
X81725000Y-67618750I0J218750D01*
G01*
X81725000Y-67181250D01*
G75*
G02*
X81943750Y-66962500I218750J0D01*
G01*
G37*
G36*
G01*
X81943750Y-65387500D02*
X82456250Y-65387500D01*
G75*
G02*
X82675000Y-65606250I0J-218750D01*
G01*
X82675000Y-66043750D01*
G75*
G02*
X82456250Y-66262500I-218750J0D01*
G01*
X81943750Y-66262500D01*
G75*
G02*
X81725000Y-66043750I0J218750D01*
G01*
X81725000Y-65606250D01*
G75*
G02*
X81943750Y-65387500I218750J0D01*
G01*
G37*
D12*
X87450000Y-54600000D03*
X85550000Y-54600000D03*
X85550000Y-52400000D03*
X86500000Y-52400000D03*
X87450000Y-52400000D03*
D13*
X62300000Y-76420000D03*
X61350000Y-76420000D03*
X60400000Y-76420000D03*
X60400000Y-73800000D03*
X61350000Y-73800000D03*
X62300000Y-73800000D03*
X68000000Y-66220000D03*
X67050000Y-66220000D03*
X66100000Y-66220000D03*
X66100000Y-63600000D03*
X67050000Y-63600000D03*
X68000000Y-63600000D03*
D14*
X100380000Y-71000000D03*
X100380000Y-70050000D03*
X100380000Y-69100000D03*
X103000000Y-69100000D03*
X103000000Y-70050000D03*
X103000000Y-71000000D03*
X87880000Y-71000000D03*
X87880000Y-70050000D03*
X87880000Y-69100000D03*
X90500000Y-69100000D03*
X90500000Y-70050000D03*
X90500000Y-71000000D03*
X75380000Y-71000000D03*
X75380000Y-70050000D03*
X75380000Y-69100000D03*
X78000000Y-69100000D03*
X78000000Y-70050000D03*
X78000000Y-71000000D03*
D15*
X98150000Y-74700000D03*
X98800000Y-74700000D03*
X99450000Y-74700000D03*
X100100000Y-74700000D03*
X100750000Y-74700000D03*
X101400000Y-74700000D03*
X102050000Y-74700000D03*
X102700000Y-74700000D03*
X103350000Y-74700000D03*
X104000000Y-74700000D03*
X104650000Y-74700000D03*
X105300000Y-74700000D03*
X105300000Y-80400000D03*
X104650000Y-80400000D03*
X104000000Y-80400000D03*
X103350000Y-80400000D03*
X102700000Y-80400000D03*
X102050000Y-80400000D03*
X101400000Y-80400000D03*
X100750000Y-80400000D03*
X100100000Y-80400000D03*
X99450000Y-80400000D03*
X98800000Y-80400000D03*
X98150000Y-80400000D03*
X85650000Y-74700000D03*
X86300000Y-74700000D03*
X86950000Y-74700000D03*
X87600000Y-74700000D03*
X88250000Y-74700000D03*
X88900000Y-74700000D03*
X89550000Y-74700000D03*
X90200000Y-74700000D03*
X90850000Y-74700000D03*
X91500000Y-74700000D03*
X92150000Y-74700000D03*
X92800000Y-74700000D03*
X92800000Y-80400000D03*
X92150000Y-80400000D03*
X91500000Y-80400000D03*
X90850000Y-80400000D03*
X90200000Y-80400000D03*
X89550000Y-80400000D03*
X88900000Y-80400000D03*
X88250000Y-80400000D03*
X87600000Y-80400000D03*
X86950000Y-80400000D03*
X86300000Y-80400000D03*
X85650000Y-80400000D03*
X73150000Y-74700000D03*
X73800000Y-74700000D03*
X74450000Y-74700000D03*
X75100000Y-74700000D03*
X75750000Y-74700000D03*
X76400000Y-74700000D03*
X77050000Y-74700000D03*
X77700000Y-74700000D03*
X78350000Y-74700000D03*
X79000000Y-74700000D03*
X79650000Y-74700000D03*
X80300000Y-74700000D03*
X80300000Y-80400000D03*
X79650000Y-80400000D03*
X79000000Y-80400000D03*
X78350000Y-80400000D03*
X77700000Y-80400000D03*
X77050000Y-80400000D03*
X76400000Y-80400000D03*
X75750000Y-80400000D03*
X75100000Y-80400000D03*
X74450000Y-80400000D03*
X73800000Y-80400000D03*
X73150000Y-80400000D03*
G36*
G01*
X74550000Y-52243750D02*
X74550000Y-52756250D01*
G75*
G02*
X74331250Y-52975000I-218750J0D01*
G01*
X73893750Y-52975000D01*
G75*
G02*
X73675000Y-52756250I0J218750D01*
G01*
X73675000Y-52243750D01*
G75*
G02*
X73893750Y-52025000I218750J0D01*
G01*
X74331250Y-52025000D01*
G75*
G02*
X74550000Y-52243750I0J-218750D01*
G01*
G37*
G36*
G01*
X76125000Y-52243750D02*
X76125000Y-52756250D01*
G75*
G02*
X75906250Y-52975000I-218750J0D01*
G01*
X75468750Y-52975000D01*
G75*
G02*
X75250000Y-52756250I0J218750D01*
G01*
X75250000Y-52243750D01*
G75*
G02*
X75468750Y-52025000I218750J0D01*
G01*
X75906250Y-52025000D01*
G75*
G02*
X76125000Y-52243750I0J-218750D01*
G01*
G37*
G36*
G01*
X77750000Y-52243750D02*
X77750000Y-52756250D01*
G75*
G02*
X77531250Y-52975000I-218750J0D01*
G01*
X77093750Y-52975000D01*
G75*
G02*
X76875000Y-52756250I0J218750D01*
G01*
X76875000Y-52243750D01*
G75*
G02*
X77093750Y-52025000I218750J0D01*
G01*
X77531250Y-52025000D01*
G75*
G02*
X77750000Y-52243750I0J-218750D01*
G01*
G37*
G36*
G01*
X79325000Y-52243750D02*
X79325000Y-52756250D01*
G75*
G02*
X79106250Y-52975000I-218750J0D01*
G01*
X78668750Y-52975000D01*
G75*
G02*
X78450000Y-52756250I0J218750D01*
G01*
X78450000Y-52243750D01*
G75*
G02*
X78668750Y-52025000I218750J0D01*
G01*
X79106250Y-52025000D01*
G75*
G02*
X79325000Y-52243750I0J-218750D01*
G01*
G37*
G36*
G01*
X80950000Y-52243750D02*
X80950000Y-52756250D01*
G75*
G02*
X80731250Y-52975000I-218750J0D01*
G01*
X80293750Y-52975000D01*
G75*
G02*
X80075000Y-52756250I0J218750D01*
G01*
X80075000Y-52243750D01*
G75*
G02*
X80293750Y-52025000I218750J0D01*
G01*
X80731250Y-52025000D01*
G75*
G02*
X80950000Y-52243750I0J-218750D01*
G01*
G37*
G36*
G01*
X82525000Y-52243750D02*
X82525000Y-52756250D01*
G75*
G02*
X82306250Y-52975000I-218750J0D01*
G01*
X81868750Y-52975000D01*
G75*
G02*
X81650000Y-52756250I0J218750D01*
G01*
X81650000Y-52243750D01*
G75*
G02*
X81868750Y-52025000I218750J0D01*
G01*
X82306250Y-52025000D01*
G75*
G02*
X82525000Y-52243750I0J-218750D01*
G01*
G37*
G36*
G01*
X62412500Y-77943750D02*
X62412500Y-78456250D01*
G75*
G02*
X62193750Y-78675000I-218750J0D01*
G01*
X61756250Y-78675000D01*
G75*
G02*
X61537500Y-78456250I0J218750D01*
G01*
X61537500Y-77943750D01*
G75*
G02*
X61756250Y-77725000I218750J0D01*
G01*
X62193750Y-77725000D01*
G75*
G02*
X62412500Y-77943750I0J-218750D01*
G01*
G37*
G36*
G01*
X63987500Y-77943750D02*
X63987500Y-78456250D01*
G75*
G02*
X63768750Y-78675000I-218750J0D01*
G01*
X63331250Y-78675000D01*
G75*
G02*
X63112500Y-78456250I0J218750D01*
G01*
X63112500Y-77943750D01*
G75*
G02*
X63331250Y-77725000I218750J0D01*
G01*
X63768750Y-77725000D01*
G75*
G02*
X63987500Y-77943750I0J-218750D01*
G01*
G37*
G36*
G01*
X63350000Y-69193750D02*
X63350000Y-69706250D01*
G75*
G02*
X63131250Y-69925000I-218750J0D01*
G01*
X62693750Y-69925000D01*
G75*
G02*
X62475000Y-69706250I0J218750D01*
G01*
X62475000Y-69193750D01*
G75*
G02*
X62693750Y-68975000I218750J0D01*
G01*
X63131250Y-68975000D01*
G75*
G02*
X63350000Y-69193750I0J-218750D01*
G01*
G37*
G36*
G01*
X64925000Y-69193750D02*
X64925000Y-69706250D01*
G75*
G02*
X64706250Y-69925000I-218750J0D01*
G01*
X64268750Y-69925000D01*
G75*
G02*
X64050000Y-69706250I0J218750D01*
G01*
X64050000Y-69193750D01*
G75*
G02*
X64268750Y-68975000I218750J0D01*
G01*
X64706250Y-68975000D01*
G75*
G02*
X64925000Y-69193750I0J-218750D01*
G01*
G37*
G36*
G01*
X65912500Y-58993750D02*
X65912500Y-59506250D01*
G75*
G02*
X65693750Y-59725000I-218750J0D01*
G01*
X65256250Y-59725000D01*
G75*
G02*
X65037500Y-59506250I0J218750D01*
G01*
X65037500Y-58993750D01*
G75*
G02*
X65256250Y-58775000I218750J0D01*
G01*
X65693750Y-58775000D01*
G75*
G02*
X65912500Y-58993750I0J-218750D01*
G01*
G37*
G36*
G01*
X67487500Y-58993750D02*
X67487500Y-59506250D01*
G75*
G02*
X67268750Y-59725000I-218750J0D01*
G01*
X66831250Y-59725000D01*
G75*
G02*
X66612500Y-59506250I0J218750D01*
G01*
X66612500Y-58993750D01*
G75*
G02*
X66831250Y-58775000I218750J0D01*
G01*
X67268750Y-58775000D01*
G75*
G02*
X67487500Y-58993750I0J-218750D01*
G01*
G37*
G36*
G01*
X69050000Y-58993750D02*
X69050000Y-59506250D01*
G75*
G02*
X68831250Y-59725000I-218750J0D01*
G01*
X68393750Y-59725000D01*
G75*
G02*
X68175000Y-59506250I0J218750D01*
G01*
X68175000Y-58993750D01*
G75*
G02*
X68393750Y-58775000I218750J0D01*
G01*
X68831250Y-58775000D01*
G75*
G02*
X69050000Y-58993750I0J-218750D01*
G01*
G37*
G36*
G01*
X70625000Y-58993750D02*
X70625000Y-59506250D01*
G75*
G02*
X70406250Y-59725000I-218750J0D01*
G01*
X69968750Y-59725000D01*
G75*
G02*
X69750000Y-59506250I0J218750D01*
G01*
X69750000Y-58993750D01*
G75*
G02*
X69968750Y-58775000I218750J0D01*
G01*
X70406250Y-58775000D01*
G75*
G02*
X70625000Y-58993750I0J-218750D01*
G01*
G37*
G36*
G01*
X154562500Y-62056250D02*
X154562500Y-61543750D01*
G75*
G02*
X154781250Y-61325000I218750J0D01*
G01*
X155218750Y-61325000D01*
G75*
G02*
X155437500Y-61543750I0J-218750D01*
G01*
X155437500Y-62056250D01*
G75*
G02*
X155218750Y-62275000I-218750J0D01*
G01*
X154781250Y-62275000D01*
G75*
G02*
X154562500Y-62056250I0J218750D01*
G01*
G37*
G36*
G01*
X152987500Y-62056250D02*
X152987500Y-61543750D01*
G75*
G02*
X153206250Y-61325000I218750J0D01*
G01*
X153643750Y-61325000D01*
G75*
G02*
X153862500Y-61543750I0J-218750D01*
G01*
X153862500Y-62056250D01*
G75*
G02*
X153643750Y-62275000I-218750J0D01*
G01*
X153206250Y-62275000D01*
G75*
G02*
X152987500Y-62056250I0J218750D01*
G01*
G37*
G36*
G01*
X156150000Y-60456250D02*
X156150000Y-59943750D01*
G75*
G02*
X156368750Y-59725000I218750J0D01*
G01*
X156806250Y-59725000D01*
G75*
G02*
X157025000Y-59943750I0J-218750D01*
G01*
X157025000Y-60456250D01*
G75*
G02*
X156806250Y-60675000I-218750J0D01*
G01*
X156368750Y-60675000D01*
G75*
G02*
X156150000Y-60456250I0J218750D01*
G01*
G37*
G36*
G01*
X154575000Y-60456250D02*
X154575000Y-59943750D01*
G75*
G02*
X154793750Y-59725000I218750J0D01*
G01*
X155231250Y-59725000D01*
G75*
G02*
X155450000Y-59943750I0J-218750D01*
G01*
X155450000Y-60456250D01*
G75*
G02*
X155231250Y-60675000I-218750J0D01*
G01*
X154793750Y-60675000D01*
G75*
G02*
X154575000Y-60456250I0J218750D01*
G01*
G37*
G36*
G01*
X153862500Y-58343750D02*
X153862500Y-58856250D01*
G75*
G02*
X153643750Y-59075000I-218750J0D01*
G01*
X153206250Y-59075000D01*
G75*
G02*
X152987500Y-58856250I0J218750D01*
G01*
X152987500Y-58343750D01*
G75*
G02*
X153206250Y-58125000I218750J0D01*
G01*
X153643750Y-58125000D01*
G75*
G02*
X153862500Y-58343750I0J-218750D01*
G01*
G37*
G36*
G01*
X155437500Y-58343750D02*
X155437500Y-58856250D01*
G75*
G02*
X155218750Y-59075000I-218750J0D01*
G01*
X154781250Y-59075000D01*
G75*
G02*
X154562500Y-58856250I0J218750D01*
G01*
X154562500Y-58343750D01*
G75*
G02*
X154781250Y-58125000I218750J0D01*
G01*
X155218750Y-58125000D01*
G75*
G02*
X155437500Y-58343750I0J-218750D01*
G01*
G37*
G36*
G01*
X101250000Y-54056250D02*
X101250000Y-53543750D01*
G75*
G02*
X101468750Y-53325000I218750J0D01*
G01*
X101906250Y-53325000D01*
G75*
G02*
X102125000Y-53543750I0J-218750D01*
G01*
X102125000Y-54056250D01*
G75*
G02*
X101906250Y-54275000I-218750J0D01*
G01*
X101468750Y-54275000D01*
G75*
G02*
X101250000Y-54056250I0J218750D01*
G01*
G37*
G36*
G01*
X99675000Y-54056250D02*
X99675000Y-53543750D01*
G75*
G02*
X99893750Y-53325000I218750J0D01*
G01*
X100331250Y-53325000D01*
G75*
G02*
X100550000Y-53543750I0J-218750D01*
G01*
X100550000Y-54056250D01*
G75*
G02*
X100331250Y-54275000I-218750J0D01*
G01*
X99893750Y-54275000D01*
G75*
G02*
X99675000Y-54056250I0J218750D01*
G01*
G37*
G36*
G01*
X101250000Y-57256250D02*
X101250000Y-56743750D01*
G75*
G02*
X101468750Y-56525000I218750J0D01*
G01*
X101906250Y-56525000D01*
G75*
G02*
X102125000Y-56743750I0J-218750D01*
G01*
X102125000Y-57256250D01*
G75*
G02*
X101906250Y-57475000I-218750J0D01*
G01*
X101468750Y-57475000D01*
G75*
G02*
X101250000Y-57256250I0J218750D01*
G01*
G37*
G36*
G01*
X99675000Y-57256250D02*
X99675000Y-56743750D01*
G75*
G02*
X99893750Y-56525000I218750J0D01*
G01*
X100331250Y-56525000D01*
G75*
G02*
X100550000Y-56743750I0J-218750D01*
G01*
X100550000Y-57256250D01*
G75*
G02*
X100331250Y-57475000I-218750J0D01*
G01*
X99893750Y-57475000D01*
G75*
G02*
X99675000Y-57256250I0J218750D01*
G01*
G37*
G36*
G01*
X101250000Y-60456250D02*
X101250000Y-59943750D01*
G75*
G02*
X101468750Y-59725000I218750J0D01*
G01*
X101906250Y-59725000D01*
G75*
G02*
X102125000Y-59943750I0J-218750D01*
G01*
X102125000Y-60456250D01*
G75*
G02*
X101906250Y-60675000I-218750J0D01*
G01*
X101468750Y-60675000D01*
G75*
G02*
X101250000Y-60456250I0J218750D01*
G01*
G37*
G36*
G01*
X99675000Y-60456250D02*
X99675000Y-59943750D01*
G75*
G02*
X99893750Y-59725000I218750J0D01*
G01*
X100331250Y-59725000D01*
G75*
G02*
X100550000Y-59943750I0J-218750D01*
G01*
X100550000Y-60456250D01*
G75*
G02*
X100331250Y-60675000I-218750J0D01*
G01*
X99893750Y-60675000D01*
G75*
G02*
X99675000Y-60456250I0J218750D01*
G01*
G37*
G36*
G01*
X102562500Y-73056250D02*
X102562500Y-72543750D01*
G75*
G02*
X102781250Y-72325000I218750J0D01*
G01*
X103218750Y-72325000D01*
G75*
G02*
X103437500Y-72543750I0J-218750D01*
G01*
X103437500Y-73056250D01*
G75*
G02*
X103218750Y-73275000I-218750J0D01*
G01*
X102781250Y-73275000D01*
G75*
G02*
X102562500Y-73056250I0J218750D01*
G01*
G37*
G36*
G01*
X100987500Y-73056250D02*
X100987500Y-72543750D01*
G75*
G02*
X101206250Y-72325000I218750J0D01*
G01*
X101643750Y-72325000D01*
G75*
G02*
X101862500Y-72543750I0J-218750D01*
G01*
X101862500Y-73056250D01*
G75*
G02*
X101643750Y-73275000I-218750J0D01*
G01*
X101206250Y-73275000D01*
G75*
G02*
X100987500Y-73056250I0J218750D01*
G01*
G37*
G36*
G01*
X97756250Y-69850000D02*
X97243750Y-69850000D01*
G75*
G02*
X97025000Y-69631250I0J218750D01*
G01*
X97025000Y-69193750D01*
G75*
G02*
X97243750Y-68975000I218750J0D01*
G01*
X97756250Y-68975000D01*
G75*
G02*
X97975000Y-69193750I0J-218750D01*
G01*
X97975000Y-69631250D01*
G75*
G02*
X97756250Y-69850000I-218750J0D01*
G01*
G37*
G36*
G01*
X97756250Y-71425000D02*
X97243750Y-71425000D01*
G75*
G02*
X97025000Y-71206250I0J218750D01*
G01*
X97025000Y-70768750D01*
G75*
G02*
X97243750Y-70550000I218750J0D01*
G01*
X97756250Y-70550000D01*
G75*
G02*
X97975000Y-70768750I0J-218750D01*
G01*
X97975000Y-71206250D01*
G75*
G02*
X97756250Y-71425000I-218750J0D01*
G01*
G37*
G36*
G01*
X97350000Y-67043750D02*
X97350000Y-67556250D01*
G75*
G02*
X97131250Y-67775000I-218750J0D01*
G01*
X96693750Y-67775000D01*
G75*
G02*
X96475000Y-67556250I0J218750D01*
G01*
X96475000Y-67043750D01*
G75*
G02*
X96693750Y-66825000I218750J0D01*
G01*
X97131250Y-66825000D01*
G75*
G02*
X97350000Y-67043750I0J-218750D01*
G01*
G37*
G36*
G01*
X98925000Y-67043750D02*
X98925000Y-67556250D01*
G75*
G02*
X98706250Y-67775000I-218750J0D01*
G01*
X98268750Y-67775000D01*
G75*
G02*
X98050000Y-67556250I0J218750D01*
G01*
X98050000Y-67043750D01*
G75*
G02*
X98268750Y-66825000I218750J0D01*
G01*
X98706250Y-66825000D01*
G75*
G02*
X98925000Y-67043750I0J-218750D01*
G01*
G37*
G36*
G01*
X100650000Y-67043750D02*
X100650000Y-67556250D01*
G75*
G02*
X100431250Y-67775000I-218750J0D01*
G01*
X99993750Y-67775000D01*
G75*
G02*
X99775000Y-67556250I0J218750D01*
G01*
X99775000Y-67043750D01*
G75*
G02*
X99993750Y-66825000I218750J0D01*
G01*
X100431250Y-66825000D01*
G75*
G02*
X100650000Y-67043750I0J-218750D01*
G01*
G37*
G36*
G01*
X102225000Y-67043750D02*
X102225000Y-67556250D01*
G75*
G02*
X102006250Y-67775000I-218750J0D01*
G01*
X101568750Y-67775000D01*
G75*
G02*
X101350000Y-67556250I0J218750D01*
G01*
X101350000Y-67043750D01*
G75*
G02*
X101568750Y-66825000I218750J0D01*
G01*
X102006250Y-66825000D01*
G75*
G02*
X102225000Y-67043750I0J-218750D01*
G01*
G37*
G36*
G01*
X106037500Y-68843750D02*
X106037500Y-69356250D01*
G75*
G02*
X105818750Y-69575000I-218750J0D01*
G01*
X105381250Y-69575000D01*
G75*
G02*
X105162500Y-69356250I0J218750D01*
G01*
X105162500Y-68843750D01*
G75*
G02*
X105381250Y-68625000I218750J0D01*
G01*
X105818750Y-68625000D01*
G75*
G02*
X106037500Y-68843750I0J-218750D01*
G01*
G37*
G36*
G01*
X107612500Y-68843750D02*
X107612500Y-69356250D01*
G75*
G02*
X107393750Y-69575000I-218750J0D01*
G01*
X106956250Y-69575000D01*
G75*
G02*
X106737500Y-69356250I0J218750D01*
G01*
X106737500Y-68843750D01*
G75*
G02*
X106956250Y-68625000I218750J0D01*
G01*
X107393750Y-68625000D01*
G75*
G02*
X107612500Y-68843750I0J-218750D01*
G01*
G37*
G36*
G01*
X106943750Y-66962500D02*
X107456250Y-66962500D01*
G75*
G02*
X107675000Y-67181250I0J-218750D01*
G01*
X107675000Y-67618750D01*
G75*
G02*
X107456250Y-67837500I-218750J0D01*
G01*
X106943750Y-67837500D01*
G75*
G02*
X106725000Y-67618750I0J218750D01*
G01*
X106725000Y-67181250D01*
G75*
G02*
X106943750Y-66962500I218750J0D01*
G01*
G37*
G36*
G01*
X106943750Y-65387500D02*
X107456250Y-65387500D01*
G75*
G02*
X107675000Y-65606250I0J-218750D01*
G01*
X107675000Y-66043750D01*
G75*
G02*
X107456250Y-66262500I-218750J0D01*
G01*
X106943750Y-66262500D01*
G75*
G02*
X106725000Y-66043750I0J218750D01*
G01*
X106725000Y-65606250D01*
G75*
G02*
X106943750Y-65387500I218750J0D01*
G01*
G37*
G36*
G01*
X157850000Y-55143750D02*
X157850000Y-55656250D01*
G75*
G02*
X157631250Y-55875000I-218750J0D01*
G01*
X157193750Y-55875000D01*
G75*
G02*
X156975000Y-55656250I0J218750D01*
G01*
X156975000Y-55143750D01*
G75*
G02*
X157193750Y-54925000I218750J0D01*
G01*
X157631250Y-54925000D01*
G75*
G02*
X157850000Y-55143750I0J-218750D01*
G01*
G37*
G36*
G01*
X159425000Y-55143750D02*
X159425000Y-55656250D01*
G75*
G02*
X159206250Y-55875000I-218750J0D01*
G01*
X158768750Y-55875000D01*
G75*
G02*
X158550000Y-55656250I0J218750D01*
G01*
X158550000Y-55143750D01*
G75*
G02*
X158768750Y-54925000I218750J0D01*
G01*
X159206250Y-54925000D01*
G75*
G02*
X159425000Y-55143750I0J-218750D01*
G01*
G37*
G36*
G01*
X158562500Y-57256250D02*
X158562500Y-56743750D01*
G75*
G02*
X158781250Y-56525000I218750J0D01*
G01*
X159218750Y-56525000D01*
G75*
G02*
X159437500Y-56743750I0J-218750D01*
G01*
X159437500Y-57256250D01*
G75*
G02*
X159218750Y-57475000I-218750J0D01*
G01*
X158781250Y-57475000D01*
G75*
G02*
X158562500Y-57256250I0J218750D01*
G01*
G37*
G36*
G01*
X156987500Y-57256250D02*
X156987500Y-56743750D01*
G75*
G02*
X157206250Y-56525000I218750J0D01*
G01*
X157643750Y-56525000D01*
G75*
G02*
X157862500Y-56743750I0J-218750D01*
G01*
X157862500Y-57256250D01*
G75*
G02*
X157643750Y-57475000I-218750J0D01*
G01*
X157206250Y-57475000D01*
G75*
G02*
X156987500Y-57256250I0J218750D01*
G01*
G37*
G36*
G01*
X158550000Y-58856250D02*
X158550000Y-58343750D01*
G75*
G02*
X158768750Y-58125000I218750J0D01*
G01*
X159206250Y-58125000D01*
G75*
G02*
X159425000Y-58343750I0J-218750D01*
G01*
X159425000Y-58856250D01*
G75*
G02*
X159206250Y-59075000I-218750J0D01*
G01*
X158768750Y-59075000D01*
G75*
G02*
X158550000Y-58856250I0J218750D01*
G01*
G37*
G36*
G01*
X156975000Y-58856250D02*
X156975000Y-58343750D01*
G75*
G02*
X157193750Y-58125000I218750J0D01*
G01*
X157631250Y-58125000D01*
G75*
G02*
X157850000Y-58343750I0J-218750D01*
G01*
X157850000Y-58856250D01*
G75*
G02*
X157631250Y-59075000I-218750J0D01*
G01*
X157193750Y-59075000D01*
G75*
G02*
X156975000Y-58856250I0J218750D01*
G01*
G37*
G36*
G01*
X90062500Y-73056250D02*
X90062500Y-72543750D01*
G75*
G02*
X90281250Y-72325000I218750J0D01*
G01*
X90718750Y-72325000D01*
G75*
G02*
X90937500Y-72543750I0J-218750D01*
G01*
X90937500Y-73056250D01*
G75*
G02*
X90718750Y-73275000I-218750J0D01*
G01*
X90281250Y-73275000D01*
G75*
G02*
X90062500Y-73056250I0J218750D01*
G01*
G37*
G36*
G01*
X88487500Y-73056250D02*
X88487500Y-72543750D01*
G75*
G02*
X88706250Y-72325000I218750J0D01*
G01*
X89143750Y-72325000D01*
G75*
G02*
X89362500Y-72543750I0J-218750D01*
G01*
X89362500Y-73056250D01*
G75*
G02*
X89143750Y-73275000I-218750J0D01*
G01*
X88706250Y-73275000D01*
G75*
G02*
X88487500Y-73056250I0J218750D01*
G01*
G37*
G36*
G01*
X85256250Y-69850000D02*
X84743750Y-69850000D01*
G75*
G02*
X84525000Y-69631250I0J218750D01*
G01*
X84525000Y-69193750D01*
G75*
G02*
X84743750Y-68975000I218750J0D01*
G01*
X85256250Y-68975000D01*
G75*
G02*
X85475000Y-69193750I0J-218750D01*
G01*
X85475000Y-69631250D01*
G75*
G02*
X85256250Y-69850000I-218750J0D01*
G01*
G37*
G36*
G01*
X85256250Y-71425000D02*
X84743750Y-71425000D01*
G75*
G02*
X84525000Y-71206250I0J218750D01*
G01*
X84525000Y-70768750D01*
G75*
G02*
X84743750Y-70550000I218750J0D01*
G01*
X85256250Y-70550000D01*
G75*
G02*
X85475000Y-70768750I0J-218750D01*
G01*
X85475000Y-71206250D01*
G75*
G02*
X85256250Y-71425000I-218750J0D01*
G01*
G37*
G36*
G01*
X84850000Y-67043750D02*
X84850000Y-67556250D01*
G75*
G02*
X84631250Y-67775000I-218750J0D01*
G01*
X84193750Y-67775000D01*
G75*
G02*
X83975000Y-67556250I0J218750D01*
G01*
X83975000Y-67043750D01*
G75*
G02*
X84193750Y-66825000I218750J0D01*
G01*
X84631250Y-66825000D01*
G75*
G02*
X84850000Y-67043750I0J-218750D01*
G01*
G37*
G36*
G01*
X86425000Y-67043750D02*
X86425000Y-67556250D01*
G75*
G02*
X86206250Y-67775000I-218750J0D01*
G01*
X85768750Y-67775000D01*
G75*
G02*
X85550000Y-67556250I0J218750D01*
G01*
X85550000Y-67043750D01*
G75*
G02*
X85768750Y-66825000I218750J0D01*
G01*
X86206250Y-66825000D01*
G75*
G02*
X86425000Y-67043750I0J-218750D01*
G01*
G37*
G36*
G01*
X88150000Y-67043750D02*
X88150000Y-67556250D01*
G75*
G02*
X87931250Y-67775000I-218750J0D01*
G01*
X87493750Y-67775000D01*
G75*
G02*
X87275000Y-67556250I0J218750D01*
G01*
X87275000Y-67043750D01*
G75*
G02*
X87493750Y-66825000I218750J0D01*
G01*
X87931250Y-66825000D01*
G75*
G02*
X88150000Y-67043750I0J-218750D01*
G01*
G37*
G36*
G01*
X89725000Y-67043750D02*
X89725000Y-67556250D01*
G75*
G02*
X89506250Y-67775000I-218750J0D01*
G01*
X89068750Y-67775000D01*
G75*
G02*
X88850000Y-67556250I0J218750D01*
G01*
X88850000Y-67043750D01*
G75*
G02*
X89068750Y-66825000I218750J0D01*
G01*
X89506250Y-66825000D01*
G75*
G02*
X89725000Y-67043750I0J-218750D01*
G01*
G37*
G36*
G01*
X93537500Y-68843750D02*
X93537500Y-69356250D01*
G75*
G02*
X93318750Y-69575000I-218750J0D01*
G01*
X92881250Y-69575000D01*
G75*
G02*
X92662500Y-69356250I0J218750D01*
G01*
X92662500Y-68843750D01*
G75*
G02*
X92881250Y-68625000I218750J0D01*
G01*
X93318750Y-68625000D01*
G75*
G02*
X93537500Y-68843750I0J-218750D01*
G01*
G37*
G36*
G01*
X95112500Y-68843750D02*
X95112500Y-69356250D01*
G75*
G02*
X94893750Y-69575000I-218750J0D01*
G01*
X94456250Y-69575000D01*
G75*
G02*
X94237500Y-69356250I0J218750D01*
G01*
X94237500Y-68843750D01*
G75*
G02*
X94456250Y-68625000I218750J0D01*
G01*
X94893750Y-68625000D01*
G75*
G02*
X95112500Y-68843750I0J-218750D01*
G01*
G37*
G36*
G01*
X94443750Y-66962500D02*
X94956250Y-66962500D01*
G75*
G02*
X95175000Y-67181250I0J-218750D01*
G01*
X95175000Y-67618750D01*
G75*
G02*
X94956250Y-67837500I-218750J0D01*
G01*
X94443750Y-67837500D01*
G75*
G02*
X94225000Y-67618750I0J218750D01*
G01*
X94225000Y-67181250D01*
G75*
G02*
X94443750Y-66962500I218750J0D01*
G01*
G37*
G36*
G01*
X94443750Y-65387500D02*
X94956250Y-65387500D01*
G75*
G02*
X95175000Y-65606250I0J-218750D01*
G01*
X95175000Y-66043750D01*
G75*
G02*
X94956250Y-66262500I-218750J0D01*
G01*
X94443750Y-66262500D01*
G75*
G02*
X94225000Y-66043750I0J218750D01*
G01*
X94225000Y-65606250D01*
G75*
G02*
X94443750Y-65387500I218750J0D01*
G01*
G37*
G36*
G01*
X154562500Y-52456250D02*
X154562500Y-51943750D01*
G75*
G02*
X154781250Y-51725000I218750J0D01*
G01*
X155218750Y-51725000D01*
G75*
G02*
X155437500Y-51943750I0J-218750D01*
G01*
X155437500Y-52456250D01*
G75*
G02*
X155218750Y-52675000I-218750J0D01*
G01*
X154781250Y-52675000D01*
G75*
G02*
X154562500Y-52456250I0J218750D01*
G01*
G37*
G36*
G01*
X152987500Y-52456250D02*
X152987500Y-51943750D01*
G75*
G02*
X153206250Y-51725000I218750J0D01*
G01*
X153643750Y-51725000D01*
G75*
G02*
X153862500Y-51943750I0J-218750D01*
G01*
X153862500Y-52456250D01*
G75*
G02*
X153643750Y-52675000I-218750J0D01*
G01*
X153206250Y-52675000D01*
G75*
G02*
X152987500Y-52456250I0J218750D01*
G01*
G37*
G36*
G01*
X156150000Y-54056250D02*
X156150000Y-53543750D01*
G75*
G02*
X156368750Y-53325000I218750J0D01*
G01*
X156806250Y-53325000D01*
G75*
G02*
X157025000Y-53543750I0J-218750D01*
G01*
X157025000Y-54056250D01*
G75*
G02*
X156806250Y-54275000I-218750J0D01*
G01*
X156368750Y-54275000D01*
G75*
G02*
X156150000Y-54056250I0J218750D01*
G01*
G37*
G36*
G01*
X154575000Y-54056250D02*
X154575000Y-53543750D01*
G75*
G02*
X154793750Y-53325000I218750J0D01*
G01*
X155231250Y-53325000D01*
G75*
G02*
X155450000Y-53543750I0J-218750D01*
G01*
X155450000Y-54056250D01*
G75*
G02*
X155231250Y-54275000I-218750J0D01*
G01*
X154793750Y-54275000D01*
G75*
G02*
X154575000Y-54056250I0J218750D01*
G01*
G37*
G36*
G01*
X153862500Y-55143750D02*
X153862500Y-55656250D01*
G75*
G02*
X153643750Y-55875000I-218750J0D01*
G01*
X153206250Y-55875000D01*
G75*
G02*
X152987500Y-55656250I0J218750D01*
G01*
X152987500Y-55143750D01*
G75*
G02*
X153206250Y-54925000I218750J0D01*
G01*
X153643750Y-54925000D01*
G75*
G02*
X153862500Y-55143750I0J-218750D01*
G01*
G37*
G36*
G01*
X155437500Y-55143750D02*
X155437500Y-55656250D01*
G75*
G02*
X155218750Y-55875000I-218750J0D01*
G01*
X154781250Y-55875000D01*
G75*
G02*
X154562500Y-55656250I0J218750D01*
G01*
X154562500Y-55143750D01*
G75*
G02*
X154781250Y-54925000I218750J0D01*
G01*
X155218750Y-54925000D01*
G75*
G02*
X155437500Y-55143750I0J-218750D01*
G01*
G37*
G36*
G01*
X77562500Y-73056250D02*
X77562500Y-72543750D01*
G75*
G02*
X77781250Y-72325000I218750J0D01*
G01*
X78218750Y-72325000D01*
G75*
G02*
X78437500Y-72543750I0J-218750D01*
G01*
X78437500Y-73056250D01*
G75*
G02*
X78218750Y-73275000I-218750J0D01*
G01*
X77781250Y-73275000D01*
G75*
G02*
X77562500Y-73056250I0J218750D01*
G01*
G37*
G36*
G01*
X75987500Y-73056250D02*
X75987500Y-72543750D01*
G75*
G02*
X76206250Y-72325000I218750J0D01*
G01*
X76643750Y-72325000D01*
G75*
G02*
X76862500Y-72543750I0J-218750D01*
G01*
X76862500Y-73056250D01*
G75*
G02*
X76643750Y-73275000I-218750J0D01*
G01*
X76206250Y-73275000D01*
G75*
G02*
X75987500Y-73056250I0J218750D01*
G01*
G37*
G36*
G01*
X72756250Y-69850000D02*
X72243750Y-69850000D01*
G75*
G02*
X72025000Y-69631250I0J218750D01*
G01*
X72025000Y-69193750D01*
G75*
G02*
X72243750Y-68975000I218750J0D01*
G01*
X72756250Y-68975000D01*
G75*
G02*
X72975000Y-69193750I0J-218750D01*
G01*
X72975000Y-69631250D01*
G75*
G02*
X72756250Y-69850000I-218750J0D01*
G01*
G37*
G36*
G01*
X72756250Y-71425000D02*
X72243750Y-71425000D01*
G75*
G02*
X72025000Y-71206250I0J218750D01*
G01*
X72025000Y-70768750D01*
G75*
G02*
X72243750Y-70550000I218750J0D01*
G01*
X72756250Y-70550000D01*
G75*
G02*
X72975000Y-70768750I0J-218750D01*
G01*
X72975000Y-71206250D01*
G75*
G02*
X72756250Y-71425000I-218750J0D01*
G01*
G37*
G36*
G01*
X75650000Y-67043750D02*
X75650000Y-67556250D01*
G75*
G02*
X75431250Y-67775000I-218750J0D01*
G01*
X74993750Y-67775000D01*
G75*
G02*
X74775000Y-67556250I0J218750D01*
G01*
X74775000Y-67043750D01*
G75*
G02*
X74993750Y-66825000I218750J0D01*
G01*
X75431250Y-66825000D01*
G75*
G02*
X75650000Y-67043750I0J-218750D01*
G01*
G37*
G36*
G01*
X77225000Y-67043750D02*
X77225000Y-67556250D01*
G75*
G02*
X77006250Y-67775000I-218750J0D01*
G01*
X76568750Y-67775000D01*
G75*
G02*
X76350000Y-67556250I0J218750D01*
G01*
X76350000Y-67043750D01*
G75*
G02*
X76568750Y-66825000I218750J0D01*
G01*
X77006250Y-66825000D01*
G75*
G02*
X77225000Y-67043750I0J-218750D01*
G01*
G37*
G36*
G01*
X81037500Y-68843750D02*
X81037500Y-69356250D01*
G75*
G02*
X80818750Y-69575000I-218750J0D01*
G01*
X80381250Y-69575000D01*
G75*
G02*
X80162500Y-69356250I0J218750D01*
G01*
X80162500Y-68843750D01*
G75*
G02*
X80381250Y-68625000I218750J0D01*
G01*
X80818750Y-68625000D01*
G75*
G02*
X81037500Y-68843750I0J-218750D01*
G01*
G37*
G36*
G01*
X82612500Y-68843750D02*
X82612500Y-69356250D01*
G75*
G02*
X82393750Y-69575000I-218750J0D01*
G01*
X81956250Y-69575000D01*
G75*
G02*
X81737500Y-69356250I0J218750D01*
G01*
X81737500Y-68843750D01*
G75*
G02*
X81956250Y-68625000I218750J0D01*
G01*
X82393750Y-68625000D01*
G75*
G02*
X82612500Y-68843750I0J-218750D01*
G01*
G37*
G36*
G01*
X63350000Y-70843750D02*
X63350000Y-71356250D01*
G75*
G02*
X63131250Y-71575000I-218750J0D01*
G01*
X62693750Y-71575000D01*
G75*
G02*
X62475000Y-71356250I0J218750D01*
G01*
X62475000Y-70843750D01*
G75*
G02*
X62693750Y-70625000I218750J0D01*
G01*
X63131250Y-70625000D01*
G75*
G02*
X63350000Y-70843750I0J-218750D01*
G01*
G37*
G36*
G01*
X64925000Y-70843750D02*
X64925000Y-71356250D01*
G75*
G02*
X64706250Y-71575000I-218750J0D01*
G01*
X64268750Y-71575000D01*
G75*
G02*
X64050000Y-71356250I0J218750D01*
G01*
X64050000Y-70843750D01*
G75*
G02*
X64268750Y-70625000I218750J0D01*
G01*
X64706250Y-70625000D01*
G75*
G02*
X64925000Y-70843750I0J-218750D01*
G01*
G37*
G36*
G01*
X65037500Y-61156250D02*
X65037500Y-60643750D01*
G75*
G02*
X65256250Y-60425000I218750J0D01*
G01*
X65693750Y-60425000D01*
G75*
G02*
X65912500Y-60643750I0J-218750D01*
G01*
X65912500Y-61156250D01*
G75*
G02*
X65693750Y-61375000I-218750J0D01*
G01*
X65256250Y-61375000D01*
G75*
G02*
X65037500Y-61156250I0J218750D01*
G01*
G37*
G36*
G01*
X66612500Y-61156250D02*
X66612500Y-60643750D01*
G75*
G02*
X66831250Y-60425000I218750J0D01*
G01*
X67268750Y-60425000D01*
G75*
G02*
X67487500Y-60643750I0J-218750D01*
G01*
X67487500Y-61156250D01*
G75*
G02*
X67268750Y-61375000I-218750J0D01*
G01*
X66831250Y-61375000D01*
G75*
G02*
X66612500Y-61156250I0J218750D01*
G01*
G37*
G36*
G01*
X69050000Y-60643750D02*
X69050000Y-61156250D01*
G75*
G02*
X68831250Y-61375000I-218750J0D01*
G01*
X68393750Y-61375000D01*
G75*
G02*
X68175000Y-61156250I0J218750D01*
G01*
X68175000Y-60643750D01*
G75*
G02*
X68393750Y-60425000I218750J0D01*
G01*
X68831250Y-60425000D01*
G75*
G02*
X69050000Y-60643750I0J-218750D01*
G01*
G37*
G36*
G01*
X70625000Y-60643750D02*
X70625000Y-61156250D01*
G75*
G02*
X70406250Y-61375000I-218750J0D01*
G01*
X69968750Y-61375000D01*
G75*
G02*
X69750000Y-61156250I0J218750D01*
G01*
X69750000Y-60643750D01*
G75*
G02*
X69968750Y-60425000I218750J0D01*
G01*
X70406250Y-60425000D01*
G75*
G02*
X70625000Y-60643750I0J-218750D01*
G01*
G37*
G36*
G01*
X101250000Y-62056250D02*
X101250000Y-61543750D01*
G75*
G02*
X101468750Y-61325000I218750J0D01*
G01*
X101906250Y-61325000D01*
G75*
G02*
X102125000Y-61543750I0J-218750D01*
G01*
X102125000Y-62056250D01*
G75*
G02*
X101906250Y-62275000I-218750J0D01*
G01*
X101468750Y-62275000D01*
G75*
G02*
X101250000Y-62056250I0J218750D01*
G01*
G37*
G36*
G01*
X99675000Y-62056250D02*
X99675000Y-61543750D01*
G75*
G02*
X99893750Y-61325000I218750J0D01*
G01*
X100331250Y-61325000D01*
G75*
G02*
X100550000Y-61543750I0J-218750D01*
G01*
X100550000Y-62056250D01*
G75*
G02*
X100331250Y-62275000I-218750J0D01*
G01*
X99893750Y-62275000D01*
G75*
G02*
X99675000Y-62056250I0J218750D01*
G01*
G37*
G36*
G01*
X98537500Y-72543750D02*
X98537500Y-73056250D01*
G75*
G02*
X98318750Y-73275000I-218750J0D01*
G01*
X97881250Y-73275000D01*
G75*
G02*
X97662500Y-73056250I0J218750D01*
G01*
X97662500Y-72543750D01*
G75*
G02*
X97881250Y-72325000I218750J0D01*
G01*
X98318750Y-72325000D01*
G75*
G02*
X98537500Y-72543750I0J-218750D01*
G01*
G37*
G36*
G01*
X100112500Y-72543750D02*
X100112500Y-73056250D01*
G75*
G02*
X99893750Y-73275000I-218750J0D01*
G01*
X99456250Y-73275000D01*
G75*
G02*
X99237500Y-73056250I0J218750D01*
G01*
X99237500Y-72543750D01*
G75*
G02*
X99456250Y-72325000I218750J0D01*
G01*
X99893750Y-72325000D01*
G75*
G02*
X100112500Y-72543750I0J-218750D01*
G01*
G37*
G36*
G01*
X103656250Y-66162500D02*
X103143750Y-66162500D01*
G75*
G02*
X102925000Y-65943750I0J218750D01*
G01*
X102925000Y-65506250D01*
G75*
G02*
X103143750Y-65287500I218750J0D01*
G01*
X103656250Y-65287500D01*
G75*
G02*
X103875000Y-65506250I0J-218750D01*
G01*
X103875000Y-65943750D01*
G75*
G02*
X103656250Y-66162500I-218750J0D01*
G01*
G37*
G36*
G01*
X103656250Y-67737500D02*
X103143750Y-67737500D01*
G75*
G02*
X102925000Y-67518750I0J218750D01*
G01*
X102925000Y-67081250D01*
G75*
G02*
X103143750Y-66862500I218750J0D01*
G01*
X103656250Y-66862500D01*
G75*
G02*
X103875000Y-67081250I0J-218750D01*
G01*
X103875000Y-67518750D01*
G75*
G02*
X103656250Y-67737500I-218750J0D01*
G01*
G37*
G36*
G01*
X106737500Y-71256250D02*
X106737500Y-70743750D01*
G75*
G02*
X106956250Y-70525000I218750J0D01*
G01*
X107393750Y-70525000D01*
G75*
G02*
X107612500Y-70743750I0J-218750D01*
G01*
X107612500Y-71256250D01*
G75*
G02*
X107393750Y-71475000I-218750J0D01*
G01*
X106956250Y-71475000D01*
G75*
G02*
X106737500Y-71256250I0J218750D01*
G01*
G37*
G36*
G01*
X105162500Y-71256250D02*
X105162500Y-70743750D01*
G75*
G02*
X105381250Y-70525000I218750J0D01*
G01*
X105818750Y-70525000D01*
G75*
G02*
X106037500Y-70743750I0J-218750D01*
G01*
X106037500Y-71256250D01*
G75*
G02*
X105818750Y-71475000I-218750J0D01*
G01*
X105381250Y-71475000D01*
G75*
G02*
X105162500Y-71256250I0J218750D01*
G01*
G37*
G36*
G01*
X101250000Y-58856250D02*
X101250000Y-58343750D01*
G75*
G02*
X101468750Y-58125000I218750J0D01*
G01*
X101906250Y-58125000D01*
G75*
G02*
X102125000Y-58343750I0J-218750D01*
G01*
X102125000Y-58856250D01*
G75*
G02*
X101906250Y-59075000I-218750J0D01*
G01*
X101468750Y-59075000D01*
G75*
G02*
X101250000Y-58856250I0J218750D01*
G01*
G37*
G36*
G01*
X99675000Y-58856250D02*
X99675000Y-58343750D01*
G75*
G02*
X99893750Y-58125000I218750J0D01*
G01*
X100331250Y-58125000D01*
G75*
G02*
X100550000Y-58343750I0J-218750D01*
G01*
X100550000Y-58856250D01*
G75*
G02*
X100331250Y-59075000I-218750J0D01*
G01*
X99893750Y-59075000D01*
G75*
G02*
X99675000Y-58856250I0J218750D01*
G01*
G37*
G36*
G01*
X86037500Y-72543750D02*
X86037500Y-73056250D01*
G75*
G02*
X85818750Y-73275000I-218750J0D01*
G01*
X85381250Y-73275000D01*
G75*
G02*
X85162500Y-73056250I0J218750D01*
G01*
X85162500Y-72543750D01*
G75*
G02*
X85381250Y-72325000I218750J0D01*
G01*
X85818750Y-72325000D01*
G75*
G02*
X86037500Y-72543750I0J-218750D01*
G01*
G37*
G36*
G01*
X87612500Y-72543750D02*
X87612500Y-73056250D01*
G75*
G02*
X87393750Y-73275000I-218750J0D01*
G01*
X86956250Y-73275000D01*
G75*
G02*
X86737500Y-73056250I0J218750D01*
G01*
X86737500Y-72543750D01*
G75*
G02*
X86956250Y-72325000I218750J0D01*
G01*
X87393750Y-72325000D01*
G75*
G02*
X87612500Y-72543750I0J-218750D01*
G01*
G37*
G36*
G01*
X91156250Y-66162500D02*
X90643750Y-66162500D01*
G75*
G02*
X90425000Y-65943750I0J218750D01*
G01*
X90425000Y-65506250D01*
G75*
G02*
X90643750Y-65287500I218750J0D01*
G01*
X91156250Y-65287500D01*
G75*
G02*
X91375000Y-65506250I0J-218750D01*
G01*
X91375000Y-65943750D01*
G75*
G02*
X91156250Y-66162500I-218750J0D01*
G01*
G37*
G36*
G01*
X91156250Y-67737500D02*
X90643750Y-67737500D01*
G75*
G02*
X90425000Y-67518750I0J218750D01*
G01*
X90425000Y-67081250D01*
G75*
G02*
X90643750Y-66862500I218750J0D01*
G01*
X91156250Y-66862500D01*
G75*
G02*
X91375000Y-67081250I0J-218750D01*
G01*
X91375000Y-67518750D01*
G75*
G02*
X91156250Y-67737500I-218750J0D01*
G01*
G37*
G36*
G01*
X94237500Y-71256250D02*
X94237500Y-70743750D01*
G75*
G02*
X94456250Y-70525000I218750J0D01*
G01*
X94893750Y-70525000D01*
G75*
G02*
X95112500Y-70743750I0J-218750D01*
G01*
X95112500Y-71256250D01*
G75*
G02*
X94893750Y-71475000I-218750J0D01*
G01*
X94456250Y-71475000D01*
G75*
G02*
X94237500Y-71256250I0J218750D01*
G01*
G37*
G36*
G01*
X92662500Y-71256250D02*
X92662500Y-70743750D01*
G75*
G02*
X92881250Y-70525000I218750J0D01*
G01*
X93318750Y-70525000D01*
G75*
G02*
X93537500Y-70743750I0J-218750D01*
G01*
X93537500Y-71256250D01*
G75*
G02*
X93318750Y-71475000I-218750J0D01*
G01*
X92881250Y-71475000D01*
G75*
G02*
X92662500Y-71256250I0J218750D01*
G01*
G37*
G36*
G01*
X101250000Y-55656250D02*
X101250000Y-55143750D01*
G75*
G02*
X101468750Y-54925000I218750J0D01*
G01*
X101906250Y-54925000D01*
G75*
G02*
X102125000Y-55143750I0J-218750D01*
G01*
X102125000Y-55656250D01*
G75*
G02*
X101906250Y-55875000I-218750J0D01*
G01*
X101468750Y-55875000D01*
G75*
G02*
X101250000Y-55656250I0J218750D01*
G01*
G37*
G36*
G01*
X99675000Y-55656250D02*
X99675000Y-55143750D01*
G75*
G02*
X99893750Y-54925000I218750J0D01*
G01*
X100331250Y-54925000D01*
G75*
G02*
X100550000Y-55143750I0J-218750D01*
G01*
X100550000Y-55656250D01*
G75*
G02*
X100331250Y-55875000I-218750J0D01*
G01*
X99893750Y-55875000D01*
G75*
G02*
X99675000Y-55656250I0J218750D01*
G01*
G37*
G36*
G01*
X73537500Y-72543750D02*
X73537500Y-73056250D01*
G75*
G02*
X73318750Y-73275000I-218750J0D01*
G01*
X72881250Y-73275000D01*
G75*
G02*
X72662500Y-73056250I0J218750D01*
G01*
X72662500Y-72543750D01*
G75*
G02*
X72881250Y-72325000I218750J0D01*
G01*
X73318750Y-72325000D01*
G75*
G02*
X73537500Y-72543750I0J-218750D01*
G01*
G37*
G36*
G01*
X75112500Y-72543750D02*
X75112500Y-73056250D01*
G75*
G02*
X74893750Y-73275000I-218750J0D01*
G01*
X74456250Y-73275000D01*
G75*
G02*
X74237500Y-73056250I0J218750D01*
G01*
X74237500Y-72543750D01*
G75*
G02*
X74456250Y-72325000I218750J0D01*
G01*
X74893750Y-72325000D01*
G75*
G02*
X75112500Y-72543750I0J-218750D01*
G01*
G37*
G36*
G01*
X78656250Y-66162500D02*
X78143750Y-66162500D01*
G75*
G02*
X77925000Y-65943750I0J218750D01*
G01*
X77925000Y-65506250D01*
G75*
G02*
X78143750Y-65287500I218750J0D01*
G01*
X78656250Y-65287500D01*
G75*
G02*
X78875000Y-65506250I0J-218750D01*
G01*
X78875000Y-65943750D01*
G75*
G02*
X78656250Y-66162500I-218750J0D01*
G01*
G37*
G36*
G01*
X78656250Y-67737500D02*
X78143750Y-67737500D01*
G75*
G02*
X77925000Y-67518750I0J218750D01*
G01*
X77925000Y-67081250D01*
G75*
G02*
X78143750Y-66862500I218750J0D01*
G01*
X78656250Y-66862500D01*
G75*
G02*
X78875000Y-67081250I0J-218750D01*
G01*
X78875000Y-67518750D01*
G75*
G02*
X78656250Y-67737500I-218750J0D01*
G01*
G37*
G36*
G01*
X81737500Y-71256250D02*
X81737500Y-70743750D01*
G75*
G02*
X81956250Y-70525000I218750J0D01*
G01*
X82393750Y-70525000D01*
G75*
G02*
X82612500Y-70743750I0J-218750D01*
G01*
X82612500Y-71256250D01*
G75*
G02*
X82393750Y-71475000I-218750J0D01*
G01*
X81956250Y-71475000D01*
G75*
G02*
X81737500Y-71256250I0J218750D01*
G01*
G37*
G36*
G01*
X80162500Y-71256250D02*
X80162500Y-70743750D01*
G75*
G02*
X80381250Y-70525000I218750J0D01*
G01*
X80818750Y-70525000D01*
G75*
G02*
X81037500Y-70743750I0J-218750D01*
G01*
X81037500Y-71256250D01*
G75*
G02*
X80818750Y-71475000I-218750J0D01*
G01*
X80381250Y-71475000D01*
G75*
G02*
X80162500Y-71256250I0J218750D01*
G01*
G37*
G36*
G01*
X76137500Y-137056250D02*
X76137500Y-136543750D01*
G75*
G02*
X76356250Y-136325000I218750J0D01*
G01*
X76793750Y-136325000D01*
G75*
G02*
X77012500Y-136543750I0J-218750D01*
G01*
X77012500Y-137056250D01*
G75*
G02*
X76793750Y-137275000I-218750J0D01*
G01*
X76356250Y-137275000D01*
G75*
G02*
X76137500Y-137056250I0J218750D01*
G01*
G37*
G36*
G01*
X74562500Y-137056250D02*
X74562500Y-136543750D01*
G75*
G02*
X74781250Y-136325000I218750J0D01*
G01*
X75218750Y-136325000D01*
G75*
G02*
X75437500Y-136543750I0J-218750D01*
G01*
X75437500Y-137056250D01*
G75*
G02*
X75218750Y-137275000I-218750J0D01*
G01*
X74781250Y-137275000D01*
G75*
G02*
X74562500Y-137056250I0J218750D01*
G01*
G37*
G36*
G01*
X94137500Y-137056250D02*
X94137500Y-136543750D01*
G75*
G02*
X94356250Y-136325000I218750J0D01*
G01*
X94793750Y-136325000D01*
G75*
G02*
X95012500Y-136543750I0J-218750D01*
G01*
X95012500Y-137056250D01*
G75*
G02*
X94793750Y-137275000I-218750J0D01*
G01*
X94356250Y-137275000D01*
G75*
G02*
X94137500Y-137056250I0J218750D01*
G01*
G37*
G36*
G01*
X92562500Y-137056250D02*
X92562500Y-136543750D01*
G75*
G02*
X92781250Y-136325000I218750J0D01*
G01*
X93218750Y-136325000D01*
G75*
G02*
X93437500Y-136543750I0J-218750D01*
G01*
X93437500Y-137056250D01*
G75*
G02*
X93218750Y-137275000I-218750J0D01*
G01*
X92781250Y-137275000D01*
G75*
G02*
X92562500Y-137056250I0J218750D01*
G01*
G37*
G36*
G01*
X119743750Y-148750000D02*
X120256250Y-148750000D01*
G75*
G02*
X120475000Y-148968750I0J-218750D01*
G01*
X120475000Y-149406250D01*
G75*
G02*
X120256250Y-149625000I-218750J0D01*
G01*
X119743750Y-149625000D01*
G75*
G02*
X119525000Y-149406250I0J218750D01*
G01*
X119525000Y-148968750D01*
G75*
G02*
X119743750Y-148750000I218750J0D01*
G01*
G37*
G36*
G01*
X119743750Y-147175000D02*
X120256250Y-147175000D01*
G75*
G02*
X120475000Y-147393750I0J-218750D01*
G01*
X120475000Y-147831250D01*
G75*
G02*
X120256250Y-148050000I-218750J0D01*
G01*
X119743750Y-148050000D01*
G75*
G02*
X119525000Y-147831250I0J218750D01*
G01*
X119525000Y-147393750D01*
G75*
G02*
X119743750Y-147175000I218750J0D01*
G01*
G37*
G36*
G01*
X116943750Y-148750000D02*
X117456250Y-148750000D01*
G75*
G02*
X117675000Y-148968750I0J-218750D01*
G01*
X117675000Y-149406250D01*
G75*
G02*
X117456250Y-149625000I-218750J0D01*
G01*
X116943750Y-149625000D01*
G75*
G02*
X116725000Y-149406250I0J218750D01*
G01*
X116725000Y-148968750D01*
G75*
G02*
X116943750Y-148750000I218750J0D01*
G01*
G37*
G36*
G01*
X116943750Y-147175000D02*
X117456250Y-147175000D01*
G75*
G02*
X117675000Y-147393750I0J-218750D01*
G01*
X117675000Y-147831250D01*
G75*
G02*
X117456250Y-148050000I-218750J0D01*
G01*
X116943750Y-148050000D01*
G75*
G02*
X116725000Y-147831250I0J218750D01*
G01*
X116725000Y-147393750D01*
G75*
G02*
X116943750Y-147175000I218750J0D01*
G01*
G37*
G36*
G01*
X120456250Y-144350000D02*
X119543750Y-144350000D01*
G75*
G02*
X119300000Y-144106250I0J243750D01*
G01*
X119300000Y-143618750D01*
G75*
G02*
X119543750Y-143375000I243750J0D01*
G01*
X120456250Y-143375000D01*
G75*
G02*
X120700000Y-143618750I0J-243750D01*
G01*
X120700000Y-144106250D01*
G75*
G02*
X120456250Y-144350000I-243750J0D01*
G01*
G37*
G36*
G01*
X120456250Y-146225000D02*
X119543750Y-146225000D01*
G75*
G02*
X119300000Y-145981250I0J243750D01*
G01*
X119300000Y-145493750D01*
G75*
G02*
X119543750Y-145250000I243750J0D01*
G01*
X120456250Y-145250000D01*
G75*
G02*
X120700000Y-145493750I0J-243750D01*
G01*
X120700000Y-145981250D01*
G75*
G02*
X120456250Y-146225000I-243750J0D01*
G01*
G37*
G36*
G01*
X94387500Y-135256250D02*
X94387500Y-134343750D01*
G75*
G02*
X94631250Y-134100000I243750J0D01*
G01*
X95118750Y-134100000D01*
G75*
G02*
X95362500Y-134343750I0J-243750D01*
G01*
X95362500Y-135256250D01*
G75*
G02*
X95118750Y-135500000I-243750J0D01*
G01*
X94631250Y-135500000D01*
G75*
G02*
X94387500Y-135256250I0J243750D01*
G01*
G37*
G36*
G01*
X92512500Y-135256250D02*
X92512500Y-134343750D01*
G75*
G02*
X92756250Y-134100000I243750J0D01*
G01*
X93243750Y-134100000D01*
G75*
G02*
X93487500Y-134343750I0J-243750D01*
G01*
X93487500Y-135256250D01*
G75*
G02*
X93243750Y-135500000I-243750J0D01*
G01*
X92756250Y-135500000D01*
G75*
G02*
X92512500Y-135256250I0J243750D01*
G01*
G37*
G36*
G01*
X117656250Y-144350000D02*
X116743750Y-144350000D01*
G75*
G02*
X116500000Y-144106250I0J243750D01*
G01*
X116500000Y-143618750D01*
G75*
G02*
X116743750Y-143375000I243750J0D01*
G01*
X117656250Y-143375000D01*
G75*
G02*
X117900000Y-143618750I0J-243750D01*
G01*
X117900000Y-144106250D01*
G75*
G02*
X117656250Y-144350000I-243750J0D01*
G01*
G37*
G36*
G01*
X117656250Y-146225000D02*
X116743750Y-146225000D01*
G75*
G02*
X116500000Y-145981250I0J243750D01*
G01*
X116500000Y-145493750D01*
G75*
G02*
X116743750Y-145250000I243750J0D01*
G01*
X117656250Y-145250000D01*
G75*
G02*
X117900000Y-145493750I0J-243750D01*
G01*
X117900000Y-145981250D01*
G75*
G02*
X117656250Y-146225000I-243750J0D01*
G01*
G37*
G36*
G01*
X76387500Y-135256250D02*
X76387500Y-134343750D01*
G75*
G02*
X76631250Y-134100000I243750J0D01*
G01*
X77118750Y-134100000D01*
G75*
G02*
X77362500Y-134343750I0J-243750D01*
G01*
X77362500Y-135256250D01*
G75*
G02*
X77118750Y-135500000I-243750J0D01*
G01*
X76631250Y-135500000D01*
G75*
G02*
X76387500Y-135256250I0J243750D01*
G01*
G37*
G36*
G01*
X74512500Y-135256250D02*
X74512500Y-134343750D01*
G75*
G02*
X74756250Y-134100000I243750J0D01*
G01*
X75243750Y-134100000D01*
G75*
G02*
X75487500Y-134343750I0J-243750D01*
G01*
X75487500Y-135256250D01*
G75*
G02*
X75243750Y-135500000I-243750J0D01*
G01*
X74756250Y-135500000D01*
G75*
G02*
X74512500Y-135256250I0J243750D01*
G01*
G37*
G36*
G01*
X66450000Y-97456250D02*
X66450000Y-96543750D01*
G75*
G02*
X66693750Y-96300000I243750J0D01*
G01*
X67181250Y-96300000D01*
G75*
G02*
X67425000Y-96543750I0J-243750D01*
G01*
X67425000Y-97456250D01*
G75*
G02*
X67181250Y-97700000I-243750J0D01*
G01*
X66693750Y-97700000D01*
G75*
G02*
X66450000Y-97456250I0J243750D01*
G01*
G37*
G36*
G01*
X64575000Y-97456250D02*
X64575000Y-96543750D01*
G75*
G02*
X64818750Y-96300000I243750J0D01*
G01*
X65306250Y-96300000D01*
G75*
G02*
X65550000Y-96543750I0J-243750D01*
G01*
X65550000Y-97456250D01*
G75*
G02*
X65306250Y-97700000I-243750J0D01*
G01*
X64818750Y-97700000D01*
G75*
G02*
X64575000Y-97456250I0J243750D01*
G01*
G37*
D16*
X85100000Y-143200000D03*
D17*
X87005000Y-140550000D03*
X85735000Y-140550000D03*
X84465000Y-140550000D03*
X83195000Y-140550000D03*
X87005000Y-145850000D03*
X85735000Y-145850000D03*
X84465000Y-145850000D03*
X83195000Y-145850000D03*
D16*
X105100000Y-143200000D03*
D17*
X107005000Y-140550000D03*
X105735000Y-140550000D03*
X104465000Y-140550000D03*
X103195000Y-140550000D03*
X107005000Y-145850000D03*
X105735000Y-145850000D03*
X104465000Y-145850000D03*
X103195000Y-145850000D03*
G36*
G01*
X86850000Y-147856250D02*
X86850000Y-147343750D01*
G75*
G02*
X87068750Y-147125000I218750J0D01*
G01*
X87506250Y-147125000D01*
G75*
G02*
X87725000Y-147343750I0J-218750D01*
G01*
X87725000Y-147856250D01*
G75*
G02*
X87506250Y-148075000I-218750J0D01*
G01*
X87068750Y-148075000D01*
G75*
G02*
X86850000Y-147856250I0J218750D01*
G01*
G37*
G36*
G01*
X85275000Y-147856250D02*
X85275000Y-147343750D01*
G75*
G02*
X85493750Y-147125000I218750J0D01*
G01*
X85931250Y-147125000D01*
G75*
G02*
X86150000Y-147343750I0J-218750D01*
G01*
X86150000Y-147856250D01*
G75*
G02*
X85931250Y-148075000I-218750J0D01*
G01*
X85493750Y-148075000D01*
G75*
G02*
X85275000Y-147856250I0J218750D01*
G01*
G37*
G36*
G01*
X79350000Y-144656250D02*
X79350000Y-144143750D01*
G75*
G02*
X79568750Y-143925000I218750J0D01*
G01*
X80006250Y-143925000D01*
G75*
G02*
X80225000Y-144143750I0J-218750D01*
G01*
X80225000Y-144656250D01*
G75*
G02*
X80006250Y-144875000I-218750J0D01*
G01*
X79568750Y-144875000D01*
G75*
G02*
X79350000Y-144656250I0J218750D01*
G01*
G37*
G36*
G01*
X77775000Y-144656250D02*
X77775000Y-144143750D01*
G75*
G02*
X77993750Y-143925000I218750J0D01*
G01*
X78431250Y-143925000D01*
G75*
G02*
X78650000Y-144143750I0J-218750D01*
G01*
X78650000Y-144656250D01*
G75*
G02*
X78431250Y-144875000I-218750J0D01*
G01*
X77993750Y-144875000D01*
G75*
G02*
X77775000Y-144656250I0J218750D01*
G01*
G37*
G36*
G01*
X106850000Y-147856250D02*
X106850000Y-147343750D01*
G75*
G02*
X107068750Y-147125000I218750J0D01*
G01*
X107506250Y-147125000D01*
G75*
G02*
X107725000Y-147343750I0J-218750D01*
G01*
X107725000Y-147856250D01*
G75*
G02*
X107506250Y-148075000I-218750J0D01*
G01*
X107068750Y-148075000D01*
G75*
G02*
X106850000Y-147856250I0J218750D01*
G01*
G37*
G36*
G01*
X105275000Y-147856250D02*
X105275000Y-147343750D01*
G75*
G02*
X105493750Y-147125000I218750J0D01*
G01*
X105931250Y-147125000D01*
G75*
G02*
X106150000Y-147343750I0J-218750D01*
G01*
X106150000Y-147856250D01*
G75*
G02*
X105931250Y-148075000I-218750J0D01*
G01*
X105493750Y-148075000D01*
G75*
G02*
X105275000Y-147856250I0J218750D01*
G01*
G37*
G36*
G01*
X99350000Y-144656250D02*
X99350000Y-144143750D01*
G75*
G02*
X99568750Y-143925000I218750J0D01*
G01*
X100006250Y-143925000D01*
G75*
G02*
X100225000Y-144143750I0J-218750D01*
G01*
X100225000Y-144656250D01*
G75*
G02*
X100006250Y-144875000I-218750J0D01*
G01*
X99568750Y-144875000D01*
G75*
G02*
X99350000Y-144656250I0J218750D01*
G01*
G37*
G36*
G01*
X97775000Y-144656250D02*
X97775000Y-144143750D01*
G75*
G02*
X97993750Y-143925000I218750J0D01*
G01*
X98431250Y-143925000D01*
G75*
G02*
X98650000Y-144143750I0J-218750D01*
G01*
X98650000Y-144656250D01*
G75*
G02*
X98431250Y-144875000I-218750J0D01*
G01*
X97993750Y-144875000D01*
G75*
G02*
X97775000Y-144656250I0J218750D01*
G01*
G37*
D18*
X79573500Y-134800000D03*
X84426500Y-134800000D03*
X99573500Y-134800000D03*
X104426500Y-134800000D03*
G36*
G01*
X80043750Y-121350000D02*
X80556250Y-121350000D01*
G75*
G02*
X80775000Y-121568750I0J-218750D01*
G01*
X80775000Y-122006250D01*
G75*
G02*
X80556250Y-122225000I-218750J0D01*
G01*
X80043750Y-122225000D01*
G75*
G02*
X79825000Y-122006250I0J218750D01*
G01*
X79825000Y-121568750D01*
G75*
G02*
X80043750Y-121350000I218750J0D01*
G01*
G37*
G36*
G01*
X80043750Y-119775000D02*
X80556250Y-119775000D01*
G75*
G02*
X80775000Y-119993750I0J-218750D01*
G01*
X80775000Y-120431250D01*
G75*
G02*
X80556250Y-120650000I-218750J0D01*
G01*
X80043750Y-120650000D01*
G75*
G02*
X79825000Y-120431250I0J218750D01*
G01*
X79825000Y-119993750D01*
G75*
G02*
X80043750Y-119775000I218750J0D01*
G01*
G37*
G36*
G01*
X87343750Y-121350000D02*
X87856250Y-121350000D01*
G75*
G02*
X88075000Y-121568750I0J-218750D01*
G01*
X88075000Y-122006250D01*
G75*
G02*
X87856250Y-122225000I-218750J0D01*
G01*
X87343750Y-122225000D01*
G75*
G02*
X87125000Y-122006250I0J218750D01*
G01*
X87125000Y-121568750D01*
G75*
G02*
X87343750Y-121350000I218750J0D01*
G01*
G37*
G36*
G01*
X87343750Y-119775000D02*
X87856250Y-119775000D01*
G75*
G02*
X88075000Y-119993750I0J-218750D01*
G01*
X88075000Y-120431250D01*
G75*
G02*
X87856250Y-120650000I-218750J0D01*
G01*
X87343750Y-120650000D01*
G75*
G02*
X87125000Y-120431250I0J218750D01*
G01*
X87125000Y-119993750D01*
G75*
G02*
X87343750Y-119775000I218750J0D01*
G01*
G37*
G36*
G01*
X79650000Y-139156250D02*
X79650000Y-138243750D01*
G75*
G02*
X79893750Y-138000000I243750J0D01*
G01*
X80381250Y-138000000D01*
G75*
G02*
X80625000Y-138243750I0J-243750D01*
G01*
X80625000Y-139156250D01*
G75*
G02*
X80381250Y-139400000I-243750J0D01*
G01*
X79893750Y-139400000D01*
G75*
G02*
X79650000Y-139156250I0J243750D01*
G01*
G37*
G36*
G01*
X77775000Y-139156250D02*
X77775000Y-138243750D01*
G75*
G02*
X78018750Y-138000000I243750J0D01*
G01*
X78506250Y-138000000D01*
G75*
G02*
X78750000Y-138243750I0J-243750D01*
G01*
X78750000Y-139156250D01*
G75*
G02*
X78506250Y-139400000I-243750J0D01*
G01*
X78018750Y-139400000D01*
G75*
G02*
X77775000Y-139156250I0J243750D01*
G01*
G37*
G36*
G01*
X99650000Y-139156250D02*
X99650000Y-138243750D01*
G75*
G02*
X99893750Y-138000000I243750J0D01*
G01*
X100381250Y-138000000D01*
G75*
G02*
X100625000Y-138243750I0J-243750D01*
G01*
X100625000Y-139156250D01*
G75*
G02*
X100381250Y-139400000I-243750J0D01*
G01*
X99893750Y-139400000D01*
G75*
G02*
X99650000Y-139156250I0J243750D01*
G01*
G37*
G36*
G01*
X97775000Y-139156250D02*
X97775000Y-138243750D01*
G75*
G02*
X98018750Y-138000000I243750J0D01*
G01*
X98506250Y-138000000D01*
G75*
G02*
X98750000Y-138243750I0J-243750D01*
G01*
X98750000Y-139156250D01*
G75*
G02*
X98506250Y-139400000I-243750J0D01*
G01*
X98018750Y-139400000D01*
G75*
G02*
X97775000Y-139156250I0J243750D01*
G01*
G37*
G36*
G01*
X79350000Y-140856250D02*
X79350000Y-140343750D01*
G75*
G02*
X79568750Y-140125000I218750J0D01*
G01*
X80006250Y-140125000D01*
G75*
G02*
X80225000Y-140343750I0J-218750D01*
G01*
X80225000Y-140856250D01*
G75*
G02*
X80006250Y-141075000I-218750J0D01*
G01*
X79568750Y-141075000D01*
G75*
G02*
X79350000Y-140856250I0J218750D01*
G01*
G37*
G36*
G01*
X77775000Y-140856250D02*
X77775000Y-140343750D01*
G75*
G02*
X77993750Y-140125000I218750J0D01*
G01*
X78431250Y-140125000D01*
G75*
G02*
X78650000Y-140343750I0J-218750D01*
G01*
X78650000Y-140856250D01*
G75*
G02*
X78431250Y-141075000I-218750J0D01*
G01*
X77993750Y-141075000D01*
G75*
G02*
X77775000Y-140856250I0J218750D01*
G01*
G37*
G36*
G01*
X99350000Y-140856250D02*
X99350000Y-140343750D01*
G75*
G02*
X99568750Y-140125000I218750J0D01*
G01*
X100006250Y-140125000D01*
G75*
G02*
X100225000Y-140343750I0J-218750D01*
G01*
X100225000Y-140856250D01*
G75*
G02*
X100006250Y-141075000I-218750J0D01*
G01*
X99568750Y-141075000D01*
G75*
G02*
X99350000Y-140856250I0J218750D01*
G01*
G37*
G36*
G01*
X97775000Y-140856250D02*
X97775000Y-140343750D01*
G75*
G02*
X97993750Y-140125000I218750J0D01*
G01*
X98431250Y-140125000D01*
G75*
G02*
X98650000Y-140343750I0J-218750D01*
G01*
X98650000Y-140856250D01*
G75*
G02*
X98431250Y-141075000I-218750J0D01*
G01*
X97993750Y-141075000D01*
G75*
G02*
X97775000Y-140856250I0J218750D01*
G01*
G37*
G36*
G01*
X88443750Y-143550000D02*
X88956250Y-143550000D01*
G75*
G02*
X89175000Y-143768750I0J-218750D01*
G01*
X89175000Y-144206250D01*
G75*
G02*
X88956250Y-144425000I-218750J0D01*
G01*
X88443750Y-144425000D01*
G75*
G02*
X88225000Y-144206250I0J218750D01*
G01*
X88225000Y-143768750D01*
G75*
G02*
X88443750Y-143550000I218750J0D01*
G01*
G37*
G36*
G01*
X88443750Y-141975000D02*
X88956250Y-141975000D01*
G75*
G02*
X89175000Y-142193750I0J-218750D01*
G01*
X89175000Y-142631250D01*
G75*
G02*
X88956250Y-142850000I-218750J0D01*
G01*
X88443750Y-142850000D01*
G75*
G02*
X88225000Y-142631250I0J218750D01*
G01*
X88225000Y-142193750D01*
G75*
G02*
X88443750Y-141975000I218750J0D01*
G01*
G37*
G36*
G01*
X108443750Y-143550000D02*
X108956250Y-143550000D01*
G75*
G02*
X109175000Y-143768750I0J-218750D01*
G01*
X109175000Y-144206250D01*
G75*
G02*
X108956250Y-144425000I-218750J0D01*
G01*
X108443750Y-144425000D01*
G75*
G02*
X108225000Y-144206250I0J218750D01*
G01*
X108225000Y-143768750D01*
G75*
G02*
X108443750Y-143550000I218750J0D01*
G01*
G37*
G36*
G01*
X108443750Y-141975000D02*
X108956250Y-141975000D01*
G75*
G02*
X109175000Y-142193750I0J-218750D01*
G01*
X109175000Y-142631250D01*
G75*
G02*
X108956250Y-142850000I-218750J0D01*
G01*
X108443750Y-142850000D01*
G75*
G02*
X108225000Y-142631250I0J218750D01*
G01*
X108225000Y-142193750D01*
G75*
G02*
X108443750Y-141975000I218750J0D01*
G01*
G37*
G36*
G01*
X84015000Y-138243750D02*
X84015000Y-139156250D01*
G75*
G02*
X83771250Y-139400000I-243750J0D01*
G01*
X83283750Y-139400000D01*
G75*
G02*
X83040000Y-139156250I0J243750D01*
G01*
X83040000Y-138243750D01*
G75*
G02*
X83283750Y-138000000I243750J0D01*
G01*
X83771250Y-138000000D01*
G75*
G02*
X84015000Y-138243750I0J-243750D01*
G01*
G37*
G36*
G01*
X85890000Y-138243750D02*
X85890000Y-139156250D01*
G75*
G02*
X85646250Y-139400000I-243750J0D01*
G01*
X85158750Y-139400000D01*
G75*
G02*
X84915000Y-139156250I0J243750D01*
G01*
X84915000Y-138243750D01*
G75*
G02*
X85158750Y-138000000I243750J0D01*
G01*
X85646250Y-138000000D01*
G75*
G02*
X85890000Y-138243750I0J-243750D01*
G01*
G37*
G36*
G01*
X104015000Y-138243750D02*
X104015000Y-139156250D01*
G75*
G02*
X103771250Y-139400000I-243750J0D01*
G01*
X103283750Y-139400000D01*
G75*
G02*
X103040000Y-139156250I0J243750D01*
G01*
X103040000Y-138243750D01*
G75*
G02*
X103283750Y-138000000I243750J0D01*
G01*
X103771250Y-138000000D01*
G75*
G02*
X104015000Y-138243750I0J-243750D01*
G01*
G37*
G36*
G01*
X105890000Y-138243750D02*
X105890000Y-139156250D01*
G75*
G02*
X105646250Y-139400000I-243750J0D01*
G01*
X105158750Y-139400000D01*
G75*
G02*
X104915000Y-139156250I0J243750D01*
G01*
X104915000Y-138243750D01*
G75*
G02*
X105158750Y-138000000I243750J0D01*
G01*
X105646250Y-138000000D01*
G75*
G02*
X105890000Y-138243750I0J-243750D01*
G01*
G37*
G36*
G01*
X197300000Y-99050000D02*
X197300000Y-101750000D01*
G75*
G02*
X197150000Y-101900000I-150000J0D01*
G01*
X196850000Y-101900000D01*
G75*
G02*
X196700000Y-101750000I0J150000D01*
G01*
X196700000Y-99050000D01*
G75*
G02*
X196850000Y-98900000I150000J0D01*
G01*
X197150000Y-98900000D01*
G75*
G02*
X197300000Y-99050000I0J-150000D01*
G01*
G37*
G36*
G01*
X197300000Y-111050000D02*
X197300000Y-113750000D01*
G75*
G02*
X197150000Y-113900000I-150000J0D01*
G01*
X196850000Y-113900000D01*
G75*
G02*
X196700000Y-113750000I0J150000D01*
G01*
X196700000Y-111050000D01*
G75*
G02*
X196850000Y-110900000I150000J0D01*
G01*
X197150000Y-110900000D01*
G75*
G02*
X197300000Y-111050000I0J-150000D01*
G01*
G37*
G36*
G01*
X198570000Y-99050000D02*
X198570000Y-101750000D01*
G75*
G02*
X198420000Y-101900000I-150000J0D01*
G01*
X198120000Y-101900000D01*
G75*
G02*
X197970000Y-101750000I0J150000D01*
G01*
X197970000Y-99050000D01*
G75*
G02*
X198120000Y-98900000I150000J0D01*
G01*
X198420000Y-98900000D01*
G75*
G02*
X198570000Y-99050000I0J-150000D01*
G01*
G37*
G36*
G01*
X198570000Y-111050000D02*
X198570000Y-113750000D01*
G75*
G02*
X198420000Y-113900000I-150000J0D01*
G01*
X198120000Y-113900000D01*
G75*
G02*
X197970000Y-113750000I0J150000D01*
G01*
X197970000Y-111050000D01*
G75*
G02*
X198120000Y-110900000I150000J0D01*
G01*
X198420000Y-110900000D01*
G75*
G02*
X198570000Y-111050000I0J-150000D01*
G01*
G37*
G36*
G01*
X199840000Y-99050000D02*
X199840000Y-101750000D01*
G75*
G02*
X199690000Y-101900000I-150000J0D01*
G01*
X199390000Y-101900000D01*
G75*
G02*
X199240000Y-101750000I0J150000D01*
G01*
X199240000Y-99050000D01*
G75*
G02*
X199390000Y-98900000I150000J0D01*
G01*
X199690000Y-98900000D01*
G75*
G02*
X199840000Y-99050000I0J-150000D01*
G01*
G37*
G36*
G01*
X199840000Y-111050000D02*
X199840000Y-113750000D01*
G75*
G02*
X199690000Y-113900000I-150000J0D01*
G01*
X199390000Y-113900000D01*
G75*
G02*
X199240000Y-113750000I0J150000D01*
G01*
X199240000Y-111050000D01*
G75*
G02*
X199390000Y-110900000I150000J0D01*
G01*
X199690000Y-110900000D01*
G75*
G02*
X199840000Y-111050000I0J-150000D01*
G01*
G37*
G36*
G01*
X201110000Y-99050000D02*
X201110000Y-101750000D01*
G75*
G02*
X200960000Y-101900000I-150000J0D01*
G01*
X200660000Y-101900000D01*
G75*
G02*
X200510000Y-101750000I0J150000D01*
G01*
X200510000Y-99050000D01*
G75*
G02*
X200660000Y-98900000I150000J0D01*
G01*
X200960000Y-98900000D01*
G75*
G02*
X201110000Y-99050000I0J-150000D01*
G01*
G37*
G36*
G01*
X201110000Y-111050000D02*
X201110000Y-113750000D01*
G75*
G02*
X200960000Y-113900000I-150000J0D01*
G01*
X200660000Y-113900000D01*
G75*
G02*
X200510000Y-113750000I0J150000D01*
G01*
X200510000Y-111050000D01*
G75*
G02*
X200660000Y-110900000I150000J0D01*
G01*
X200960000Y-110900000D01*
G75*
G02*
X201110000Y-111050000I0J-150000D01*
G01*
G37*
G36*
G01*
X202380000Y-99050000D02*
X202380000Y-101750000D01*
G75*
G02*
X202230000Y-101900000I-150000J0D01*
G01*
X201930000Y-101900000D01*
G75*
G02*
X201780000Y-101750000I0J150000D01*
G01*
X201780000Y-99050000D01*
G75*
G02*
X201930000Y-98900000I150000J0D01*
G01*
X202230000Y-98900000D01*
G75*
G02*
X202380000Y-99050000I0J-150000D01*
G01*
G37*
G36*
G01*
X202380000Y-111050000D02*
X202380000Y-113750000D01*
G75*
G02*
X202230000Y-113900000I-150000J0D01*
G01*
X201930000Y-113900000D01*
G75*
G02*
X201780000Y-113750000I0J150000D01*
G01*
X201780000Y-111050000D01*
G75*
G02*
X201930000Y-110900000I150000J0D01*
G01*
X202230000Y-110900000D01*
G75*
G02*
X202380000Y-111050000I0J-150000D01*
G01*
G37*
G36*
G01*
X203650000Y-99050000D02*
X203650000Y-101750000D01*
G75*
G02*
X203500000Y-101900000I-150000J0D01*
G01*
X203200000Y-101900000D01*
G75*
G02*
X203050000Y-101750000I0J150000D01*
G01*
X203050000Y-99050000D01*
G75*
G02*
X203200000Y-98900000I150000J0D01*
G01*
X203500000Y-98900000D01*
G75*
G02*
X203650000Y-99050000I0J-150000D01*
G01*
G37*
G36*
G01*
X203650000Y-111050000D02*
X203650000Y-113750000D01*
G75*
G02*
X203500000Y-113900000I-150000J0D01*
G01*
X203200000Y-113900000D01*
G75*
G02*
X203050000Y-113750000I0J150000D01*
G01*
X203050000Y-111050000D01*
G75*
G02*
X203200000Y-110900000I150000J0D01*
G01*
X203500000Y-110900000D01*
G75*
G02*
X203650000Y-111050000I0J-150000D01*
G01*
G37*
G36*
G01*
X204920000Y-99050000D02*
X204920000Y-101750000D01*
G75*
G02*
X204770000Y-101900000I-150000J0D01*
G01*
X204470000Y-101900000D01*
G75*
G02*
X204320000Y-101750000I0J150000D01*
G01*
X204320000Y-99050000D01*
G75*
G02*
X204470000Y-98900000I150000J0D01*
G01*
X204770000Y-98900000D01*
G75*
G02*
X204920000Y-99050000I0J-150000D01*
G01*
G37*
G36*
G01*
X204920000Y-111050000D02*
X204920000Y-113750000D01*
G75*
G02*
X204770000Y-113900000I-150000J0D01*
G01*
X204470000Y-113900000D01*
G75*
G02*
X204320000Y-113750000I0J150000D01*
G01*
X204320000Y-111050000D01*
G75*
G02*
X204470000Y-110900000I150000J0D01*
G01*
X204770000Y-110900000D01*
G75*
G02*
X204920000Y-111050000I0J-150000D01*
G01*
G37*
G36*
G01*
X206190000Y-99050000D02*
X206190000Y-101750000D01*
G75*
G02*
X206040000Y-101900000I-150000J0D01*
G01*
X205740000Y-101900000D01*
G75*
G02*
X205590000Y-101750000I0J150000D01*
G01*
X205590000Y-99050000D01*
G75*
G02*
X205740000Y-98900000I150000J0D01*
G01*
X206040000Y-98900000D01*
G75*
G02*
X206190000Y-99050000I0J-150000D01*
G01*
G37*
G36*
G01*
X206190000Y-111050000D02*
X206190000Y-113750000D01*
G75*
G02*
X206040000Y-113900000I-150000J0D01*
G01*
X205740000Y-113900000D01*
G75*
G02*
X205590000Y-113750000I0J150000D01*
G01*
X205590000Y-111050000D01*
G75*
G02*
X205740000Y-110900000I150000J0D01*
G01*
X206040000Y-110900000D01*
G75*
G02*
X206190000Y-111050000I0J-150000D01*
G01*
G37*
G36*
G01*
X207460000Y-99050000D02*
X207460000Y-101750000D01*
G75*
G02*
X207310000Y-101900000I-150000J0D01*
G01*
X207010000Y-101900000D01*
G75*
G02*
X206860000Y-101750000I0J150000D01*
G01*
X206860000Y-99050000D01*
G75*
G02*
X207010000Y-98900000I150000J0D01*
G01*
X207310000Y-98900000D01*
G75*
G02*
X207460000Y-99050000I0J-150000D01*
G01*
G37*
G36*
G01*
X207460000Y-111050000D02*
X207460000Y-113750000D01*
G75*
G02*
X207310000Y-113900000I-150000J0D01*
G01*
X207010000Y-113900000D01*
G75*
G02*
X206860000Y-113750000I0J150000D01*
G01*
X206860000Y-111050000D01*
G75*
G02*
X207010000Y-110900000I150000J0D01*
G01*
X207310000Y-110900000D01*
G75*
G02*
X207460000Y-111050000I0J-150000D01*
G01*
G37*
G36*
G01*
X208730000Y-99050000D02*
X208730000Y-101750000D01*
G75*
G02*
X208580000Y-101900000I-150000J0D01*
G01*
X208280000Y-101900000D01*
G75*
G02*
X208130000Y-101750000I0J150000D01*
G01*
X208130000Y-99050000D01*
G75*
G02*
X208280000Y-98900000I150000J0D01*
G01*
X208580000Y-98900000D01*
G75*
G02*
X208730000Y-99050000I0J-150000D01*
G01*
G37*
G36*
G01*
X208730000Y-111050000D02*
X208730000Y-113750000D01*
G75*
G02*
X208580000Y-113900000I-150000J0D01*
G01*
X208280000Y-113900000D01*
G75*
G02*
X208130000Y-113750000I0J150000D01*
G01*
X208130000Y-111050000D01*
G75*
G02*
X208280000Y-110900000I150000J0D01*
G01*
X208580000Y-110900000D01*
G75*
G02*
X208730000Y-111050000I0J-150000D01*
G01*
G37*
G36*
G01*
X210000000Y-99050000D02*
X210000000Y-101750000D01*
G75*
G02*
X209850000Y-101900000I-150000J0D01*
G01*
X209550000Y-101900000D01*
G75*
G02*
X209400000Y-101750000I0J150000D01*
G01*
X209400000Y-99050000D01*
G75*
G02*
X209550000Y-98900000I150000J0D01*
G01*
X209850000Y-98900000D01*
G75*
G02*
X210000000Y-99050000I0J-150000D01*
G01*
G37*
G36*
G01*
X210000000Y-111050000D02*
X210000000Y-113750000D01*
G75*
G02*
X209850000Y-113900000I-150000J0D01*
G01*
X209550000Y-113900000D01*
G75*
G02*
X209400000Y-113750000I0J150000D01*
G01*
X209400000Y-111050000D01*
G75*
G02*
X209550000Y-110900000I150000J0D01*
G01*
X209850000Y-110900000D01*
G75*
G02*
X210000000Y-111050000I0J-150000D01*
G01*
G37*
G36*
G01*
X211270000Y-99050000D02*
X211270000Y-101750000D01*
G75*
G02*
X211120000Y-101900000I-150000J0D01*
G01*
X210820000Y-101900000D01*
G75*
G02*
X210670000Y-101750000I0J150000D01*
G01*
X210670000Y-99050000D01*
G75*
G02*
X210820000Y-98900000I150000J0D01*
G01*
X211120000Y-98900000D01*
G75*
G02*
X211270000Y-99050000I0J-150000D01*
G01*
G37*
G36*
G01*
X211270000Y-111050000D02*
X211270000Y-113750000D01*
G75*
G02*
X211120000Y-113900000I-150000J0D01*
G01*
X210820000Y-113900000D01*
G75*
G02*
X210670000Y-113750000I0J150000D01*
G01*
X210670000Y-111050000D01*
G75*
G02*
X210820000Y-110900000I150000J0D01*
G01*
X211120000Y-110900000D01*
G75*
G02*
X211270000Y-111050000I0J-150000D01*
G01*
G37*
G36*
G01*
X212540000Y-99050000D02*
X212540000Y-101750000D01*
G75*
G02*
X212390000Y-101900000I-150000J0D01*
G01*
X212090000Y-101900000D01*
G75*
G02*
X211940000Y-101750000I0J150000D01*
G01*
X211940000Y-99050000D01*
G75*
G02*
X212090000Y-98900000I150000J0D01*
G01*
X212390000Y-98900000D01*
G75*
G02*
X212540000Y-99050000I0J-150000D01*
G01*
G37*
G36*
G01*
X212540000Y-111050000D02*
X212540000Y-113750000D01*
G75*
G02*
X212390000Y-113900000I-150000J0D01*
G01*
X212090000Y-113900000D01*
G75*
G02*
X211940000Y-113750000I0J150000D01*
G01*
X211940000Y-111050000D01*
G75*
G02*
X212090000Y-110900000I150000J0D01*
G01*
X212390000Y-110900000D01*
G75*
G02*
X212540000Y-111050000I0J-150000D01*
G01*
G37*
G36*
G01*
X213810000Y-99050000D02*
X213810000Y-101750000D01*
G75*
G02*
X213660000Y-101900000I-150000J0D01*
G01*
X213360000Y-101900000D01*
G75*
G02*
X213210000Y-101750000I0J150000D01*
G01*
X213210000Y-99050000D01*
G75*
G02*
X213360000Y-98900000I150000J0D01*
G01*
X213660000Y-98900000D01*
G75*
G02*
X213810000Y-99050000I0J-150000D01*
G01*
G37*
G36*
G01*
X213810000Y-111050000D02*
X213810000Y-113750000D01*
G75*
G02*
X213660000Y-113900000I-150000J0D01*
G01*
X213360000Y-113900000D01*
G75*
G02*
X213210000Y-113750000I0J150000D01*
G01*
X213210000Y-111050000D01*
G75*
G02*
X213360000Y-110900000I150000J0D01*
G01*
X213660000Y-110900000D01*
G75*
G02*
X213810000Y-111050000I0J-150000D01*
G01*
G37*
G36*
G01*
X197300000Y-119050000D02*
X197300000Y-121750000D01*
G75*
G02*
X197150000Y-121900000I-150000J0D01*
G01*
X196850000Y-121900000D01*
G75*
G02*
X196700000Y-121750000I0J150000D01*
G01*
X196700000Y-119050000D01*
G75*
G02*
X196850000Y-118900000I150000J0D01*
G01*
X197150000Y-118900000D01*
G75*
G02*
X197300000Y-119050000I0J-150000D01*
G01*
G37*
G36*
G01*
X197300000Y-131050000D02*
X197300000Y-133750000D01*
G75*
G02*
X197150000Y-133900000I-150000J0D01*
G01*
X196850000Y-133900000D01*
G75*
G02*
X196700000Y-133750000I0J150000D01*
G01*
X196700000Y-131050000D01*
G75*
G02*
X196850000Y-130900000I150000J0D01*
G01*
X197150000Y-130900000D01*
G75*
G02*
X197300000Y-131050000I0J-150000D01*
G01*
G37*
G36*
G01*
X198570000Y-119050000D02*
X198570000Y-121750000D01*
G75*
G02*
X198420000Y-121900000I-150000J0D01*
G01*
X198120000Y-121900000D01*
G75*
G02*
X197970000Y-121750000I0J150000D01*
G01*
X197970000Y-119050000D01*
G75*
G02*
X198120000Y-118900000I150000J0D01*
G01*
X198420000Y-118900000D01*
G75*
G02*
X198570000Y-119050000I0J-150000D01*
G01*
G37*
G36*
G01*
X198570000Y-131050000D02*
X198570000Y-133750000D01*
G75*
G02*
X198420000Y-133900000I-150000J0D01*
G01*
X198120000Y-133900000D01*
G75*
G02*
X197970000Y-133750000I0J150000D01*
G01*
X197970000Y-131050000D01*
G75*
G02*
X198120000Y-130900000I150000J0D01*
G01*
X198420000Y-130900000D01*
G75*
G02*
X198570000Y-131050000I0J-150000D01*
G01*
G37*
G36*
G01*
X199840000Y-119050000D02*
X199840000Y-121750000D01*
G75*
G02*
X199690000Y-121900000I-150000J0D01*
G01*
X199390000Y-121900000D01*
G75*
G02*
X199240000Y-121750000I0J150000D01*
G01*
X199240000Y-119050000D01*
G75*
G02*
X199390000Y-118900000I150000J0D01*
G01*
X199690000Y-118900000D01*
G75*
G02*
X199840000Y-119050000I0J-150000D01*
G01*
G37*
G36*
G01*
X199840000Y-131050000D02*
X199840000Y-133750000D01*
G75*
G02*
X199690000Y-133900000I-150000J0D01*
G01*
X199390000Y-133900000D01*
G75*
G02*
X199240000Y-133750000I0J150000D01*
G01*
X199240000Y-131050000D01*
G75*
G02*
X199390000Y-130900000I150000J0D01*
G01*
X199690000Y-130900000D01*
G75*
G02*
X199840000Y-131050000I0J-150000D01*
G01*
G37*
G36*
G01*
X201110000Y-119050000D02*
X201110000Y-121750000D01*
G75*
G02*
X200960000Y-121900000I-150000J0D01*
G01*
X200660000Y-121900000D01*
G75*
G02*
X200510000Y-121750000I0J150000D01*
G01*
X200510000Y-119050000D01*
G75*
G02*
X200660000Y-118900000I150000J0D01*
G01*
X200960000Y-118900000D01*
G75*
G02*
X201110000Y-119050000I0J-150000D01*
G01*
G37*
G36*
G01*
X201110000Y-131050000D02*
X201110000Y-133750000D01*
G75*
G02*
X200960000Y-133900000I-150000J0D01*
G01*
X200660000Y-133900000D01*
G75*
G02*
X200510000Y-133750000I0J150000D01*
G01*
X200510000Y-131050000D01*
G75*
G02*
X200660000Y-130900000I150000J0D01*
G01*
X200960000Y-130900000D01*
G75*
G02*
X201110000Y-131050000I0J-150000D01*
G01*
G37*
G36*
G01*
X202380000Y-119050000D02*
X202380000Y-121750000D01*
G75*
G02*
X202230000Y-121900000I-150000J0D01*
G01*
X201930000Y-121900000D01*
G75*
G02*
X201780000Y-121750000I0J150000D01*
G01*
X201780000Y-119050000D01*
G75*
G02*
X201930000Y-118900000I150000J0D01*
G01*
X202230000Y-118900000D01*
G75*
G02*
X202380000Y-119050000I0J-150000D01*
G01*
G37*
G36*
G01*
X202380000Y-131050000D02*
X202380000Y-133750000D01*
G75*
G02*
X202230000Y-133900000I-150000J0D01*
G01*
X201930000Y-133900000D01*
G75*
G02*
X201780000Y-133750000I0J150000D01*
G01*
X201780000Y-131050000D01*
G75*
G02*
X201930000Y-130900000I150000J0D01*
G01*
X202230000Y-130900000D01*
G75*
G02*
X202380000Y-131050000I0J-150000D01*
G01*
G37*
G36*
G01*
X203650000Y-119050000D02*
X203650000Y-121750000D01*
G75*
G02*
X203500000Y-121900000I-150000J0D01*
G01*
X203200000Y-121900000D01*
G75*
G02*
X203050000Y-121750000I0J150000D01*
G01*
X203050000Y-119050000D01*
G75*
G02*
X203200000Y-118900000I150000J0D01*
G01*
X203500000Y-118900000D01*
G75*
G02*
X203650000Y-119050000I0J-150000D01*
G01*
G37*
G36*
G01*
X203650000Y-131050000D02*
X203650000Y-133750000D01*
G75*
G02*
X203500000Y-133900000I-150000J0D01*
G01*
X203200000Y-133900000D01*
G75*
G02*
X203050000Y-133750000I0J150000D01*
G01*
X203050000Y-131050000D01*
G75*
G02*
X203200000Y-130900000I150000J0D01*
G01*
X203500000Y-130900000D01*
G75*
G02*
X203650000Y-131050000I0J-150000D01*
G01*
G37*
G36*
G01*
X204920000Y-119050000D02*
X204920000Y-121750000D01*
G75*
G02*
X204770000Y-121900000I-150000J0D01*
G01*
X204470000Y-121900000D01*
G75*
G02*
X204320000Y-121750000I0J150000D01*
G01*
X204320000Y-119050000D01*
G75*
G02*
X204470000Y-118900000I150000J0D01*
G01*
X204770000Y-118900000D01*
G75*
G02*
X204920000Y-119050000I0J-150000D01*
G01*
G37*
G36*
G01*
X204920000Y-131050000D02*
X204920000Y-133750000D01*
G75*
G02*
X204770000Y-133900000I-150000J0D01*
G01*
X204470000Y-133900000D01*
G75*
G02*
X204320000Y-133750000I0J150000D01*
G01*
X204320000Y-131050000D01*
G75*
G02*
X204470000Y-130900000I150000J0D01*
G01*
X204770000Y-130900000D01*
G75*
G02*
X204920000Y-131050000I0J-150000D01*
G01*
G37*
G36*
G01*
X206190000Y-119050000D02*
X206190000Y-121750000D01*
G75*
G02*
X206040000Y-121900000I-150000J0D01*
G01*
X205740000Y-121900000D01*
G75*
G02*
X205590000Y-121750000I0J150000D01*
G01*
X205590000Y-119050000D01*
G75*
G02*
X205740000Y-118900000I150000J0D01*
G01*
X206040000Y-118900000D01*
G75*
G02*
X206190000Y-119050000I0J-150000D01*
G01*
G37*
G36*
G01*
X206190000Y-131050000D02*
X206190000Y-133750000D01*
G75*
G02*
X206040000Y-133900000I-150000J0D01*
G01*
X205740000Y-133900000D01*
G75*
G02*
X205590000Y-133750000I0J150000D01*
G01*
X205590000Y-131050000D01*
G75*
G02*
X205740000Y-130900000I150000J0D01*
G01*
X206040000Y-130900000D01*
G75*
G02*
X206190000Y-131050000I0J-150000D01*
G01*
G37*
G36*
G01*
X207460000Y-119050000D02*
X207460000Y-121750000D01*
G75*
G02*
X207310000Y-121900000I-150000J0D01*
G01*
X207010000Y-121900000D01*
G75*
G02*
X206860000Y-121750000I0J150000D01*
G01*
X206860000Y-119050000D01*
G75*
G02*
X207010000Y-118900000I150000J0D01*
G01*
X207310000Y-118900000D01*
G75*
G02*
X207460000Y-119050000I0J-150000D01*
G01*
G37*
G36*
G01*
X207460000Y-131050000D02*
X207460000Y-133750000D01*
G75*
G02*
X207310000Y-133900000I-150000J0D01*
G01*
X207010000Y-133900000D01*
G75*
G02*
X206860000Y-133750000I0J150000D01*
G01*
X206860000Y-131050000D01*
G75*
G02*
X207010000Y-130900000I150000J0D01*
G01*
X207310000Y-130900000D01*
G75*
G02*
X207460000Y-131050000I0J-150000D01*
G01*
G37*
G36*
G01*
X208730000Y-119050000D02*
X208730000Y-121750000D01*
G75*
G02*
X208580000Y-121900000I-150000J0D01*
G01*
X208280000Y-121900000D01*
G75*
G02*
X208130000Y-121750000I0J150000D01*
G01*
X208130000Y-119050000D01*
G75*
G02*
X208280000Y-118900000I150000J0D01*
G01*
X208580000Y-118900000D01*
G75*
G02*
X208730000Y-119050000I0J-150000D01*
G01*
G37*
G36*
G01*
X208730000Y-131050000D02*
X208730000Y-133750000D01*
G75*
G02*
X208580000Y-133900000I-150000J0D01*
G01*
X208280000Y-133900000D01*
G75*
G02*
X208130000Y-133750000I0J150000D01*
G01*
X208130000Y-131050000D01*
G75*
G02*
X208280000Y-130900000I150000J0D01*
G01*
X208580000Y-130900000D01*
G75*
G02*
X208730000Y-131050000I0J-150000D01*
G01*
G37*
G36*
G01*
X210000000Y-119050000D02*
X210000000Y-121750000D01*
G75*
G02*
X209850000Y-121900000I-150000J0D01*
G01*
X209550000Y-121900000D01*
G75*
G02*
X209400000Y-121750000I0J150000D01*
G01*
X209400000Y-119050000D01*
G75*
G02*
X209550000Y-118900000I150000J0D01*
G01*
X209850000Y-118900000D01*
G75*
G02*
X210000000Y-119050000I0J-150000D01*
G01*
G37*
G36*
G01*
X210000000Y-131050000D02*
X210000000Y-133750000D01*
G75*
G02*
X209850000Y-133900000I-150000J0D01*
G01*
X209550000Y-133900000D01*
G75*
G02*
X209400000Y-133750000I0J150000D01*
G01*
X209400000Y-131050000D01*
G75*
G02*
X209550000Y-130900000I150000J0D01*
G01*
X209850000Y-130900000D01*
G75*
G02*
X210000000Y-131050000I0J-150000D01*
G01*
G37*
G36*
G01*
X211270000Y-119050000D02*
X211270000Y-121750000D01*
G75*
G02*
X211120000Y-121900000I-150000J0D01*
G01*
X210820000Y-121900000D01*
G75*
G02*
X210670000Y-121750000I0J150000D01*
G01*
X210670000Y-119050000D01*
G75*
G02*
X210820000Y-118900000I150000J0D01*
G01*
X211120000Y-118900000D01*
G75*
G02*
X211270000Y-119050000I0J-150000D01*
G01*
G37*
G36*
G01*
X211270000Y-131050000D02*
X211270000Y-133750000D01*
G75*
G02*
X211120000Y-133900000I-150000J0D01*
G01*
X210820000Y-133900000D01*
G75*
G02*
X210670000Y-133750000I0J150000D01*
G01*
X210670000Y-131050000D01*
G75*
G02*
X210820000Y-130900000I150000J0D01*
G01*
X211120000Y-130900000D01*
G75*
G02*
X211270000Y-131050000I0J-150000D01*
G01*
G37*
G36*
G01*
X212540000Y-119050000D02*
X212540000Y-121750000D01*
G75*
G02*
X212390000Y-121900000I-150000J0D01*
G01*
X212090000Y-121900000D01*
G75*
G02*
X211940000Y-121750000I0J150000D01*
G01*
X211940000Y-119050000D01*
G75*
G02*
X212090000Y-118900000I150000J0D01*
G01*
X212390000Y-118900000D01*
G75*
G02*
X212540000Y-119050000I0J-150000D01*
G01*
G37*
G36*
G01*
X212540000Y-131050000D02*
X212540000Y-133750000D01*
G75*
G02*
X212390000Y-133900000I-150000J0D01*
G01*
X212090000Y-133900000D01*
G75*
G02*
X211940000Y-133750000I0J150000D01*
G01*
X211940000Y-131050000D01*
G75*
G02*
X212090000Y-130900000I150000J0D01*
G01*
X212390000Y-130900000D01*
G75*
G02*
X212540000Y-131050000I0J-150000D01*
G01*
G37*
G36*
G01*
X213810000Y-119050000D02*
X213810000Y-121750000D01*
G75*
G02*
X213660000Y-121900000I-150000J0D01*
G01*
X213360000Y-121900000D01*
G75*
G02*
X213210000Y-121750000I0J150000D01*
G01*
X213210000Y-119050000D01*
G75*
G02*
X213360000Y-118900000I150000J0D01*
G01*
X213660000Y-118900000D01*
G75*
G02*
X213810000Y-119050000I0J-150000D01*
G01*
G37*
G36*
G01*
X213810000Y-131050000D02*
X213810000Y-133750000D01*
G75*
G02*
X213660000Y-133900000I-150000J0D01*
G01*
X213360000Y-133900000D01*
G75*
G02*
X213210000Y-133750000I0J150000D01*
G01*
X213210000Y-131050000D01*
G75*
G02*
X213360000Y-130900000I150000J0D01*
G01*
X213660000Y-130900000D01*
G75*
G02*
X213810000Y-131050000I0J-150000D01*
G01*
G37*
G36*
G01*
X68543750Y-103150000D02*
X69056250Y-103150000D01*
G75*
G02*
X69275000Y-103368750I0J-218750D01*
G01*
X69275000Y-103806250D01*
G75*
G02*
X69056250Y-104025000I-218750J0D01*
G01*
X68543750Y-104025000D01*
G75*
G02*
X68325000Y-103806250I0J218750D01*
G01*
X68325000Y-103368750D01*
G75*
G02*
X68543750Y-103150000I218750J0D01*
G01*
G37*
G36*
G01*
X68543750Y-101575000D02*
X69056250Y-101575000D01*
G75*
G02*
X69275000Y-101793750I0J-218750D01*
G01*
X69275000Y-102231250D01*
G75*
G02*
X69056250Y-102450000I-218750J0D01*
G01*
X68543750Y-102450000D01*
G75*
G02*
X68325000Y-102231250I0J218750D01*
G01*
X68325000Y-101793750D01*
G75*
G02*
X68543750Y-101575000I218750J0D01*
G01*
G37*
D19*
X91000000Y-106000000D03*
X91800000Y-106000000D03*
X92600000Y-106000000D03*
X93400000Y-106000000D03*
X94200000Y-106000000D03*
X95000000Y-106000000D03*
X95800000Y-106000000D03*
X96600000Y-106000000D03*
X97400000Y-106000000D03*
X98200000Y-106000000D03*
X99000000Y-106000000D03*
X99800000Y-106000000D03*
X100600000Y-106000000D03*
X101400000Y-106000000D03*
X102200000Y-106000000D03*
X103000000Y-106000000D03*
X91000000Y-105200000D03*
X91800000Y-105200000D03*
X92600000Y-105200000D03*
X93400000Y-105200000D03*
X94200000Y-105200000D03*
X95000000Y-105200000D03*
X95800000Y-105200000D03*
X96600000Y-105200000D03*
X97400000Y-105200000D03*
X98200000Y-105200000D03*
X99000000Y-105200000D03*
X99800000Y-105200000D03*
X100600000Y-105200000D03*
X101400000Y-105200000D03*
X102200000Y-105200000D03*
X103000000Y-105200000D03*
X91000000Y-104400000D03*
X91800000Y-104400000D03*
X92600000Y-104400000D03*
X93400000Y-104400000D03*
X94200000Y-104400000D03*
X95000000Y-104400000D03*
X95800000Y-104400000D03*
X96600000Y-104400000D03*
X97400000Y-104400000D03*
X98200000Y-104400000D03*
X99000000Y-104400000D03*
X99800000Y-104400000D03*
X100600000Y-104400000D03*
X101400000Y-104400000D03*
X102200000Y-104400000D03*
X103000000Y-104400000D03*
X91000000Y-103600000D03*
X91800000Y-103600000D03*
X92600000Y-103600000D03*
X93400000Y-103600000D03*
X94200000Y-103600000D03*
X95000000Y-103600000D03*
X95800000Y-103600000D03*
X96600000Y-103600000D03*
X97400000Y-103600000D03*
X98200000Y-103600000D03*
X99000000Y-103600000D03*
X99800000Y-103600000D03*
X100600000Y-103600000D03*
X101400000Y-103600000D03*
X102200000Y-103600000D03*
X103000000Y-103600000D03*
X91000000Y-102800000D03*
X91800000Y-102800000D03*
X92600000Y-102800000D03*
X93400000Y-102800000D03*
X94200000Y-102800000D03*
X95000000Y-102800000D03*
X95800000Y-102800000D03*
X96600000Y-102800000D03*
X97400000Y-102800000D03*
X98200000Y-102800000D03*
X99000000Y-102800000D03*
X99800000Y-102800000D03*
X100600000Y-102800000D03*
X101400000Y-102800000D03*
X102200000Y-102800000D03*
X103000000Y-102800000D03*
X91000000Y-102000000D03*
X91800000Y-102000000D03*
X92600000Y-102000000D03*
X93400000Y-102000000D03*
X94200000Y-102000000D03*
X95000000Y-102000000D03*
X95800000Y-102000000D03*
X96600000Y-102000000D03*
X97400000Y-102000000D03*
X98200000Y-102000000D03*
X99000000Y-102000000D03*
X99800000Y-102000000D03*
X100600000Y-102000000D03*
X101400000Y-102000000D03*
X102200000Y-102000000D03*
X103000000Y-102000000D03*
X91000000Y-101200000D03*
X91800000Y-101200000D03*
X92600000Y-101200000D03*
X93400000Y-101200000D03*
X94200000Y-101200000D03*
X95000000Y-101200000D03*
X95800000Y-101200000D03*
X96600000Y-101200000D03*
X97400000Y-101200000D03*
X98200000Y-101200000D03*
X99000000Y-101200000D03*
X99800000Y-101200000D03*
X100600000Y-101200000D03*
X101400000Y-101200000D03*
X102200000Y-101200000D03*
X103000000Y-101200000D03*
X91000000Y-100400000D03*
X91800000Y-100400000D03*
X92600000Y-100400000D03*
X93400000Y-100400000D03*
X94200000Y-100400000D03*
X95000000Y-100400000D03*
X95800000Y-100400000D03*
X96600000Y-100400000D03*
X97400000Y-100400000D03*
X98200000Y-100400000D03*
X99000000Y-100400000D03*
X99800000Y-100400000D03*
X100600000Y-100400000D03*
X101400000Y-100400000D03*
X102200000Y-100400000D03*
X103000000Y-100400000D03*
X91000000Y-99600000D03*
X91800000Y-99600000D03*
X92600000Y-99600000D03*
X93400000Y-99600000D03*
X94200000Y-99600000D03*
X95000000Y-99600000D03*
X95800000Y-99600000D03*
X96600000Y-99600000D03*
X97400000Y-99600000D03*
X98200000Y-99600000D03*
X99000000Y-99600000D03*
X99800000Y-99600000D03*
X100600000Y-99600000D03*
X101400000Y-99600000D03*
X102200000Y-99600000D03*
X103000000Y-99600000D03*
X91000000Y-98800000D03*
X91800000Y-98800000D03*
X92600000Y-98800000D03*
X93400000Y-98800000D03*
X94200000Y-98800000D03*
X95000000Y-98800000D03*
X95800000Y-98800000D03*
X96600000Y-98800000D03*
X97400000Y-98800000D03*
X98200000Y-98800000D03*
X99000000Y-98800000D03*
X99800000Y-98800000D03*
X100600000Y-98800000D03*
X101400000Y-98800000D03*
X102200000Y-98800000D03*
X103000000Y-98800000D03*
X91000000Y-98000000D03*
X91800000Y-98000000D03*
X92600000Y-98000000D03*
X93400000Y-98000000D03*
X94200000Y-98000000D03*
X95000000Y-98000000D03*
X95800000Y-98000000D03*
X96600000Y-98000000D03*
X97400000Y-98000000D03*
X98200000Y-98000000D03*
X99000000Y-98000000D03*
X99800000Y-98000000D03*
X100600000Y-98000000D03*
X101400000Y-98000000D03*
X102200000Y-98000000D03*
X103000000Y-98000000D03*
X91000000Y-97200000D03*
X91800000Y-97200000D03*
X92600000Y-97200000D03*
X93400000Y-97200000D03*
X94200000Y-97200000D03*
X95000000Y-97200000D03*
X95800000Y-97200000D03*
X96600000Y-97200000D03*
X97400000Y-97200000D03*
X98200000Y-97200000D03*
X99000000Y-97200000D03*
X99800000Y-97200000D03*
X100600000Y-97200000D03*
X101400000Y-97200000D03*
X102200000Y-97200000D03*
X103000000Y-97200000D03*
X91000000Y-96400000D03*
X91800000Y-96400000D03*
X92600000Y-96400000D03*
X93400000Y-96400000D03*
X94200000Y-96400000D03*
X95000000Y-96400000D03*
X95800000Y-96400000D03*
X96600000Y-96400000D03*
X97400000Y-96400000D03*
X98200000Y-96400000D03*
X99000000Y-96400000D03*
X99800000Y-96400000D03*
X100600000Y-96400000D03*
X101400000Y-96400000D03*
X102200000Y-96400000D03*
X103000000Y-96400000D03*
X91000000Y-95600000D03*
X91800000Y-95600000D03*
X92600000Y-95600000D03*
X93400000Y-95600000D03*
X94200000Y-95600000D03*
X95000000Y-95600000D03*
X95800000Y-95600000D03*
X96600000Y-95600000D03*
X97400000Y-95600000D03*
X98200000Y-95600000D03*
X99000000Y-95600000D03*
X99800000Y-95600000D03*
X100600000Y-95600000D03*
X101400000Y-95600000D03*
X102200000Y-95600000D03*
X103000000Y-95600000D03*
X91000000Y-94800000D03*
X91800000Y-94800000D03*
X92600000Y-94800000D03*
X93400000Y-94800000D03*
X94200000Y-94800000D03*
X95000000Y-94800000D03*
X95800000Y-94800000D03*
X96600000Y-94800000D03*
X97400000Y-94800000D03*
X98200000Y-94800000D03*
X99000000Y-94800000D03*
X99800000Y-94800000D03*
X100600000Y-94800000D03*
X101400000Y-94800000D03*
X102200000Y-94800000D03*
X103000000Y-94800000D03*
X91000000Y-94000000D03*
X91800000Y-94000000D03*
X92600000Y-94000000D03*
X93400000Y-94000000D03*
X94200000Y-94000000D03*
X95000000Y-94000000D03*
X95800000Y-94000000D03*
X96600000Y-94000000D03*
X97400000Y-94000000D03*
X98200000Y-94000000D03*
X99000000Y-94000000D03*
X99800000Y-94000000D03*
X100600000Y-94000000D03*
X101400000Y-94000000D03*
X102200000Y-94000000D03*
X103000000Y-94000000D03*
D20*
X58660000Y-118025000D03*
X58660000Y-117375000D03*
X58660000Y-116725000D03*
X58660000Y-116075000D03*
X58660000Y-115425000D03*
G36*
G01*
X62791500Y-110391000D02*
X62791500Y-110691000D01*
G75*
G02*
X62641500Y-110841000I-150000J0D01*
G01*
X60991500Y-110841000D01*
G75*
G02*
X60841500Y-110691000I0J150000D01*
G01*
X60841500Y-110391000D01*
G75*
G02*
X60991500Y-110241000I150000J0D01*
G01*
X62641500Y-110241000D01*
G75*
G02*
X62791500Y-110391000I0J-150000D01*
G01*
G37*
G36*
G01*
X62791500Y-109121000D02*
X62791500Y-109421000D01*
G75*
G02*
X62641500Y-109571000I-150000J0D01*
G01*
X60991500Y-109571000D01*
G75*
G02*
X60841500Y-109421000I0J150000D01*
G01*
X60841500Y-109121000D01*
G75*
G02*
X60991500Y-108971000I150000J0D01*
G01*
X62641500Y-108971000D01*
G75*
G02*
X62791500Y-109121000I0J-150000D01*
G01*
G37*
G36*
G01*
X62791500Y-107851000D02*
X62791500Y-108151000D01*
G75*
G02*
X62641500Y-108301000I-150000J0D01*
G01*
X60991500Y-108301000D01*
G75*
G02*
X60841500Y-108151000I0J150000D01*
G01*
X60841500Y-107851000D01*
G75*
G02*
X60991500Y-107701000I150000J0D01*
G01*
X62641500Y-107701000D01*
G75*
G02*
X62791500Y-107851000I0J-150000D01*
G01*
G37*
G36*
G01*
X62791500Y-106581000D02*
X62791500Y-106881000D01*
G75*
G02*
X62641500Y-107031000I-150000J0D01*
G01*
X60991500Y-107031000D01*
G75*
G02*
X60841500Y-106881000I0J150000D01*
G01*
X60841500Y-106581000D01*
G75*
G02*
X60991500Y-106431000I150000J0D01*
G01*
X62641500Y-106431000D01*
G75*
G02*
X62791500Y-106581000I0J-150000D01*
G01*
G37*
G36*
G01*
X67741500Y-106581000D02*
X67741500Y-106881000D01*
G75*
G02*
X67591500Y-107031000I-150000J0D01*
G01*
X65941500Y-107031000D01*
G75*
G02*
X65791500Y-106881000I0J150000D01*
G01*
X65791500Y-106581000D01*
G75*
G02*
X65941500Y-106431000I150000J0D01*
G01*
X67591500Y-106431000D01*
G75*
G02*
X67741500Y-106581000I0J-150000D01*
G01*
G37*
G36*
G01*
X67741500Y-107851000D02*
X67741500Y-108151000D01*
G75*
G02*
X67591500Y-108301000I-150000J0D01*
G01*
X65941500Y-108301000D01*
G75*
G02*
X65791500Y-108151000I0J150000D01*
G01*
X65791500Y-107851000D01*
G75*
G02*
X65941500Y-107701000I150000J0D01*
G01*
X67591500Y-107701000D01*
G75*
G02*
X67741500Y-107851000I0J-150000D01*
G01*
G37*
G36*
G01*
X67741500Y-109121000D02*
X67741500Y-109421000D01*
G75*
G02*
X67591500Y-109571000I-150000J0D01*
G01*
X65941500Y-109571000D01*
G75*
G02*
X65791500Y-109421000I0J150000D01*
G01*
X65791500Y-109121000D01*
G75*
G02*
X65941500Y-108971000I150000J0D01*
G01*
X67591500Y-108971000D01*
G75*
G02*
X67741500Y-109121000I0J-150000D01*
G01*
G37*
G36*
G01*
X67741500Y-110391000D02*
X67741500Y-110691000D01*
G75*
G02*
X67591500Y-110841000I-150000J0D01*
G01*
X65941500Y-110841000D01*
G75*
G02*
X65791500Y-110691000I0J150000D01*
G01*
X65791500Y-110391000D01*
G75*
G02*
X65941500Y-110241000I150000J0D01*
G01*
X67591500Y-110241000D01*
G75*
G02*
X67741500Y-110391000I0J-150000D01*
G01*
G37*
D12*
X89450000Y-120300000D03*
X91350000Y-120300000D03*
X91350000Y-122500000D03*
X90400000Y-122500000D03*
X89450000Y-122500000D03*
X82150000Y-120300000D03*
X84050000Y-120300000D03*
X84050000Y-122500000D03*
X83100000Y-122500000D03*
X82150000Y-122500000D03*
M02*
