G04 #@! TF.GenerationSoftware,KiCad,Pcbnew,5.1.5-52549c5~86~ubuntu18.04.1*
G04 #@! TF.CreationDate,2020-04-26T19:40:07-07:00*
G04 #@! TF.ProjectId,spla-board,73706c61-2d62-46f6-9172-642e6b696361,9*
G04 #@! TF.SameCoordinates,Original*
G04 #@! TF.FileFunction,Legend,Bot*
G04 #@! TF.FilePolarity,Positive*
%FSLAX46Y46*%
G04 Gerber Fmt 4.6, Leading zero omitted, Abs format (unit mm)*
G04 Created by KiCad (PCBNEW 5.1.5-52549c5~86~ubuntu18.04.1) date 2020-04-26 19:40:07*
%MOMM*%
%LPD*%
G04 APERTURE LIST*
%ADD10C,0.120000*%
%ADD11C,0.050000*%
%ADD12C,0.150000*%
G04 APERTURE END LIST*
D10*
X101400000Y-103600000D02*
X93400000Y-103600000D01*
X101400000Y-95600000D02*
X101400000Y-103600000D01*
X93400000Y-103600000D02*
X93400000Y-95600000D01*
X93400000Y-95600000D02*
X101400000Y-95600000D01*
X104500000Y-105500000D02*
X104500000Y-94500000D01*
X115500000Y-105500000D02*
X104500000Y-105500000D01*
X115500000Y-94500000D02*
X115500000Y-105500000D01*
X104500000Y-94500000D02*
X115500000Y-94500000D01*
D11*
X40000000Y-155000000D02*
X40000000Y-48000000D01*
X218000000Y-48000000D02*
X218000000Y-155000000D01*
X40000000Y-48000000D02*
X218000000Y-48000000D01*
X40000000Y-155000000D02*
X218000000Y-155000000D01*
D10*
X73637221Y-102990000D02*
X73962779Y-102990000D01*
X73637221Y-104010000D02*
X73962779Y-104010000D01*
X74400000Y-92850000D02*
X79700000Y-92850000D01*
X74400000Y-96550000D02*
X74400000Y-92850000D01*
X85437221Y-87690000D02*
X85762779Y-87690000D01*
X85437221Y-88710000D02*
X85762779Y-88710000D01*
X120787221Y-82040000D02*
X121112779Y-82040000D01*
X120787221Y-83060000D02*
X121112779Y-83060000D01*
X150437221Y-65090000D02*
X150762779Y-65090000D01*
X150437221Y-66110000D02*
X150762779Y-66110000D01*
X80690000Y-115962779D02*
X80690000Y-115637221D01*
X81710000Y-115962779D02*
X81710000Y-115637221D01*
X138290000Y-93762779D02*
X138290000Y-93437221D01*
X139310000Y-93762779D02*
X139310000Y-93437221D01*
X92960000Y-114587221D02*
X92960000Y-114912779D01*
X91940000Y-114587221D02*
X91940000Y-114912779D01*
X120787221Y-83690000D02*
X121112779Y-83690000D01*
X120787221Y-84710000D02*
X121112779Y-84710000D01*
X146337221Y-130490000D02*
X146662779Y-130490000D01*
X146337221Y-131510000D02*
X146662779Y-131510000D01*
X129762779Y-109810000D02*
X129437221Y-109810000D01*
X129762779Y-108790000D02*
X129437221Y-108790000D01*
X131937221Y-65790000D02*
X132262779Y-65790000D01*
X131937221Y-66810000D02*
X132262779Y-66810000D01*
X85437221Y-85990000D02*
X85762779Y-85990000D01*
X85437221Y-87010000D02*
X85762779Y-87010000D01*
X61162779Y-114410000D02*
X60837221Y-114410000D01*
X61162779Y-113390000D02*
X60837221Y-113390000D01*
X146337221Y-132190000D02*
X146662779Y-132190000D01*
X146337221Y-133210000D02*
X146662779Y-133210000D01*
X89249721Y-108290000D02*
X89575279Y-108290000D01*
X89249721Y-109310000D02*
X89575279Y-109310000D01*
X60812779Y-80810000D02*
X60487221Y-80810000D01*
X60812779Y-79790000D02*
X60487221Y-79790000D01*
X60812779Y-79160000D02*
X60487221Y-79160000D01*
X60812779Y-78140000D02*
X60487221Y-78140000D01*
X60812779Y-73810000D02*
X60487221Y-73810000D01*
X60812779Y-72790000D02*
X60487221Y-72790000D01*
X60812779Y-72160000D02*
X60487221Y-72160000D01*
X60812779Y-71140000D02*
X60487221Y-71140000D01*
X101162779Y-82510000D02*
X100837221Y-82510000D01*
X101162779Y-81490000D02*
X100837221Y-81490000D01*
X101162779Y-79110000D02*
X100837221Y-79110000D01*
X101162779Y-78090000D02*
X100837221Y-78090000D01*
X101162779Y-80810000D02*
X100837221Y-80810000D01*
X101162779Y-79790000D02*
X100837221Y-79790000D01*
X101162779Y-77410000D02*
X100837221Y-77410000D01*
X101162779Y-76390000D02*
X100837221Y-76390000D01*
X101449721Y-67690000D02*
X101775279Y-67690000D01*
X101449721Y-68710000D02*
X101775279Y-68710000D01*
X101449721Y-69490000D02*
X101775279Y-69490000D01*
X101449721Y-70510000D02*
X101775279Y-70510000D01*
X88662779Y-82510000D02*
X88337221Y-82510000D01*
X88662779Y-81490000D02*
X88337221Y-81490000D01*
X88662779Y-79110000D02*
X88337221Y-79110000D01*
X88662779Y-78090000D02*
X88337221Y-78090000D01*
X88662779Y-80810000D02*
X88337221Y-80810000D01*
X88662779Y-79790000D02*
X88337221Y-79790000D01*
X88662779Y-77410000D02*
X88337221Y-77410000D01*
X88662779Y-76390000D02*
X88337221Y-76390000D01*
X88949721Y-67690000D02*
X89275279Y-67690000D01*
X88949721Y-68710000D02*
X89275279Y-68710000D01*
X88949721Y-69490000D02*
X89275279Y-69490000D01*
X88949721Y-70510000D02*
X89275279Y-70510000D01*
X76162779Y-82510000D02*
X75837221Y-82510000D01*
X76162779Y-81490000D02*
X75837221Y-81490000D01*
X76162779Y-79110000D02*
X75837221Y-79110000D01*
X76162779Y-78090000D02*
X75837221Y-78090000D01*
X76162779Y-80810000D02*
X75837221Y-80810000D01*
X76162779Y-79790000D02*
X75837221Y-79790000D01*
X76162779Y-77410000D02*
X75837221Y-77410000D01*
X76162779Y-76390000D02*
X75837221Y-76390000D01*
X76449721Y-67690000D02*
X76775279Y-67690000D01*
X76449721Y-68710000D02*
X76775279Y-68710000D01*
X76449721Y-69490000D02*
X76775279Y-69490000D01*
X76449721Y-70510000D02*
X76775279Y-70510000D01*
D12*
X164375000Y-108475000D02*
X169025000Y-108475000D01*
X163300000Y-116575000D02*
X169025000Y-116575000D01*
X164375000Y-108475000D02*
X164375000Y-108500000D01*
X169025000Y-108475000D02*
X169025000Y-108500000D01*
X169025000Y-116525000D02*
X169025000Y-116500000D01*
X151325000Y-90050000D02*
X155975000Y-90050000D01*
X150250000Y-98150000D02*
X155975000Y-98150000D01*
X151325000Y-90050000D02*
X151325000Y-90075000D01*
X155975000Y-90050000D02*
X155975000Y-90075000D01*
X155975000Y-98100000D02*
X155975000Y-98075000D01*
D10*
X70090000Y-112950279D02*
X70090000Y-112624721D01*
X71110000Y-112950279D02*
X71110000Y-112624721D01*
D12*
X161175000Y-128875000D02*
X165825000Y-128875000D01*
X160100000Y-136975000D02*
X165825000Y-136975000D01*
X161175000Y-128875000D02*
X161175000Y-128900000D01*
X165825000Y-128875000D02*
X165825000Y-128900000D01*
X165825000Y-136925000D02*
X165825000Y-136900000D01*
D10*
X161637221Y-105490000D02*
X161962779Y-105490000D01*
X161637221Y-106510000D02*
X161962779Y-106510000D01*
X135590000Y-68262779D02*
X135590000Y-67937221D01*
X136610000Y-68262779D02*
X136610000Y-67937221D01*
D12*
X178900000Y-150175000D02*
X178900000Y-145525000D01*
X187000000Y-151250000D02*
X187000000Y-145525000D01*
X178900000Y-150175000D02*
X178925000Y-150175000D01*
X178900000Y-145525000D02*
X178925000Y-145525000D01*
X186950000Y-145525000D02*
X186925000Y-145525000D01*
X126675000Y-81875000D02*
X131325000Y-81875000D01*
X125600000Y-89975000D02*
X131325000Y-89975000D01*
X126675000Y-81875000D02*
X126675000Y-81900000D01*
X131325000Y-81875000D02*
X131325000Y-81900000D01*
X131325000Y-89925000D02*
X131325000Y-89900000D01*
X151325000Y-99150000D02*
X155975000Y-99150000D01*
X150250000Y-107250000D02*
X155975000Y-107250000D01*
X151325000Y-99150000D02*
X151325000Y-99175000D01*
X155975000Y-99150000D02*
X155975000Y-99175000D01*
X155975000Y-107200000D02*
X155975000Y-107175000D01*
X188900000Y-150175000D02*
X188900000Y-145525000D01*
X197000000Y-151250000D02*
X197000000Y-145525000D01*
X188900000Y-150175000D02*
X188925000Y-150175000D01*
X188900000Y-145525000D02*
X188925000Y-145525000D01*
X196950000Y-145525000D02*
X196925000Y-145525000D01*
X164375000Y-119575000D02*
X169025000Y-119575000D01*
X163300000Y-127675000D02*
X169025000Y-127675000D01*
X164375000Y-119575000D02*
X164375000Y-119600000D01*
X169025000Y-119575000D02*
X169025000Y-119600000D01*
X169025000Y-127625000D02*
X169025000Y-127600000D01*
X154675000Y-115375000D02*
X159325000Y-115375000D01*
X153600000Y-123475000D02*
X159325000Y-123475000D01*
X154675000Y-115375000D02*
X154675000Y-115400000D01*
X159325000Y-115375000D02*
X159325000Y-115400000D01*
X159325000Y-123425000D02*
X159325000Y-123400000D01*
X126675000Y-69875000D02*
X131325000Y-69875000D01*
X125600000Y-77975000D02*
X131325000Y-77975000D01*
X126675000Y-69875000D02*
X126675000Y-69900000D01*
X131325000Y-69875000D02*
X131325000Y-69900000D01*
X131325000Y-77925000D02*
X131325000Y-77900000D01*
X137375000Y-75975000D02*
X142025000Y-75975000D01*
X136300000Y-84075000D02*
X142025000Y-84075000D01*
X137375000Y-75975000D02*
X137375000Y-76000000D01*
X142025000Y-75975000D02*
X142025000Y-76000000D01*
X142025000Y-84025000D02*
X142025000Y-84000000D01*
X132875000Y-101875000D02*
X137525000Y-101875000D01*
X131800000Y-109975000D02*
X137525000Y-109975000D01*
X132875000Y-101875000D02*
X132875000Y-101900000D01*
X137525000Y-101875000D02*
X137525000Y-101900000D01*
X137525000Y-109925000D02*
X137525000Y-109900000D01*
X176025000Y-54375000D02*
X176025000Y-59025000D01*
X167925000Y-53300000D02*
X167925000Y-59025000D01*
X176025000Y-54375000D02*
X176000000Y-54375000D01*
X176025000Y-59025000D02*
X176000000Y-59025000D01*
X167975000Y-59025000D02*
X168000000Y-59025000D01*
X150275000Y-55175000D02*
X154925000Y-55175000D01*
X149200000Y-63275000D02*
X154925000Y-63275000D01*
X150275000Y-55175000D02*
X150275000Y-55200000D01*
X154925000Y-55175000D02*
X154925000Y-55200000D01*
X154925000Y-63225000D02*
X154925000Y-63200000D01*
X135475000Y-124775000D02*
X140125000Y-124775000D01*
X134400000Y-132875000D02*
X140125000Y-132875000D01*
X135475000Y-124775000D02*
X135475000Y-124800000D01*
X140125000Y-124775000D02*
X140125000Y-124800000D01*
X140125000Y-132825000D02*
X140125000Y-132800000D01*
D10*
X57490000Y-101562779D02*
X57490000Y-101237221D01*
X58510000Y-101562779D02*
X58510000Y-101237221D01*
X57490000Y-110762779D02*
X57490000Y-110437221D01*
X58510000Y-110762779D02*
X58510000Y-110437221D01*
X161037221Y-82990000D02*
X161362779Y-82990000D01*
X161037221Y-84010000D02*
X161362779Y-84010000D01*
X80010000Y-115637221D02*
X80010000Y-115962779D01*
X78990000Y-115637221D02*
X78990000Y-115962779D01*
X65237221Y-113390000D02*
X65562779Y-113390000D01*
X65237221Y-114410000D02*
X65562779Y-114410000D01*
X64090000Y-111512779D02*
X64090000Y-111187221D01*
X65110000Y-111512779D02*
X65110000Y-111187221D01*
X62340000Y-108512779D02*
X62340000Y-108187221D01*
X63360000Y-108512779D02*
X63360000Y-108187221D01*
X61949721Y-105390000D02*
X62275279Y-105390000D01*
X61949721Y-106410000D02*
X62275279Y-106410000D01*
X50490000Y-118310279D02*
X50490000Y-117984721D01*
X51510000Y-118310279D02*
X51510000Y-117984721D01*
X162562779Y-68110000D02*
X162237221Y-68110000D01*
X162562779Y-67090000D02*
X162237221Y-67090000D01*
X164310000Y-84137221D02*
X164310000Y-84462779D01*
X163290000Y-84137221D02*
X163290000Y-84462779D01*
X208662779Y-112610000D02*
X208337221Y-112610000D01*
X208662779Y-111590000D02*
X208337221Y-111590000D01*
X205362779Y-135710000D02*
X205037221Y-135710000D01*
X205362779Y-134690000D02*
X205037221Y-134690000D01*
X178410000Y-109637221D02*
X178410000Y-109962779D01*
X177390000Y-109637221D02*
X177390000Y-109962779D01*
X76762779Y-109810000D02*
X76437221Y-109810000D01*
X76762779Y-108790000D02*
X76437221Y-108790000D01*
X78310000Y-104437221D02*
X78310000Y-104762779D01*
X77290000Y-104437221D02*
X77290000Y-104762779D01*
X76762779Y-108110000D02*
X76437221Y-108110000D01*
X76762779Y-107090000D02*
X76437221Y-107090000D01*
X80010000Y-104437221D02*
X80010000Y-104762779D01*
X78990000Y-104437221D02*
X78990000Y-104762779D01*
X77749721Y-90990000D02*
X78075279Y-90990000D01*
X77749721Y-92010000D02*
X78075279Y-92010000D01*
X48838000Y-118310279D02*
X48838000Y-117984721D01*
X49858000Y-118310279D02*
X49858000Y-117984721D01*
X137290000Y-68262779D02*
X137290000Y-67937221D01*
X138310000Y-68262779D02*
X138310000Y-67937221D01*
X138990000Y-68262779D02*
X138990000Y-67937221D01*
X140010000Y-68262779D02*
X140010000Y-67937221D01*
X140690000Y-68262779D02*
X140690000Y-67937221D01*
X141710000Y-68262779D02*
X141710000Y-67937221D01*
X142390000Y-68262779D02*
X142390000Y-67937221D01*
X143410000Y-68262779D02*
X143410000Y-67937221D01*
X144090000Y-68262779D02*
X144090000Y-67937221D01*
X145110000Y-68262779D02*
X145110000Y-67937221D01*
X145790000Y-68262779D02*
X145790000Y-67937221D01*
X146810000Y-68262779D02*
X146810000Y-67937221D01*
X147490000Y-68262779D02*
X147490000Y-67937221D01*
X148510000Y-68262779D02*
X148510000Y-67937221D01*
D12*
X71442857Y-103952380D02*
X71776190Y-103476190D01*
X72014285Y-103952380D02*
X72014285Y-102952380D01*
X71633333Y-102952380D01*
X71538095Y-103000000D01*
X71490476Y-103047619D01*
X71442857Y-103142857D01*
X71442857Y-103285714D01*
X71490476Y-103380952D01*
X71538095Y-103428571D01*
X71633333Y-103476190D01*
X72014285Y-103476190D01*
X71109523Y-102952380D02*
X70490476Y-102952380D01*
X70823809Y-103333333D01*
X70680952Y-103333333D01*
X70585714Y-103380952D01*
X70538095Y-103428571D01*
X70490476Y-103523809D01*
X70490476Y-103761904D01*
X70538095Y-103857142D01*
X70585714Y-103904761D01*
X70680952Y-103952380D01*
X70966666Y-103952380D01*
X71061904Y-103904761D01*
X71109523Y-103857142D01*
X69538095Y-103952380D02*
X70109523Y-103952380D01*
X69823809Y-103952380D02*
X69823809Y-102952380D01*
X69919047Y-103095238D01*
X70014285Y-103190476D01*
X70109523Y-103238095D01*
X77859523Y-96952380D02*
X77192857Y-97952380D01*
X77192857Y-96952380D02*
X77859523Y-97952380D01*
X76288095Y-97952380D02*
X76859523Y-97952380D01*
X76573809Y-97952380D02*
X76573809Y-96952380D01*
X76669047Y-97095238D01*
X76764285Y-97190476D01*
X76859523Y-97238095D01*
X83142857Y-88557142D02*
X83190476Y-88604761D01*
X83333333Y-88652380D01*
X83428571Y-88652380D01*
X83571428Y-88604761D01*
X83666666Y-88509523D01*
X83714285Y-88414285D01*
X83761904Y-88223809D01*
X83761904Y-88080952D01*
X83714285Y-87890476D01*
X83666666Y-87795238D01*
X83571428Y-87700000D01*
X83428571Y-87652380D01*
X83333333Y-87652380D01*
X83190476Y-87700000D01*
X83142857Y-87747619D01*
X82285714Y-87985714D02*
X82285714Y-88652380D01*
X82523809Y-87604761D02*
X82761904Y-88319047D01*
X82142857Y-88319047D01*
X81857142Y-87652380D02*
X81238095Y-87652380D01*
X81571428Y-88033333D01*
X81428571Y-88033333D01*
X81333333Y-88080952D01*
X81285714Y-88128571D01*
X81238095Y-88223809D01*
X81238095Y-88461904D01*
X81285714Y-88557142D01*
X81333333Y-88604761D01*
X81428571Y-88652380D01*
X81714285Y-88652380D01*
X81809523Y-88604761D01*
X81857142Y-88557142D01*
X121592857Y-81457142D02*
X121640476Y-81504761D01*
X121783333Y-81552380D01*
X121878571Y-81552380D01*
X122021428Y-81504761D01*
X122116666Y-81409523D01*
X122164285Y-81314285D01*
X122211904Y-81123809D01*
X122211904Y-80980952D01*
X122164285Y-80790476D01*
X122116666Y-80695238D01*
X122021428Y-80600000D01*
X121878571Y-80552380D01*
X121783333Y-80552380D01*
X121640476Y-80600000D01*
X121592857Y-80647619D01*
X120735714Y-80885714D02*
X120735714Y-81552380D01*
X120973809Y-80504761D02*
X121211904Y-81219047D01*
X120592857Y-81219047D01*
X120021428Y-80552380D02*
X119926190Y-80552380D01*
X119830952Y-80600000D01*
X119783333Y-80647619D01*
X119735714Y-80742857D01*
X119688095Y-80933333D01*
X119688095Y-81171428D01*
X119735714Y-81361904D01*
X119783333Y-81457142D01*
X119830952Y-81504761D01*
X119926190Y-81552380D01*
X120021428Y-81552380D01*
X120116666Y-81504761D01*
X120164285Y-81457142D01*
X120211904Y-81361904D01*
X120259523Y-81171428D01*
X120259523Y-80933333D01*
X120211904Y-80742857D01*
X120164285Y-80647619D01*
X120116666Y-80600000D01*
X120021428Y-80552380D01*
X151242857Y-67387142D02*
X151290476Y-67434761D01*
X151433333Y-67482380D01*
X151528571Y-67482380D01*
X151671428Y-67434761D01*
X151766666Y-67339523D01*
X151814285Y-67244285D01*
X151861904Y-67053809D01*
X151861904Y-66910952D01*
X151814285Y-66720476D01*
X151766666Y-66625238D01*
X151671428Y-66530000D01*
X151528571Y-66482380D01*
X151433333Y-66482380D01*
X151290476Y-66530000D01*
X151242857Y-66577619D01*
X150909523Y-66482380D02*
X150290476Y-66482380D01*
X150623809Y-66863333D01*
X150480952Y-66863333D01*
X150385714Y-66910952D01*
X150338095Y-66958571D01*
X150290476Y-67053809D01*
X150290476Y-67291904D01*
X150338095Y-67387142D01*
X150385714Y-67434761D01*
X150480952Y-67482380D01*
X150766666Y-67482380D01*
X150861904Y-67434761D01*
X150909523Y-67387142D01*
X149814285Y-67482380D02*
X149623809Y-67482380D01*
X149528571Y-67434761D01*
X149480952Y-67387142D01*
X149385714Y-67244285D01*
X149338095Y-67053809D01*
X149338095Y-66672857D01*
X149385714Y-66577619D01*
X149433333Y-66530000D01*
X149528571Y-66482380D01*
X149719047Y-66482380D01*
X149814285Y-66530000D01*
X149861904Y-66577619D01*
X149909523Y-66672857D01*
X149909523Y-66910952D01*
X149861904Y-67006190D01*
X149814285Y-67053809D01*
X149719047Y-67101428D01*
X149528571Y-67101428D01*
X149433333Y-67053809D01*
X149385714Y-67006190D01*
X149338095Y-66910952D01*
X82987142Y-115157142D02*
X83034761Y-115109523D01*
X83082380Y-114966666D01*
X83082380Y-114871428D01*
X83034761Y-114728571D01*
X82939523Y-114633333D01*
X82844285Y-114585714D01*
X82653809Y-114538095D01*
X82510952Y-114538095D01*
X82320476Y-114585714D01*
X82225238Y-114633333D01*
X82130000Y-114728571D01*
X82082380Y-114871428D01*
X82082380Y-114966666D01*
X82130000Y-115109523D01*
X82177619Y-115157142D01*
X82082380Y-115490476D02*
X82082380Y-116109523D01*
X82463333Y-115776190D01*
X82463333Y-115919047D01*
X82510952Y-116014285D01*
X82558571Y-116061904D01*
X82653809Y-116109523D01*
X82891904Y-116109523D01*
X82987142Y-116061904D01*
X83034761Y-116014285D01*
X83082380Y-115919047D01*
X83082380Y-115633333D01*
X83034761Y-115538095D01*
X82987142Y-115490476D01*
X82510952Y-116680952D02*
X82463333Y-116585714D01*
X82415714Y-116538095D01*
X82320476Y-116490476D01*
X82272857Y-116490476D01*
X82177619Y-116538095D01*
X82130000Y-116585714D01*
X82082380Y-116680952D01*
X82082380Y-116871428D01*
X82130000Y-116966666D01*
X82177619Y-117014285D01*
X82272857Y-117061904D01*
X82320476Y-117061904D01*
X82415714Y-117014285D01*
X82463333Y-116966666D01*
X82510952Y-116871428D01*
X82510952Y-116680952D01*
X82558571Y-116585714D01*
X82606190Y-116538095D01*
X82701428Y-116490476D01*
X82891904Y-116490476D01*
X82987142Y-116538095D01*
X83034761Y-116585714D01*
X83082380Y-116680952D01*
X83082380Y-116871428D01*
X83034761Y-116966666D01*
X82987142Y-117014285D01*
X82891904Y-117061904D01*
X82701428Y-117061904D01*
X82606190Y-117014285D01*
X82558571Y-116966666D01*
X82510952Y-116871428D01*
X107942857Y-92937142D02*
X107990476Y-92984761D01*
X108133333Y-93032380D01*
X108228571Y-93032380D01*
X108371428Y-92984761D01*
X108466666Y-92889523D01*
X108514285Y-92794285D01*
X108561904Y-92603809D01*
X108561904Y-92460952D01*
X108514285Y-92270476D01*
X108466666Y-92175238D01*
X108371428Y-92080000D01*
X108228571Y-92032380D01*
X108133333Y-92032380D01*
X107990476Y-92080000D01*
X107942857Y-92127619D01*
X107609523Y-92032380D02*
X106990476Y-92032380D01*
X107323809Y-92413333D01*
X107180952Y-92413333D01*
X107085714Y-92460952D01*
X107038095Y-92508571D01*
X106990476Y-92603809D01*
X106990476Y-92841904D01*
X107038095Y-92937142D01*
X107085714Y-92984761D01*
X107180952Y-93032380D01*
X107466666Y-93032380D01*
X107561904Y-92984761D01*
X107609523Y-92937142D01*
X106657142Y-92032380D02*
X105990476Y-92032380D01*
X106419047Y-93032380D01*
X139157142Y-95957142D02*
X139204761Y-95909523D01*
X139252380Y-95766666D01*
X139252380Y-95671428D01*
X139204761Y-95528571D01*
X139109523Y-95433333D01*
X139014285Y-95385714D01*
X138823809Y-95338095D01*
X138680952Y-95338095D01*
X138490476Y-95385714D01*
X138395238Y-95433333D01*
X138300000Y-95528571D01*
X138252380Y-95671428D01*
X138252380Y-95766666D01*
X138300000Y-95909523D01*
X138347619Y-95957142D01*
X138252380Y-96290476D02*
X138252380Y-96909523D01*
X138633333Y-96576190D01*
X138633333Y-96719047D01*
X138680952Y-96814285D01*
X138728571Y-96861904D01*
X138823809Y-96909523D01*
X139061904Y-96909523D01*
X139157142Y-96861904D01*
X139204761Y-96814285D01*
X139252380Y-96719047D01*
X139252380Y-96433333D01*
X139204761Y-96338095D01*
X139157142Y-96290476D01*
X138252380Y-97766666D02*
X138252380Y-97576190D01*
X138300000Y-97480952D01*
X138347619Y-97433333D01*
X138490476Y-97338095D01*
X138680952Y-97290476D01*
X139061904Y-97290476D01*
X139157142Y-97338095D01*
X139204761Y-97385714D01*
X139252380Y-97480952D01*
X139252380Y-97671428D01*
X139204761Y-97766666D01*
X139157142Y-97814285D01*
X139061904Y-97861904D01*
X138823809Y-97861904D01*
X138728571Y-97814285D01*
X138680952Y-97766666D01*
X138633333Y-97671428D01*
X138633333Y-97480952D01*
X138680952Y-97385714D01*
X138728571Y-97338095D01*
X138823809Y-97290476D01*
X110157142Y-97557142D02*
X110204761Y-97509523D01*
X110252380Y-97366666D01*
X110252380Y-97271428D01*
X110204761Y-97128571D01*
X110109523Y-97033333D01*
X110014285Y-96985714D01*
X109823809Y-96938095D01*
X109680952Y-96938095D01*
X109490476Y-96985714D01*
X109395238Y-97033333D01*
X109300000Y-97128571D01*
X109252380Y-97271428D01*
X109252380Y-97366666D01*
X109300000Y-97509523D01*
X109347619Y-97557142D01*
X109252380Y-97890476D02*
X109252380Y-98509523D01*
X109633333Y-98176190D01*
X109633333Y-98319047D01*
X109680952Y-98414285D01*
X109728571Y-98461904D01*
X109823809Y-98509523D01*
X110061904Y-98509523D01*
X110157142Y-98461904D01*
X110204761Y-98414285D01*
X110252380Y-98319047D01*
X110252380Y-98033333D01*
X110204761Y-97938095D01*
X110157142Y-97890476D01*
X109252380Y-99414285D02*
X109252380Y-98938095D01*
X109728571Y-98890476D01*
X109680952Y-98938095D01*
X109633333Y-99033333D01*
X109633333Y-99271428D01*
X109680952Y-99366666D01*
X109728571Y-99414285D01*
X109823809Y-99461904D01*
X110061904Y-99461904D01*
X110157142Y-99414285D01*
X110204761Y-99366666D01*
X110252380Y-99271428D01*
X110252380Y-99033333D01*
X110204761Y-98938095D01*
X110157142Y-98890476D01*
X111157142Y-101757142D02*
X111204761Y-101709523D01*
X111252380Y-101566666D01*
X111252380Y-101471428D01*
X111204761Y-101328571D01*
X111109523Y-101233333D01*
X111014285Y-101185714D01*
X110823809Y-101138095D01*
X110680952Y-101138095D01*
X110490476Y-101185714D01*
X110395238Y-101233333D01*
X110300000Y-101328571D01*
X110252380Y-101471428D01*
X110252380Y-101566666D01*
X110300000Y-101709523D01*
X110347619Y-101757142D01*
X110252380Y-102090476D02*
X110252380Y-102709523D01*
X110633333Y-102376190D01*
X110633333Y-102519047D01*
X110680952Y-102614285D01*
X110728571Y-102661904D01*
X110823809Y-102709523D01*
X111061904Y-102709523D01*
X111157142Y-102661904D01*
X111204761Y-102614285D01*
X111252380Y-102519047D01*
X111252380Y-102233333D01*
X111204761Y-102138095D01*
X111157142Y-102090476D01*
X110585714Y-103566666D02*
X111252380Y-103566666D01*
X110204761Y-103328571D02*
X110919047Y-103090476D01*
X110919047Y-103709523D01*
X112557142Y-102357142D02*
X112604761Y-102309523D01*
X112652380Y-102166666D01*
X112652380Y-102071428D01*
X112604761Y-101928571D01*
X112509523Y-101833333D01*
X112414285Y-101785714D01*
X112223809Y-101738095D01*
X112080952Y-101738095D01*
X111890476Y-101785714D01*
X111795238Y-101833333D01*
X111700000Y-101928571D01*
X111652380Y-102071428D01*
X111652380Y-102166666D01*
X111700000Y-102309523D01*
X111747619Y-102357142D01*
X111652380Y-102690476D02*
X111652380Y-103309523D01*
X112033333Y-102976190D01*
X112033333Y-103119047D01*
X112080952Y-103214285D01*
X112128571Y-103261904D01*
X112223809Y-103309523D01*
X112461904Y-103309523D01*
X112557142Y-103261904D01*
X112604761Y-103214285D01*
X112652380Y-103119047D01*
X112652380Y-102833333D01*
X112604761Y-102738095D01*
X112557142Y-102690476D01*
X111652380Y-103642857D02*
X111652380Y-104261904D01*
X112033333Y-103928571D01*
X112033333Y-104071428D01*
X112080952Y-104166666D01*
X112128571Y-104214285D01*
X112223809Y-104261904D01*
X112461904Y-104261904D01*
X112557142Y-104214285D01*
X112604761Y-104166666D01*
X112652380Y-104071428D01*
X112652380Y-103785714D01*
X112604761Y-103690476D01*
X112557142Y-103642857D01*
X105677142Y-107907142D02*
X105724761Y-107859523D01*
X105772380Y-107716666D01*
X105772380Y-107621428D01*
X105724761Y-107478571D01*
X105629523Y-107383333D01*
X105534285Y-107335714D01*
X105343809Y-107288095D01*
X105200952Y-107288095D01*
X105010476Y-107335714D01*
X104915238Y-107383333D01*
X104820000Y-107478571D01*
X104772380Y-107621428D01*
X104772380Y-107716666D01*
X104820000Y-107859523D01*
X104867619Y-107907142D01*
X104772380Y-108240476D02*
X104772380Y-108859523D01*
X105153333Y-108526190D01*
X105153333Y-108669047D01*
X105200952Y-108764285D01*
X105248571Y-108811904D01*
X105343809Y-108859523D01*
X105581904Y-108859523D01*
X105677142Y-108811904D01*
X105724761Y-108764285D01*
X105772380Y-108669047D01*
X105772380Y-108383333D01*
X105724761Y-108288095D01*
X105677142Y-108240476D01*
X104867619Y-109240476D02*
X104820000Y-109288095D01*
X104772380Y-109383333D01*
X104772380Y-109621428D01*
X104820000Y-109716666D01*
X104867619Y-109764285D01*
X104962857Y-109811904D01*
X105058095Y-109811904D01*
X105200952Y-109764285D01*
X105772380Y-109192857D01*
X105772380Y-109811904D01*
X91377142Y-114107142D02*
X91424761Y-114059523D01*
X91472380Y-113916666D01*
X91472380Y-113821428D01*
X91424761Y-113678571D01*
X91329523Y-113583333D01*
X91234285Y-113535714D01*
X91043809Y-113488095D01*
X90900952Y-113488095D01*
X90710476Y-113535714D01*
X90615238Y-113583333D01*
X90520000Y-113678571D01*
X90472380Y-113821428D01*
X90472380Y-113916666D01*
X90520000Y-114059523D01*
X90567619Y-114107142D01*
X90472380Y-114440476D02*
X90472380Y-115059523D01*
X90853333Y-114726190D01*
X90853333Y-114869047D01*
X90900952Y-114964285D01*
X90948571Y-115011904D01*
X91043809Y-115059523D01*
X91281904Y-115059523D01*
X91377142Y-115011904D01*
X91424761Y-114964285D01*
X91472380Y-114869047D01*
X91472380Y-114583333D01*
X91424761Y-114488095D01*
X91377142Y-114440476D01*
X91472380Y-116011904D02*
X91472380Y-115440476D01*
X91472380Y-115726190D02*
X90472380Y-115726190D01*
X90615238Y-115630952D01*
X90710476Y-115535714D01*
X90758095Y-115440476D01*
X89987142Y-91657142D02*
X90034761Y-91609523D01*
X90082380Y-91466666D01*
X90082380Y-91371428D01*
X90034761Y-91228571D01*
X89939523Y-91133333D01*
X89844285Y-91085714D01*
X89653809Y-91038095D01*
X89510952Y-91038095D01*
X89320476Y-91085714D01*
X89225238Y-91133333D01*
X89130000Y-91228571D01*
X89082380Y-91371428D01*
X89082380Y-91466666D01*
X89130000Y-91609523D01*
X89177619Y-91657142D01*
X89082380Y-91990476D02*
X89082380Y-92609523D01*
X89463333Y-92276190D01*
X89463333Y-92419047D01*
X89510952Y-92514285D01*
X89558571Y-92561904D01*
X89653809Y-92609523D01*
X89891904Y-92609523D01*
X89987142Y-92561904D01*
X90034761Y-92514285D01*
X90082380Y-92419047D01*
X90082380Y-92133333D01*
X90034761Y-92038095D01*
X89987142Y-91990476D01*
X89082380Y-93228571D02*
X89082380Y-93323809D01*
X89130000Y-93419047D01*
X89177619Y-93466666D01*
X89272857Y-93514285D01*
X89463333Y-93561904D01*
X89701428Y-93561904D01*
X89891904Y-93514285D01*
X89987142Y-93466666D01*
X90034761Y-93419047D01*
X90082380Y-93323809D01*
X90082380Y-93228571D01*
X90034761Y-93133333D01*
X89987142Y-93085714D01*
X89891904Y-93038095D01*
X89701428Y-92990476D01*
X89463333Y-92990476D01*
X89272857Y-93038095D01*
X89177619Y-93085714D01*
X89130000Y-93133333D01*
X89082380Y-93228571D01*
X121592857Y-86107142D02*
X121640476Y-86154761D01*
X121783333Y-86202380D01*
X121878571Y-86202380D01*
X122021428Y-86154761D01*
X122116666Y-86059523D01*
X122164285Y-85964285D01*
X122211904Y-85773809D01*
X122211904Y-85630952D01*
X122164285Y-85440476D01*
X122116666Y-85345238D01*
X122021428Y-85250000D01*
X121878571Y-85202380D01*
X121783333Y-85202380D01*
X121640476Y-85250000D01*
X121592857Y-85297619D01*
X121211904Y-85297619D02*
X121164285Y-85250000D01*
X121069047Y-85202380D01*
X120830952Y-85202380D01*
X120735714Y-85250000D01*
X120688095Y-85297619D01*
X120640476Y-85392857D01*
X120640476Y-85488095D01*
X120688095Y-85630952D01*
X121259523Y-86202380D01*
X120640476Y-86202380D01*
X120164285Y-86202380D02*
X119973809Y-86202380D01*
X119878571Y-86154761D01*
X119830952Y-86107142D01*
X119735714Y-85964285D01*
X119688095Y-85773809D01*
X119688095Y-85392857D01*
X119735714Y-85297619D01*
X119783333Y-85250000D01*
X119878571Y-85202380D01*
X120069047Y-85202380D01*
X120164285Y-85250000D01*
X120211904Y-85297619D01*
X120259523Y-85392857D01*
X120259523Y-85630952D01*
X120211904Y-85726190D01*
X120164285Y-85773809D01*
X120069047Y-85821428D01*
X119878571Y-85821428D01*
X119783333Y-85773809D01*
X119735714Y-85726190D01*
X119688095Y-85630952D01*
X144142857Y-131457142D02*
X144190476Y-131504761D01*
X144333333Y-131552380D01*
X144428571Y-131552380D01*
X144571428Y-131504761D01*
X144666666Y-131409523D01*
X144714285Y-131314285D01*
X144761904Y-131123809D01*
X144761904Y-130980952D01*
X144714285Y-130790476D01*
X144666666Y-130695238D01*
X144571428Y-130600000D01*
X144428571Y-130552380D01*
X144333333Y-130552380D01*
X144190476Y-130600000D01*
X144142857Y-130647619D01*
X143761904Y-130647619D02*
X143714285Y-130600000D01*
X143619047Y-130552380D01*
X143380952Y-130552380D01*
X143285714Y-130600000D01*
X143238095Y-130647619D01*
X143190476Y-130742857D01*
X143190476Y-130838095D01*
X143238095Y-130980952D01*
X143809523Y-131552380D01*
X143190476Y-131552380D01*
X142619047Y-130980952D02*
X142714285Y-130933333D01*
X142761904Y-130885714D01*
X142809523Y-130790476D01*
X142809523Y-130742857D01*
X142761904Y-130647619D01*
X142714285Y-130600000D01*
X142619047Y-130552380D01*
X142428571Y-130552380D01*
X142333333Y-130600000D01*
X142285714Y-130647619D01*
X142238095Y-130742857D01*
X142238095Y-130790476D01*
X142285714Y-130885714D01*
X142333333Y-130933333D01*
X142428571Y-130980952D01*
X142619047Y-130980952D01*
X142714285Y-131028571D01*
X142761904Y-131076190D01*
X142809523Y-131171428D01*
X142809523Y-131361904D01*
X142761904Y-131457142D01*
X142714285Y-131504761D01*
X142619047Y-131552380D01*
X142428571Y-131552380D01*
X142333333Y-131504761D01*
X142285714Y-131457142D01*
X142238095Y-131361904D01*
X142238095Y-131171428D01*
X142285714Y-131076190D01*
X142333333Y-131028571D01*
X142428571Y-130980952D01*
X113957142Y-101557142D02*
X114004761Y-101509523D01*
X114052380Y-101366666D01*
X114052380Y-101271428D01*
X114004761Y-101128571D01*
X113909523Y-101033333D01*
X113814285Y-100985714D01*
X113623809Y-100938095D01*
X113480952Y-100938095D01*
X113290476Y-100985714D01*
X113195238Y-101033333D01*
X113100000Y-101128571D01*
X113052380Y-101271428D01*
X113052380Y-101366666D01*
X113100000Y-101509523D01*
X113147619Y-101557142D01*
X113147619Y-101938095D02*
X113100000Y-101985714D01*
X113052380Y-102080952D01*
X113052380Y-102319047D01*
X113100000Y-102414285D01*
X113147619Y-102461904D01*
X113242857Y-102509523D01*
X113338095Y-102509523D01*
X113480952Y-102461904D01*
X114052380Y-101890476D01*
X114052380Y-102509523D01*
X113052380Y-102842857D02*
X113052380Y-103509523D01*
X114052380Y-103080952D01*
X130242857Y-108227142D02*
X130290476Y-108274761D01*
X130433333Y-108322380D01*
X130528571Y-108322380D01*
X130671428Y-108274761D01*
X130766666Y-108179523D01*
X130814285Y-108084285D01*
X130861904Y-107893809D01*
X130861904Y-107750952D01*
X130814285Y-107560476D01*
X130766666Y-107465238D01*
X130671428Y-107370000D01*
X130528571Y-107322380D01*
X130433333Y-107322380D01*
X130290476Y-107370000D01*
X130242857Y-107417619D01*
X129861904Y-107417619D02*
X129814285Y-107370000D01*
X129719047Y-107322380D01*
X129480952Y-107322380D01*
X129385714Y-107370000D01*
X129338095Y-107417619D01*
X129290476Y-107512857D01*
X129290476Y-107608095D01*
X129338095Y-107750952D01*
X129909523Y-108322380D01*
X129290476Y-108322380D01*
X128433333Y-107322380D02*
X128623809Y-107322380D01*
X128719047Y-107370000D01*
X128766666Y-107417619D01*
X128861904Y-107560476D01*
X128909523Y-107750952D01*
X128909523Y-108131904D01*
X128861904Y-108227142D01*
X128814285Y-108274761D01*
X128719047Y-108322380D01*
X128528571Y-108322380D01*
X128433333Y-108274761D01*
X128385714Y-108227142D01*
X128338095Y-108131904D01*
X128338095Y-107893809D01*
X128385714Y-107798571D01*
X128433333Y-107750952D01*
X128528571Y-107703333D01*
X128719047Y-107703333D01*
X128814285Y-107750952D01*
X128861904Y-107798571D01*
X128909523Y-107893809D01*
X87757857Y-107657142D02*
X87805476Y-107704761D01*
X87948333Y-107752380D01*
X88043571Y-107752380D01*
X88186428Y-107704761D01*
X88281666Y-107609523D01*
X88329285Y-107514285D01*
X88376904Y-107323809D01*
X88376904Y-107180952D01*
X88329285Y-106990476D01*
X88281666Y-106895238D01*
X88186428Y-106800000D01*
X88043571Y-106752380D01*
X87948333Y-106752380D01*
X87805476Y-106800000D01*
X87757857Y-106847619D01*
X87376904Y-106847619D02*
X87329285Y-106800000D01*
X87234047Y-106752380D01*
X86995952Y-106752380D01*
X86900714Y-106800000D01*
X86853095Y-106847619D01*
X86805476Y-106942857D01*
X86805476Y-107038095D01*
X86853095Y-107180952D01*
X87424523Y-107752380D01*
X86805476Y-107752380D01*
X85900714Y-106752380D02*
X86376904Y-106752380D01*
X86424523Y-107228571D01*
X86376904Y-107180952D01*
X86281666Y-107133333D01*
X86043571Y-107133333D01*
X85948333Y-107180952D01*
X85900714Y-107228571D01*
X85853095Y-107323809D01*
X85853095Y-107561904D01*
X85900714Y-107657142D01*
X85948333Y-107704761D01*
X86043571Y-107752380D01*
X86281666Y-107752380D01*
X86376904Y-107704761D01*
X86424523Y-107657142D01*
X113042857Y-97157142D02*
X113090476Y-97204761D01*
X113233333Y-97252380D01*
X113328571Y-97252380D01*
X113471428Y-97204761D01*
X113566666Y-97109523D01*
X113614285Y-97014285D01*
X113661904Y-96823809D01*
X113661904Y-96680952D01*
X113614285Y-96490476D01*
X113566666Y-96395238D01*
X113471428Y-96300000D01*
X113328571Y-96252380D01*
X113233333Y-96252380D01*
X113090476Y-96300000D01*
X113042857Y-96347619D01*
X112661904Y-96347619D02*
X112614285Y-96300000D01*
X112519047Y-96252380D01*
X112280952Y-96252380D01*
X112185714Y-96300000D01*
X112138095Y-96347619D01*
X112090476Y-96442857D01*
X112090476Y-96538095D01*
X112138095Y-96680952D01*
X112709523Y-97252380D01*
X112090476Y-97252380D01*
X111233333Y-96585714D02*
X111233333Y-97252380D01*
X111471428Y-96204761D02*
X111709523Y-96919047D01*
X111090476Y-96919047D01*
X108992857Y-101507142D02*
X109040476Y-101554761D01*
X109183333Y-101602380D01*
X109278571Y-101602380D01*
X109421428Y-101554761D01*
X109516666Y-101459523D01*
X109564285Y-101364285D01*
X109611904Y-101173809D01*
X109611904Y-101030952D01*
X109564285Y-100840476D01*
X109516666Y-100745238D01*
X109421428Y-100650000D01*
X109278571Y-100602380D01*
X109183333Y-100602380D01*
X109040476Y-100650000D01*
X108992857Y-100697619D01*
X108611904Y-100697619D02*
X108564285Y-100650000D01*
X108469047Y-100602380D01*
X108230952Y-100602380D01*
X108135714Y-100650000D01*
X108088095Y-100697619D01*
X108040476Y-100792857D01*
X108040476Y-100888095D01*
X108088095Y-101030952D01*
X108659523Y-101602380D01*
X108040476Y-101602380D01*
X107707142Y-100602380D02*
X107088095Y-100602380D01*
X107421428Y-100983333D01*
X107278571Y-100983333D01*
X107183333Y-101030952D01*
X107135714Y-101078571D01*
X107088095Y-101173809D01*
X107088095Y-101411904D01*
X107135714Y-101507142D01*
X107183333Y-101554761D01*
X107278571Y-101602380D01*
X107564285Y-101602380D01*
X107659523Y-101554761D01*
X107707142Y-101507142D01*
X132742857Y-68087142D02*
X132790476Y-68134761D01*
X132933333Y-68182380D01*
X133028571Y-68182380D01*
X133171428Y-68134761D01*
X133266666Y-68039523D01*
X133314285Y-67944285D01*
X133361904Y-67753809D01*
X133361904Y-67610952D01*
X133314285Y-67420476D01*
X133266666Y-67325238D01*
X133171428Y-67230000D01*
X133028571Y-67182380D01*
X132933333Y-67182380D01*
X132790476Y-67230000D01*
X132742857Y-67277619D01*
X132361904Y-67277619D02*
X132314285Y-67230000D01*
X132219047Y-67182380D01*
X131980952Y-67182380D01*
X131885714Y-67230000D01*
X131838095Y-67277619D01*
X131790476Y-67372857D01*
X131790476Y-67468095D01*
X131838095Y-67610952D01*
X132409523Y-68182380D01*
X131790476Y-68182380D01*
X131409523Y-67277619D02*
X131361904Y-67230000D01*
X131266666Y-67182380D01*
X131028571Y-67182380D01*
X130933333Y-67230000D01*
X130885714Y-67277619D01*
X130838095Y-67372857D01*
X130838095Y-67468095D01*
X130885714Y-67610952D01*
X131457142Y-68182380D01*
X130838095Y-68182380D01*
X113957142Y-98357142D02*
X114004761Y-98309523D01*
X114052380Y-98166666D01*
X114052380Y-98071428D01*
X114004761Y-97928571D01*
X113909523Y-97833333D01*
X113814285Y-97785714D01*
X113623809Y-97738095D01*
X113480952Y-97738095D01*
X113290476Y-97785714D01*
X113195238Y-97833333D01*
X113100000Y-97928571D01*
X113052380Y-98071428D01*
X113052380Y-98166666D01*
X113100000Y-98309523D01*
X113147619Y-98357142D01*
X113147619Y-98738095D02*
X113100000Y-98785714D01*
X113052380Y-98880952D01*
X113052380Y-99119047D01*
X113100000Y-99214285D01*
X113147619Y-99261904D01*
X113242857Y-99309523D01*
X113338095Y-99309523D01*
X113480952Y-99261904D01*
X114052380Y-98690476D01*
X114052380Y-99309523D01*
X114052380Y-100261904D02*
X114052380Y-99690476D01*
X114052380Y-99976190D02*
X113052380Y-99976190D01*
X113195238Y-99880952D01*
X113290476Y-99785714D01*
X113338095Y-99690476D01*
X107757142Y-97957142D02*
X107804761Y-97909523D01*
X107852380Y-97766666D01*
X107852380Y-97671428D01*
X107804761Y-97528571D01*
X107709523Y-97433333D01*
X107614285Y-97385714D01*
X107423809Y-97338095D01*
X107280952Y-97338095D01*
X107090476Y-97385714D01*
X106995238Y-97433333D01*
X106900000Y-97528571D01*
X106852380Y-97671428D01*
X106852380Y-97766666D01*
X106900000Y-97909523D01*
X106947619Y-97957142D01*
X106947619Y-98338095D02*
X106900000Y-98385714D01*
X106852380Y-98480952D01*
X106852380Y-98719047D01*
X106900000Y-98814285D01*
X106947619Y-98861904D01*
X107042857Y-98909523D01*
X107138095Y-98909523D01*
X107280952Y-98861904D01*
X107852380Y-98290476D01*
X107852380Y-98909523D01*
X106852380Y-99528571D02*
X106852380Y-99623809D01*
X106900000Y-99719047D01*
X106947619Y-99766666D01*
X107042857Y-99814285D01*
X107233333Y-99861904D01*
X107471428Y-99861904D01*
X107661904Y-99814285D01*
X107757142Y-99766666D01*
X107804761Y-99719047D01*
X107852380Y-99623809D01*
X107852380Y-99528571D01*
X107804761Y-99433333D01*
X107757142Y-99385714D01*
X107661904Y-99338095D01*
X107471428Y-99290476D01*
X107233333Y-99290476D01*
X107042857Y-99338095D01*
X106947619Y-99385714D01*
X106900000Y-99433333D01*
X106852380Y-99528571D01*
X108642857Y-96557142D02*
X108690476Y-96604761D01*
X108833333Y-96652380D01*
X108928571Y-96652380D01*
X109071428Y-96604761D01*
X109166666Y-96509523D01*
X109214285Y-96414285D01*
X109261904Y-96223809D01*
X109261904Y-96080952D01*
X109214285Y-95890476D01*
X109166666Y-95795238D01*
X109071428Y-95700000D01*
X108928571Y-95652380D01*
X108833333Y-95652380D01*
X108690476Y-95700000D01*
X108642857Y-95747619D01*
X107690476Y-96652380D02*
X108261904Y-96652380D01*
X107976190Y-96652380D02*
X107976190Y-95652380D01*
X108071428Y-95795238D01*
X108166666Y-95890476D01*
X108261904Y-95938095D01*
X107214285Y-96652380D02*
X107023809Y-96652380D01*
X106928571Y-96604761D01*
X106880952Y-96557142D01*
X106785714Y-96414285D01*
X106738095Y-96223809D01*
X106738095Y-95842857D01*
X106785714Y-95747619D01*
X106833333Y-95700000D01*
X106928571Y-95652380D01*
X107119047Y-95652380D01*
X107214285Y-95700000D01*
X107261904Y-95747619D01*
X107309523Y-95842857D01*
X107309523Y-96080952D01*
X107261904Y-96176190D01*
X107214285Y-96223809D01*
X107119047Y-96271428D01*
X106928571Y-96271428D01*
X106833333Y-96223809D01*
X106785714Y-96176190D01*
X106738095Y-96080952D01*
X83242857Y-86857142D02*
X83290476Y-86904761D01*
X83433333Y-86952380D01*
X83528571Y-86952380D01*
X83671428Y-86904761D01*
X83766666Y-86809523D01*
X83814285Y-86714285D01*
X83861904Y-86523809D01*
X83861904Y-86380952D01*
X83814285Y-86190476D01*
X83766666Y-86095238D01*
X83671428Y-86000000D01*
X83528571Y-85952380D01*
X83433333Y-85952380D01*
X83290476Y-86000000D01*
X83242857Y-86047619D01*
X82290476Y-86952380D02*
X82861904Y-86952380D01*
X82576190Y-86952380D02*
X82576190Y-85952380D01*
X82671428Y-86095238D01*
X82766666Y-86190476D01*
X82861904Y-86238095D01*
X81719047Y-86380952D02*
X81814285Y-86333333D01*
X81861904Y-86285714D01*
X81909523Y-86190476D01*
X81909523Y-86142857D01*
X81861904Y-86047619D01*
X81814285Y-86000000D01*
X81719047Y-85952380D01*
X81528571Y-85952380D01*
X81433333Y-86000000D01*
X81385714Y-86047619D01*
X81338095Y-86142857D01*
X81338095Y-86190476D01*
X81385714Y-86285714D01*
X81433333Y-86333333D01*
X81528571Y-86380952D01*
X81719047Y-86380952D01*
X81814285Y-86428571D01*
X81861904Y-86476190D01*
X81909523Y-86571428D01*
X81909523Y-86761904D01*
X81861904Y-86857142D01*
X81814285Y-86904761D01*
X81719047Y-86952380D01*
X81528571Y-86952380D01*
X81433333Y-86904761D01*
X81385714Y-86857142D01*
X81338095Y-86761904D01*
X81338095Y-86571428D01*
X81385714Y-86476190D01*
X81433333Y-86428571D01*
X81528571Y-86380952D01*
X109042857Y-102857142D02*
X109090476Y-102904761D01*
X109233333Y-102952380D01*
X109328571Y-102952380D01*
X109471428Y-102904761D01*
X109566666Y-102809523D01*
X109614285Y-102714285D01*
X109661904Y-102523809D01*
X109661904Y-102380952D01*
X109614285Y-102190476D01*
X109566666Y-102095238D01*
X109471428Y-102000000D01*
X109328571Y-101952380D01*
X109233333Y-101952380D01*
X109090476Y-102000000D01*
X109042857Y-102047619D01*
X108090476Y-102952380D02*
X108661904Y-102952380D01*
X108376190Y-102952380D02*
X108376190Y-101952380D01*
X108471428Y-102095238D01*
X108566666Y-102190476D01*
X108661904Y-102238095D01*
X107757142Y-101952380D02*
X107090476Y-101952380D01*
X107519047Y-102952380D01*
X61642857Y-112827142D02*
X61690476Y-112874761D01*
X61833333Y-112922380D01*
X61928571Y-112922380D01*
X62071428Y-112874761D01*
X62166666Y-112779523D01*
X62214285Y-112684285D01*
X62261904Y-112493809D01*
X62261904Y-112350952D01*
X62214285Y-112160476D01*
X62166666Y-112065238D01*
X62071428Y-111970000D01*
X61928571Y-111922380D01*
X61833333Y-111922380D01*
X61690476Y-111970000D01*
X61642857Y-112017619D01*
X60690476Y-112922380D02*
X61261904Y-112922380D01*
X60976190Y-112922380D02*
X60976190Y-111922380D01*
X61071428Y-112065238D01*
X61166666Y-112160476D01*
X61261904Y-112208095D01*
X59833333Y-111922380D02*
X60023809Y-111922380D01*
X60119047Y-111970000D01*
X60166666Y-112017619D01*
X60261904Y-112160476D01*
X60309523Y-112350952D01*
X60309523Y-112731904D01*
X60261904Y-112827142D01*
X60214285Y-112874761D01*
X60119047Y-112922380D01*
X59928571Y-112922380D01*
X59833333Y-112874761D01*
X59785714Y-112827142D01*
X59738095Y-112731904D01*
X59738095Y-112493809D01*
X59785714Y-112398571D01*
X59833333Y-112350952D01*
X59928571Y-112303333D01*
X60119047Y-112303333D01*
X60214285Y-112350952D01*
X60261904Y-112398571D01*
X60309523Y-112493809D01*
X112042857Y-100557142D02*
X112090476Y-100604761D01*
X112233333Y-100652380D01*
X112328571Y-100652380D01*
X112471428Y-100604761D01*
X112566666Y-100509523D01*
X112614285Y-100414285D01*
X112661904Y-100223809D01*
X112661904Y-100080952D01*
X112614285Y-99890476D01*
X112566666Y-99795238D01*
X112471428Y-99700000D01*
X112328571Y-99652380D01*
X112233333Y-99652380D01*
X112090476Y-99700000D01*
X112042857Y-99747619D01*
X111090476Y-100652380D02*
X111661904Y-100652380D01*
X111376190Y-100652380D02*
X111376190Y-99652380D01*
X111471428Y-99795238D01*
X111566666Y-99890476D01*
X111661904Y-99938095D01*
X110185714Y-99652380D02*
X110661904Y-99652380D01*
X110709523Y-100128571D01*
X110661904Y-100080952D01*
X110566666Y-100033333D01*
X110328571Y-100033333D01*
X110233333Y-100080952D01*
X110185714Y-100128571D01*
X110138095Y-100223809D01*
X110138095Y-100461904D01*
X110185714Y-100557142D01*
X110233333Y-100604761D01*
X110328571Y-100652380D01*
X110566666Y-100652380D01*
X110661904Y-100604761D01*
X110709523Y-100557142D01*
X144142857Y-133057142D02*
X144190476Y-133104761D01*
X144333333Y-133152380D01*
X144428571Y-133152380D01*
X144571428Y-133104761D01*
X144666666Y-133009523D01*
X144714285Y-132914285D01*
X144761904Y-132723809D01*
X144761904Y-132580952D01*
X144714285Y-132390476D01*
X144666666Y-132295238D01*
X144571428Y-132200000D01*
X144428571Y-132152380D01*
X144333333Y-132152380D01*
X144190476Y-132200000D01*
X144142857Y-132247619D01*
X143190476Y-133152380D02*
X143761904Y-133152380D01*
X143476190Y-133152380D02*
X143476190Y-132152380D01*
X143571428Y-132295238D01*
X143666666Y-132390476D01*
X143761904Y-132438095D01*
X142333333Y-132485714D02*
X142333333Y-133152380D01*
X142571428Y-132104761D02*
X142809523Y-132819047D01*
X142190476Y-132819047D01*
X87155357Y-109207142D02*
X87202976Y-109254761D01*
X87345833Y-109302380D01*
X87441071Y-109302380D01*
X87583928Y-109254761D01*
X87679166Y-109159523D01*
X87726785Y-109064285D01*
X87774404Y-108873809D01*
X87774404Y-108730952D01*
X87726785Y-108540476D01*
X87679166Y-108445238D01*
X87583928Y-108350000D01*
X87441071Y-108302380D01*
X87345833Y-108302380D01*
X87202976Y-108350000D01*
X87155357Y-108397619D01*
X86202976Y-109302380D02*
X86774404Y-109302380D01*
X86488690Y-109302380D02*
X86488690Y-108302380D01*
X86583928Y-108445238D01*
X86679166Y-108540476D01*
X86774404Y-108588095D01*
X85869642Y-108302380D02*
X85250595Y-108302380D01*
X85583928Y-108683333D01*
X85441071Y-108683333D01*
X85345833Y-108730952D01*
X85298214Y-108778571D01*
X85250595Y-108873809D01*
X85250595Y-109111904D01*
X85298214Y-109207142D01*
X85345833Y-109254761D01*
X85441071Y-109302380D01*
X85726785Y-109302380D01*
X85822023Y-109254761D01*
X85869642Y-109207142D01*
X88942857Y-100752380D02*
X89276190Y-100276190D01*
X89514285Y-100752380D02*
X89514285Y-99752380D01*
X89133333Y-99752380D01*
X89038095Y-99800000D01*
X88990476Y-99847619D01*
X88942857Y-99942857D01*
X88942857Y-100085714D01*
X88990476Y-100180952D01*
X89038095Y-100228571D01*
X89133333Y-100276190D01*
X89514285Y-100276190D01*
X87990476Y-100752380D02*
X88561904Y-100752380D01*
X88276190Y-100752380D02*
X88276190Y-99752380D01*
X88371428Y-99895238D01*
X88466666Y-99990476D01*
X88561904Y-100038095D01*
X87085714Y-99752380D02*
X87561904Y-99752380D01*
X87609523Y-100228571D01*
X87561904Y-100180952D01*
X87466666Y-100133333D01*
X87228571Y-100133333D01*
X87133333Y-100180952D01*
X87085714Y-100228571D01*
X87038095Y-100323809D01*
X87038095Y-100561904D01*
X87085714Y-100657142D01*
X87133333Y-100704761D01*
X87228571Y-100752380D01*
X87466666Y-100752380D01*
X87561904Y-100704761D01*
X87609523Y-100657142D01*
X65319047Y-80657142D02*
X65366666Y-80704761D01*
X65509523Y-80752380D01*
X65604761Y-80752380D01*
X65747619Y-80704761D01*
X65842857Y-80609523D01*
X65890476Y-80514285D01*
X65938095Y-80323809D01*
X65938095Y-80180952D01*
X65890476Y-79990476D01*
X65842857Y-79895238D01*
X65747619Y-79800000D01*
X65604761Y-79752380D01*
X65509523Y-79752380D01*
X65366666Y-79800000D01*
X65319047Y-79847619D01*
X64414285Y-79752380D02*
X64890476Y-79752380D01*
X64938095Y-80228571D01*
X64890476Y-80180952D01*
X64795238Y-80133333D01*
X64557142Y-80133333D01*
X64461904Y-80180952D01*
X64414285Y-80228571D01*
X64366666Y-80323809D01*
X64366666Y-80561904D01*
X64414285Y-80657142D01*
X64461904Y-80704761D01*
X64557142Y-80752380D01*
X64795238Y-80752380D01*
X64890476Y-80704761D01*
X64938095Y-80657142D01*
X63747619Y-79752380D02*
X63652380Y-79752380D01*
X63557142Y-79800000D01*
X63509523Y-79847619D01*
X63461904Y-79942857D01*
X63414285Y-80133333D01*
X63414285Y-80371428D01*
X63461904Y-80561904D01*
X63509523Y-80657142D01*
X63557142Y-80704761D01*
X63652380Y-80752380D01*
X63747619Y-80752380D01*
X63842857Y-80704761D01*
X63890476Y-80657142D01*
X63938095Y-80561904D01*
X63985714Y-80371428D01*
X63985714Y-80133333D01*
X63938095Y-79942857D01*
X63890476Y-79847619D01*
X63842857Y-79800000D01*
X63747619Y-79752380D01*
X62842857Y-80180952D02*
X62938095Y-80133333D01*
X62985714Y-80085714D01*
X63033333Y-79990476D01*
X63033333Y-79942857D01*
X62985714Y-79847619D01*
X62938095Y-79800000D01*
X62842857Y-79752380D01*
X62652380Y-79752380D01*
X62557142Y-79800000D01*
X62509523Y-79847619D01*
X62461904Y-79942857D01*
X62461904Y-79990476D01*
X62509523Y-80085714D01*
X62557142Y-80133333D01*
X62652380Y-80180952D01*
X62842857Y-80180952D01*
X62938095Y-80228571D01*
X62985714Y-80276190D01*
X63033333Y-80371428D01*
X63033333Y-80561904D01*
X62985714Y-80657142D01*
X62938095Y-80704761D01*
X62842857Y-80752380D01*
X62652380Y-80752380D01*
X62557142Y-80704761D01*
X62509523Y-80657142D01*
X62461904Y-80561904D01*
X62461904Y-80371428D01*
X62509523Y-80276190D01*
X62557142Y-80228571D01*
X62652380Y-80180952D01*
X65319047Y-79007142D02*
X65366666Y-79054761D01*
X65509523Y-79102380D01*
X65604761Y-79102380D01*
X65747619Y-79054761D01*
X65842857Y-78959523D01*
X65890476Y-78864285D01*
X65938095Y-78673809D01*
X65938095Y-78530952D01*
X65890476Y-78340476D01*
X65842857Y-78245238D01*
X65747619Y-78150000D01*
X65604761Y-78102380D01*
X65509523Y-78102380D01*
X65366666Y-78150000D01*
X65319047Y-78197619D01*
X64414285Y-78102380D02*
X64890476Y-78102380D01*
X64938095Y-78578571D01*
X64890476Y-78530952D01*
X64795238Y-78483333D01*
X64557142Y-78483333D01*
X64461904Y-78530952D01*
X64414285Y-78578571D01*
X64366666Y-78673809D01*
X64366666Y-78911904D01*
X64414285Y-79007142D01*
X64461904Y-79054761D01*
X64557142Y-79102380D01*
X64795238Y-79102380D01*
X64890476Y-79054761D01*
X64938095Y-79007142D01*
X63747619Y-78102380D02*
X63652380Y-78102380D01*
X63557142Y-78150000D01*
X63509523Y-78197619D01*
X63461904Y-78292857D01*
X63414285Y-78483333D01*
X63414285Y-78721428D01*
X63461904Y-78911904D01*
X63509523Y-79007142D01*
X63557142Y-79054761D01*
X63652380Y-79102380D01*
X63747619Y-79102380D01*
X63842857Y-79054761D01*
X63890476Y-79007142D01*
X63938095Y-78911904D01*
X63985714Y-78721428D01*
X63985714Y-78483333D01*
X63938095Y-78292857D01*
X63890476Y-78197619D01*
X63842857Y-78150000D01*
X63747619Y-78102380D01*
X63080952Y-78102380D02*
X62414285Y-78102380D01*
X62842857Y-79102380D01*
X65319047Y-73657142D02*
X65366666Y-73704761D01*
X65509523Y-73752380D01*
X65604761Y-73752380D01*
X65747619Y-73704761D01*
X65842857Y-73609523D01*
X65890476Y-73514285D01*
X65938095Y-73323809D01*
X65938095Y-73180952D01*
X65890476Y-72990476D01*
X65842857Y-72895238D01*
X65747619Y-72800000D01*
X65604761Y-72752380D01*
X65509523Y-72752380D01*
X65366666Y-72800000D01*
X65319047Y-72847619D01*
X64461904Y-73085714D02*
X64461904Y-73752380D01*
X64700000Y-72704761D02*
X64938095Y-73419047D01*
X64319047Y-73419047D01*
X63747619Y-72752380D02*
X63652380Y-72752380D01*
X63557142Y-72800000D01*
X63509523Y-72847619D01*
X63461904Y-72942857D01*
X63414285Y-73133333D01*
X63414285Y-73371428D01*
X63461904Y-73561904D01*
X63509523Y-73657142D01*
X63557142Y-73704761D01*
X63652380Y-73752380D01*
X63747619Y-73752380D01*
X63842857Y-73704761D01*
X63890476Y-73657142D01*
X63938095Y-73561904D01*
X63985714Y-73371428D01*
X63985714Y-73133333D01*
X63938095Y-72942857D01*
X63890476Y-72847619D01*
X63842857Y-72800000D01*
X63747619Y-72752380D01*
X62842857Y-73180952D02*
X62938095Y-73133333D01*
X62985714Y-73085714D01*
X63033333Y-72990476D01*
X63033333Y-72942857D01*
X62985714Y-72847619D01*
X62938095Y-72800000D01*
X62842857Y-72752380D01*
X62652380Y-72752380D01*
X62557142Y-72800000D01*
X62509523Y-72847619D01*
X62461904Y-72942857D01*
X62461904Y-72990476D01*
X62509523Y-73085714D01*
X62557142Y-73133333D01*
X62652380Y-73180952D01*
X62842857Y-73180952D01*
X62938095Y-73228571D01*
X62985714Y-73276190D01*
X63033333Y-73371428D01*
X63033333Y-73561904D01*
X62985714Y-73657142D01*
X62938095Y-73704761D01*
X62842857Y-73752380D01*
X62652380Y-73752380D01*
X62557142Y-73704761D01*
X62509523Y-73657142D01*
X62461904Y-73561904D01*
X62461904Y-73371428D01*
X62509523Y-73276190D01*
X62557142Y-73228571D01*
X62652380Y-73180952D01*
X65319047Y-72007142D02*
X65366666Y-72054761D01*
X65509523Y-72102380D01*
X65604761Y-72102380D01*
X65747619Y-72054761D01*
X65842857Y-71959523D01*
X65890476Y-71864285D01*
X65938095Y-71673809D01*
X65938095Y-71530952D01*
X65890476Y-71340476D01*
X65842857Y-71245238D01*
X65747619Y-71150000D01*
X65604761Y-71102380D01*
X65509523Y-71102380D01*
X65366666Y-71150000D01*
X65319047Y-71197619D01*
X64461904Y-71435714D02*
X64461904Y-72102380D01*
X64700000Y-71054761D02*
X64938095Y-71769047D01*
X64319047Y-71769047D01*
X63747619Y-71102380D02*
X63652380Y-71102380D01*
X63557142Y-71150000D01*
X63509523Y-71197619D01*
X63461904Y-71292857D01*
X63414285Y-71483333D01*
X63414285Y-71721428D01*
X63461904Y-71911904D01*
X63509523Y-72007142D01*
X63557142Y-72054761D01*
X63652380Y-72102380D01*
X63747619Y-72102380D01*
X63842857Y-72054761D01*
X63890476Y-72007142D01*
X63938095Y-71911904D01*
X63985714Y-71721428D01*
X63985714Y-71483333D01*
X63938095Y-71292857D01*
X63890476Y-71197619D01*
X63842857Y-71150000D01*
X63747619Y-71102380D01*
X63080952Y-71102380D02*
X62414285Y-71102380D01*
X62842857Y-72102380D01*
X98519047Y-82357142D02*
X98566666Y-82404761D01*
X98709523Y-82452380D01*
X98804761Y-82452380D01*
X98947619Y-82404761D01*
X99042857Y-82309523D01*
X99090476Y-82214285D01*
X99138095Y-82023809D01*
X99138095Y-81880952D01*
X99090476Y-81690476D01*
X99042857Y-81595238D01*
X98947619Y-81500000D01*
X98804761Y-81452380D01*
X98709523Y-81452380D01*
X98566666Y-81500000D01*
X98519047Y-81547619D01*
X98185714Y-81452380D02*
X97566666Y-81452380D01*
X97900000Y-81833333D01*
X97757142Y-81833333D01*
X97661904Y-81880952D01*
X97614285Y-81928571D01*
X97566666Y-82023809D01*
X97566666Y-82261904D01*
X97614285Y-82357142D01*
X97661904Y-82404761D01*
X97757142Y-82452380D01*
X98042857Y-82452380D01*
X98138095Y-82404761D01*
X98185714Y-82357142D01*
X96661904Y-81452380D02*
X97138095Y-81452380D01*
X97185714Y-81928571D01*
X97138095Y-81880952D01*
X97042857Y-81833333D01*
X96804761Y-81833333D01*
X96709523Y-81880952D01*
X96661904Y-81928571D01*
X96614285Y-82023809D01*
X96614285Y-82261904D01*
X96661904Y-82357142D01*
X96709523Y-82404761D01*
X96804761Y-82452380D01*
X97042857Y-82452380D01*
X97138095Y-82404761D01*
X97185714Y-82357142D01*
X95757142Y-81785714D02*
X95757142Y-82452380D01*
X95995238Y-81404761D02*
X96233333Y-82119047D01*
X95614285Y-82119047D01*
X98519047Y-79057142D02*
X98566666Y-79104761D01*
X98709523Y-79152380D01*
X98804761Y-79152380D01*
X98947619Y-79104761D01*
X99042857Y-79009523D01*
X99090476Y-78914285D01*
X99138095Y-78723809D01*
X99138095Y-78580952D01*
X99090476Y-78390476D01*
X99042857Y-78295238D01*
X98947619Y-78200000D01*
X98804761Y-78152380D01*
X98709523Y-78152380D01*
X98566666Y-78200000D01*
X98519047Y-78247619D01*
X98185714Y-78152380D02*
X97566666Y-78152380D01*
X97900000Y-78533333D01*
X97757142Y-78533333D01*
X97661904Y-78580952D01*
X97614285Y-78628571D01*
X97566666Y-78723809D01*
X97566666Y-78961904D01*
X97614285Y-79057142D01*
X97661904Y-79104761D01*
X97757142Y-79152380D01*
X98042857Y-79152380D01*
X98138095Y-79104761D01*
X98185714Y-79057142D01*
X96661904Y-78152380D02*
X97138095Y-78152380D01*
X97185714Y-78628571D01*
X97138095Y-78580952D01*
X97042857Y-78533333D01*
X96804761Y-78533333D01*
X96709523Y-78580952D01*
X96661904Y-78628571D01*
X96614285Y-78723809D01*
X96614285Y-78961904D01*
X96661904Y-79057142D01*
X96709523Y-79104761D01*
X96804761Y-79152380D01*
X97042857Y-79152380D01*
X97138095Y-79104761D01*
X97185714Y-79057142D01*
X96280952Y-78152380D02*
X95661904Y-78152380D01*
X95995238Y-78533333D01*
X95852380Y-78533333D01*
X95757142Y-78580952D01*
X95709523Y-78628571D01*
X95661904Y-78723809D01*
X95661904Y-78961904D01*
X95709523Y-79057142D01*
X95757142Y-79104761D01*
X95852380Y-79152380D01*
X96138095Y-79152380D01*
X96233333Y-79104761D01*
X96280952Y-79057142D01*
X98519047Y-80657142D02*
X98566666Y-80704761D01*
X98709523Y-80752380D01*
X98804761Y-80752380D01*
X98947619Y-80704761D01*
X99042857Y-80609523D01*
X99090476Y-80514285D01*
X99138095Y-80323809D01*
X99138095Y-80180952D01*
X99090476Y-79990476D01*
X99042857Y-79895238D01*
X98947619Y-79800000D01*
X98804761Y-79752380D01*
X98709523Y-79752380D01*
X98566666Y-79800000D01*
X98519047Y-79847619D01*
X98185714Y-79752380D02*
X97566666Y-79752380D01*
X97900000Y-80133333D01*
X97757142Y-80133333D01*
X97661904Y-80180952D01*
X97614285Y-80228571D01*
X97566666Y-80323809D01*
X97566666Y-80561904D01*
X97614285Y-80657142D01*
X97661904Y-80704761D01*
X97757142Y-80752380D01*
X98042857Y-80752380D01*
X98138095Y-80704761D01*
X98185714Y-80657142D01*
X96661904Y-79752380D02*
X97138095Y-79752380D01*
X97185714Y-80228571D01*
X97138095Y-80180952D01*
X97042857Y-80133333D01*
X96804761Y-80133333D01*
X96709523Y-80180952D01*
X96661904Y-80228571D01*
X96614285Y-80323809D01*
X96614285Y-80561904D01*
X96661904Y-80657142D01*
X96709523Y-80704761D01*
X96804761Y-80752380D01*
X97042857Y-80752380D01*
X97138095Y-80704761D01*
X97185714Y-80657142D01*
X96233333Y-79847619D02*
X96185714Y-79800000D01*
X96090476Y-79752380D01*
X95852380Y-79752380D01*
X95757142Y-79800000D01*
X95709523Y-79847619D01*
X95661904Y-79942857D01*
X95661904Y-80038095D01*
X95709523Y-80180952D01*
X96280952Y-80752380D01*
X95661904Y-80752380D01*
X98519047Y-77257142D02*
X98566666Y-77304761D01*
X98709523Y-77352380D01*
X98804761Y-77352380D01*
X98947619Y-77304761D01*
X99042857Y-77209523D01*
X99090476Y-77114285D01*
X99138095Y-76923809D01*
X99138095Y-76780952D01*
X99090476Y-76590476D01*
X99042857Y-76495238D01*
X98947619Y-76400000D01*
X98804761Y-76352380D01*
X98709523Y-76352380D01*
X98566666Y-76400000D01*
X98519047Y-76447619D01*
X98185714Y-76352380D02*
X97566666Y-76352380D01*
X97900000Y-76733333D01*
X97757142Y-76733333D01*
X97661904Y-76780952D01*
X97614285Y-76828571D01*
X97566666Y-76923809D01*
X97566666Y-77161904D01*
X97614285Y-77257142D01*
X97661904Y-77304761D01*
X97757142Y-77352380D01*
X98042857Y-77352380D01*
X98138095Y-77304761D01*
X98185714Y-77257142D01*
X96661904Y-76352380D02*
X97138095Y-76352380D01*
X97185714Y-76828571D01*
X97138095Y-76780952D01*
X97042857Y-76733333D01*
X96804761Y-76733333D01*
X96709523Y-76780952D01*
X96661904Y-76828571D01*
X96614285Y-76923809D01*
X96614285Y-77161904D01*
X96661904Y-77257142D01*
X96709523Y-77304761D01*
X96804761Y-77352380D01*
X97042857Y-77352380D01*
X97138095Y-77304761D01*
X97185714Y-77257142D01*
X95661904Y-77352380D02*
X96233333Y-77352380D01*
X95947619Y-77352380D02*
X95947619Y-76352380D01*
X96042857Y-76495238D01*
X96138095Y-76590476D01*
X96233333Y-76638095D01*
X102719047Y-67057142D02*
X102766666Y-67104761D01*
X102909523Y-67152380D01*
X103004761Y-67152380D01*
X103147619Y-67104761D01*
X103242857Y-67009523D01*
X103290476Y-66914285D01*
X103338095Y-66723809D01*
X103338095Y-66580952D01*
X103290476Y-66390476D01*
X103242857Y-66295238D01*
X103147619Y-66200000D01*
X103004761Y-66152380D01*
X102909523Y-66152380D01*
X102766666Y-66200000D01*
X102719047Y-66247619D01*
X102385714Y-66152380D02*
X101766666Y-66152380D01*
X102100000Y-66533333D01*
X101957142Y-66533333D01*
X101861904Y-66580952D01*
X101814285Y-66628571D01*
X101766666Y-66723809D01*
X101766666Y-66961904D01*
X101814285Y-67057142D01*
X101861904Y-67104761D01*
X101957142Y-67152380D01*
X102242857Y-67152380D01*
X102338095Y-67104761D01*
X102385714Y-67057142D01*
X101147619Y-66152380D02*
X101052380Y-66152380D01*
X100957142Y-66200000D01*
X100909523Y-66247619D01*
X100861904Y-66342857D01*
X100814285Y-66533333D01*
X100814285Y-66771428D01*
X100861904Y-66961904D01*
X100909523Y-67057142D01*
X100957142Y-67104761D01*
X101052380Y-67152380D01*
X101147619Y-67152380D01*
X101242857Y-67104761D01*
X101290476Y-67057142D01*
X101338095Y-66961904D01*
X101385714Y-66771428D01*
X101385714Y-66533333D01*
X101338095Y-66342857D01*
X101290476Y-66247619D01*
X101242857Y-66200000D01*
X101147619Y-66152380D01*
X100242857Y-66580952D02*
X100338095Y-66533333D01*
X100385714Y-66485714D01*
X100433333Y-66390476D01*
X100433333Y-66342857D01*
X100385714Y-66247619D01*
X100338095Y-66200000D01*
X100242857Y-66152380D01*
X100052380Y-66152380D01*
X99957142Y-66200000D01*
X99909523Y-66247619D01*
X99861904Y-66342857D01*
X99861904Y-66390476D01*
X99909523Y-66485714D01*
X99957142Y-66533333D01*
X100052380Y-66580952D01*
X100242857Y-66580952D01*
X100338095Y-66628571D01*
X100385714Y-66676190D01*
X100433333Y-66771428D01*
X100433333Y-66961904D01*
X100385714Y-67057142D01*
X100338095Y-67104761D01*
X100242857Y-67152380D01*
X100052380Y-67152380D01*
X99957142Y-67104761D01*
X99909523Y-67057142D01*
X99861904Y-66961904D01*
X99861904Y-66771428D01*
X99909523Y-66676190D01*
X99957142Y-66628571D01*
X100052380Y-66580952D01*
X102731547Y-71987142D02*
X102779166Y-72034761D01*
X102922023Y-72082380D01*
X103017261Y-72082380D01*
X103160119Y-72034761D01*
X103255357Y-71939523D01*
X103302976Y-71844285D01*
X103350595Y-71653809D01*
X103350595Y-71510952D01*
X103302976Y-71320476D01*
X103255357Y-71225238D01*
X103160119Y-71130000D01*
X103017261Y-71082380D01*
X102922023Y-71082380D01*
X102779166Y-71130000D01*
X102731547Y-71177619D01*
X102398214Y-71082380D02*
X101779166Y-71082380D01*
X102112500Y-71463333D01*
X101969642Y-71463333D01*
X101874404Y-71510952D01*
X101826785Y-71558571D01*
X101779166Y-71653809D01*
X101779166Y-71891904D01*
X101826785Y-71987142D01*
X101874404Y-72034761D01*
X101969642Y-72082380D01*
X102255357Y-72082380D01*
X102350595Y-72034761D01*
X102398214Y-71987142D01*
X101160119Y-71082380D02*
X101064880Y-71082380D01*
X100969642Y-71130000D01*
X100922023Y-71177619D01*
X100874404Y-71272857D01*
X100826785Y-71463333D01*
X100826785Y-71701428D01*
X100874404Y-71891904D01*
X100922023Y-71987142D01*
X100969642Y-72034761D01*
X101064880Y-72082380D01*
X101160119Y-72082380D01*
X101255357Y-72034761D01*
X101302976Y-71987142D01*
X101350595Y-71891904D01*
X101398214Y-71701428D01*
X101398214Y-71463333D01*
X101350595Y-71272857D01*
X101302976Y-71177619D01*
X101255357Y-71130000D01*
X101160119Y-71082380D01*
X100493452Y-71082380D02*
X99826785Y-71082380D01*
X100255357Y-72082380D01*
X86019047Y-82357142D02*
X86066666Y-82404761D01*
X86209523Y-82452380D01*
X86304761Y-82452380D01*
X86447619Y-82404761D01*
X86542857Y-82309523D01*
X86590476Y-82214285D01*
X86638095Y-82023809D01*
X86638095Y-81880952D01*
X86590476Y-81690476D01*
X86542857Y-81595238D01*
X86447619Y-81500000D01*
X86304761Y-81452380D01*
X86209523Y-81452380D01*
X86066666Y-81500000D01*
X86019047Y-81547619D01*
X85638095Y-81547619D02*
X85590476Y-81500000D01*
X85495238Y-81452380D01*
X85257142Y-81452380D01*
X85161904Y-81500000D01*
X85114285Y-81547619D01*
X85066666Y-81642857D01*
X85066666Y-81738095D01*
X85114285Y-81880952D01*
X85685714Y-82452380D01*
X85066666Y-82452380D01*
X84161904Y-81452380D02*
X84638095Y-81452380D01*
X84685714Y-81928571D01*
X84638095Y-81880952D01*
X84542857Y-81833333D01*
X84304761Y-81833333D01*
X84209523Y-81880952D01*
X84161904Y-81928571D01*
X84114285Y-82023809D01*
X84114285Y-82261904D01*
X84161904Y-82357142D01*
X84209523Y-82404761D01*
X84304761Y-82452380D01*
X84542857Y-82452380D01*
X84638095Y-82404761D01*
X84685714Y-82357142D01*
X83257142Y-81785714D02*
X83257142Y-82452380D01*
X83495238Y-81404761D02*
X83733333Y-82119047D01*
X83114285Y-82119047D01*
X86019047Y-79057142D02*
X86066666Y-79104761D01*
X86209523Y-79152380D01*
X86304761Y-79152380D01*
X86447619Y-79104761D01*
X86542857Y-79009523D01*
X86590476Y-78914285D01*
X86638095Y-78723809D01*
X86638095Y-78580952D01*
X86590476Y-78390476D01*
X86542857Y-78295238D01*
X86447619Y-78200000D01*
X86304761Y-78152380D01*
X86209523Y-78152380D01*
X86066666Y-78200000D01*
X86019047Y-78247619D01*
X85638095Y-78247619D02*
X85590476Y-78200000D01*
X85495238Y-78152380D01*
X85257142Y-78152380D01*
X85161904Y-78200000D01*
X85114285Y-78247619D01*
X85066666Y-78342857D01*
X85066666Y-78438095D01*
X85114285Y-78580952D01*
X85685714Y-79152380D01*
X85066666Y-79152380D01*
X84161904Y-78152380D02*
X84638095Y-78152380D01*
X84685714Y-78628571D01*
X84638095Y-78580952D01*
X84542857Y-78533333D01*
X84304761Y-78533333D01*
X84209523Y-78580952D01*
X84161904Y-78628571D01*
X84114285Y-78723809D01*
X84114285Y-78961904D01*
X84161904Y-79057142D01*
X84209523Y-79104761D01*
X84304761Y-79152380D01*
X84542857Y-79152380D01*
X84638095Y-79104761D01*
X84685714Y-79057142D01*
X83780952Y-78152380D02*
X83161904Y-78152380D01*
X83495238Y-78533333D01*
X83352380Y-78533333D01*
X83257142Y-78580952D01*
X83209523Y-78628571D01*
X83161904Y-78723809D01*
X83161904Y-78961904D01*
X83209523Y-79057142D01*
X83257142Y-79104761D01*
X83352380Y-79152380D01*
X83638095Y-79152380D01*
X83733333Y-79104761D01*
X83780952Y-79057142D01*
X86019047Y-80657142D02*
X86066666Y-80704761D01*
X86209523Y-80752380D01*
X86304761Y-80752380D01*
X86447619Y-80704761D01*
X86542857Y-80609523D01*
X86590476Y-80514285D01*
X86638095Y-80323809D01*
X86638095Y-80180952D01*
X86590476Y-79990476D01*
X86542857Y-79895238D01*
X86447619Y-79800000D01*
X86304761Y-79752380D01*
X86209523Y-79752380D01*
X86066666Y-79800000D01*
X86019047Y-79847619D01*
X85638095Y-79847619D02*
X85590476Y-79800000D01*
X85495238Y-79752380D01*
X85257142Y-79752380D01*
X85161904Y-79800000D01*
X85114285Y-79847619D01*
X85066666Y-79942857D01*
X85066666Y-80038095D01*
X85114285Y-80180952D01*
X85685714Y-80752380D01*
X85066666Y-80752380D01*
X84161904Y-79752380D02*
X84638095Y-79752380D01*
X84685714Y-80228571D01*
X84638095Y-80180952D01*
X84542857Y-80133333D01*
X84304761Y-80133333D01*
X84209523Y-80180952D01*
X84161904Y-80228571D01*
X84114285Y-80323809D01*
X84114285Y-80561904D01*
X84161904Y-80657142D01*
X84209523Y-80704761D01*
X84304761Y-80752380D01*
X84542857Y-80752380D01*
X84638095Y-80704761D01*
X84685714Y-80657142D01*
X83733333Y-79847619D02*
X83685714Y-79800000D01*
X83590476Y-79752380D01*
X83352380Y-79752380D01*
X83257142Y-79800000D01*
X83209523Y-79847619D01*
X83161904Y-79942857D01*
X83161904Y-80038095D01*
X83209523Y-80180952D01*
X83780952Y-80752380D01*
X83161904Y-80752380D01*
X86019047Y-77257142D02*
X86066666Y-77304761D01*
X86209523Y-77352380D01*
X86304761Y-77352380D01*
X86447619Y-77304761D01*
X86542857Y-77209523D01*
X86590476Y-77114285D01*
X86638095Y-76923809D01*
X86638095Y-76780952D01*
X86590476Y-76590476D01*
X86542857Y-76495238D01*
X86447619Y-76400000D01*
X86304761Y-76352380D01*
X86209523Y-76352380D01*
X86066666Y-76400000D01*
X86019047Y-76447619D01*
X85638095Y-76447619D02*
X85590476Y-76400000D01*
X85495238Y-76352380D01*
X85257142Y-76352380D01*
X85161904Y-76400000D01*
X85114285Y-76447619D01*
X85066666Y-76542857D01*
X85066666Y-76638095D01*
X85114285Y-76780952D01*
X85685714Y-77352380D01*
X85066666Y-77352380D01*
X84161904Y-76352380D02*
X84638095Y-76352380D01*
X84685714Y-76828571D01*
X84638095Y-76780952D01*
X84542857Y-76733333D01*
X84304761Y-76733333D01*
X84209523Y-76780952D01*
X84161904Y-76828571D01*
X84114285Y-76923809D01*
X84114285Y-77161904D01*
X84161904Y-77257142D01*
X84209523Y-77304761D01*
X84304761Y-77352380D01*
X84542857Y-77352380D01*
X84638095Y-77304761D01*
X84685714Y-77257142D01*
X83161904Y-77352380D02*
X83733333Y-77352380D01*
X83447619Y-77352380D02*
X83447619Y-76352380D01*
X83542857Y-76495238D01*
X83638095Y-76590476D01*
X83733333Y-76638095D01*
X90219047Y-67057142D02*
X90266666Y-67104761D01*
X90409523Y-67152380D01*
X90504761Y-67152380D01*
X90647619Y-67104761D01*
X90742857Y-67009523D01*
X90790476Y-66914285D01*
X90838095Y-66723809D01*
X90838095Y-66580952D01*
X90790476Y-66390476D01*
X90742857Y-66295238D01*
X90647619Y-66200000D01*
X90504761Y-66152380D01*
X90409523Y-66152380D01*
X90266666Y-66200000D01*
X90219047Y-66247619D01*
X89838095Y-66247619D02*
X89790476Y-66200000D01*
X89695238Y-66152380D01*
X89457142Y-66152380D01*
X89361904Y-66200000D01*
X89314285Y-66247619D01*
X89266666Y-66342857D01*
X89266666Y-66438095D01*
X89314285Y-66580952D01*
X89885714Y-67152380D01*
X89266666Y-67152380D01*
X88647619Y-66152380D02*
X88552380Y-66152380D01*
X88457142Y-66200000D01*
X88409523Y-66247619D01*
X88361904Y-66342857D01*
X88314285Y-66533333D01*
X88314285Y-66771428D01*
X88361904Y-66961904D01*
X88409523Y-67057142D01*
X88457142Y-67104761D01*
X88552380Y-67152380D01*
X88647619Y-67152380D01*
X88742857Y-67104761D01*
X88790476Y-67057142D01*
X88838095Y-66961904D01*
X88885714Y-66771428D01*
X88885714Y-66533333D01*
X88838095Y-66342857D01*
X88790476Y-66247619D01*
X88742857Y-66200000D01*
X88647619Y-66152380D01*
X87742857Y-66580952D02*
X87838095Y-66533333D01*
X87885714Y-66485714D01*
X87933333Y-66390476D01*
X87933333Y-66342857D01*
X87885714Y-66247619D01*
X87838095Y-66200000D01*
X87742857Y-66152380D01*
X87552380Y-66152380D01*
X87457142Y-66200000D01*
X87409523Y-66247619D01*
X87361904Y-66342857D01*
X87361904Y-66390476D01*
X87409523Y-66485714D01*
X87457142Y-66533333D01*
X87552380Y-66580952D01*
X87742857Y-66580952D01*
X87838095Y-66628571D01*
X87885714Y-66676190D01*
X87933333Y-66771428D01*
X87933333Y-66961904D01*
X87885714Y-67057142D01*
X87838095Y-67104761D01*
X87742857Y-67152380D01*
X87552380Y-67152380D01*
X87457142Y-67104761D01*
X87409523Y-67057142D01*
X87361904Y-66961904D01*
X87361904Y-66771428D01*
X87409523Y-66676190D01*
X87457142Y-66628571D01*
X87552380Y-66580952D01*
X90231547Y-71987142D02*
X90279166Y-72034761D01*
X90422023Y-72082380D01*
X90517261Y-72082380D01*
X90660119Y-72034761D01*
X90755357Y-71939523D01*
X90802976Y-71844285D01*
X90850595Y-71653809D01*
X90850595Y-71510952D01*
X90802976Y-71320476D01*
X90755357Y-71225238D01*
X90660119Y-71130000D01*
X90517261Y-71082380D01*
X90422023Y-71082380D01*
X90279166Y-71130000D01*
X90231547Y-71177619D01*
X89850595Y-71177619D02*
X89802976Y-71130000D01*
X89707738Y-71082380D01*
X89469642Y-71082380D01*
X89374404Y-71130000D01*
X89326785Y-71177619D01*
X89279166Y-71272857D01*
X89279166Y-71368095D01*
X89326785Y-71510952D01*
X89898214Y-72082380D01*
X89279166Y-72082380D01*
X88660119Y-71082380D02*
X88564880Y-71082380D01*
X88469642Y-71130000D01*
X88422023Y-71177619D01*
X88374404Y-71272857D01*
X88326785Y-71463333D01*
X88326785Y-71701428D01*
X88374404Y-71891904D01*
X88422023Y-71987142D01*
X88469642Y-72034761D01*
X88564880Y-72082380D01*
X88660119Y-72082380D01*
X88755357Y-72034761D01*
X88802976Y-71987142D01*
X88850595Y-71891904D01*
X88898214Y-71701428D01*
X88898214Y-71463333D01*
X88850595Y-71272857D01*
X88802976Y-71177619D01*
X88755357Y-71130000D01*
X88660119Y-71082380D01*
X87993452Y-71082380D02*
X87326785Y-71082380D01*
X87755357Y-72082380D01*
X73519047Y-82357142D02*
X73566666Y-82404761D01*
X73709523Y-82452380D01*
X73804761Y-82452380D01*
X73947619Y-82404761D01*
X74042857Y-82309523D01*
X74090476Y-82214285D01*
X74138095Y-82023809D01*
X74138095Y-81880952D01*
X74090476Y-81690476D01*
X74042857Y-81595238D01*
X73947619Y-81500000D01*
X73804761Y-81452380D01*
X73709523Y-81452380D01*
X73566666Y-81500000D01*
X73519047Y-81547619D01*
X72566666Y-82452380D02*
X73138095Y-82452380D01*
X72852380Y-82452380D02*
X72852380Y-81452380D01*
X72947619Y-81595238D01*
X73042857Y-81690476D01*
X73138095Y-81738095D01*
X71661904Y-81452380D02*
X72138095Y-81452380D01*
X72185714Y-81928571D01*
X72138095Y-81880952D01*
X72042857Y-81833333D01*
X71804761Y-81833333D01*
X71709523Y-81880952D01*
X71661904Y-81928571D01*
X71614285Y-82023809D01*
X71614285Y-82261904D01*
X71661904Y-82357142D01*
X71709523Y-82404761D01*
X71804761Y-82452380D01*
X72042857Y-82452380D01*
X72138095Y-82404761D01*
X72185714Y-82357142D01*
X70757142Y-81785714D02*
X70757142Y-82452380D01*
X70995238Y-81404761D02*
X71233333Y-82119047D01*
X70614285Y-82119047D01*
X73519047Y-79057142D02*
X73566666Y-79104761D01*
X73709523Y-79152380D01*
X73804761Y-79152380D01*
X73947619Y-79104761D01*
X74042857Y-79009523D01*
X74090476Y-78914285D01*
X74138095Y-78723809D01*
X74138095Y-78580952D01*
X74090476Y-78390476D01*
X74042857Y-78295238D01*
X73947619Y-78200000D01*
X73804761Y-78152380D01*
X73709523Y-78152380D01*
X73566666Y-78200000D01*
X73519047Y-78247619D01*
X72566666Y-79152380D02*
X73138095Y-79152380D01*
X72852380Y-79152380D02*
X72852380Y-78152380D01*
X72947619Y-78295238D01*
X73042857Y-78390476D01*
X73138095Y-78438095D01*
X71661904Y-78152380D02*
X72138095Y-78152380D01*
X72185714Y-78628571D01*
X72138095Y-78580952D01*
X72042857Y-78533333D01*
X71804761Y-78533333D01*
X71709523Y-78580952D01*
X71661904Y-78628571D01*
X71614285Y-78723809D01*
X71614285Y-78961904D01*
X71661904Y-79057142D01*
X71709523Y-79104761D01*
X71804761Y-79152380D01*
X72042857Y-79152380D01*
X72138095Y-79104761D01*
X72185714Y-79057142D01*
X71280952Y-78152380D02*
X70661904Y-78152380D01*
X70995238Y-78533333D01*
X70852380Y-78533333D01*
X70757142Y-78580952D01*
X70709523Y-78628571D01*
X70661904Y-78723809D01*
X70661904Y-78961904D01*
X70709523Y-79057142D01*
X70757142Y-79104761D01*
X70852380Y-79152380D01*
X71138095Y-79152380D01*
X71233333Y-79104761D01*
X71280952Y-79057142D01*
X73519047Y-80657142D02*
X73566666Y-80704761D01*
X73709523Y-80752380D01*
X73804761Y-80752380D01*
X73947619Y-80704761D01*
X74042857Y-80609523D01*
X74090476Y-80514285D01*
X74138095Y-80323809D01*
X74138095Y-80180952D01*
X74090476Y-79990476D01*
X74042857Y-79895238D01*
X73947619Y-79800000D01*
X73804761Y-79752380D01*
X73709523Y-79752380D01*
X73566666Y-79800000D01*
X73519047Y-79847619D01*
X72566666Y-80752380D02*
X73138095Y-80752380D01*
X72852380Y-80752380D02*
X72852380Y-79752380D01*
X72947619Y-79895238D01*
X73042857Y-79990476D01*
X73138095Y-80038095D01*
X71661904Y-79752380D02*
X72138095Y-79752380D01*
X72185714Y-80228571D01*
X72138095Y-80180952D01*
X72042857Y-80133333D01*
X71804761Y-80133333D01*
X71709523Y-80180952D01*
X71661904Y-80228571D01*
X71614285Y-80323809D01*
X71614285Y-80561904D01*
X71661904Y-80657142D01*
X71709523Y-80704761D01*
X71804761Y-80752380D01*
X72042857Y-80752380D01*
X72138095Y-80704761D01*
X72185714Y-80657142D01*
X71233333Y-79847619D02*
X71185714Y-79800000D01*
X71090476Y-79752380D01*
X70852380Y-79752380D01*
X70757142Y-79800000D01*
X70709523Y-79847619D01*
X70661904Y-79942857D01*
X70661904Y-80038095D01*
X70709523Y-80180952D01*
X71280952Y-80752380D01*
X70661904Y-80752380D01*
X73519047Y-77257142D02*
X73566666Y-77304761D01*
X73709523Y-77352380D01*
X73804761Y-77352380D01*
X73947619Y-77304761D01*
X74042857Y-77209523D01*
X74090476Y-77114285D01*
X74138095Y-76923809D01*
X74138095Y-76780952D01*
X74090476Y-76590476D01*
X74042857Y-76495238D01*
X73947619Y-76400000D01*
X73804761Y-76352380D01*
X73709523Y-76352380D01*
X73566666Y-76400000D01*
X73519047Y-76447619D01*
X72566666Y-77352380D02*
X73138095Y-77352380D01*
X72852380Y-77352380D02*
X72852380Y-76352380D01*
X72947619Y-76495238D01*
X73042857Y-76590476D01*
X73138095Y-76638095D01*
X71661904Y-76352380D02*
X72138095Y-76352380D01*
X72185714Y-76828571D01*
X72138095Y-76780952D01*
X72042857Y-76733333D01*
X71804761Y-76733333D01*
X71709523Y-76780952D01*
X71661904Y-76828571D01*
X71614285Y-76923809D01*
X71614285Y-77161904D01*
X71661904Y-77257142D01*
X71709523Y-77304761D01*
X71804761Y-77352380D01*
X72042857Y-77352380D01*
X72138095Y-77304761D01*
X72185714Y-77257142D01*
X70661904Y-77352380D02*
X71233333Y-77352380D01*
X70947619Y-77352380D02*
X70947619Y-76352380D01*
X71042857Y-76495238D01*
X71138095Y-76590476D01*
X71233333Y-76638095D01*
X77719047Y-67057142D02*
X77766666Y-67104761D01*
X77909523Y-67152380D01*
X78004761Y-67152380D01*
X78147619Y-67104761D01*
X78242857Y-67009523D01*
X78290476Y-66914285D01*
X78338095Y-66723809D01*
X78338095Y-66580952D01*
X78290476Y-66390476D01*
X78242857Y-66295238D01*
X78147619Y-66200000D01*
X78004761Y-66152380D01*
X77909523Y-66152380D01*
X77766666Y-66200000D01*
X77719047Y-66247619D01*
X76766666Y-67152380D02*
X77338095Y-67152380D01*
X77052380Y-67152380D02*
X77052380Y-66152380D01*
X77147619Y-66295238D01*
X77242857Y-66390476D01*
X77338095Y-66438095D01*
X76147619Y-66152380D02*
X76052380Y-66152380D01*
X75957142Y-66200000D01*
X75909523Y-66247619D01*
X75861904Y-66342857D01*
X75814285Y-66533333D01*
X75814285Y-66771428D01*
X75861904Y-66961904D01*
X75909523Y-67057142D01*
X75957142Y-67104761D01*
X76052380Y-67152380D01*
X76147619Y-67152380D01*
X76242857Y-67104761D01*
X76290476Y-67057142D01*
X76338095Y-66961904D01*
X76385714Y-66771428D01*
X76385714Y-66533333D01*
X76338095Y-66342857D01*
X76290476Y-66247619D01*
X76242857Y-66200000D01*
X76147619Y-66152380D01*
X75242857Y-66580952D02*
X75338095Y-66533333D01*
X75385714Y-66485714D01*
X75433333Y-66390476D01*
X75433333Y-66342857D01*
X75385714Y-66247619D01*
X75338095Y-66200000D01*
X75242857Y-66152380D01*
X75052380Y-66152380D01*
X74957142Y-66200000D01*
X74909523Y-66247619D01*
X74861904Y-66342857D01*
X74861904Y-66390476D01*
X74909523Y-66485714D01*
X74957142Y-66533333D01*
X75052380Y-66580952D01*
X75242857Y-66580952D01*
X75338095Y-66628571D01*
X75385714Y-66676190D01*
X75433333Y-66771428D01*
X75433333Y-66961904D01*
X75385714Y-67057142D01*
X75338095Y-67104761D01*
X75242857Y-67152380D01*
X75052380Y-67152380D01*
X74957142Y-67104761D01*
X74909523Y-67057142D01*
X74861904Y-66961904D01*
X74861904Y-66771428D01*
X74909523Y-66676190D01*
X74957142Y-66628571D01*
X75052380Y-66580952D01*
X77731547Y-71987142D02*
X77779166Y-72034761D01*
X77922023Y-72082380D01*
X78017261Y-72082380D01*
X78160119Y-72034761D01*
X78255357Y-71939523D01*
X78302976Y-71844285D01*
X78350595Y-71653809D01*
X78350595Y-71510952D01*
X78302976Y-71320476D01*
X78255357Y-71225238D01*
X78160119Y-71130000D01*
X78017261Y-71082380D01*
X77922023Y-71082380D01*
X77779166Y-71130000D01*
X77731547Y-71177619D01*
X76779166Y-72082380D02*
X77350595Y-72082380D01*
X77064880Y-72082380D02*
X77064880Y-71082380D01*
X77160119Y-71225238D01*
X77255357Y-71320476D01*
X77350595Y-71368095D01*
X76160119Y-71082380D02*
X76064880Y-71082380D01*
X75969642Y-71130000D01*
X75922023Y-71177619D01*
X75874404Y-71272857D01*
X75826785Y-71463333D01*
X75826785Y-71701428D01*
X75874404Y-71891904D01*
X75922023Y-71987142D01*
X75969642Y-72034761D01*
X76064880Y-72082380D01*
X76160119Y-72082380D01*
X76255357Y-72034761D01*
X76302976Y-71987142D01*
X76350595Y-71891904D01*
X76398214Y-71701428D01*
X76398214Y-71463333D01*
X76350595Y-71272857D01*
X76302976Y-71177619D01*
X76255357Y-71130000D01*
X76160119Y-71082380D01*
X75493452Y-71082380D02*
X74826785Y-71082380D01*
X75255357Y-72082380D01*
X167938095Y-116902380D02*
X167938095Y-117711904D01*
X167890476Y-117807142D01*
X167842857Y-117854761D01*
X167747619Y-117902380D01*
X167557142Y-117902380D01*
X167461904Y-117854761D01*
X167414285Y-117807142D01*
X167366666Y-117711904D01*
X167366666Y-116902380D01*
X166938095Y-116997619D02*
X166890476Y-116950000D01*
X166795238Y-116902380D01*
X166557142Y-116902380D01*
X166461904Y-116950000D01*
X166414285Y-116997619D01*
X166366666Y-117092857D01*
X166366666Y-117188095D01*
X166414285Y-117330952D01*
X166985714Y-117902380D01*
X166366666Y-117902380D01*
X165509523Y-117235714D02*
X165509523Y-117902380D01*
X165747619Y-116854761D02*
X165985714Y-117569047D01*
X165366666Y-117569047D01*
X154888095Y-88552380D02*
X154888095Y-89361904D01*
X154840476Y-89457142D01*
X154792857Y-89504761D01*
X154697619Y-89552380D01*
X154507142Y-89552380D01*
X154411904Y-89504761D01*
X154364285Y-89457142D01*
X154316666Y-89361904D01*
X154316666Y-88552380D01*
X153935714Y-88552380D02*
X153316666Y-88552380D01*
X153650000Y-88933333D01*
X153507142Y-88933333D01*
X153411904Y-88980952D01*
X153364285Y-89028571D01*
X153316666Y-89123809D01*
X153316666Y-89361904D01*
X153364285Y-89457142D01*
X153411904Y-89504761D01*
X153507142Y-89552380D01*
X153792857Y-89552380D01*
X153888095Y-89504761D01*
X153935714Y-89457142D01*
X152697619Y-88552380D02*
X152602380Y-88552380D01*
X152507142Y-88600000D01*
X152459523Y-88647619D01*
X152411904Y-88742857D01*
X152364285Y-88933333D01*
X152364285Y-89171428D01*
X152411904Y-89361904D01*
X152459523Y-89457142D01*
X152507142Y-89504761D01*
X152602380Y-89552380D01*
X152697619Y-89552380D01*
X152792857Y-89504761D01*
X152840476Y-89457142D01*
X152888095Y-89361904D01*
X152935714Y-89171428D01*
X152935714Y-88933333D01*
X152888095Y-88742857D01*
X152840476Y-88647619D01*
X152792857Y-88600000D01*
X152697619Y-88552380D01*
X71052380Y-115120833D02*
X70576190Y-114787500D01*
X71052380Y-114549404D02*
X70052380Y-114549404D01*
X70052380Y-114930357D01*
X70100000Y-115025595D01*
X70147619Y-115073214D01*
X70242857Y-115120833D01*
X70385714Y-115120833D01*
X70480952Y-115073214D01*
X70528571Y-115025595D01*
X70576190Y-114930357D01*
X70576190Y-114549404D01*
X70052380Y-115977976D02*
X70052380Y-115787500D01*
X70100000Y-115692261D01*
X70147619Y-115644642D01*
X70290476Y-115549404D01*
X70480952Y-115501785D01*
X70861904Y-115501785D01*
X70957142Y-115549404D01*
X71004761Y-115597023D01*
X71052380Y-115692261D01*
X71052380Y-115882738D01*
X71004761Y-115977976D01*
X70957142Y-116025595D01*
X70861904Y-116073214D01*
X70623809Y-116073214D01*
X70528571Y-116025595D01*
X70480952Y-115977976D01*
X70433333Y-115882738D01*
X70433333Y-115692261D01*
X70480952Y-115597023D01*
X70528571Y-115549404D01*
X70623809Y-115501785D01*
X164738095Y-137302380D02*
X164738095Y-138111904D01*
X164690476Y-138207142D01*
X164642857Y-138254761D01*
X164547619Y-138302380D01*
X164357142Y-138302380D01*
X164261904Y-138254761D01*
X164214285Y-138207142D01*
X164166666Y-138111904D01*
X164166666Y-137302380D01*
X163738095Y-137397619D02*
X163690476Y-137350000D01*
X163595238Y-137302380D01*
X163357142Y-137302380D01*
X163261904Y-137350000D01*
X163214285Y-137397619D01*
X163166666Y-137492857D01*
X163166666Y-137588095D01*
X163214285Y-137730952D01*
X163785714Y-138302380D01*
X163166666Y-138302380D01*
X162833333Y-137302380D02*
X162166666Y-137302380D01*
X162595238Y-138302380D01*
X165442857Y-106452380D02*
X165776190Y-105976190D01*
X166014285Y-106452380D02*
X166014285Y-105452380D01*
X165633333Y-105452380D01*
X165538095Y-105500000D01*
X165490476Y-105547619D01*
X165442857Y-105642857D01*
X165442857Y-105785714D01*
X165490476Y-105880952D01*
X165538095Y-105928571D01*
X165633333Y-105976190D01*
X166014285Y-105976190D01*
X165061904Y-105547619D02*
X165014285Y-105500000D01*
X164919047Y-105452380D01*
X164680952Y-105452380D01*
X164585714Y-105500000D01*
X164538095Y-105547619D01*
X164490476Y-105642857D01*
X164490476Y-105738095D01*
X164538095Y-105880952D01*
X165109523Y-106452380D01*
X164490476Y-106452380D01*
X163585714Y-105452380D02*
X164061904Y-105452380D01*
X164109523Y-105928571D01*
X164061904Y-105880952D01*
X163966666Y-105833333D01*
X163728571Y-105833333D01*
X163633333Y-105880952D01*
X163585714Y-105928571D01*
X163538095Y-106023809D01*
X163538095Y-106261904D01*
X163585714Y-106357142D01*
X163633333Y-106404761D01*
X163728571Y-106452380D01*
X163966666Y-106452380D01*
X164061904Y-106404761D01*
X164109523Y-106357142D01*
X136552380Y-70457142D02*
X136076190Y-70123809D01*
X136552380Y-69885714D02*
X135552380Y-69885714D01*
X135552380Y-70266666D01*
X135600000Y-70361904D01*
X135647619Y-70409523D01*
X135742857Y-70457142D01*
X135885714Y-70457142D01*
X135980952Y-70409523D01*
X136028571Y-70361904D01*
X136076190Y-70266666D01*
X136076190Y-69885714D01*
X135647619Y-70838095D02*
X135600000Y-70885714D01*
X135552380Y-70980952D01*
X135552380Y-71219047D01*
X135600000Y-71314285D01*
X135647619Y-71361904D01*
X135742857Y-71409523D01*
X135838095Y-71409523D01*
X135980952Y-71361904D01*
X136552380Y-70790476D01*
X136552380Y-71409523D01*
X135885714Y-72266666D02*
X136552380Y-72266666D01*
X135504761Y-72028571D02*
X136219047Y-71790476D01*
X136219047Y-72409523D01*
X187327380Y-146611904D02*
X188136904Y-146611904D01*
X188232142Y-146659523D01*
X188279761Y-146707142D01*
X188327380Y-146802380D01*
X188327380Y-146992857D01*
X188279761Y-147088095D01*
X188232142Y-147135714D01*
X188136904Y-147183333D01*
X187327380Y-147183333D01*
X187422619Y-147611904D02*
X187375000Y-147659523D01*
X187327380Y-147754761D01*
X187327380Y-147992857D01*
X187375000Y-148088095D01*
X187422619Y-148135714D01*
X187517857Y-148183333D01*
X187613095Y-148183333D01*
X187755952Y-148135714D01*
X188327380Y-147564285D01*
X188327380Y-148183333D01*
X187755952Y-148754761D02*
X187708333Y-148659523D01*
X187660714Y-148611904D01*
X187565476Y-148564285D01*
X187517857Y-148564285D01*
X187422619Y-148611904D01*
X187375000Y-148659523D01*
X187327380Y-148754761D01*
X187327380Y-148945238D01*
X187375000Y-149040476D01*
X187422619Y-149088095D01*
X187517857Y-149135714D01*
X187565476Y-149135714D01*
X187660714Y-149088095D01*
X187708333Y-149040476D01*
X187755952Y-148945238D01*
X187755952Y-148754761D01*
X187803571Y-148659523D01*
X187851190Y-148611904D01*
X187946428Y-148564285D01*
X188136904Y-148564285D01*
X188232142Y-148611904D01*
X188279761Y-148659523D01*
X188327380Y-148754761D01*
X188327380Y-148945238D01*
X188279761Y-149040476D01*
X188232142Y-149088095D01*
X188136904Y-149135714D01*
X187946428Y-149135714D01*
X187851190Y-149088095D01*
X187803571Y-149040476D01*
X187755952Y-148945238D01*
X130238095Y-90302380D02*
X130238095Y-91111904D01*
X130190476Y-91207142D01*
X130142857Y-91254761D01*
X130047619Y-91302380D01*
X129857142Y-91302380D01*
X129761904Y-91254761D01*
X129714285Y-91207142D01*
X129666666Y-91111904D01*
X129666666Y-90302380D01*
X129285714Y-90302380D02*
X128666666Y-90302380D01*
X129000000Y-90683333D01*
X128857142Y-90683333D01*
X128761904Y-90730952D01*
X128714285Y-90778571D01*
X128666666Y-90873809D01*
X128666666Y-91111904D01*
X128714285Y-91207142D01*
X128761904Y-91254761D01*
X128857142Y-91302380D01*
X129142857Y-91302380D01*
X129238095Y-91254761D01*
X129285714Y-91207142D01*
X128285714Y-90397619D02*
X128238095Y-90350000D01*
X128142857Y-90302380D01*
X127904761Y-90302380D01*
X127809523Y-90350000D01*
X127761904Y-90397619D01*
X127714285Y-90492857D01*
X127714285Y-90588095D01*
X127761904Y-90730952D01*
X128333333Y-91302380D01*
X127714285Y-91302380D01*
X149738095Y-105452380D02*
X149738095Y-106261904D01*
X149690476Y-106357142D01*
X149642857Y-106404761D01*
X149547619Y-106452380D01*
X149357142Y-106452380D01*
X149261904Y-106404761D01*
X149214285Y-106357142D01*
X149166666Y-106261904D01*
X149166666Y-105452380D01*
X148785714Y-105452380D02*
X148166666Y-105452380D01*
X148500000Y-105833333D01*
X148357142Y-105833333D01*
X148261904Y-105880952D01*
X148214285Y-105928571D01*
X148166666Y-106023809D01*
X148166666Y-106261904D01*
X148214285Y-106357142D01*
X148261904Y-106404761D01*
X148357142Y-106452380D01*
X148642857Y-106452380D01*
X148738095Y-106404761D01*
X148785714Y-106357142D01*
X147214285Y-106452380D02*
X147785714Y-106452380D01*
X147500000Y-106452380D02*
X147500000Y-105452380D01*
X147595238Y-105595238D01*
X147690476Y-105690476D01*
X147785714Y-105738095D01*
X197327380Y-146611904D02*
X198136904Y-146611904D01*
X198232142Y-146659523D01*
X198279761Y-146707142D01*
X198327380Y-146802380D01*
X198327380Y-146992857D01*
X198279761Y-147088095D01*
X198232142Y-147135714D01*
X198136904Y-147183333D01*
X197327380Y-147183333D01*
X197422619Y-147611904D02*
X197375000Y-147659523D01*
X197327380Y-147754761D01*
X197327380Y-147992857D01*
X197375000Y-148088095D01*
X197422619Y-148135714D01*
X197517857Y-148183333D01*
X197613095Y-148183333D01*
X197755952Y-148135714D01*
X198327380Y-147564285D01*
X198327380Y-148183333D01*
X198327380Y-148659523D02*
X198327380Y-148850000D01*
X198279761Y-148945238D01*
X198232142Y-148992857D01*
X198089285Y-149088095D01*
X197898809Y-149135714D01*
X197517857Y-149135714D01*
X197422619Y-149088095D01*
X197375000Y-149040476D01*
X197327380Y-148945238D01*
X197327380Y-148754761D01*
X197375000Y-148659523D01*
X197422619Y-148611904D01*
X197517857Y-148564285D01*
X197755952Y-148564285D01*
X197851190Y-148611904D01*
X197898809Y-148659523D01*
X197946428Y-148754761D01*
X197946428Y-148945238D01*
X197898809Y-149040476D01*
X197851190Y-149088095D01*
X197755952Y-149135714D01*
X170038095Y-128052380D02*
X170038095Y-128861904D01*
X169990476Y-128957142D01*
X169942857Y-129004761D01*
X169847619Y-129052380D01*
X169657142Y-129052380D01*
X169561904Y-129004761D01*
X169514285Y-128957142D01*
X169466666Y-128861904D01*
X169466666Y-128052380D01*
X169038095Y-128147619D02*
X168990476Y-128100000D01*
X168895238Y-128052380D01*
X168657142Y-128052380D01*
X168561904Y-128100000D01*
X168514285Y-128147619D01*
X168466666Y-128242857D01*
X168466666Y-128338095D01*
X168514285Y-128480952D01*
X169085714Y-129052380D01*
X168466666Y-129052380D01*
X167609523Y-128052380D02*
X167800000Y-128052380D01*
X167895238Y-128100000D01*
X167942857Y-128147619D01*
X168038095Y-128290476D01*
X168085714Y-128480952D01*
X168085714Y-128861904D01*
X168038095Y-128957142D01*
X167990476Y-129004761D01*
X167895238Y-129052380D01*
X167704761Y-129052380D01*
X167609523Y-129004761D01*
X167561904Y-128957142D01*
X167514285Y-128861904D01*
X167514285Y-128623809D01*
X167561904Y-128528571D01*
X167609523Y-128480952D01*
X167704761Y-128433333D01*
X167895238Y-128433333D01*
X167990476Y-128480952D01*
X168038095Y-128528571D01*
X168085714Y-128623809D01*
X158238095Y-113852380D02*
X158238095Y-114661904D01*
X158190476Y-114757142D01*
X158142857Y-114804761D01*
X158047619Y-114852380D01*
X157857142Y-114852380D01*
X157761904Y-114804761D01*
X157714285Y-114757142D01*
X157666666Y-114661904D01*
X157666666Y-113852380D01*
X157238095Y-113947619D02*
X157190476Y-113900000D01*
X157095238Y-113852380D01*
X156857142Y-113852380D01*
X156761904Y-113900000D01*
X156714285Y-113947619D01*
X156666666Y-114042857D01*
X156666666Y-114138095D01*
X156714285Y-114280952D01*
X157285714Y-114852380D01*
X156666666Y-114852380D01*
X155761904Y-113852380D02*
X156238095Y-113852380D01*
X156285714Y-114328571D01*
X156238095Y-114280952D01*
X156142857Y-114233333D01*
X155904761Y-114233333D01*
X155809523Y-114280952D01*
X155761904Y-114328571D01*
X155714285Y-114423809D01*
X155714285Y-114661904D01*
X155761904Y-114757142D01*
X155809523Y-114804761D01*
X155904761Y-114852380D01*
X156142857Y-114852380D01*
X156238095Y-114804761D01*
X156285714Y-114757142D01*
X130238095Y-68352380D02*
X130238095Y-69161904D01*
X130190476Y-69257142D01*
X130142857Y-69304761D01*
X130047619Y-69352380D01*
X129857142Y-69352380D01*
X129761904Y-69304761D01*
X129714285Y-69257142D01*
X129666666Y-69161904D01*
X129666666Y-68352380D01*
X129238095Y-68447619D02*
X129190476Y-68400000D01*
X129095238Y-68352380D01*
X128857142Y-68352380D01*
X128761904Y-68400000D01*
X128714285Y-68447619D01*
X128666666Y-68542857D01*
X128666666Y-68638095D01*
X128714285Y-68780952D01*
X129285714Y-69352380D01*
X128666666Y-69352380D01*
X128333333Y-68352380D02*
X127714285Y-68352380D01*
X128047619Y-68733333D01*
X127904761Y-68733333D01*
X127809523Y-68780952D01*
X127761904Y-68828571D01*
X127714285Y-68923809D01*
X127714285Y-69161904D01*
X127761904Y-69257142D01*
X127809523Y-69304761D01*
X127904761Y-69352380D01*
X128190476Y-69352380D01*
X128285714Y-69304761D01*
X128333333Y-69257142D01*
X146338095Y-82552380D02*
X146338095Y-83361904D01*
X146290476Y-83457142D01*
X146242857Y-83504761D01*
X146147619Y-83552380D01*
X145957142Y-83552380D01*
X145861904Y-83504761D01*
X145814285Y-83457142D01*
X145766666Y-83361904D01*
X145766666Y-82552380D01*
X145338095Y-82647619D02*
X145290476Y-82600000D01*
X145195238Y-82552380D01*
X144957142Y-82552380D01*
X144861904Y-82600000D01*
X144814285Y-82647619D01*
X144766666Y-82742857D01*
X144766666Y-82838095D01*
X144814285Y-82980952D01*
X145385714Y-83552380D01*
X144766666Y-83552380D01*
X144385714Y-82647619D02*
X144338095Y-82600000D01*
X144242857Y-82552380D01*
X144004761Y-82552380D01*
X143909523Y-82600000D01*
X143861904Y-82647619D01*
X143814285Y-82742857D01*
X143814285Y-82838095D01*
X143861904Y-82980952D01*
X144433333Y-83552380D01*
X143814285Y-83552380D01*
X136438095Y-110302380D02*
X136438095Y-111111904D01*
X136390476Y-111207142D01*
X136342857Y-111254761D01*
X136247619Y-111302380D01*
X136057142Y-111302380D01*
X135961904Y-111254761D01*
X135914285Y-111207142D01*
X135866666Y-111111904D01*
X135866666Y-110302380D01*
X135438095Y-110397619D02*
X135390476Y-110350000D01*
X135295238Y-110302380D01*
X135057142Y-110302380D01*
X134961904Y-110350000D01*
X134914285Y-110397619D01*
X134866666Y-110492857D01*
X134866666Y-110588095D01*
X134914285Y-110730952D01*
X135485714Y-111302380D01*
X134866666Y-111302380D01*
X134247619Y-110302380D02*
X134152380Y-110302380D01*
X134057142Y-110350000D01*
X134009523Y-110397619D01*
X133961904Y-110492857D01*
X133914285Y-110683333D01*
X133914285Y-110921428D01*
X133961904Y-111111904D01*
X134009523Y-111207142D01*
X134057142Y-111254761D01*
X134152380Y-111302380D01*
X134247619Y-111302380D01*
X134342857Y-111254761D01*
X134390476Y-111207142D01*
X134438095Y-111111904D01*
X134485714Y-110921428D01*
X134485714Y-110683333D01*
X134438095Y-110492857D01*
X134390476Y-110397619D01*
X134342857Y-110350000D01*
X134247619Y-110302380D01*
X167438095Y-59252380D02*
X167438095Y-60061904D01*
X167390476Y-60157142D01*
X167342857Y-60204761D01*
X167247619Y-60252380D01*
X167057142Y-60252380D01*
X166961904Y-60204761D01*
X166914285Y-60157142D01*
X166866666Y-60061904D01*
X166866666Y-59252380D01*
X165866666Y-60252380D02*
X166438095Y-60252380D01*
X166152380Y-60252380D02*
X166152380Y-59252380D01*
X166247619Y-59395238D01*
X166342857Y-59490476D01*
X166438095Y-59538095D01*
X165533333Y-59252380D02*
X164866666Y-59252380D01*
X165295238Y-60252380D01*
X153838095Y-63602380D02*
X153838095Y-64411904D01*
X153790476Y-64507142D01*
X153742857Y-64554761D01*
X153647619Y-64602380D01*
X153457142Y-64602380D01*
X153361904Y-64554761D01*
X153314285Y-64507142D01*
X153266666Y-64411904D01*
X153266666Y-63602380D01*
X152266666Y-64602380D02*
X152838095Y-64602380D01*
X152552380Y-64602380D02*
X152552380Y-63602380D01*
X152647619Y-63745238D01*
X152742857Y-63840476D01*
X152838095Y-63888095D01*
X151409523Y-63602380D02*
X151600000Y-63602380D01*
X151695238Y-63650000D01*
X151742857Y-63697619D01*
X151838095Y-63840476D01*
X151885714Y-64030952D01*
X151885714Y-64411904D01*
X151838095Y-64507142D01*
X151790476Y-64554761D01*
X151695238Y-64602380D01*
X151504761Y-64602380D01*
X151409523Y-64554761D01*
X151361904Y-64507142D01*
X151314285Y-64411904D01*
X151314285Y-64173809D01*
X151361904Y-64078571D01*
X151409523Y-64030952D01*
X151504761Y-63983333D01*
X151695238Y-63983333D01*
X151790476Y-64030952D01*
X151838095Y-64078571D01*
X151885714Y-64173809D01*
X139038095Y-133202380D02*
X139038095Y-134011904D01*
X138990476Y-134107142D01*
X138942857Y-134154761D01*
X138847619Y-134202380D01*
X138657142Y-134202380D01*
X138561904Y-134154761D01*
X138514285Y-134107142D01*
X138466666Y-134011904D01*
X138466666Y-133202380D01*
X137466666Y-134202380D02*
X138038095Y-134202380D01*
X137752380Y-134202380D02*
X137752380Y-133202380D01*
X137847619Y-133345238D01*
X137942857Y-133440476D01*
X138038095Y-133488095D01*
X136561904Y-133202380D02*
X137038095Y-133202380D01*
X137085714Y-133678571D01*
X137038095Y-133630952D01*
X136942857Y-133583333D01*
X136704761Y-133583333D01*
X136609523Y-133630952D01*
X136561904Y-133678571D01*
X136514285Y-133773809D01*
X136514285Y-134011904D01*
X136561904Y-134107142D01*
X136609523Y-134154761D01*
X136704761Y-134202380D01*
X136942857Y-134202380D01*
X137038095Y-134154761D01*
X137085714Y-134107142D01*
X56928380Y-100757142D02*
X56452190Y-100423809D01*
X56928380Y-100185714D02*
X55928380Y-100185714D01*
X55928380Y-100566666D01*
X55976000Y-100661904D01*
X56023619Y-100709523D01*
X56118857Y-100757142D01*
X56261714Y-100757142D01*
X56356952Y-100709523D01*
X56404571Y-100661904D01*
X56452190Y-100566666D01*
X56452190Y-100185714D01*
X56928380Y-101709523D02*
X56928380Y-101138095D01*
X56928380Y-101423809D02*
X55928380Y-101423809D01*
X56071238Y-101328571D01*
X56166476Y-101233333D01*
X56214095Y-101138095D01*
X56261714Y-102566666D02*
X56928380Y-102566666D01*
X55880761Y-102328571D02*
X56595047Y-102090476D01*
X56595047Y-102709523D01*
X56928380Y-109957142D02*
X56452190Y-109623809D01*
X56928380Y-109385714D02*
X55928380Y-109385714D01*
X55928380Y-109766666D01*
X55976000Y-109861904D01*
X56023619Y-109909523D01*
X56118857Y-109957142D01*
X56261714Y-109957142D01*
X56356952Y-109909523D01*
X56404571Y-109861904D01*
X56452190Y-109766666D01*
X56452190Y-109385714D01*
X56928380Y-110909523D02*
X56928380Y-110338095D01*
X56928380Y-110623809D02*
X55928380Y-110623809D01*
X56071238Y-110528571D01*
X56166476Y-110433333D01*
X56214095Y-110338095D01*
X55928380Y-111242857D02*
X55928380Y-111861904D01*
X56309333Y-111528571D01*
X56309333Y-111671428D01*
X56356952Y-111766666D01*
X56404571Y-111814285D01*
X56499809Y-111861904D01*
X56737904Y-111861904D01*
X56833142Y-111814285D01*
X56880761Y-111766666D01*
X56928380Y-111671428D01*
X56928380Y-111385714D01*
X56880761Y-111290476D01*
X56833142Y-111242857D01*
X161842857Y-82452380D02*
X162176190Y-81976190D01*
X162414285Y-82452380D02*
X162414285Y-81452380D01*
X162033333Y-81452380D01*
X161938095Y-81500000D01*
X161890476Y-81547619D01*
X161842857Y-81642857D01*
X161842857Y-81785714D01*
X161890476Y-81880952D01*
X161938095Y-81928571D01*
X162033333Y-81976190D01*
X162414285Y-81976190D01*
X160890476Y-82452380D02*
X161461904Y-82452380D01*
X161176190Y-82452380D02*
X161176190Y-81452380D01*
X161271428Y-81595238D01*
X161366666Y-81690476D01*
X161461904Y-81738095D01*
X159938095Y-82452380D02*
X160509523Y-82452380D01*
X160223809Y-82452380D02*
X160223809Y-81452380D01*
X160319047Y-81595238D01*
X160414285Y-81690476D01*
X160509523Y-81738095D01*
X78352380Y-115633333D02*
X77876190Y-115300000D01*
X78352380Y-115061904D02*
X77352380Y-115061904D01*
X77352380Y-115442857D01*
X77400000Y-115538095D01*
X77447619Y-115585714D01*
X77542857Y-115633333D01*
X77685714Y-115633333D01*
X77780952Y-115585714D01*
X77828571Y-115538095D01*
X77876190Y-115442857D01*
X77876190Y-115061904D01*
X77352380Y-115966666D02*
X77352380Y-116633333D01*
X78352380Y-116204761D01*
X65566666Y-115876380D02*
X65900000Y-115400190D01*
X66138095Y-115876380D02*
X66138095Y-114876380D01*
X65757142Y-114876380D01*
X65661904Y-114924000D01*
X65614285Y-114971619D01*
X65566666Y-115066857D01*
X65566666Y-115209714D01*
X65614285Y-115304952D01*
X65661904Y-115352571D01*
X65757142Y-115400190D01*
X66138095Y-115400190D01*
X64661904Y-114876380D02*
X65138095Y-114876380D01*
X65185714Y-115352571D01*
X65138095Y-115304952D01*
X65042857Y-115257333D01*
X64804761Y-115257333D01*
X64709523Y-115304952D01*
X64661904Y-115352571D01*
X64614285Y-115447809D01*
X64614285Y-115685904D01*
X64661904Y-115781142D01*
X64709523Y-115828761D01*
X64804761Y-115876380D01*
X65042857Y-115876380D01*
X65138095Y-115828761D01*
X65185714Y-115781142D01*
X63552380Y-111183333D02*
X63076190Y-110850000D01*
X63552380Y-110611904D02*
X62552380Y-110611904D01*
X62552380Y-110992857D01*
X62600000Y-111088095D01*
X62647619Y-111135714D01*
X62742857Y-111183333D01*
X62885714Y-111183333D01*
X62980952Y-111135714D01*
X63028571Y-111088095D01*
X63076190Y-110992857D01*
X63076190Y-110611904D01*
X62885714Y-112040476D02*
X63552380Y-112040476D01*
X62504761Y-111802380D02*
X63219047Y-111564285D01*
X63219047Y-112183333D01*
X61752380Y-108133333D02*
X61276190Y-107800000D01*
X61752380Y-107561904D02*
X60752380Y-107561904D01*
X60752380Y-107942857D01*
X60800000Y-108038095D01*
X60847619Y-108085714D01*
X60942857Y-108133333D01*
X61085714Y-108133333D01*
X61180952Y-108085714D01*
X61228571Y-108038095D01*
X61276190Y-107942857D01*
X61276190Y-107561904D01*
X60752380Y-108466666D02*
X60752380Y-109085714D01*
X61133333Y-108752380D01*
X61133333Y-108895238D01*
X61180952Y-108990476D01*
X61228571Y-109038095D01*
X61323809Y-109085714D01*
X61561904Y-109085714D01*
X61657142Y-109038095D01*
X61704761Y-108990476D01*
X61752380Y-108895238D01*
X61752380Y-108609523D01*
X61704761Y-108514285D01*
X61657142Y-108466666D01*
X62266666Y-104752380D02*
X62600000Y-104276190D01*
X62838095Y-104752380D02*
X62838095Y-103752380D01*
X62457142Y-103752380D01*
X62361904Y-103800000D01*
X62314285Y-103847619D01*
X62266666Y-103942857D01*
X62266666Y-104085714D01*
X62314285Y-104180952D01*
X62361904Y-104228571D01*
X62457142Y-104276190D01*
X62838095Y-104276190D01*
X61885714Y-103847619D02*
X61838095Y-103800000D01*
X61742857Y-103752380D01*
X61504761Y-103752380D01*
X61409523Y-103800000D01*
X61361904Y-103847619D01*
X61314285Y-103942857D01*
X61314285Y-104038095D01*
X61361904Y-104180952D01*
X61933333Y-104752380D01*
X61314285Y-104752380D01*
X51594380Y-120523333D02*
X51118190Y-120190000D01*
X51594380Y-119951904D02*
X50594380Y-119951904D01*
X50594380Y-120332857D01*
X50642000Y-120428095D01*
X50689619Y-120475714D01*
X50784857Y-120523333D01*
X50927714Y-120523333D01*
X51022952Y-120475714D01*
X51070571Y-120428095D01*
X51118190Y-120332857D01*
X51118190Y-119951904D01*
X51594380Y-121475714D02*
X51594380Y-120904285D01*
X51594380Y-121190000D02*
X50594380Y-121190000D01*
X50737238Y-121094761D01*
X50832476Y-120999523D01*
X50880095Y-120904285D01*
X163042857Y-69657142D02*
X163090476Y-69704761D01*
X163233333Y-69752380D01*
X163328571Y-69752380D01*
X163471428Y-69704761D01*
X163566666Y-69609523D01*
X163614285Y-69514285D01*
X163661904Y-69323809D01*
X163661904Y-69180952D01*
X163614285Y-68990476D01*
X163566666Y-68895238D01*
X163471428Y-68800000D01*
X163328571Y-68752380D01*
X163233333Y-68752380D01*
X163090476Y-68800000D01*
X163042857Y-68847619D01*
X162090476Y-69752380D02*
X162661904Y-69752380D01*
X162376190Y-69752380D02*
X162376190Y-68752380D01*
X162471428Y-68895238D01*
X162566666Y-68990476D01*
X162661904Y-69038095D01*
X161709523Y-68847619D02*
X161661904Y-68800000D01*
X161566666Y-68752380D01*
X161328571Y-68752380D01*
X161233333Y-68800000D01*
X161185714Y-68847619D01*
X161138095Y-68942857D01*
X161138095Y-69038095D01*
X161185714Y-69180952D01*
X161757142Y-69752380D01*
X161138095Y-69752380D01*
X165657142Y-83657142D02*
X165704761Y-83609523D01*
X165752380Y-83466666D01*
X165752380Y-83371428D01*
X165704761Y-83228571D01*
X165609523Y-83133333D01*
X165514285Y-83085714D01*
X165323809Y-83038095D01*
X165180952Y-83038095D01*
X164990476Y-83085714D01*
X164895238Y-83133333D01*
X164800000Y-83228571D01*
X164752380Y-83371428D01*
X164752380Y-83466666D01*
X164800000Y-83609523D01*
X164847619Y-83657142D01*
X165752380Y-84609523D02*
X165752380Y-84038095D01*
X165752380Y-84323809D02*
X164752380Y-84323809D01*
X164895238Y-84228571D01*
X164990476Y-84133333D01*
X165038095Y-84038095D01*
X165752380Y-85561904D02*
X165752380Y-84990476D01*
X165752380Y-85276190D02*
X164752380Y-85276190D01*
X164895238Y-85180952D01*
X164990476Y-85085714D01*
X165038095Y-84990476D01*
X209142857Y-111027142D02*
X209190476Y-111074761D01*
X209333333Y-111122380D01*
X209428571Y-111122380D01*
X209571428Y-111074761D01*
X209666666Y-110979523D01*
X209714285Y-110884285D01*
X209761904Y-110693809D01*
X209761904Y-110550952D01*
X209714285Y-110360476D01*
X209666666Y-110265238D01*
X209571428Y-110170000D01*
X209428571Y-110122380D01*
X209333333Y-110122380D01*
X209190476Y-110170000D01*
X209142857Y-110217619D01*
X208190476Y-111122380D02*
X208761904Y-111122380D01*
X208476190Y-111122380D02*
X208476190Y-110122380D01*
X208571428Y-110265238D01*
X208666666Y-110360476D01*
X208761904Y-110408095D01*
X207571428Y-110122380D02*
X207476190Y-110122380D01*
X207380952Y-110170000D01*
X207333333Y-110217619D01*
X207285714Y-110312857D01*
X207238095Y-110503333D01*
X207238095Y-110741428D01*
X207285714Y-110931904D01*
X207333333Y-111027142D01*
X207380952Y-111074761D01*
X207476190Y-111122380D01*
X207571428Y-111122380D01*
X207666666Y-111074761D01*
X207714285Y-111027142D01*
X207761904Y-110931904D01*
X207809523Y-110741428D01*
X207809523Y-110503333D01*
X207761904Y-110312857D01*
X207714285Y-110217619D01*
X207666666Y-110170000D01*
X207571428Y-110122380D01*
X205366666Y-134127142D02*
X205414285Y-134174761D01*
X205557142Y-134222380D01*
X205652380Y-134222380D01*
X205795238Y-134174761D01*
X205890476Y-134079523D01*
X205938095Y-133984285D01*
X205985714Y-133793809D01*
X205985714Y-133650952D01*
X205938095Y-133460476D01*
X205890476Y-133365238D01*
X205795238Y-133270000D01*
X205652380Y-133222380D01*
X205557142Y-133222380D01*
X205414285Y-133270000D01*
X205366666Y-133317619D01*
X204890476Y-134222380D02*
X204700000Y-134222380D01*
X204604761Y-134174761D01*
X204557142Y-134127142D01*
X204461904Y-133984285D01*
X204414285Y-133793809D01*
X204414285Y-133412857D01*
X204461904Y-133317619D01*
X204509523Y-133270000D01*
X204604761Y-133222380D01*
X204795238Y-133222380D01*
X204890476Y-133270000D01*
X204938095Y-133317619D01*
X204985714Y-133412857D01*
X204985714Y-133650952D01*
X204938095Y-133746190D01*
X204890476Y-133793809D01*
X204795238Y-133841428D01*
X204604761Y-133841428D01*
X204509523Y-133793809D01*
X204461904Y-133746190D01*
X204414285Y-133650952D01*
X176166666Y-110457142D02*
X176214285Y-110504761D01*
X176357142Y-110552380D01*
X176452380Y-110552380D01*
X176595238Y-110504761D01*
X176690476Y-110409523D01*
X176738095Y-110314285D01*
X176785714Y-110123809D01*
X176785714Y-109980952D01*
X176738095Y-109790476D01*
X176690476Y-109695238D01*
X176595238Y-109600000D01*
X176452380Y-109552380D01*
X176357142Y-109552380D01*
X176214285Y-109600000D01*
X176166666Y-109647619D01*
X175595238Y-109980952D02*
X175690476Y-109933333D01*
X175738095Y-109885714D01*
X175785714Y-109790476D01*
X175785714Y-109742857D01*
X175738095Y-109647619D01*
X175690476Y-109600000D01*
X175595238Y-109552380D01*
X175404761Y-109552380D01*
X175309523Y-109600000D01*
X175261904Y-109647619D01*
X175214285Y-109742857D01*
X175214285Y-109790476D01*
X175261904Y-109885714D01*
X175309523Y-109933333D01*
X175404761Y-109980952D01*
X175595238Y-109980952D01*
X175690476Y-110028571D01*
X175738095Y-110076190D01*
X175785714Y-110171428D01*
X175785714Y-110361904D01*
X175738095Y-110457142D01*
X175690476Y-110504761D01*
X175595238Y-110552380D01*
X175404761Y-110552380D01*
X175309523Y-110504761D01*
X175261904Y-110457142D01*
X175214285Y-110361904D01*
X175214285Y-110171428D01*
X175261904Y-110076190D01*
X175309523Y-110028571D01*
X175404761Y-109980952D01*
X79366666Y-109657142D02*
X79414285Y-109704761D01*
X79557142Y-109752380D01*
X79652380Y-109752380D01*
X79795238Y-109704761D01*
X79890476Y-109609523D01*
X79938095Y-109514285D01*
X79985714Y-109323809D01*
X79985714Y-109180952D01*
X79938095Y-108990476D01*
X79890476Y-108895238D01*
X79795238Y-108800000D01*
X79652380Y-108752380D01*
X79557142Y-108752380D01*
X79414285Y-108800000D01*
X79366666Y-108847619D01*
X78509523Y-108752380D02*
X78700000Y-108752380D01*
X78795238Y-108800000D01*
X78842857Y-108847619D01*
X78938095Y-108990476D01*
X78985714Y-109180952D01*
X78985714Y-109561904D01*
X78938095Y-109657142D01*
X78890476Y-109704761D01*
X78795238Y-109752380D01*
X78604761Y-109752380D01*
X78509523Y-109704761D01*
X78461904Y-109657142D01*
X78414285Y-109561904D01*
X78414285Y-109323809D01*
X78461904Y-109228571D01*
X78509523Y-109180952D01*
X78604761Y-109133333D01*
X78795238Y-109133333D01*
X78890476Y-109180952D01*
X78938095Y-109228571D01*
X78985714Y-109323809D01*
X78157142Y-101733333D02*
X78204761Y-101685714D01*
X78252380Y-101542857D01*
X78252380Y-101447619D01*
X78204761Y-101304761D01*
X78109523Y-101209523D01*
X78014285Y-101161904D01*
X77823809Y-101114285D01*
X77680952Y-101114285D01*
X77490476Y-101161904D01*
X77395238Y-101209523D01*
X77300000Y-101304761D01*
X77252380Y-101447619D01*
X77252380Y-101542857D01*
X77300000Y-101685714D01*
X77347619Y-101733333D01*
X77252380Y-102638095D02*
X77252380Y-102161904D01*
X77728571Y-102114285D01*
X77680952Y-102161904D01*
X77633333Y-102257142D01*
X77633333Y-102495238D01*
X77680952Y-102590476D01*
X77728571Y-102638095D01*
X77823809Y-102685714D01*
X78061904Y-102685714D01*
X78157142Y-102638095D01*
X78204761Y-102590476D01*
X78252380Y-102495238D01*
X78252380Y-102257142D01*
X78204761Y-102161904D01*
X78157142Y-102114285D01*
X79366666Y-107957142D02*
X79414285Y-108004761D01*
X79557142Y-108052380D01*
X79652380Y-108052380D01*
X79795238Y-108004761D01*
X79890476Y-107909523D01*
X79938095Y-107814285D01*
X79985714Y-107623809D01*
X79985714Y-107480952D01*
X79938095Y-107290476D01*
X79890476Y-107195238D01*
X79795238Y-107100000D01*
X79652380Y-107052380D01*
X79557142Y-107052380D01*
X79414285Y-107100000D01*
X79366666Y-107147619D01*
X78509523Y-107385714D02*
X78509523Y-108052380D01*
X78747619Y-107004761D02*
X78985714Y-107719047D01*
X78366666Y-107719047D01*
X79857142Y-101733333D02*
X79904761Y-101685714D01*
X79952380Y-101542857D01*
X79952380Y-101447619D01*
X79904761Y-101304761D01*
X79809523Y-101209523D01*
X79714285Y-101161904D01*
X79523809Y-101114285D01*
X79380952Y-101114285D01*
X79190476Y-101161904D01*
X79095238Y-101209523D01*
X79000000Y-101304761D01*
X78952380Y-101447619D01*
X78952380Y-101542857D01*
X79000000Y-101685714D01*
X79047619Y-101733333D01*
X78952380Y-102066666D02*
X78952380Y-102685714D01*
X79333333Y-102352380D01*
X79333333Y-102495238D01*
X79380952Y-102590476D01*
X79428571Y-102638095D01*
X79523809Y-102685714D01*
X79761904Y-102685714D01*
X79857142Y-102638095D01*
X79904761Y-102590476D01*
X79952380Y-102495238D01*
X79952380Y-102209523D01*
X79904761Y-102114285D01*
X79857142Y-102066666D01*
X80679166Y-91857142D02*
X80726785Y-91904761D01*
X80869642Y-91952380D01*
X80964880Y-91952380D01*
X81107738Y-91904761D01*
X81202976Y-91809523D01*
X81250595Y-91714285D01*
X81298214Y-91523809D01*
X81298214Y-91380952D01*
X81250595Y-91190476D01*
X81202976Y-91095238D01*
X81107738Y-91000000D01*
X80964880Y-90952380D01*
X80869642Y-90952380D01*
X80726785Y-91000000D01*
X80679166Y-91047619D01*
X80298214Y-91047619D02*
X80250595Y-91000000D01*
X80155357Y-90952380D01*
X79917261Y-90952380D01*
X79822023Y-91000000D01*
X79774404Y-91047619D01*
X79726785Y-91142857D01*
X79726785Y-91238095D01*
X79774404Y-91380952D01*
X80345833Y-91952380D01*
X79726785Y-91952380D01*
X49667142Y-120513333D02*
X49714761Y-120465714D01*
X49762380Y-120322857D01*
X49762380Y-120227619D01*
X49714761Y-120084761D01*
X49619523Y-119989523D01*
X49524285Y-119941904D01*
X49333809Y-119894285D01*
X49190952Y-119894285D01*
X49000476Y-119941904D01*
X48905238Y-119989523D01*
X48810000Y-120084761D01*
X48762380Y-120227619D01*
X48762380Y-120322857D01*
X48810000Y-120465714D01*
X48857619Y-120513333D01*
X49762380Y-121465714D02*
X49762380Y-120894285D01*
X49762380Y-121180000D02*
X48762380Y-121180000D01*
X48905238Y-121084761D01*
X49000476Y-120989523D01*
X49048095Y-120894285D01*
X138352380Y-70457142D02*
X137876190Y-70123809D01*
X138352380Y-69885714D02*
X137352380Y-69885714D01*
X137352380Y-70266666D01*
X137400000Y-70361904D01*
X137447619Y-70409523D01*
X137542857Y-70457142D01*
X137685714Y-70457142D01*
X137780952Y-70409523D01*
X137828571Y-70361904D01*
X137876190Y-70266666D01*
X137876190Y-69885714D01*
X137447619Y-70838095D02*
X137400000Y-70885714D01*
X137352380Y-70980952D01*
X137352380Y-71219047D01*
X137400000Y-71314285D01*
X137447619Y-71361904D01*
X137542857Y-71409523D01*
X137638095Y-71409523D01*
X137780952Y-71361904D01*
X138352380Y-70790476D01*
X138352380Y-71409523D01*
X137352380Y-71742857D02*
X137352380Y-72361904D01*
X137733333Y-72028571D01*
X137733333Y-72171428D01*
X137780952Y-72266666D01*
X137828571Y-72314285D01*
X137923809Y-72361904D01*
X138161904Y-72361904D01*
X138257142Y-72314285D01*
X138304761Y-72266666D01*
X138352380Y-72171428D01*
X138352380Y-71885714D01*
X138304761Y-71790476D01*
X138257142Y-71742857D01*
X140052380Y-70457142D02*
X139576190Y-70123809D01*
X140052380Y-69885714D02*
X139052380Y-69885714D01*
X139052380Y-70266666D01*
X139100000Y-70361904D01*
X139147619Y-70409523D01*
X139242857Y-70457142D01*
X139385714Y-70457142D01*
X139480952Y-70409523D01*
X139528571Y-70361904D01*
X139576190Y-70266666D01*
X139576190Y-69885714D01*
X139147619Y-70838095D02*
X139100000Y-70885714D01*
X139052380Y-70980952D01*
X139052380Y-71219047D01*
X139100000Y-71314285D01*
X139147619Y-71361904D01*
X139242857Y-71409523D01*
X139338095Y-71409523D01*
X139480952Y-71361904D01*
X140052380Y-70790476D01*
X140052380Y-71409523D01*
X139147619Y-71790476D02*
X139100000Y-71838095D01*
X139052380Y-71933333D01*
X139052380Y-72171428D01*
X139100000Y-72266666D01*
X139147619Y-72314285D01*
X139242857Y-72361904D01*
X139338095Y-72361904D01*
X139480952Y-72314285D01*
X140052380Y-71742857D01*
X140052380Y-72361904D01*
X141752380Y-70457142D02*
X141276190Y-70123809D01*
X141752380Y-69885714D02*
X140752380Y-69885714D01*
X140752380Y-70266666D01*
X140800000Y-70361904D01*
X140847619Y-70409523D01*
X140942857Y-70457142D01*
X141085714Y-70457142D01*
X141180952Y-70409523D01*
X141228571Y-70361904D01*
X141276190Y-70266666D01*
X141276190Y-69885714D01*
X140847619Y-70838095D02*
X140800000Y-70885714D01*
X140752380Y-70980952D01*
X140752380Y-71219047D01*
X140800000Y-71314285D01*
X140847619Y-71361904D01*
X140942857Y-71409523D01*
X141038095Y-71409523D01*
X141180952Y-71361904D01*
X141752380Y-70790476D01*
X141752380Y-71409523D01*
X141752380Y-72361904D02*
X141752380Y-71790476D01*
X141752380Y-72076190D02*
X140752380Y-72076190D01*
X140895238Y-71980952D01*
X140990476Y-71885714D01*
X141038095Y-71790476D01*
X143352380Y-70457142D02*
X142876190Y-70123809D01*
X143352380Y-69885714D02*
X142352380Y-69885714D01*
X142352380Y-70266666D01*
X142400000Y-70361904D01*
X142447619Y-70409523D01*
X142542857Y-70457142D01*
X142685714Y-70457142D01*
X142780952Y-70409523D01*
X142828571Y-70361904D01*
X142876190Y-70266666D01*
X142876190Y-69885714D01*
X142447619Y-70838095D02*
X142400000Y-70885714D01*
X142352380Y-70980952D01*
X142352380Y-71219047D01*
X142400000Y-71314285D01*
X142447619Y-71361904D01*
X142542857Y-71409523D01*
X142638095Y-71409523D01*
X142780952Y-71361904D01*
X143352380Y-70790476D01*
X143352380Y-71409523D01*
X142352380Y-72028571D02*
X142352380Y-72123809D01*
X142400000Y-72219047D01*
X142447619Y-72266666D01*
X142542857Y-72314285D01*
X142733333Y-72361904D01*
X142971428Y-72361904D01*
X143161904Y-72314285D01*
X143257142Y-72266666D01*
X143304761Y-72219047D01*
X143352380Y-72123809D01*
X143352380Y-72028571D01*
X143304761Y-71933333D01*
X143257142Y-71885714D01*
X143161904Y-71838095D01*
X142971428Y-71790476D01*
X142733333Y-71790476D01*
X142542857Y-71838095D01*
X142447619Y-71885714D01*
X142400000Y-71933333D01*
X142352380Y-72028571D01*
X145152380Y-70457142D02*
X144676190Y-70123809D01*
X145152380Y-69885714D02*
X144152380Y-69885714D01*
X144152380Y-70266666D01*
X144200000Y-70361904D01*
X144247619Y-70409523D01*
X144342857Y-70457142D01*
X144485714Y-70457142D01*
X144580952Y-70409523D01*
X144628571Y-70361904D01*
X144676190Y-70266666D01*
X144676190Y-69885714D01*
X145152380Y-71409523D02*
X145152380Y-70838095D01*
X145152380Y-71123809D02*
X144152380Y-71123809D01*
X144295238Y-71028571D01*
X144390476Y-70933333D01*
X144438095Y-70838095D01*
X145152380Y-71885714D02*
X145152380Y-72076190D01*
X145104761Y-72171428D01*
X145057142Y-72219047D01*
X144914285Y-72314285D01*
X144723809Y-72361904D01*
X144342857Y-72361904D01*
X144247619Y-72314285D01*
X144200000Y-72266666D01*
X144152380Y-72171428D01*
X144152380Y-71980952D01*
X144200000Y-71885714D01*
X144247619Y-71838095D01*
X144342857Y-71790476D01*
X144580952Y-71790476D01*
X144676190Y-71838095D01*
X144723809Y-71885714D01*
X144771428Y-71980952D01*
X144771428Y-72171428D01*
X144723809Y-72266666D01*
X144676190Y-72314285D01*
X144580952Y-72361904D01*
X146752380Y-70457142D02*
X146276190Y-70123809D01*
X146752380Y-69885714D02*
X145752380Y-69885714D01*
X145752380Y-70266666D01*
X145800000Y-70361904D01*
X145847619Y-70409523D01*
X145942857Y-70457142D01*
X146085714Y-70457142D01*
X146180952Y-70409523D01*
X146228571Y-70361904D01*
X146276190Y-70266666D01*
X146276190Y-69885714D01*
X146752380Y-71409523D02*
X146752380Y-70838095D01*
X146752380Y-71123809D02*
X145752380Y-71123809D01*
X145895238Y-71028571D01*
X145990476Y-70933333D01*
X146038095Y-70838095D01*
X146180952Y-71980952D02*
X146133333Y-71885714D01*
X146085714Y-71838095D01*
X145990476Y-71790476D01*
X145942857Y-71790476D01*
X145847619Y-71838095D01*
X145800000Y-71885714D01*
X145752380Y-71980952D01*
X145752380Y-72171428D01*
X145800000Y-72266666D01*
X145847619Y-72314285D01*
X145942857Y-72361904D01*
X145990476Y-72361904D01*
X146085714Y-72314285D01*
X146133333Y-72266666D01*
X146180952Y-72171428D01*
X146180952Y-71980952D01*
X146228571Y-71885714D01*
X146276190Y-71838095D01*
X146371428Y-71790476D01*
X146561904Y-71790476D01*
X146657142Y-71838095D01*
X146704761Y-71885714D01*
X146752380Y-71980952D01*
X146752380Y-72171428D01*
X146704761Y-72266666D01*
X146657142Y-72314285D01*
X146561904Y-72361904D01*
X146371428Y-72361904D01*
X146276190Y-72314285D01*
X146228571Y-72266666D01*
X146180952Y-72171428D01*
X148452380Y-70457142D02*
X147976190Y-70123809D01*
X148452380Y-69885714D02*
X147452380Y-69885714D01*
X147452380Y-70266666D01*
X147500000Y-70361904D01*
X147547619Y-70409523D01*
X147642857Y-70457142D01*
X147785714Y-70457142D01*
X147880952Y-70409523D01*
X147928571Y-70361904D01*
X147976190Y-70266666D01*
X147976190Y-69885714D01*
X148452380Y-71409523D02*
X148452380Y-70838095D01*
X148452380Y-71123809D02*
X147452380Y-71123809D01*
X147595238Y-71028571D01*
X147690476Y-70933333D01*
X147738095Y-70838095D01*
X147452380Y-71742857D02*
X147452380Y-72409523D01*
X148452380Y-71980952D01*
M02*
