G04 #@! TF.GenerationSoftware,KiCad,Pcbnew,5.1.6-c6e7f7d~87~ubuntu18.04.1*
G04 #@! TF.CreationDate,2020-08-16T18:02:23-07:00*
G04 #@! TF.ProjectId,spla-board,73706c61-2d62-46f6-9172-642e6b696361,10*
G04 #@! TF.SameCoordinates,Original*
G04 #@! TF.FileFunction,Paste,Bot*
G04 #@! TF.FilePolarity,Positive*
%FSLAX46Y46*%
G04 Gerber Fmt 4.6, Leading zero omitted, Abs format (unit mm)*
G04 Created by KiCad (PCBNEW 5.1.6-c6e7f7d~87~ubuntu18.04.1) date 2020-08-16 18:02:23*
%MOMM*%
%LPD*%
G01*
G04 APERTURE LIST*
G04 #@! TA.AperFunction,Profile*
%ADD10C,0.050000*%
G04 #@! TD*
%ADD11R,1.100000X0.400000*%
%ADD12R,1.600000X1.300000*%
%ADD13R,0.400000X1.100000*%
G04 APERTURE END LIST*
D10*
X53000000Y-155000000D02*
X53000000Y-48000000D01*
X218000000Y-48000000D02*
X218000000Y-155000000D01*
X53000000Y-48000000D02*
X218000000Y-48000000D01*
X53000000Y-155000000D02*
X218000000Y-155000000D01*
G36*
G01*
X175956250Y-97950000D02*
X175043750Y-97950000D01*
G75*
G02*
X174800000Y-97706250I0J243750D01*
G01*
X174800000Y-97218750D01*
G75*
G02*
X175043750Y-96975000I243750J0D01*
G01*
X175956250Y-96975000D01*
G75*
G02*
X176200000Y-97218750I0J-243750D01*
G01*
X176200000Y-97706250D01*
G75*
G02*
X175956250Y-97950000I-243750J0D01*
G01*
G37*
G36*
G01*
X175956250Y-99825000D02*
X175043750Y-99825000D01*
G75*
G02*
X174800000Y-99581250I0J243750D01*
G01*
X174800000Y-99093750D01*
G75*
G02*
X175043750Y-98850000I243750J0D01*
G01*
X175956250Y-98850000D01*
G75*
G02*
X176200000Y-99093750I0J-243750D01*
G01*
X176200000Y-99581250D01*
G75*
G02*
X175956250Y-99825000I-243750J0D01*
G01*
G37*
G36*
G01*
X159950000Y-140543750D02*
X159950000Y-141456250D01*
G75*
G02*
X159706250Y-141700000I-243750J0D01*
G01*
X159218750Y-141700000D01*
G75*
G02*
X158975000Y-141456250I0J243750D01*
G01*
X158975000Y-140543750D01*
G75*
G02*
X159218750Y-140300000I243750J0D01*
G01*
X159706250Y-140300000D01*
G75*
G02*
X159950000Y-140543750I0J-243750D01*
G01*
G37*
G36*
G01*
X161825000Y-140543750D02*
X161825000Y-141456250D01*
G75*
G02*
X161581250Y-141700000I-243750J0D01*
G01*
X161093750Y-141700000D01*
G75*
G02*
X160850000Y-141456250I0J243750D01*
G01*
X160850000Y-140543750D01*
G75*
G02*
X161093750Y-140300000I243750J0D01*
G01*
X161581250Y-140300000D01*
G75*
G02*
X161825000Y-140543750I0J-243750D01*
G01*
G37*
G36*
G01*
X161550000Y-85556250D02*
X161550000Y-85043750D01*
G75*
G02*
X161768750Y-84825000I218750J0D01*
G01*
X162206250Y-84825000D01*
G75*
G02*
X162425000Y-85043750I0J-218750D01*
G01*
X162425000Y-85556250D01*
G75*
G02*
X162206250Y-85775000I-218750J0D01*
G01*
X161768750Y-85775000D01*
G75*
G02*
X161550000Y-85556250I0J218750D01*
G01*
G37*
G36*
G01*
X159975000Y-85556250D02*
X159975000Y-85043750D01*
G75*
G02*
X160193750Y-84825000I218750J0D01*
G01*
X160631250Y-84825000D01*
G75*
G02*
X160850000Y-85043750I0J-218750D01*
G01*
X160850000Y-85556250D01*
G75*
G02*
X160631250Y-85775000I-218750J0D01*
G01*
X160193750Y-85775000D01*
G75*
G02*
X159975000Y-85556250I0J218750D01*
G01*
G37*
G36*
G01*
X159950000Y-113843750D02*
X159950000Y-114356250D01*
G75*
G02*
X159731250Y-114575000I-218750J0D01*
G01*
X159293750Y-114575000D01*
G75*
G02*
X159075000Y-114356250I0J218750D01*
G01*
X159075000Y-113843750D01*
G75*
G02*
X159293750Y-113625000I218750J0D01*
G01*
X159731250Y-113625000D01*
G75*
G02*
X159950000Y-113843750I0J-218750D01*
G01*
G37*
G36*
G01*
X161525000Y-113843750D02*
X161525000Y-114356250D01*
G75*
G02*
X161306250Y-114575000I-218750J0D01*
G01*
X160868750Y-114575000D01*
G75*
G02*
X160650000Y-114356250I0J218750D01*
G01*
X160650000Y-113843750D01*
G75*
G02*
X160868750Y-113625000I218750J0D01*
G01*
X161306250Y-113625000D01*
G75*
G02*
X161525000Y-113843750I0J-218750D01*
G01*
G37*
G36*
G01*
X157543750Y-73150000D02*
X158056250Y-73150000D01*
G75*
G02*
X158275000Y-73368750I0J-218750D01*
G01*
X158275000Y-73806250D01*
G75*
G02*
X158056250Y-74025000I-218750J0D01*
G01*
X157543750Y-74025000D01*
G75*
G02*
X157325000Y-73806250I0J218750D01*
G01*
X157325000Y-73368750D01*
G75*
G02*
X157543750Y-73150000I218750J0D01*
G01*
G37*
G36*
G01*
X157543750Y-71575000D02*
X158056250Y-71575000D01*
G75*
G02*
X158275000Y-71793750I0J-218750D01*
G01*
X158275000Y-72231250D01*
G75*
G02*
X158056250Y-72450000I-218750J0D01*
G01*
X157543750Y-72450000D01*
G75*
G02*
X157325000Y-72231250I0J218750D01*
G01*
X157325000Y-71793750D01*
G75*
G02*
X157543750Y-71575000I218750J0D01*
G01*
G37*
G36*
G01*
X177050000Y-132243750D02*
X177050000Y-132756250D01*
G75*
G02*
X176831250Y-132975000I-218750J0D01*
G01*
X176393750Y-132975000D01*
G75*
G02*
X176175000Y-132756250I0J218750D01*
G01*
X176175000Y-132243750D01*
G75*
G02*
X176393750Y-132025000I218750J0D01*
G01*
X176831250Y-132025000D01*
G75*
G02*
X177050000Y-132243750I0J-218750D01*
G01*
G37*
G36*
G01*
X178625000Y-132243750D02*
X178625000Y-132756250D01*
G75*
G02*
X178406250Y-132975000I-218750J0D01*
G01*
X177968750Y-132975000D01*
G75*
G02*
X177750000Y-132756250I0J218750D01*
G01*
X177750000Y-132243750D01*
G75*
G02*
X177968750Y-132025000I218750J0D01*
G01*
X178406250Y-132025000D01*
G75*
G02*
X178625000Y-132243750I0J-218750D01*
G01*
G37*
G36*
G01*
X162656250Y-67550000D02*
X162143750Y-67550000D01*
G75*
G02*
X161925000Y-67331250I0J218750D01*
G01*
X161925000Y-66893750D01*
G75*
G02*
X162143750Y-66675000I218750J0D01*
G01*
X162656250Y-66675000D01*
G75*
G02*
X162875000Y-66893750I0J-218750D01*
G01*
X162875000Y-67331250D01*
G75*
G02*
X162656250Y-67550000I-218750J0D01*
G01*
G37*
G36*
G01*
X162656250Y-69125000D02*
X162143750Y-69125000D01*
G75*
G02*
X161925000Y-68906250I0J218750D01*
G01*
X161925000Y-68468750D01*
G75*
G02*
X162143750Y-68250000I218750J0D01*
G01*
X162656250Y-68250000D01*
G75*
G02*
X162875000Y-68468750I0J-218750D01*
G01*
X162875000Y-68906250D01*
G75*
G02*
X162656250Y-69125000I-218750J0D01*
G01*
G37*
G36*
G01*
X164456250Y-67550000D02*
X163943750Y-67550000D01*
G75*
G02*
X163725000Y-67331250I0J218750D01*
G01*
X163725000Y-66893750D01*
G75*
G02*
X163943750Y-66675000I218750J0D01*
G01*
X164456250Y-66675000D01*
G75*
G02*
X164675000Y-66893750I0J-218750D01*
G01*
X164675000Y-67331250D01*
G75*
G02*
X164456250Y-67550000I-218750J0D01*
G01*
G37*
G36*
G01*
X164456250Y-69125000D02*
X163943750Y-69125000D01*
G75*
G02*
X163725000Y-68906250I0J218750D01*
G01*
X163725000Y-68468750D01*
G75*
G02*
X163943750Y-68250000I218750J0D01*
G01*
X164456250Y-68250000D01*
G75*
G02*
X164675000Y-68468750I0J-218750D01*
G01*
X164675000Y-68906250D01*
G75*
G02*
X164456250Y-69125000I-218750J0D01*
G01*
G37*
G36*
G01*
X162250000Y-106056250D02*
X162250000Y-105543750D01*
G75*
G02*
X162468750Y-105325000I218750J0D01*
G01*
X162906250Y-105325000D01*
G75*
G02*
X163125000Y-105543750I0J-218750D01*
G01*
X163125000Y-106056250D01*
G75*
G02*
X162906250Y-106275000I-218750J0D01*
G01*
X162468750Y-106275000D01*
G75*
G02*
X162250000Y-106056250I0J218750D01*
G01*
G37*
G36*
G01*
X160675000Y-106056250D02*
X160675000Y-105543750D01*
G75*
G02*
X160893750Y-105325000I218750J0D01*
G01*
X161331250Y-105325000D01*
G75*
G02*
X161550000Y-105543750I0J-218750D01*
G01*
X161550000Y-106056250D01*
G75*
G02*
X161331250Y-106275000I-218750J0D01*
G01*
X160893750Y-106275000D01*
G75*
G02*
X160675000Y-106056250I0J218750D01*
G01*
G37*
G36*
G01*
X159056250Y-106250000D02*
X158543750Y-106250000D01*
G75*
G02*
X158325000Y-106031250I0J218750D01*
G01*
X158325000Y-105593750D01*
G75*
G02*
X158543750Y-105375000I218750J0D01*
G01*
X159056250Y-105375000D01*
G75*
G02*
X159275000Y-105593750I0J-218750D01*
G01*
X159275000Y-106031250D01*
G75*
G02*
X159056250Y-106250000I-218750J0D01*
G01*
G37*
G36*
G01*
X159056250Y-107825000D02*
X158543750Y-107825000D01*
G75*
G02*
X158325000Y-107606250I0J218750D01*
G01*
X158325000Y-107168750D01*
G75*
G02*
X158543750Y-106950000I218750J0D01*
G01*
X159056250Y-106950000D01*
G75*
G02*
X159275000Y-107168750I0J-218750D01*
G01*
X159275000Y-107606250D01*
G75*
G02*
X159056250Y-107825000I-218750J0D01*
G01*
G37*
G36*
G01*
X68750000Y-91056250D02*
X68750000Y-90543750D01*
G75*
G02*
X68968750Y-90325000I218750J0D01*
G01*
X69406250Y-90325000D01*
G75*
G02*
X69625000Y-90543750I0J-218750D01*
G01*
X69625000Y-91056250D01*
G75*
G02*
X69406250Y-91275000I-218750J0D01*
G01*
X68968750Y-91275000D01*
G75*
G02*
X68750000Y-91056250I0J218750D01*
G01*
G37*
G36*
G01*
X67175000Y-91056250D02*
X67175000Y-90543750D01*
G75*
G02*
X67393750Y-90325000I218750J0D01*
G01*
X67831250Y-90325000D01*
G75*
G02*
X68050000Y-90543750I0J-218750D01*
G01*
X68050000Y-91056250D01*
G75*
G02*
X67831250Y-91275000I-218750J0D01*
G01*
X67393750Y-91275000D01*
G75*
G02*
X67175000Y-91056250I0J218750D01*
G01*
G37*
G36*
G01*
X61643750Y-99037500D02*
X62156250Y-99037500D01*
G75*
G02*
X62375000Y-99256250I0J-218750D01*
G01*
X62375000Y-99693750D01*
G75*
G02*
X62156250Y-99912500I-218750J0D01*
G01*
X61643750Y-99912500D01*
G75*
G02*
X61425000Y-99693750I0J218750D01*
G01*
X61425000Y-99256250D01*
G75*
G02*
X61643750Y-99037500I218750J0D01*
G01*
G37*
G36*
G01*
X61643750Y-97462500D02*
X62156250Y-97462500D01*
G75*
G02*
X62375000Y-97681250I0J-218750D01*
G01*
X62375000Y-98118750D01*
G75*
G02*
X62156250Y-98337500I-218750J0D01*
G01*
X61643750Y-98337500D01*
G75*
G02*
X61425000Y-98118750I0J218750D01*
G01*
X61425000Y-97681250D01*
G75*
G02*
X61643750Y-97462500I218750J0D01*
G01*
G37*
D11*
X159850000Y-122975000D03*
X159850000Y-122325000D03*
X159850000Y-121675000D03*
X159850000Y-121025000D03*
X159850000Y-120375000D03*
X159850000Y-119725000D03*
X159850000Y-119075000D03*
X159850000Y-118425000D03*
X159850000Y-117775000D03*
X159850000Y-117125000D03*
X159850000Y-116475000D03*
X159850000Y-115825000D03*
X154150000Y-115825000D03*
X154150000Y-116475000D03*
X154150000Y-117125000D03*
X154150000Y-117775000D03*
X154150000Y-118425000D03*
X154150000Y-119075000D03*
X154150000Y-119725000D03*
X154150000Y-120375000D03*
X154150000Y-121025000D03*
X154150000Y-121675000D03*
X154150000Y-122325000D03*
X154150000Y-122975000D03*
G36*
G01*
X68750000Y-95056250D02*
X68750000Y-94543750D01*
G75*
G02*
X68968750Y-94325000I218750J0D01*
G01*
X69406250Y-94325000D01*
G75*
G02*
X69625000Y-94543750I0J-218750D01*
G01*
X69625000Y-95056250D01*
G75*
G02*
X69406250Y-95275000I-218750J0D01*
G01*
X68968750Y-95275000D01*
G75*
G02*
X68750000Y-95056250I0J218750D01*
G01*
G37*
G36*
G01*
X67175000Y-95056250D02*
X67175000Y-94543750D01*
G75*
G02*
X67393750Y-94325000I218750J0D01*
G01*
X67831250Y-94325000D01*
G75*
G02*
X68050000Y-94543750I0J-218750D01*
G01*
X68050000Y-95056250D01*
G75*
G02*
X67831250Y-95275000I-218750J0D01*
G01*
X67393750Y-95275000D01*
G75*
G02*
X67175000Y-95056250I0J218750D01*
G01*
G37*
G36*
G01*
X85950000Y-85056250D02*
X85950000Y-84543750D01*
G75*
G02*
X86168750Y-84325000I218750J0D01*
G01*
X86606250Y-84325000D01*
G75*
G02*
X86825000Y-84543750I0J-218750D01*
G01*
X86825000Y-85056250D01*
G75*
G02*
X86606250Y-85275000I-218750J0D01*
G01*
X86168750Y-85275000D01*
G75*
G02*
X85950000Y-85056250I0J218750D01*
G01*
G37*
G36*
G01*
X84375000Y-85056250D02*
X84375000Y-84543750D01*
G75*
G02*
X84593750Y-84325000I218750J0D01*
G01*
X85031250Y-84325000D01*
G75*
G02*
X85250000Y-84543750I0J-218750D01*
G01*
X85250000Y-85056250D01*
G75*
G02*
X85031250Y-85275000I-218750J0D01*
G01*
X84593750Y-85275000D01*
G75*
G02*
X84375000Y-85056250I0J218750D01*
G01*
G37*
G36*
G01*
X62343750Y-121950000D02*
X62856250Y-121950000D01*
G75*
G02*
X63075000Y-122168750I0J-218750D01*
G01*
X63075000Y-122606250D01*
G75*
G02*
X62856250Y-122825000I-218750J0D01*
G01*
X62343750Y-122825000D01*
G75*
G02*
X62125000Y-122606250I0J218750D01*
G01*
X62125000Y-122168750D01*
G75*
G02*
X62343750Y-121950000I218750J0D01*
G01*
G37*
G36*
G01*
X62343750Y-120375000D02*
X62856250Y-120375000D01*
G75*
G02*
X63075000Y-120593750I0J-218750D01*
G01*
X63075000Y-121031250D01*
G75*
G02*
X62856250Y-121250000I-218750J0D01*
G01*
X62343750Y-121250000D01*
G75*
G02*
X62125000Y-121031250I0J218750D01*
G01*
X62125000Y-120593750D01*
G75*
G02*
X62343750Y-120375000I218750J0D01*
G01*
G37*
G36*
G01*
X64343750Y-121950000D02*
X64856250Y-121950000D01*
G75*
G02*
X65075000Y-122168750I0J-218750D01*
G01*
X65075000Y-122606250D01*
G75*
G02*
X64856250Y-122825000I-218750J0D01*
G01*
X64343750Y-122825000D01*
G75*
G02*
X64125000Y-122606250I0J218750D01*
G01*
X64125000Y-122168750D01*
G75*
G02*
X64343750Y-121950000I218750J0D01*
G01*
G37*
G36*
G01*
X64343750Y-120375000D02*
X64856250Y-120375000D01*
G75*
G02*
X65075000Y-120593750I0J-218750D01*
G01*
X65075000Y-121031250D01*
G75*
G02*
X64856250Y-121250000I-218750J0D01*
G01*
X64343750Y-121250000D01*
G75*
G02*
X64125000Y-121031250I0J218750D01*
G01*
X64125000Y-120593750D01*
G75*
G02*
X64343750Y-120375000I218750J0D01*
G01*
G37*
G36*
G01*
X74150000Y-103756250D02*
X74150000Y-103243750D01*
G75*
G02*
X74368750Y-103025000I218750J0D01*
G01*
X74806250Y-103025000D01*
G75*
G02*
X75025000Y-103243750I0J-218750D01*
G01*
X75025000Y-103756250D01*
G75*
G02*
X74806250Y-103975000I-218750J0D01*
G01*
X74368750Y-103975000D01*
G75*
G02*
X74150000Y-103756250I0J218750D01*
G01*
G37*
G36*
G01*
X72575000Y-103756250D02*
X72575000Y-103243750D01*
G75*
G02*
X72793750Y-103025000I218750J0D01*
G01*
X73231250Y-103025000D01*
G75*
G02*
X73450000Y-103243750I0J-218750D01*
G01*
X73450000Y-103756250D01*
G75*
G02*
X73231250Y-103975000I-218750J0D01*
G01*
X72793750Y-103975000D01*
G75*
G02*
X72575000Y-103756250I0J218750D01*
G01*
G37*
D12*
X75400000Y-95700000D03*
X78700000Y-95700000D03*
X78700000Y-93700000D03*
X75400000Y-93700000D03*
G36*
G01*
X85950000Y-88456250D02*
X85950000Y-87943750D01*
G75*
G02*
X86168750Y-87725000I218750J0D01*
G01*
X86606250Y-87725000D01*
G75*
G02*
X86825000Y-87943750I0J-218750D01*
G01*
X86825000Y-88456250D01*
G75*
G02*
X86606250Y-88675000I-218750J0D01*
G01*
X86168750Y-88675000D01*
G75*
G02*
X85950000Y-88456250I0J218750D01*
G01*
G37*
G36*
G01*
X84375000Y-88456250D02*
X84375000Y-87943750D01*
G75*
G02*
X84593750Y-87725000I218750J0D01*
G01*
X85031250Y-87725000D01*
G75*
G02*
X85250000Y-87943750I0J-218750D01*
G01*
X85250000Y-88456250D01*
G75*
G02*
X85031250Y-88675000I-218750J0D01*
G01*
X84593750Y-88675000D01*
G75*
G02*
X84375000Y-88456250I0J218750D01*
G01*
G37*
G36*
G01*
X128300000Y-101006250D02*
X128300000Y-100493750D01*
G75*
G02*
X128518750Y-100275000I218750J0D01*
G01*
X128956250Y-100275000D01*
G75*
G02*
X129175000Y-100493750I0J-218750D01*
G01*
X129175000Y-101006250D01*
G75*
G02*
X128956250Y-101225000I-218750J0D01*
G01*
X128518750Y-101225000D01*
G75*
G02*
X128300000Y-101006250I0J218750D01*
G01*
G37*
G36*
G01*
X126725000Y-101006250D02*
X126725000Y-100493750D01*
G75*
G02*
X126943750Y-100275000I218750J0D01*
G01*
X127381250Y-100275000D01*
G75*
G02*
X127600000Y-100493750I0J-218750D01*
G01*
X127600000Y-101006250D01*
G75*
G02*
X127381250Y-101225000I-218750J0D01*
G01*
X126943750Y-101225000D01*
G75*
G02*
X126725000Y-101006250I0J218750D01*
G01*
G37*
G36*
G01*
X150950000Y-65856250D02*
X150950000Y-65343750D01*
G75*
G02*
X151168750Y-65125000I218750J0D01*
G01*
X151606250Y-65125000D01*
G75*
G02*
X151825000Y-65343750I0J-218750D01*
G01*
X151825000Y-65856250D01*
G75*
G02*
X151606250Y-66075000I-218750J0D01*
G01*
X151168750Y-66075000D01*
G75*
G02*
X150950000Y-65856250I0J218750D01*
G01*
G37*
G36*
G01*
X149375000Y-65856250D02*
X149375000Y-65343750D01*
G75*
G02*
X149593750Y-65125000I218750J0D01*
G01*
X150031250Y-65125000D01*
G75*
G02*
X150250000Y-65343750I0J-218750D01*
G01*
X150250000Y-65856250D01*
G75*
G02*
X150031250Y-66075000I-218750J0D01*
G01*
X149593750Y-66075000D01*
G75*
G02*
X149375000Y-65856250I0J218750D01*
G01*
G37*
G36*
G01*
X81456250Y-115450000D02*
X80943750Y-115450000D01*
G75*
G02*
X80725000Y-115231250I0J218750D01*
G01*
X80725000Y-114793750D01*
G75*
G02*
X80943750Y-114575000I218750J0D01*
G01*
X81456250Y-114575000D01*
G75*
G02*
X81675000Y-114793750I0J-218750D01*
G01*
X81675000Y-115231250D01*
G75*
G02*
X81456250Y-115450000I-218750J0D01*
G01*
G37*
G36*
G01*
X81456250Y-117025000D02*
X80943750Y-117025000D01*
G75*
G02*
X80725000Y-116806250I0J218750D01*
G01*
X80725000Y-116368750D01*
G75*
G02*
X80943750Y-116150000I218750J0D01*
G01*
X81456250Y-116150000D01*
G75*
G02*
X81675000Y-116368750I0J-218750D01*
G01*
X81675000Y-116806250D01*
G75*
G02*
X81456250Y-117025000I-218750J0D01*
G01*
G37*
G36*
G01*
X107110000Y-93577500D02*
X107110000Y-93922500D01*
G75*
G02*
X106962500Y-94070000I-147500J0D01*
G01*
X106667500Y-94070000D01*
G75*
G02*
X106520000Y-93922500I0J147500D01*
G01*
X106520000Y-93577500D01*
G75*
G02*
X106667500Y-93430000I147500J0D01*
G01*
X106962500Y-93430000D01*
G75*
G02*
X107110000Y-93577500I0J-147500D01*
G01*
G37*
G36*
G01*
X108080000Y-93577500D02*
X108080000Y-93922500D01*
G75*
G02*
X107932500Y-94070000I-147500J0D01*
G01*
X107637500Y-94070000D01*
G75*
G02*
X107490000Y-93922500I0J147500D01*
G01*
X107490000Y-93577500D01*
G75*
G02*
X107637500Y-93430000I147500J0D01*
G01*
X107932500Y-93430000D01*
G75*
G02*
X108080000Y-93577500I0J-147500D01*
G01*
G37*
G36*
G01*
X138950000Y-89143750D02*
X138950000Y-89656250D01*
G75*
G02*
X138731250Y-89875000I-218750J0D01*
G01*
X138293750Y-89875000D01*
G75*
G02*
X138075000Y-89656250I0J218750D01*
G01*
X138075000Y-89143750D01*
G75*
G02*
X138293750Y-88925000I218750J0D01*
G01*
X138731250Y-88925000D01*
G75*
G02*
X138950000Y-89143750I0J-218750D01*
G01*
G37*
G36*
G01*
X140525000Y-89143750D02*
X140525000Y-89656250D01*
G75*
G02*
X140306250Y-89875000I-218750J0D01*
G01*
X139868750Y-89875000D01*
G75*
G02*
X139650000Y-89656250I0J218750D01*
G01*
X139650000Y-89143750D01*
G75*
G02*
X139868750Y-88925000I218750J0D01*
G01*
X140306250Y-88925000D01*
G75*
G02*
X140525000Y-89143750I0J-218750D01*
G01*
G37*
G36*
G01*
X95572500Y-98610000D02*
X95227500Y-98610000D01*
G75*
G02*
X95080000Y-98462500I0J147500D01*
G01*
X95080000Y-98167500D01*
G75*
G02*
X95227500Y-98020000I147500J0D01*
G01*
X95572500Y-98020000D01*
G75*
G02*
X95720000Y-98167500I0J-147500D01*
G01*
X95720000Y-98462500D01*
G75*
G02*
X95572500Y-98610000I-147500J0D01*
G01*
G37*
G36*
G01*
X95572500Y-99580000D02*
X95227500Y-99580000D01*
G75*
G02*
X95080000Y-99432500I0J147500D01*
G01*
X95080000Y-99137500D01*
G75*
G02*
X95227500Y-98990000I147500J0D01*
G01*
X95572500Y-98990000D01*
G75*
G02*
X95720000Y-99137500I0J-147500D01*
G01*
X95720000Y-99432500D01*
G75*
G02*
X95572500Y-99580000I-147500J0D01*
G01*
G37*
G36*
G01*
X97822500Y-101260000D02*
X97477500Y-101260000D01*
G75*
G02*
X97330000Y-101112500I0J147500D01*
G01*
X97330000Y-100817500D01*
G75*
G02*
X97477500Y-100670000I147500J0D01*
G01*
X97822500Y-100670000D01*
G75*
G02*
X97970000Y-100817500I0J-147500D01*
G01*
X97970000Y-101112500D01*
G75*
G02*
X97822500Y-101260000I-147500J0D01*
G01*
G37*
G36*
G01*
X97822500Y-102230000D02*
X97477500Y-102230000D01*
G75*
G02*
X97330000Y-102082500I0J147500D01*
G01*
X97330000Y-101787500D01*
G75*
G02*
X97477500Y-101640000I147500J0D01*
G01*
X97822500Y-101640000D01*
G75*
G02*
X97970000Y-101787500I0J-147500D01*
G01*
X97970000Y-102082500D01*
G75*
G02*
X97822500Y-102230000I-147500J0D01*
G01*
G37*
G36*
G01*
X98772500Y-101810000D02*
X98427500Y-101810000D01*
G75*
G02*
X98280000Y-101662500I0J147500D01*
G01*
X98280000Y-101367500D01*
G75*
G02*
X98427500Y-101220000I147500J0D01*
G01*
X98772500Y-101220000D01*
G75*
G02*
X98920000Y-101367500I0J-147500D01*
G01*
X98920000Y-101662500D01*
G75*
G02*
X98772500Y-101810000I-147500J0D01*
G01*
G37*
G36*
G01*
X98772500Y-102780000D02*
X98427500Y-102780000D01*
G75*
G02*
X98280000Y-102632500I0J147500D01*
G01*
X98280000Y-102337500D01*
G75*
G02*
X98427500Y-102190000I147500J0D01*
G01*
X98772500Y-102190000D01*
G75*
G02*
X98920000Y-102337500I0J-147500D01*
G01*
X98920000Y-102632500D01*
G75*
G02*
X98772500Y-102780000I-147500J0D01*
G01*
G37*
G36*
G01*
X103972500Y-108780000D02*
X103627500Y-108780000D01*
G75*
G02*
X103480000Y-108632500I0J147500D01*
G01*
X103480000Y-108337500D01*
G75*
G02*
X103627500Y-108190000I147500J0D01*
G01*
X103972500Y-108190000D01*
G75*
G02*
X104120000Y-108337500I0J-147500D01*
G01*
X104120000Y-108632500D01*
G75*
G02*
X103972500Y-108780000I-147500J0D01*
G01*
G37*
G36*
G01*
X103972500Y-107810000D02*
X103627500Y-107810000D01*
G75*
G02*
X103480000Y-107662500I0J147500D01*
G01*
X103480000Y-107367500D01*
G75*
G02*
X103627500Y-107220000I147500J0D01*
G01*
X103972500Y-107220000D01*
G75*
G02*
X104120000Y-107367500I0J-147500D01*
G01*
X104120000Y-107662500D01*
G75*
G02*
X103972500Y-107810000I-147500J0D01*
G01*
G37*
G36*
G01*
X90456250Y-111050000D02*
X89943750Y-111050000D01*
G75*
G02*
X89725000Y-110831250I0J218750D01*
G01*
X89725000Y-110393750D01*
G75*
G02*
X89943750Y-110175000I218750J0D01*
G01*
X90456250Y-110175000D01*
G75*
G02*
X90675000Y-110393750I0J-218750D01*
G01*
X90675000Y-110831250D01*
G75*
G02*
X90456250Y-111050000I-218750J0D01*
G01*
G37*
G36*
G01*
X90456250Y-112625000D02*
X89943750Y-112625000D01*
G75*
G02*
X89725000Y-112406250I0J218750D01*
G01*
X89725000Y-111968750D01*
G75*
G02*
X89943750Y-111750000I218750J0D01*
G01*
X90456250Y-111750000D01*
G75*
G02*
X90675000Y-111968750I0J-218750D01*
G01*
X90675000Y-112406250D01*
G75*
G02*
X90456250Y-112625000I-218750J0D01*
G01*
G37*
G36*
G01*
X90627500Y-92490000D02*
X90972500Y-92490000D01*
G75*
G02*
X91120000Y-92637500I0J-147500D01*
G01*
X91120000Y-92932500D01*
G75*
G02*
X90972500Y-93080000I-147500J0D01*
G01*
X90627500Y-93080000D01*
G75*
G02*
X90480000Y-92932500I0J147500D01*
G01*
X90480000Y-92637500D01*
G75*
G02*
X90627500Y-92490000I147500J0D01*
G01*
G37*
G36*
G01*
X90627500Y-91520000D02*
X90972500Y-91520000D01*
G75*
G02*
X91120000Y-91667500I0J-147500D01*
G01*
X91120000Y-91962500D01*
G75*
G02*
X90972500Y-92110000I-147500J0D01*
G01*
X90627500Y-92110000D01*
G75*
G02*
X90480000Y-91962500I0J147500D01*
G01*
X90480000Y-91667500D01*
G75*
G02*
X90627500Y-91520000I147500J0D01*
G01*
G37*
G36*
G01*
X128300000Y-102656250D02*
X128300000Y-102143750D01*
G75*
G02*
X128518750Y-101925000I218750J0D01*
G01*
X128956250Y-101925000D01*
G75*
G02*
X129175000Y-102143750I0J-218750D01*
G01*
X129175000Y-102656250D01*
G75*
G02*
X128956250Y-102875000I-218750J0D01*
G01*
X128518750Y-102875000D01*
G75*
G02*
X128300000Y-102656250I0J218750D01*
G01*
G37*
G36*
G01*
X126725000Y-102656250D02*
X126725000Y-102143750D01*
G75*
G02*
X126943750Y-101925000I218750J0D01*
G01*
X127381250Y-101925000D01*
G75*
G02*
X127600000Y-102143750I0J-218750D01*
G01*
X127600000Y-102656250D01*
G75*
G02*
X127381250Y-102875000I-218750J0D01*
G01*
X126943750Y-102875000D01*
G75*
G02*
X126725000Y-102656250I0J218750D01*
G01*
G37*
G36*
G01*
X135450000Y-135956250D02*
X135450000Y-135443750D01*
G75*
G02*
X135668750Y-135225000I218750J0D01*
G01*
X136106250Y-135225000D01*
G75*
G02*
X136325000Y-135443750I0J-218750D01*
G01*
X136325000Y-135956250D01*
G75*
G02*
X136106250Y-136175000I-218750J0D01*
G01*
X135668750Y-136175000D01*
G75*
G02*
X135450000Y-135956250I0J218750D01*
G01*
G37*
G36*
G01*
X133875000Y-135956250D02*
X133875000Y-135443750D01*
G75*
G02*
X134093750Y-135225000I218750J0D01*
G01*
X134531250Y-135225000D01*
G75*
G02*
X134750000Y-135443750I0J-218750D01*
G01*
X134750000Y-135956250D01*
G75*
G02*
X134531250Y-136175000I-218750J0D01*
G01*
X134093750Y-136175000D01*
G75*
G02*
X133875000Y-135956250I0J218750D01*
G01*
G37*
G36*
G01*
X99722500Y-101110000D02*
X99377500Y-101110000D01*
G75*
G02*
X99230000Y-100962500I0J147500D01*
G01*
X99230000Y-100667500D01*
G75*
G02*
X99377500Y-100520000I147500J0D01*
G01*
X99722500Y-100520000D01*
G75*
G02*
X99870000Y-100667500I0J-147500D01*
G01*
X99870000Y-100962500D01*
G75*
G02*
X99722500Y-101110000I-147500J0D01*
G01*
G37*
G36*
G01*
X99722500Y-102080000D02*
X99377500Y-102080000D01*
G75*
G02*
X99230000Y-101932500I0J147500D01*
G01*
X99230000Y-101637500D01*
G75*
G02*
X99377500Y-101490000I147500J0D01*
G01*
X99722500Y-101490000D01*
G75*
G02*
X99870000Y-101637500I0J-147500D01*
G01*
X99870000Y-101932500D01*
G75*
G02*
X99722500Y-102080000I-147500J0D01*
G01*
G37*
G36*
G01*
X158350000Y-144093750D02*
X158350000Y-144606250D01*
G75*
G02*
X158131250Y-144825000I-218750J0D01*
G01*
X157693750Y-144825000D01*
G75*
G02*
X157475000Y-144606250I0J218750D01*
G01*
X157475000Y-144093750D01*
G75*
G02*
X157693750Y-143875000I218750J0D01*
G01*
X158131250Y-143875000D01*
G75*
G02*
X158350000Y-144093750I0J-218750D01*
G01*
G37*
G36*
G01*
X159925000Y-144093750D02*
X159925000Y-144606250D01*
G75*
G02*
X159706250Y-144825000I-218750J0D01*
G01*
X159268750Y-144825000D01*
G75*
G02*
X159050000Y-144606250I0J218750D01*
G01*
X159050000Y-144093750D01*
G75*
G02*
X159268750Y-143875000I218750J0D01*
G01*
X159706250Y-143875000D01*
G75*
G02*
X159925000Y-144093750I0J-218750D01*
G01*
G37*
G36*
G01*
X89905000Y-107572500D02*
X89905000Y-107227500D01*
G75*
G02*
X90052500Y-107080000I147500J0D01*
G01*
X90347500Y-107080000D01*
G75*
G02*
X90495000Y-107227500I0J-147500D01*
G01*
X90495000Y-107572500D01*
G75*
G02*
X90347500Y-107720000I-147500J0D01*
G01*
X90052500Y-107720000D01*
G75*
G02*
X89905000Y-107572500I0J147500D01*
G01*
G37*
G36*
G01*
X88935000Y-107572500D02*
X88935000Y-107227500D01*
G75*
G02*
X89082500Y-107080000I147500J0D01*
G01*
X89377500Y-107080000D01*
G75*
G02*
X89525000Y-107227500I0J-147500D01*
G01*
X89525000Y-107572500D01*
G75*
G02*
X89377500Y-107720000I-147500J0D01*
G01*
X89082500Y-107720000D01*
G75*
G02*
X88935000Y-107572500I0J147500D01*
G01*
G37*
G36*
G01*
X99190000Y-97522500D02*
X99190000Y-97177500D01*
G75*
G02*
X99337500Y-97030000I147500J0D01*
G01*
X99632500Y-97030000D01*
G75*
G02*
X99780000Y-97177500I0J-147500D01*
G01*
X99780000Y-97522500D01*
G75*
G02*
X99632500Y-97670000I-147500J0D01*
G01*
X99337500Y-97670000D01*
G75*
G02*
X99190000Y-97522500I0J147500D01*
G01*
G37*
G36*
G01*
X98220000Y-97522500D02*
X98220000Y-97177500D01*
G75*
G02*
X98367500Y-97030000I147500J0D01*
G01*
X98662500Y-97030000D01*
G75*
G02*
X98810000Y-97177500I0J-147500D01*
G01*
X98810000Y-97522500D01*
G75*
G02*
X98662500Y-97670000I-147500J0D01*
G01*
X98367500Y-97670000D01*
G75*
G02*
X98220000Y-97522500I0J147500D01*
G01*
G37*
G36*
G01*
X95990000Y-100872500D02*
X95990000Y-100527500D01*
G75*
G02*
X96137500Y-100380000I147500J0D01*
G01*
X96432500Y-100380000D01*
G75*
G02*
X96580000Y-100527500I0J-147500D01*
G01*
X96580000Y-100872500D01*
G75*
G02*
X96432500Y-101020000I-147500J0D01*
G01*
X96137500Y-101020000D01*
G75*
G02*
X95990000Y-100872500I0J147500D01*
G01*
G37*
G36*
G01*
X95020000Y-100872500D02*
X95020000Y-100527500D01*
G75*
G02*
X95167500Y-100380000I147500J0D01*
G01*
X95462500Y-100380000D01*
G75*
G02*
X95610000Y-100527500I0J-147500D01*
G01*
X95610000Y-100872500D01*
G75*
G02*
X95462500Y-101020000I-147500J0D01*
G01*
X95167500Y-101020000D01*
G75*
G02*
X95020000Y-100872500I0J147500D01*
G01*
G37*
G36*
G01*
X135056250Y-64050000D02*
X134543750Y-64050000D01*
G75*
G02*
X134325000Y-63831250I0J218750D01*
G01*
X134325000Y-63393750D01*
G75*
G02*
X134543750Y-63175000I218750J0D01*
G01*
X135056250Y-63175000D01*
G75*
G02*
X135275000Y-63393750I0J-218750D01*
G01*
X135275000Y-63831250D01*
G75*
G02*
X135056250Y-64050000I-218750J0D01*
G01*
G37*
G36*
G01*
X135056250Y-65625000D02*
X134543750Y-65625000D01*
G75*
G02*
X134325000Y-65406250I0J218750D01*
G01*
X134325000Y-64968750D01*
G75*
G02*
X134543750Y-64750000I218750J0D01*
G01*
X135056250Y-64750000D01*
G75*
G02*
X135275000Y-64968750I0J-218750D01*
G01*
X135275000Y-65406250D01*
G75*
G02*
X135056250Y-65625000I-218750J0D01*
G01*
G37*
G36*
G01*
X99772500Y-98660000D02*
X99427500Y-98660000D01*
G75*
G02*
X99280000Y-98512500I0J147500D01*
G01*
X99280000Y-98217500D01*
G75*
G02*
X99427500Y-98070000I147500J0D01*
G01*
X99772500Y-98070000D01*
G75*
G02*
X99920000Y-98217500I0J-147500D01*
G01*
X99920000Y-98512500D01*
G75*
G02*
X99772500Y-98660000I-147500J0D01*
G01*
G37*
G36*
G01*
X99772500Y-99630000D02*
X99427500Y-99630000D01*
G75*
G02*
X99280000Y-99482500I0J147500D01*
G01*
X99280000Y-99187500D01*
G75*
G02*
X99427500Y-99040000I147500J0D01*
G01*
X99772500Y-99040000D01*
G75*
G02*
X99920000Y-99187500I0J-147500D01*
G01*
X99920000Y-99482500D01*
G75*
G02*
X99772500Y-99630000I-147500J0D01*
G01*
G37*
G36*
G01*
X96877500Y-98790000D02*
X97222500Y-98790000D01*
G75*
G02*
X97370000Y-98937500I0J-147500D01*
G01*
X97370000Y-99232500D01*
G75*
G02*
X97222500Y-99380000I-147500J0D01*
G01*
X96877500Y-99380000D01*
G75*
G02*
X96730000Y-99232500I0J147500D01*
G01*
X96730000Y-98937500D01*
G75*
G02*
X96877500Y-98790000I147500J0D01*
G01*
G37*
G36*
G01*
X96877500Y-97820000D02*
X97222500Y-97820000D01*
G75*
G02*
X97370000Y-97967500I0J-147500D01*
G01*
X97370000Y-98262500D01*
G75*
G02*
X97222500Y-98410000I-147500J0D01*
G01*
X96877500Y-98410000D01*
G75*
G02*
X96730000Y-98262500I0J147500D01*
G01*
X96730000Y-97967500D01*
G75*
G02*
X96877500Y-97820000I147500J0D01*
G01*
G37*
G36*
G01*
X95990000Y-96872500D02*
X95990000Y-96527500D01*
G75*
G02*
X96137500Y-96380000I147500J0D01*
G01*
X96432500Y-96380000D01*
G75*
G02*
X96580000Y-96527500I0J-147500D01*
G01*
X96580000Y-96872500D01*
G75*
G02*
X96432500Y-97020000I-147500J0D01*
G01*
X96137500Y-97020000D01*
G75*
G02*
X95990000Y-96872500I0J147500D01*
G01*
G37*
G36*
G01*
X95020000Y-96872500D02*
X95020000Y-96527500D01*
G75*
G02*
X95167500Y-96380000I147500J0D01*
G01*
X95462500Y-96380000D01*
G75*
G02*
X95610000Y-96527500I0J-147500D01*
G01*
X95610000Y-96872500D01*
G75*
G02*
X95462500Y-97020000I-147500J0D01*
G01*
X95167500Y-97020000D01*
G75*
G02*
X95020000Y-96872500I0J147500D01*
G01*
G37*
G36*
G01*
X85950000Y-86756250D02*
X85950000Y-86243750D01*
G75*
G02*
X86168750Y-86025000I218750J0D01*
G01*
X86606250Y-86025000D01*
G75*
G02*
X86825000Y-86243750I0J-218750D01*
G01*
X86825000Y-86756250D01*
G75*
G02*
X86606250Y-86975000I-218750J0D01*
G01*
X86168750Y-86975000D01*
G75*
G02*
X85950000Y-86756250I0J218750D01*
G01*
G37*
G36*
G01*
X84375000Y-86756250D02*
X84375000Y-86243750D01*
G75*
G02*
X84593750Y-86025000I218750J0D01*
G01*
X85031250Y-86025000D01*
G75*
G02*
X85250000Y-86243750I0J-218750D01*
G01*
X85250000Y-86756250D01*
G75*
G02*
X85031250Y-86975000I-218750J0D01*
G01*
X84593750Y-86975000D01*
G75*
G02*
X84375000Y-86756250I0J218750D01*
G01*
G37*
G36*
G01*
X95990000Y-101872500D02*
X95990000Y-101527500D01*
G75*
G02*
X96137500Y-101380000I147500J0D01*
G01*
X96432500Y-101380000D01*
G75*
G02*
X96580000Y-101527500I0J-147500D01*
G01*
X96580000Y-101872500D01*
G75*
G02*
X96432500Y-102020000I-147500J0D01*
G01*
X96137500Y-102020000D01*
G75*
G02*
X95990000Y-101872500I0J147500D01*
G01*
G37*
G36*
G01*
X95020000Y-101872500D02*
X95020000Y-101527500D01*
G75*
G02*
X95167500Y-101380000I147500J0D01*
G01*
X95462500Y-101380000D01*
G75*
G02*
X95610000Y-101527500I0J-147500D01*
G01*
X95610000Y-101872500D01*
G75*
G02*
X95462500Y-102020000I-147500J0D01*
G01*
X95167500Y-102020000D01*
G75*
G02*
X95020000Y-101872500I0J147500D01*
G01*
G37*
G36*
G01*
X73150000Y-120843750D02*
X73150000Y-121356250D01*
G75*
G02*
X72931250Y-121575000I-218750J0D01*
G01*
X72493750Y-121575000D01*
G75*
G02*
X72275000Y-121356250I0J218750D01*
G01*
X72275000Y-120843750D01*
G75*
G02*
X72493750Y-120625000I218750J0D01*
G01*
X72931250Y-120625000D01*
G75*
G02*
X73150000Y-120843750I0J-218750D01*
G01*
G37*
G36*
G01*
X74725000Y-120843750D02*
X74725000Y-121356250D01*
G75*
G02*
X74506250Y-121575000I-218750J0D01*
G01*
X74068750Y-121575000D01*
G75*
G02*
X73850000Y-121356250I0J218750D01*
G01*
X73850000Y-120843750D01*
G75*
G02*
X74068750Y-120625000I218750J0D01*
G01*
X74506250Y-120625000D01*
G75*
G02*
X74725000Y-120843750I0J-218750D01*
G01*
G37*
G36*
G01*
X97960000Y-99827500D02*
X97960000Y-100172500D01*
G75*
G02*
X97812500Y-100320000I-147500J0D01*
G01*
X97517500Y-100320000D01*
G75*
G02*
X97370000Y-100172500I0J147500D01*
G01*
X97370000Y-99827500D01*
G75*
G02*
X97517500Y-99680000I147500J0D01*
G01*
X97812500Y-99680000D01*
G75*
G02*
X97960000Y-99827500I0J-147500D01*
G01*
G37*
G36*
G01*
X98930000Y-99827500D02*
X98930000Y-100172500D01*
G75*
G02*
X98782500Y-100320000I-147500J0D01*
G01*
X98487500Y-100320000D01*
G75*
G02*
X98340000Y-100172500I0J147500D01*
G01*
X98340000Y-99827500D01*
G75*
G02*
X98487500Y-99680000I147500J0D01*
G01*
X98782500Y-99680000D01*
G75*
G02*
X98930000Y-99827500I0J-147500D01*
G01*
G37*
G36*
G01*
X135450000Y-137656250D02*
X135450000Y-137143750D01*
G75*
G02*
X135668750Y-136925000I218750J0D01*
G01*
X136106250Y-136925000D01*
G75*
G02*
X136325000Y-137143750I0J-218750D01*
G01*
X136325000Y-137656250D01*
G75*
G02*
X136106250Y-137875000I-218750J0D01*
G01*
X135668750Y-137875000D01*
G75*
G02*
X135450000Y-137656250I0J218750D01*
G01*
G37*
G36*
G01*
X133875000Y-137656250D02*
X133875000Y-137143750D01*
G75*
G02*
X134093750Y-136925000I218750J0D01*
G01*
X134531250Y-136925000D01*
G75*
G02*
X134750000Y-137143750I0J-218750D01*
G01*
X134750000Y-137656250D01*
G75*
G02*
X134531250Y-137875000I-218750J0D01*
G01*
X134093750Y-137875000D01*
G75*
G02*
X133875000Y-137656250I0J218750D01*
G01*
G37*
G36*
G01*
X89762500Y-109056250D02*
X89762500Y-108543750D01*
G75*
G02*
X89981250Y-108325000I218750J0D01*
G01*
X90418750Y-108325000D01*
G75*
G02*
X90637500Y-108543750I0J-218750D01*
G01*
X90637500Y-109056250D01*
G75*
G02*
X90418750Y-109275000I-218750J0D01*
G01*
X89981250Y-109275000D01*
G75*
G02*
X89762500Y-109056250I0J218750D01*
G01*
G37*
G36*
G01*
X88187500Y-109056250D02*
X88187500Y-108543750D01*
G75*
G02*
X88406250Y-108325000I218750J0D01*
G01*
X88843750Y-108325000D01*
G75*
G02*
X89062500Y-108543750I0J-218750D01*
G01*
X89062500Y-109056250D01*
G75*
G02*
X88843750Y-109275000I-218750J0D01*
G01*
X88406250Y-109275000D01*
G75*
G02*
X88187500Y-109056250I0J218750D01*
G01*
G37*
G36*
G01*
X90890000Y-100772500D02*
X90890000Y-100427500D01*
G75*
G02*
X91037500Y-100280000I147500J0D01*
G01*
X91332500Y-100280000D01*
G75*
G02*
X91480000Y-100427500I0J-147500D01*
G01*
X91480000Y-100772500D01*
G75*
G02*
X91332500Y-100920000I-147500J0D01*
G01*
X91037500Y-100920000D01*
G75*
G02*
X90890000Y-100772500I0J147500D01*
G01*
G37*
G36*
G01*
X89920000Y-100772500D02*
X89920000Y-100427500D01*
G75*
G02*
X90067500Y-100280000I147500J0D01*
G01*
X90362500Y-100280000D01*
G75*
G02*
X90510000Y-100427500I0J-147500D01*
G01*
X90510000Y-100772500D01*
G75*
G02*
X90362500Y-100920000I-147500J0D01*
G01*
X90067500Y-100920000D01*
G75*
G02*
X89920000Y-100772500I0J147500D01*
G01*
G37*
G36*
G01*
X71143750Y-94350000D02*
X71656250Y-94350000D01*
G75*
G02*
X71875000Y-94568750I0J-218750D01*
G01*
X71875000Y-95006250D01*
G75*
G02*
X71656250Y-95225000I-218750J0D01*
G01*
X71143750Y-95225000D01*
G75*
G02*
X70925000Y-95006250I0J218750D01*
G01*
X70925000Y-94568750D01*
G75*
G02*
X71143750Y-94350000I218750J0D01*
G01*
G37*
G36*
G01*
X71143750Y-92775000D02*
X71656250Y-92775000D01*
G75*
G02*
X71875000Y-92993750I0J-218750D01*
G01*
X71875000Y-93431250D01*
G75*
G02*
X71656250Y-93650000I-218750J0D01*
G01*
X71143750Y-93650000D01*
G75*
G02*
X70925000Y-93431250I0J218750D01*
G01*
X70925000Y-92993750D01*
G75*
G02*
X71143750Y-92775000I218750J0D01*
G01*
G37*
G36*
G01*
X68750000Y-87056250D02*
X68750000Y-86543750D01*
G75*
G02*
X68968750Y-86325000I218750J0D01*
G01*
X69406250Y-86325000D01*
G75*
G02*
X69625000Y-86543750I0J-218750D01*
G01*
X69625000Y-87056250D01*
G75*
G02*
X69406250Y-87275000I-218750J0D01*
G01*
X68968750Y-87275000D01*
G75*
G02*
X68750000Y-87056250I0J218750D01*
G01*
G37*
G36*
G01*
X67175000Y-87056250D02*
X67175000Y-86543750D01*
G75*
G02*
X67393750Y-86325000I218750J0D01*
G01*
X67831250Y-86325000D01*
G75*
G02*
X68050000Y-86543750I0J-218750D01*
G01*
X68050000Y-87056250D01*
G75*
G02*
X67831250Y-87275000I-218750J0D01*
G01*
X67393750Y-87275000D01*
G75*
G02*
X67175000Y-87056250I0J218750D01*
G01*
G37*
G36*
G01*
X59956250Y-75300000D02*
X59443750Y-75300000D01*
G75*
G02*
X59225000Y-75081250I0J218750D01*
G01*
X59225000Y-74643750D01*
G75*
G02*
X59443750Y-74425000I218750J0D01*
G01*
X59956250Y-74425000D01*
G75*
G02*
X60175000Y-74643750I0J-218750D01*
G01*
X60175000Y-75081250D01*
G75*
G02*
X59956250Y-75300000I-218750J0D01*
G01*
G37*
G36*
G01*
X59956250Y-76875000D02*
X59443750Y-76875000D01*
G75*
G02*
X59225000Y-76656250I0J218750D01*
G01*
X59225000Y-76218750D01*
G75*
G02*
X59443750Y-76000000I218750J0D01*
G01*
X59956250Y-76000000D01*
G75*
G02*
X60175000Y-76218750I0J-218750D01*
G01*
X60175000Y-76656250D01*
G75*
G02*
X59956250Y-76875000I-218750J0D01*
G01*
G37*
G36*
G01*
X61606250Y-75300000D02*
X61093750Y-75300000D01*
G75*
G02*
X60875000Y-75081250I0J218750D01*
G01*
X60875000Y-74643750D01*
G75*
G02*
X61093750Y-74425000I218750J0D01*
G01*
X61606250Y-74425000D01*
G75*
G02*
X61825000Y-74643750I0J-218750D01*
G01*
X61825000Y-75081250D01*
G75*
G02*
X61606250Y-75300000I-218750J0D01*
G01*
G37*
G36*
G01*
X61606250Y-76875000D02*
X61093750Y-76875000D01*
G75*
G02*
X60875000Y-76656250I0J218750D01*
G01*
X60875000Y-76218750D01*
G75*
G02*
X61093750Y-76000000I218750J0D01*
G01*
X61606250Y-76000000D01*
G75*
G02*
X61825000Y-76218750I0J-218750D01*
G01*
X61825000Y-76656250D01*
G75*
G02*
X61606250Y-76875000I-218750J0D01*
G01*
G37*
G36*
G01*
X65656250Y-65100000D02*
X65143750Y-65100000D01*
G75*
G02*
X64925000Y-64881250I0J218750D01*
G01*
X64925000Y-64443750D01*
G75*
G02*
X65143750Y-64225000I218750J0D01*
G01*
X65656250Y-64225000D01*
G75*
G02*
X65875000Y-64443750I0J-218750D01*
G01*
X65875000Y-64881250D01*
G75*
G02*
X65656250Y-65100000I-218750J0D01*
G01*
G37*
G36*
G01*
X65656250Y-66675000D02*
X65143750Y-66675000D01*
G75*
G02*
X64925000Y-66456250I0J218750D01*
G01*
X64925000Y-66018750D01*
G75*
G02*
X65143750Y-65800000I218750J0D01*
G01*
X65656250Y-65800000D01*
G75*
G02*
X65875000Y-66018750I0J-218750D01*
G01*
X65875000Y-66456250D01*
G75*
G02*
X65656250Y-66675000I-218750J0D01*
G01*
G37*
G36*
G01*
X67306250Y-65100000D02*
X66793750Y-65100000D01*
G75*
G02*
X66575000Y-64881250I0J218750D01*
G01*
X66575000Y-64443750D01*
G75*
G02*
X66793750Y-64225000I218750J0D01*
G01*
X67306250Y-64225000D01*
G75*
G02*
X67525000Y-64443750I0J-218750D01*
G01*
X67525000Y-64881250D01*
G75*
G02*
X67306250Y-65100000I-218750J0D01*
G01*
G37*
G36*
G01*
X67306250Y-66675000D02*
X66793750Y-66675000D01*
G75*
G02*
X66575000Y-66456250I0J218750D01*
G01*
X66575000Y-66018750D01*
G75*
G02*
X66793750Y-65800000I218750J0D01*
G01*
X67306250Y-65800000D01*
G75*
G02*
X67525000Y-66018750I0J-218750D01*
G01*
X67525000Y-66456250D01*
G75*
G02*
X67306250Y-66675000I-218750J0D01*
G01*
G37*
G36*
G01*
X100650000Y-81743750D02*
X100650000Y-82256250D01*
G75*
G02*
X100431250Y-82475000I-218750J0D01*
G01*
X99993750Y-82475000D01*
G75*
G02*
X99775000Y-82256250I0J218750D01*
G01*
X99775000Y-81743750D01*
G75*
G02*
X99993750Y-81525000I218750J0D01*
G01*
X100431250Y-81525000D01*
G75*
G02*
X100650000Y-81743750I0J-218750D01*
G01*
G37*
G36*
G01*
X102225000Y-81743750D02*
X102225000Y-82256250D01*
G75*
G02*
X102006250Y-82475000I-218750J0D01*
G01*
X101568750Y-82475000D01*
G75*
G02*
X101350000Y-82256250I0J218750D01*
G01*
X101350000Y-81743750D01*
G75*
G02*
X101568750Y-81525000I218750J0D01*
G01*
X102006250Y-81525000D01*
G75*
G02*
X102225000Y-81743750I0J-218750D01*
G01*
G37*
G36*
G01*
X100650000Y-78343750D02*
X100650000Y-78856250D01*
G75*
G02*
X100431250Y-79075000I-218750J0D01*
G01*
X99993750Y-79075000D01*
G75*
G02*
X99775000Y-78856250I0J218750D01*
G01*
X99775000Y-78343750D01*
G75*
G02*
X99993750Y-78125000I218750J0D01*
G01*
X100431250Y-78125000D01*
G75*
G02*
X100650000Y-78343750I0J-218750D01*
G01*
G37*
G36*
G01*
X102225000Y-78343750D02*
X102225000Y-78856250D01*
G75*
G02*
X102006250Y-79075000I-218750J0D01*
G01*
X101568750Y-79075000D01*
G75*
G02*
X101350000Y-78856250I0J218750D01*
G01*
X101350000Y-78343750D01*
G75*
G02*
X101568750Y-78125000I218750J0D01*
G01*
X102006250Y-78125000D01*
G75*
G02*
X102225000Y-78343750I0J-218750D01*
G01*
G37*
G36*
G01*
X100650000Y-80043750D02*
X100650000Y-80556250D01*
G75*
G02*
X100431250Y-80775000I-218750J0D01*
G01*
X99993750Y-80775000D01*
G75*
G02*
X99775000Y-80556250I0J218750D01*
G01*
X99775000Y-80043750D01*
G75*
G02*
X99993750Y-79825000I218750J0D01*
G01*
X100431250Y-79825000D01*
G75*
G02*
X100650000Y-80043750I0J-218750D01*
G01*
G37*
G36*
G01*
X102225000Y-80043750D02*
X102225000Y-80556250D01*
G75*
G02*
X102006250Y-80775000I-218750J0D01*
G01*
X101568750Y-80775000D01*
G75*
G02*
X101350000Y-80556250I0J218750D01*
G01*
X101350000Y-80043750D01*
G75*
G02*
X101568750Y-79825000I218750J0D01*
G01*
X102006250Y-79825000D01*
G75*
G02*
X102225000Y-80043750I0J-218750D01*
G01*
G37*
G36*
G01*
X100650000Y-76643750D02*
X100650000Y-77156250D01*
G75*
G02*
X100431250Y-77375000I-218750J0D01*
G01*
X99993750Y-77375000D01*
G75*
G02*
X99775000Y-77156250I0J218750D01*
G01*
X99775000Y-76643750D01*
G75*
G02*
X99993750Y-76425000I218750J0D01*
G01*
X100431250Y-76425000D01*
G75*
G02*
X100650000Y-76643750I0J-218750D01*
G01*
G37*
G36*
G01*
X102225000Y-76643750D02*
X102225000Y-77156250D01*
G75*
G02*
X102006250Y-77375000I-218750J0D01*
G01*
X101568750Y-77375000D01*
G75*
G02*
X101350000Y-77156250I0J218750D01*
G01*
X101350000Y-76643750D01*
G75*
G02*
X101568750Y-76425000I218750J0D01*
G01*
X102006250Y-76425000D01*
G75*
G02*
X102225000Y-76643750I0J-218750D01*
G01*
G37*
G36*
G01*
X101962500Y-68456250D02*
X101962500Y-67943750D01*
G75*
G02*
X102181250Y-67725000I218750J0D01*
G01*
X102618750Y-67725000D01*
G75*
G02*
X102837500Y-67943750I0J-218750D01*
G01*
X102837500Y-68456250D01*
G75*
G02*
X102618750Y-68675000I-218750J0D01*
G01*
X102181250Y-68675000D01*
G75*
G02*
X101962500Y-68456250I0J218750D01*
G01*
G37*
G36*
G01*
X100387500Y-68456250D02*
X100387500Y-67943750D01*
G75*
G02*
X100606250Y-67725000I218750J0D01*
G01*
X101043750Y-67725000D01*
G75*
G02*
X101262500Y-67943750I0J-218750D01*
G01*
X101262500Y-68456250D01*
G75*
G02*
X101043750Y-68675000I-218750J0D01*
G01*
X100606250Y-68675000D01*
G75*
G02*
X100387500Y-68456250I0J218750D01*
G01*
G37*
G36*
G01*
X101962500Y-70256250D02*
X101962500Y-69743750D01*
G75*
G02*
X102181250Y-69525000I218750J0D01*
G01*
X102618750Y-69525000D01*
G75*
G02*
X102837500Y-69743750I0J-218750D01*
G01*
X102837500Y-70256250D01*
G75*
G02*
X102618750Y-70475000I-218750J0D01*
G01*
X102181250Y-70475000D01*
G75*
G02*
X101962500Y-70256250I0J218750D01*
G01*
G37*
G36*
G01*
X100387500Y-70256250D02*
X100387500Y-69743750D01*
G75*
G02*
X100606250Y-69525000I218750J0D01*
G01*
X101043750Y-69525000D01*
G75*
G02*
X101262500Y-69743750I0J-218750D01*
G01*
X101262500Y-70256250D01*
G75*
G02*
X101043750Y-70475000I-218750J0D01*
G01*
X100606250Y-70475000D01*
G75*
G02*
X100387500Y-70256250I0J218750D01*
G01*
G37*
G36*
G01*
X88150000Y-81743750D02*
X88150000Y-82256250D01*
G75*
G02*
X87931250Y-82475000I-218750J0D01*
G01*
X87493750Y-82475000D01*
G75*
G02*
X87275000Y-82256250I0J218750D01*
G01*
X87275000Y-81743750D01*
G75*
G02*
X87493750Y-81525000I218750J0D01*
G01*
X87931250Y-81525000D01*
G75*
G02*
X88150000Y-81743750I0J-218750D01*
G01*
G37*
G36*
G01*
X89725000Y-81743750D02*
X89725000Y-82256250D01*
G75*
G02*
X89506250Y-82475000I-218750J0D01*
G01*
X89068750Y-82475000D01*
G75*
G02*
X88850000Y-82256250I0J218750D01*
G01*
X88850000Y-81743750D01*
G75*
G02*
X89068750Y-81525000I218750J0D01*
G01*
X89506250Y-81525000D01*
G75*
G02*
X89725000Y-81743750I0J-218750D01*
G01*
G37*
G36*
G01*
X88150000Y-78343750D02*
X88150000Y-78856250D01*
G75*
G02*
X87931250Y-79075000I-218750J0D01*
G01*
X87493750Y-79075000D01*
G75*
G02*
X87275000Y-78856250I0J218750D01*
G01*
X87275000Y-78343750D01*
G75*
G02*
X87493750Y-78125000I218750J0D01*
G01*
X87931250Y-78125000D01*
G75*
G02*
X88150000Y-78343750I0J-218750D01*
G01*
G37*
G36*
G01*
X89725000Y-78343750D02*
X89725000Y-78856250D01*
G75*
G02*
X89506250Y-79075000I-218750J0D01*
G01*
X89068750Y-79075000D01*
G75*
G02*
X88850000Y-78856250I0J218750D01*
G01*
X88850000Y-78343750D01*
G75*
G02*
X89068750Y-78125000I218750J0D01*
G01*
X89506250Y-78125000D01*
G75*
G02*
X89725000Y-78343750I0J-218750D01*
G01*
G37*
G36*
G01*
X88150000Y-80043750D02*
X88150000Y-80556250D01*
G75*
G02*
X87931250Y-80775000I-218750J0D01*
G01*
X87493750Y-80775000D01*
G75*
G02*
X87275000Y-80556250I0J218750D01*
G01*
X87275000Y-80043750D01*
G75*
G02*
X87493750Y-79825000I218750J0D01*
G01*
X87931250Y-79825000D01*
G75*
G02*
X88150000Y-80043750I0J-218750D01*
G01*
G37*
G36*
G01*
X89725000Y-80043750D02*
X89725000Y-80556250D01*
G75*
G02*
X89506250Y-80775000I-218750J0D01*
G01*
X89068750Y-80775000D01*
G75*
G02*
X88850000Y-80556250I0J218750D01*
G01*
X88850000Y-80043750D01*
G75*
G02*
X89068750Y-79825000I218750J0D01*
G01*
X89506250Y-79825000D01*
G75*
G02*
X89725000Y-80043750I0J-218750D01*
G01*
G37*
G36*
G01*
X88150000Y-76643750D02*
X88150000Y-77156250D01*
G75*
G02*
X87931250Y-77375000I-218750J0D01*
G01*
X87493750Y-77375000D01*
G75*
G02*
X87275000Y-77156250I0J218750D01*
G01*
X87275000Y-76643750D01*
G75*
G02*
X87493750Y-76425000I218750J0D01*
G01*
X87931250Y-76425000D01*
G75*
G02*
X88150000Y-76643750I0J-218750D01*
G01*
G37*
G36*
G01*
X89725000Y-76643750D02*
X89725000Y-77156250D01*
G75*
G02*
X89506250Y-77375000I-218750J0D01*
G01*
X89068750Y-77375000D01*
G75*
G02*
X88850000Y-77156250I0J218750D01*
G01*
X88850000Y-76643750D01*
G75*
G02*
X89068750Y-76425000I218750J0D01*
G01*
X89506250Y-76425000D01*
G75*
G02*
X89725000Y-76643750I0J-218750D01*
G01*
G37*
G36*
G01*
X89462500Y-68456250D02*
X89462500Y-67943750D01*
G75*
G02*
X89681250Y-67725000I218750J0D01*
G01*
X90118750Y-67725000D01*
G75*
G02*
X90337500Y-67943750I0J-218750D01*
G01*
X90337500Y-68456250D01*
G75*
G02*
X90118750Y-68675000I-218750J0D01*
G01*
X89681250Y-68675000D01*
G75*
G02*
X89462500Y-68456250I0J218750D01*
G01*
G37*
G36*
G01*
X87887500Y-68456250D02*
X87887500Y-67943750D01*
G75*
G02*
X88106250Y-67725000I218750J0D01*
G01*
X88543750Y-67725000D01*
G75*
G02*
X88762500Y-67943750I0J-218750D01*
G01*
X88762500Y-68456250D01*
G75*
G02*
X88543750Y-68675000I-218750J0D01*
G01*
X88106250Y-68675000D01*
G75*
G02*
X87887500Y-68456250I0J218750D01*
G01*
G37*
G36*
G01*
X89462500Y-70256250D02*
X89462500Y-69743750D01*
G75*
G02*
X89681250Y-69525000I218750J0D01*
G01*
X90118750Y-69525000D01*
G75*
G02*
X90337500Y-69743750I0J-218750D01*
G01*
X90337500Y-70256250D01*
G75*
G02*
X90118750Y-70475000I-218750J0D01*
G01*
X89681250Y-70475000D01*
G75*
G02*
X89462500Y-70256250I0J218750D01*
G01*
G37*
G36*
G01*
X87887500Y-70256250D02*
X87887500Y-69743750D01*
G75*
G02*
X88106250Y-69525000I218750J0D01*
G01*
X88543750Y-69525000D01*
G75*
G02*
X88762500Y-69743750I0J-218750D01*
G01*
X88762500Y-70256250D01*
G75*
G02*
X88543750Y-70475000I-218750J0D01*
G01*
X88106250Y-70475000D01*
G75*
G02*
X87887500Y-70256250I0J218750D01*
G01*
G37*
G36*
G01*
X75650000Y-81743750D02*
X75650000Y-82256250D01*
G75*
G02*
X75431250Y-82475000I-218750J0D01*
G01*
X74993750Y-82475000D01*
G75*
G02*
X74775000Y-82256250I0J218750D01*
G01*
X74775000Y-81743750D01*
G75*
G02*
X74993750Y-81525000I218750J0D01*
G01*
X75431250Y-81525000D01*
G75*
G02*
X75650000Y-81743750I0J-218750D01*
G01*
G37*
G36*
G01*
X77225000Y-81743750D02*
X77225000Y-82256250D01*
G75*
G02*
X77006250Y-82475000I-218750J0D01*
G01*
X76568750Y-82475000D01*
G75*
G02*
X76350000Y-82256250I0J218750D01*
G01*
X76350000Y-81743750D01*
G75*
G02*
X76568750Y-81525000I218750J0D01*
G01*
X77006250Y-81525000D01*
G75*
G02*
X77225000Y-81743750I0J-218750D01*
G01*
G37*
G36*
G01*
X75650000Y-78343750D02*
X75650000Y-78856250D01*
G75*
G02*
X75431250Y-79075000I-218750J0D01*
G01*
X74993750Y-79075000D01*
G75*
G02*
X74775000Y-78856250I0J218750D01*
G01*
X74775000Y-78343750D01*
G75*
G02*
X74993750Y-78125000I218750J0D01*
G01*
X75431250Y-78125000D01*
G75*
G02*
X75650000Y-78343750I0J-218750D01*
G01*
G37*
G36*
G01*
X77225000Y-78343750D02*
X77225000Y-78856250D01*
G75*
G02*
X77006250Y-79075000I-218750J0D01*
G01*
X76568750Y-79075000D01*
G75*
G02*
X76350000Y-78856250I0J218750D01*
G01*
X76350000Y-78343750D01*
G75*
G02*
X76568750Y-78125000I218750J0D01*
G01*
X77006250Y-78125000D01*
G75*
G02*
X77225000Y-78343750I0J-218750D01*
G01*
G37*
G36*
G01*
X75650000Y-80043750D02*
X75650000Y-80556250D01*
G75*
G02*
X75431250Y-80775000I-218750J0D01*
G01*
X74993750Y-80775000D01*
G75*
G02*
X74775000Y-80556250I0J218750D01*
G01*
X74775000Y-80043750D01*
G75*
G02*
X74993750Y-79825000I218750J0D01*
G01*
X75431250Y-79825000D01*
G75*
G02*
X75650000Y-80043750I0J-218750D01*
G01*
G37*
G36*
G01*
X77225000Y-80043750D02*
X77225000Y-80556250D01*
G75*
G02*
X77006250Y-80775000I-218750J0D01*
G01*
X76568750Y-80775000D01*
G75*
G02*
X76350000Y-80556250I0J218750D01*
G01*
X76350000Y-80043750D01*
G75*
G02*
X76568750Y-79825000I218750J0D01*
G01*
X77006250Y-79825000D01*
G75*
G02*
X77225000Y-80043750I0J-218750D01*
G01*
G37*
G36*
G01*
X75650000Y-76643750D02*
X75650000Y-77156250D01*
G75*
G02*
X75431250Y-77375000I-218750J0D01*
G01*
X74993750Y-77375000D01*
G75*
G02*
X74775000Y-77156250I0J218750D01*
G01*
X74775000Y-76643750D01*
G75*
G02*
X74993750Y-76425000I218750J0D01*
G01*
X75431250Y-76425000D01*
G75*
G02*
X75650000Y-76643750I0J-218750D01*
G01*
G37*
G36*
G01*
X77225000Y-76643750D02*
X77225000Y-77156250D01*
G75*
G02*
X77006250Y-77375000I-218750J0D01*
G01*
X76568750Y-77375000D01*
G75*
G02*
X76350000Y-77156250I0J218750D01*
G01*
X76350000Y-76643750D01*
G75*
G02*
X76568750Y-76425000I218750J0D01*
G01*
X77006250Y-76425000D01*
G75*
G02*
X77225000Y-76643750I0J-218750D01*
G01*
G37*
G36*
G01*
X76962500Y-68456250D02*
X76962500Y-67943750D01*
G75*
G02*
X77181250Y-67725000I218750J0D01*
G01*
X77618750Y-67725000D01*
G75*
G02*
X77837500Y-67943750I0J-218750D01*
G01*
X77837500Y-68456250D01*
G75*
G02*
X77618750Y-68675000I-218750J0D01*
G01*
X77181250Y-68675000D01*
G75*
G02*
X76962500Y-68456250I0J218750D01*
G01*
G37*
G36*
G01*
X75387500Y-68456250D02*
X75387500Y-67943750D01*
G75*
G02*
X75606250Y-67725000I218750J0D01*
G01*
X76043750Y-67725000D01*
G75*
G02*
X76262500Y-67943750I0J-218750D01*
G01*
X76262500Y-68456250D01*
G75*
G02*
X76043750Y-68675000I-218750J0D01*
G01*
X75606250Y-68675000D01*
G75*
G02*
X75387500Y-68456250I0J218750D01*
G01*
G37*
G36*
G01*
X76962500Y-70256250D02*
X76962500Y-69743750D01*
G75*
G02*
X77181250Y-69525000I218750J0D01*
G01*
X77618750Y-69525000D01*
G75*
G02*
X77837500Y-69743750I0J-218750D01*
G01*
X77837500Y-70256250D01*
G75*
G02*
X77618750Y-70475000I-218750J0D01*
G01*
X77181250Y-70475000D01*
G75*
G02*
X76962500Y-70256250I0J218750D01*
G01*
G37*
G36*
G01*
X75387500Y-70256250D02*
X75387500Y-69743750D01*
G75*
G02*
X75606250Y-69525000I218750J0D01*
G01*
X76043750Y-69525000D01*
G75*
G02*
X76262500Y-69743750I0J-218750D01*
G01*
X76262500Y-70256250D01*
G75*
G02*
X76043750Y-70475000I-218750J0D01*
G01*
X75606250Y-70475000D01*
G75*
G02*
X75387500Y-70256250I0J218750D01*
G01*
G37*
D11*
X169550000Y-116075000D03*
X169550000Y-115425000D03*
X169550000Y-114775000D03*
X169550000Y-114125000D03*
X169550000Y-113475000D03*
X169550000Y-112825000D03*
X169550000Y-112175000D03*
X169550000Y-111525000D03*
X169550000Y-110875000D03*
X169550000Y-110225000D03*
X169550000Y-109575000D03*
X169550000Y-108925000D03*
X163850000Y-108925000D03*
X163850000Y-109575000D03*
X163850000Y-110225000D03*
X163850000Y-110875000D03*
X163850000Y-111525000D03*
X163850000Y-112175000D03*
X163850000Y-112825000D03*
X163850000Y-113475000D03*
X163850000Y-114125000D03*
X163850000Y-114775000D03*
X163850000Y-115425000D03*
X163850000Y-116075000D03*
X156500000Y-97650000D03*
X156500000Y-97000000D03*
X156500000Y-96350000D03*
X156500000Y-95700000D03*
X156500000Y-95050000D03*
X156500000Y-94400000D03*
X156500000Y-93750000D03*
X156500000Y-93100000D03*
X156500000Y-92450000D03*
X156500000Y-91800000D03*
X156500000Y-91150000D03*
X156500000Y-90500000D03*
X150800000Y-90500000D03*
X150800000Y-91150000D03*
X150800000Y-91800000D03*
X150800000Y-92450000D03*
X150800000Y-93100000D03*
X150800000Y-93750000D03*
X150800000Y-94400000D03*
X150800000Y-95050000D03*
X150800000Y-95700000D03*
X150800000Y-96350000D03*
X150800000Y-97000000D03*
X150800000Y-97650000D03*
G36*
G01*
X68750000Y-99056250D02*
X68750000Y-98543750D01*
G75*
G02*
X68968750Y-98325000I218750J0D01*
G01*
X69406250Y-98325000D01*
G75*
G02*
X69625000Y-98543750I0J-218750D01*
G01*
X69625000Y-99056250D01*
G75*
G02*
X69406250Y-99275000I-218750J0D01*
G01*
X68968750Y-99275000D01*
G75*
G02*
X68750000Y-99056250I0J218750D01*
G01*
G37*
G36*
G01*
X67175000Y-99056250D02*
X67175000Y-98543750D01*
G75*
G02*
X67393750Y-98325000I218750J0D01*
G01*
X67831250Y-98325000D01*
G75*
G02*
X68050000Y-98543750I0J-218750D01*
G01*
X68050000Y-99056250D01*
G75*
G02*
X67831250Y-99275000I-218750J0D01*
G01*
X67393750Y-99275000D01*
G75*
G02*
X67175000Y-99056250I0J218750D01*
G01*
G37*
G36*
G01*
X70856250Y-112437500D02*
X70343750Y-112437500D01*
G75*
G02*
X70125000Y-112218750I0J218750D01*
G01*
X70125000Y-111781250D01*
G75*
G02*
X70343750Y-111562500I218750J0D01*
G01*
X70856250Y-111562500D01*
G75*
G02*
X71075000Y-111781250I0J-218750D01*
G01*
X71075000Y-112218750D01*
G75*
G02*
X70856250Y-112437500I-218750J0D01*
G01*
G37*
G36*
G01*
X70856250Y-114012500D02*
X70343750Y-114012500D01*
G75*
G02*
X70125000Y-113793750I0J218750D01*
G01*
X70125000Y-113356250D01*
G75*
G02*
X70343750Y-113137500I218750J0D01*
G01*
X70856250Y-113137500D01*
G75*
G02*
X71075000Y-113356250I0J-218750D01*
G01*
X71075000Y-113793750D01*
G75*
G02*
X70856250Y-114012500I-218750J0D01*
G01*
G37*
X159850000Y-135975000D03*
X159850000Y-135325000D03*
X159850000Y-134675000D03*
X159850000Y-134025000D03*
X159850000Y-133375000D03*
X159850000Y-132725000D03*
X159850000Y-132075000D03*
X159850000Y-131425000D03*
X159850000Y-130775000D03*
X159850000Y-130125000D03*
X159850000Y-129475000D03*
X159850000Y-128825000D03*
X154150000Y-128825000D03*
X154150000Y-129475000D03*
X154150000Y-130125000D03*
X154150000Y-130775000D03*
X154150000Y-131425000D03*
X154150000Y-132075000D03*
X154150000Y-132725000D03*
X154150000Y-133375000D03*
X154150000Y-134025000D03*
X154150000Y-134675000D03*
X154150000Y-135325000D03*
X154150000Y-135975000D03*
G36*
G01*
X156850000Y-109156250D02*
X156850000Y-108643750D01*
G75*
G02*
X157068750Y-108425000I218750J0D01*
G01*
X157506250Y-108425000D01*
G75*
G02*
X157725000Y-108643750I0J-218750D01*
G01*
X157725000Y-109156250D01*
G75*
G02*
X157506250Y-109375000I-218750J0D01*
G01*
X157068750Y-109375000D01*
G75*
G02*
X156850000Y-109156250I0J218750D01*
G01*
G37*
G36*
G01*
X155275000Y-109156250D02*
X155275000Y-108643750D01*
G75*
G02*
X155493750Y-108425000I218750J0D01*
G01*
X155931250Y-108425000D01*
G75*
G02*
X156150000Y-108643750I0J-218750D01*
G01*
X156150000Y-109156250D01*
G75*
G02*
X155931250Y-109375000I-218750J0D01*
G01*
X155493750Y-109375000D01*
G75*
G02*
X155275000Y-109156250I0J218750D01*
G01*
G37*
G36*
G01*
X136356250Y-67750000D02*
X135843750Y-67750000D01*
G75*
G02*
X135625000Y-67531250I0J218750D01*
G01*
X135625000Y-67093750D01*
G75*
G02*
X135843750Y-66875000I218750J0D01*
G01*
X136356250Y-66875000D01*
G75*
G02*
X136575000Y-67093750I0J-218750D01*
G01*
X136575000Y-67531250D01*
G75*
G02*
X136356250Y-67750000I-218750J0D01*
G01*
G37*
G36*
G01*
X136356250Y-69325000D02*
X135843750Y-69325000D01*
G75*
G02*
X135625000Y-69106250I0J218750D01*
G01*
X135625000Y-68668750D01*
G75*
G02*
X135843750Y-68450000I218750J0D01*
G01*
X136356250Y-68450000D01*
G75*
G02*
X136575000Y-68668750I0J-218750D01*
G01*
X136575000Y-69106250D01*
G75*
G02*
X136356250Y-69325000I-218750J0D01*
G01*
G37*
D13*
X186500000Y-145000000D03*
X185850000Y-145000000D03*
X185200000Y-145000000D03*
X184550000Y-145000000D03*
X183900000Y-145000000D03*
X183250000Y-145000000D03*
X182600000Y-145000000D03*
X181950000Y-145000000D03*
X181300000Y-145000000D03*
X180650000Y-145000000D03*
X180000000Y-145000000D03*
X179350000Y-145000000D03*
X179350000Y-150700000D03*
X180000000Y-150700000D03*
X180650000Y-150700000D03*
X181300000Y-150700000D03*
X181950000Y-150700000D03*
X182600000Y-150700000D03*
X183250000Y-150700000D03*
X183900000Y-150700000D03*
X184550000Y-150700000D03*
X185200000Y-150700000D03*
X185850000Y-150700000D03*
X186500000Y-150700000D03*
D11*
X131850000Y-89475000D03*
X131850000Y-88825000D03*
X131850000Y-88175000D03*
X131850000Y-87525000D03*
X131850000Y-86875000D03*
X131850000Y-86225000D03*
X131850000Y-85575000D03*
X131850000Y-84925000D03*
X131850000Y-84275000D03*
X131850000Y-83625000D03*
X131850000Y-82975000D03*
X131850000Y-82325000D03*
X126150000Y-82325000D03*
X126150000Y-82975000D03*
X126150000Y-83625000D03*
X126150000Y-84275000D03*
X126150000Y-84925000D03*
X126150000Y-85575000D03*
X126150000Y-86225000D03*
X126150000Y-86875000D03*
X126150000Y-87525000D03*
X126150000Y-88175000D03*
X126150000Y-88825000D03*
X126150000Y-89475000D03*
X156500000Y-106750000D03*
X156500000Y-106100000D03*
X156500000Y-105450000D03*
X156500000Y-104800000D03*
X156500000Y-104150000D03*
X156500000Y-103500000D03*
X156500000Y-102850000D03*
X156500000Y-102200000D03*
X156500000Y-101550000D03*
X156500000Y-100900000D03*
X156500000Y-100250000D03*
X156500000Y-99600000D03*
X150800000Y-99600000D03*
X150800000Y-100250000D03*
X150800000Y-100900000D03*
X150800000Y-101550000D03*
X150800000Y-102200000D03*
X150800000Y-102850000D03*
X150800000Y-103500000D03*
X150800000Y-104150000D03*
X150800000Y-104800000D03*
X150800000Y-105450000D03*
X150800000Y-106100000D03*
X150800000Y-106750000D03*
D13*
X196500000Y-145000000D03*
X195850000Y-145000000D03*
X195200000Y-145000000D03*
X194550000Y-145000000D03*
X193900000Y-145000000D03*
X193250000Y-145000000D03*
X192600000Y-145000000D03*
X191950000Y-145000000D03*
X191300000Y-145000000D03*
X190650000Y-145000000D03*
X190000000Y-145000000D03*
X189350000Y-145000000D03*
X189350000Y-150700000D03*
X190000000Y-150700000D03*
X190650000Y-150700000D03*
X191300000Y-150700000D03*
X191950000Y-150700000D03*
X192600000Y-150700000D03*
X193250000Y-150700000D03*
X193900000Y-150700000D03*
X194550000Y-150700000D03*
X195200000Y-150700000D03*
X195850000Y-150700000D03*
X196500000Y-150700000D03*
D11*
X169450000Y-128875000D03*
X169450000Y-128225000D03*
X169450000Y-127575000D03*
X169450000Y-126925000D03*
X169450000Y-126275000D03*
X169450000Y-125625000D03*
X169450000Y-124975000D03*
X169450000Y-124325000D03*
X169450000Y-123675000D03*
X169450000Y-123025000D03*
X169450000Y-122375000D03*
X169450000Y-121725000D03*
X163750000Y-121725000D03*
X163750000Y-122375000D03*
X163750000Y-123025000D03*
X163750000Y-123675000D03*
X163750000Y-124325000D03*
X163750000Y-124975000D03*
X163750000Y-125625000D03*
X163750000Y-126275000D03*
X163750000Y-126925000D03*
X163750000Y-127575000D03*
X163750000Y-128225000D03*
X163750000Y-128875000D03*
X131850000Y-77575000D03*
X131850000Y-76925000D03*
X131850000Y-76275000D03*
X131850000Y-75625000D03*
X131850000Y-74975000D03*
X131850000Y-74325000D03*
X131850000Y-73675000D03*
X131850000Y-73025000D03*
X131850000Y-72375000D03*
X131850000Y-71725000D03*
X131850000Y-71075000D03*
X131850000Y-70425000D03*
X126150000Y-70425000D03*
X126150000Y-71075000D03*
X126150000Y-71725000D03*
X126150000Y-72375000D03*
X126150000Y-73025000D03*
X126150000Y-73675000D03*
X126150000Y-74325000D03*
X126150000Y-74975000D03*
X126150000Y-75625000D03*
X126150000Y-76275000D03*
X126150000Y-76925000D03*
X126150000Y-77575000D03*
X142550000Y-83475000D03*
X142550000Y-82825000D03*
X142550000Y-82175000D03*
X142550000Y-81525000D03*
X142550000Y-80875000D03*
X142550000Y-80225000D03*
X142550000Y-79575000D03*
X142550000Y-78925000D03*
X142550000Y-78275000D03*
X142550000Y-77625000D03*
X142550000Y-76975000D03*
X142550000Y-76325000D03*
X136850000Y-76325000D03*
X136850000Y-76975000D03*
X136850000Y-77625000D03*
X136850000Y-78275000D03*
X136850000Y-78925000D03*
X136850000Y-79575000D03*
X136850000Y-80225000D03*
X136850000Y-80875000D03*
X136850000Y-81525000D03*
X136850000Y-82175000D03*
X136850000Y-82825000D03*
X136850000Y-83475000D03*
X138050000Y-109475000D03*
X138050000Y-108825000D03*
X138050000Y-108175000D03*
X138050000Y-107525000D03*
X138050000Y-106875000D03*
X138050000Y-106225000D03*
X138050000Y-105575000D03*
X138050000Y-104925000D03*
X138050000Y-104275000D03*
X138050000Y-103625000D03*
X138050000Y-102975000D03*
X138050000Y-102325000D03*
X132350000Y-102325000D03*
X132350000Y-102975000D03*
X132350000Y-103625000D03*
X132350000Y-104275000D03*
X132350000Y-104925000D03*
X132350000Y-105575000D03*
X132350000Y-106225000D03*
X132350000Y-106875000D03*
X132350000Y-107525000D03*
X132350000Y-108175000D03*
X132350000Y-108825000D03*
X132350000Y-109475000D03*
D13*
X168775000Y-59550000D03*
X169425000Y-59550000D03*
X170075000Y-59550000D03*
X170725000Y-59550000D03*
X171375000Y-59550000D03*
X172025000Y-59550000D03*
X172675000Y-59550000D03*
X173325000Y-59550000D03*
X173975000Y-59550000D03*
X174625000Y-59550000D03*
X175275000Y-59550000D03*
X175925000Y-59550000D03*
X175925000Y-53850000D03*
X175275000Y-53850000D03*
X174625000Y-53850000D03*
X173975000Y-53850000D03*
X173325000Y-53850000D03*
X172675000Y-53850000D03*
X172025000Y-53850000D03*
X171375000Y-53850000D03*
X170725000Y-53850000D03*
X170075000Y-53850000D03*
X169425000Y-53850000D03*
X168775000Y-53850000D03*
D11*
X155450000Y-62775000D03*
X155450000Y-62125000D03*
X155450000Y-61475000D03*
X155450000Y-60825000D03*
X155450000Y-60175000D03*
X155450000Y-59525000D03*
X155450000Y-58875000D03*
X155450000Y-58225000D03*
X155450000Y-57575000D03*
X155450000Y-56925000D03*
X155450000Y-56275000D03*
X155450000Y-55625000D03*
X149750000Y-55625000D03*
X149750000Y-56275000D03*
X149750000Y-56925000D03*
X149750000Y-57575000D03*
X149750000Y-58225000D03*
X149750000Y-58875000D03*
X149750000Y-59525000D03*
X149750000Y-60175000D03*
X149750000Y-60825000D03*
X149750000Y-61475000D03*
X149750000Y-62125000D03*
X149750000Y-62775000D03*
X140650000Y-132825000D03*
X140650000Y-132175000D03*
X140650000Y-131525000D03*
X140650000Y-130875000D03*
X140650000Y-130225000D03*
X140650000Y-129575000D03*
X140650000Y-128925000D03*
X140650000Y-128275000D03*
X140650000Y-127625000D03*
X140650000Y-126975000D03*
X140650000Y-126325000D03*
X140650000Y-125675000D03*
X134950000Y-125675000D03*
X134950000Y-126325000D03*
X134950000Y-126975000D03*
X134950000Y-127625000D03*
X134950000Y-128275000D03*
X134950000Y-128925000D03*
X134950000Y-129575000D03*
X134950000Y-130225000D03*
X134950000Y-130875000D03*
X134950000Y-131525000D03*
X134950000Y-132175000D03*
X134950000Y-132825000D03*
G36*
G01*
X161550000Y-83756250D02*
X161550000Y-83243750D01*
G75*
G02*
X161768750Y-83025000I218750J0D01*
G01*
X162206250Y-83025000D01*
G75*
G02*
X162425000Y-83243750I0J-218750D01*
G01*
X162425000Y-83756250D01*
G75*
G02*
X162206250Y-83975000I-218750J0D01*
G01*
X161768750Y-83975000D01*
G75*
G02*
X161550000Y-83756250I0J218750D01*
G01*
G37*
G36*
G01*
X159975000Y-83756250D02*
X159975000Y-83243750D01*
G75*
G02*
X160193750Y-83025000I218750J0D01*
G01*
X160631250Y-83025000D01*
G75*
G02*
X160850000Y-83243750I0J-218750D01*
G01*
X160850000Y-83756250D01*
G75*
G02*
X160631250Y-83975000I-218750J0D01*
G01*
X160193750Y-83975000D01*
G75*
G02*
X159975000Y-83756250I0J218750D01*
G01*
G37*
G36*
G01*
X79243750Y-116150000D02*
X79756250Y-116150000D01*
G75*
G02*
X79975000Y-116368750I0J-218750D01*
G01*
X79975000Y-116806250D01*
G75*
G02*
X79756250Y-117025000I-218750J0D01*
G01*
X79243750Y-117025000D01*
G75*
G02*
X79025000Y-116806250I0J218750D01*
G01*
X79025000Y-116368750D01*
G75*
G02*
X79243750Y-116150000I218750J0D01*
G01*
G37*
G36*
G01*
X79243750Y-114575000D02*
X79756250Y-114575000D01*
G75*
G02*
X79975000Y-114793750I0J-218750D01*
G01*
X79975000Y-115231250D01*
G75*
G02*
X79756250Y-115450000I-218750J0D01*
G01*
X79243750Y-115450000D01*
G75*
G02*
X79025000Y-115231250I0J218750D01*
G01*
X79025000Y-114793750D01*
G75*
G02*
X79243750Y-114575000I218750J0D01*
G01*
G37*
G36*
G01*
X65750000Y-114156250D02*
X65750000Y-113643750D01*
G75*
G02*
X65968750Y-113425000I218750J0D01*
G01*
X66406250Y-113425000D01*
G75*
G02*
X66625000Y-113643750I0J-218750D01*
G01*
X66625000Y-114156250D01*
G75*
G02*
X66406250Y-114375000I-218750J0D01*
G01*
X65968750Y-114375000D01*
G75*
G02*
X65750000Y-114156250I0J218750D01*
G01*
G37*
G36*
G01*
X64175000Y-114156250D02*
X64175000Y-113643750D01*
G75*
G02*
X64393750Y-113425000I218750J0D01*
G01*
X64831250Y-113425000D01*
G75*
G02*
X65050000Y-113643750I0J-218750D01*
G01*
X65050000Y-114156250D01*
G75*
G02*
X64831250Y-114375000I-218750J0D01*
G01*
X64393750Y-114375000D01*
G75*
G02*
X64175000Y-114156250I0J218750D01*
G01*
G37*
G36*
G01*
X64856250Y-111000000D02*
X64343750Y-111000000D01*
G75*
G02*
X64125000Y-110781250I0J218750D01*
G01*
X64125000Y-110343750D01*
G75*
G02*
X64343750Y-110125000I218750J0D01*
G01*
X64856250Y-110125000D01*
G75*
G02*
X65075000Y-110343750I0J-218750D01*
G01*
X65075000Y-110781250D01*
G75*
G02*
X64856250Y-111000000I-218750J0D01*
G01*
G37*
G36*
G01*
X64856250Y-112575000D02*
X64343750Y-112575000D01*
G75*
G02*
X64125000Y-112356250I0J218750D01*
G01*
X64125000Y-111918750D01*
G75*
G02*
X64343750Y-111700000I218750J0D01*
G01*
X64856250Y-111700000D01*
G75*
G02*
X65075000Y-111918750I0J-218750D01*
G01*
X65075000Y-112356250D01*
G75*
G02*
X64856250Y-112575000I-218750J0D01*
G01*
G37*
G36*
G01*
X63106250Y-108000000D02*
X62593750Y-108000000D01*
G75*
G02*
X62375000Y-107781250I0J218750D01*
G01*
X62375000Y-107343750D01*
G75*
G02*
X62593750Y-107125000I218750J0D01*
G01*
X63106250Y-107125000D01*
G75*
G02*
X63325000Y-107343750I0J-218750D01*
G01*
X63325000Y-107781250D01*
G75*
G02*
X63106250Y-108000000I-218750J0D01*
G01*
G37*
G36*
G01*
X63106250Y-109575000D02*
X62593750Y-109575000D01*
G75*
G02*
X62375000Y-109356250I0J218750D01*
G01*
X62375000Y-108918750D01*
G75*
G02*
X62593750Y-108700000I218750J0D01*
G01*
X63106250Y-108700000D01*
G75*
G02*
X63325000Y-108918750I0J-218750D01*
G01*
X63325000Y-109356250D01*
G75*
G02*
X63106250Y-109575000I-218750J0D01*
G01*
G37*
G36*
G01*
X62462500Y-106156250D02*
X62462500Y-105643750D01*
G75*
G02*
X62681250Y-105425000I218750J0D01*
G01*
X63118750Y-105425000D01*
G75*
G02*
X63337500Y-105643750I0J-218750D01*
G01*
X63337500Y-106156250D01*
G75*
G02*
X63118750Y-106375000I-218750J0D01*
G01*
X62681250Y-106375000D01*
G75*
G02*
X62462500Y-106156250I0J218750D01*
G01*
G37*
G36*
G01*
X60887500Y-106156250D02*
X60887500Y-105643750D01*
G75*
G02*
X61106250Y-105425000I218750J0D01*
G01*
X61543750Y-105425000D01*
G75*
G02*
X61762500Y-105643750I0J-218750D01*
G01*
X61762500Y-106156250D01*
G75*
G02*
X61543750Y-106375000I-218750J0D01*
G01*
X61106250Y-106375000D01*
G75*
G02*
X60887500Y-106156250I0J218750D01*
G01*
G37*
G36*
G01*
X64856250Y-117837500D02*
X64343750Y-117837500D01*
G75*
G02*
X64125000Y-117618750I0J218750D01*
G01*
X64125000Y-117181250D01*
G75*
G02*
X64343750Y-116962500I218750J0D01*
G01*
X64856250Y-116962500D01*
G75*
G02*
X65075000Y-117181250I0J-218750D01*
G01*
X65075000Y-117618750D01*
G75*
G02*
X64856250Y-117837500I-218750J0D01*
G01*
G37*
G36*
G01*
X64856250Y-119412500D02*
X64343750Y-119412500D01*
G75*
G02*
X64125000Y-119193750I0J218750D01*
G01*
X64125000Y-118756250D01*
G75*
G02*
X64343750Y-118537500I218750J0D01*
G01*
X64856250Y-118537500D01*
G75*
G02*
X65075000Y-118756250I0J-218750D01*
G01*
X65075000Y-119193750D01*
G75*
G02*
X64856250Y-119412500I-218750J0D01*
G01*
G37*
G36*
G01*
X173343750Y-69850000D02*
X173856250Y-69850000D01*
G75*
G02*
X174075000Y-70068750I0J-218750D01*
G01*
X174075000Y-70506250D01*
G75*
G02*
X173856250Y-70725000I-218750J0D01*
G01*
X173343750Y-70725000D01*
G75*
G02*
X173125000Y-70506250I0J218750D01*
G01*
X173125000Y-70068750D01*
G75*
G02*
X173343750Y-69850000I218750J0D01*
G01*
G37*
G36*
G01*
X173343750Y-68275000D02*
X173856250Y-68275000D01*
G75*
G02*
X174075000Y-68493750I0J-218750D01*
G01*
X174075000Y-68931250D01*
G75*
G02*
X173856250Y-69150000I-218750J0D01*
G01*
X173343750Y-69150000D01*
G75*
G02*
X173125000Y-68931250I0J218750D01*
G01*
X173125000Y-68493750D01*
G75*
G02*
X173343750Y-68275000I218750J0D01*
G01*
G37*
G36*
G01*
X163543750Y-84650000D02*
X164056250Y-84650000D01*
G75*
G02*
X164275000Y-84868750I0J-218750D01*
G01*
X164275000Y-85306250D01*
G75*
G02*
X164056250Y-85525000I-218750J0D01*
G01*
X163543750Y-85525000D01*
G75*
G02*
X163325000Y-85306250I0J218750D01*
G01*
X163325000Y-84868750D01*
G75*
G02*
X163543750Y-84650000I218750J0D01*
G01*
G37*
G36*
G01*
X163543750Y-83075000D02*
X164056250Y-83075000D01*
G75*
G02*
X164275000Y-83293750I0J-218750D01*
G01*
X164275000Y-83731250D01*
G75*
G02*
X164056250Y-83950000I-218750J0D01*
G01*
X163543750Y-83950000D01*
G75*
G02*
X163325000Y-83731250I0J218750D01*
G01*
X163325000Y-83293750D01*
G75*
G02*
X163543750Y-83075000I218750J0D01*
G01*
G37*
G36*
G01*
X208150000Y-111843750D02*
X208150000Y-112356250D01*
G75*
G02*
X207931250Y-112575000I-218750J0D01*
G01*
X207493750Y-112575000D01*
G75*
G02*
X207275000Y-112356250I0J218750D01*
G01*
X207275000Y-111843750D01*
G75*
G02*
X207493750Y-111625000I218750J0D01*
G01*
X207931250Y-111625000D01*
G75*
G02*
X208150000Y-111843750I0J-218750D01*
G01*
G37*
G36*
G01*
X209725000Y-111843750D02*
X209725000Y-112356250D01*
G75*
G02*
X209506250Y-112575000I-218750J0D01*
G01*
X209068750Y-112575000D01*
G75*
G02*
X208850000Y-112356250I0J218750D01*
G01*
X208850000Y-111843750D01*
G75*
G02*
X209068750Y-111625000I218750J0D01*
G01*
X209506250Y-111625000D01*
G75*
G02*
X209725000Y-111843750I0J-218750D01*
G01*
G37*
G36*
G01*
X209550000Y-135943750D02*
X209550000Y-136456250D01*
G75*
G02*
X209331250Y-136675000I-218750J0D01*
G01*
X208893750Y-136675000D01*
G75*
G02*
X208675000Y-136456250I0J218750D01*
G01*
X208675000Y-135943750D01*
G75*
G02*
X208893750Y-135725000I218750J0D01*
G01*
X209331250Y-135725000D01*
G75*
G02*
X209550000Y-135943750I0J-218750D01*
G01*
G37*
G36*
G01*
X211125000Y-135943750D02*
X211125000Y-136456250D01*
G75*
G02*
X210906250Y-136675000I-218750J0D01*
G01*
X210468750Y-136675000D01*
G75*
G02*
X210250000Y-136456250I0J218750D01*
G01*
X210250000Y-135943750D01*
G75*
G02*
X210468750Y-135725000I218750J0D01*
G01*
X210906250Y-135725000D01*
G75*
G02*
X211125000Y-135943750I0J-218750D01*
G01*
G37*
G36*
G01*
X177643750Y-110150000D02*
X178156250Y-110150000D01*
G75*
G02*
X178375000Y-110368750I0J-218750D01*
G01*
X178375000Y-110806250D01*
G75*
G02*
X178156250Y-111025000I-218750J0D01*
G01*
X177643750Y-111025000D01*
G75*
G02*
X177425000Y-110806250I0J218750D01*
G01*
X177425000Y-110368750D01*
G75*
G02*
X177643750Y-110150000I218750J0D01*
G01*
G37*
G36*
G01*
X177643750Y-108575000D02*
X178156250Y-108575000D01*
G75*
G02*
X178375000Y-108793750I0J-218750D01*
G01*
X178375000Y-109231250D01*
G75*
G02*
X178156250Y-109450000I-218750J0D01*
G01*
X177643750Y-109450000D01*
G75*
G02*
X177425000Y-109231250I0J218750D01*
G01*
X177425000Y-108793750D01*
G75*
G02*
X177643750Y-108575000I218750J0D01*
G01*
G37*
G36*
G01*
X76250000Y-109043750D02*
X76250000Y-109556250D01*
G75*
G02*
X76031250Y-109775000I-218750J0D01*
G01*
X75593750Y-109775000D01*
G75*
G02*
X75375000Y-109556250I0J218750D01*
G01*
X75375000Y-109043750D01*
G75*
G02*
X75593750Y-108825000I218750J0D01*
G01*
X76031250Y-108825000D01*
G75*
G02*
X76250000Y-109043750I0J-218750D01*
G01*
G37*
G36*
G01*
X77825000Y-109043750D02*
X77825000Y-109556250D01*
G75*
G02*
X77606250Y-109775000I-218750J0D01*
G01*
X77168750Y-109775000D01*
G75*
G02*
X76950000Y-109556250I0J218750D01*
G01*
X76950000Y-109043750D01*
G75*
G02*
X77168750Y-108825000I218750J0D01*
G01*
X77606250Y-108825000D01*
G75*
G02*
X77825000Y-109043750I0J-218750D01*
G01*
G37*
G36*
G01*
X77543750Y-104950000D02*
X78056250Y-104950000D01*
G75*
G02*
X78275000Y-105168750I0J-218750D01*
G01*
X78275000Y-105606250D01*
G75*
G02*
X78056250Y-105825000I-218750J0D01*
G01*
X77543750Y-105825000D01*
G75*
G02*
X77325000Y-105606250I0J218750D01*
G01*
X77325000Y-105168750D01*
G75*
G02*
X77543750Y-104950000I218750J0D01*
G01*
G37*
G36*
G01*
X77543750Y-103375000D02*
X78056250Y-103375000D01*
G75*
G02*
X78275000Y-103593750I0J-218750D01*
G01*
X78275000Y-104031250D01*
G75*
G02*
X78056250Y-104250000I-218750J0D01*
G01*
X77543750Y-104250000D01*
G75*
G02*
X77325000Y-104031250I0J218750D01*
G01*
X77325000Y-103593750D01*
G75*
G02*
X77543750Y-103375000I218750J0D01*
G01*
G37*
G36*
G01*
X76250000Y-107343750D02*
X76250000Y-107856250D01*
G75*
G02*
X76031250Y-108075000I-218750J0D01*
G01*
X75593750Y-108075000D01*
G75*
G02*
X75375000Y-107856250I0J218750D01*
G01*
X75375000Y-107343750D01*
G75*
G02*
X75593750Y-107125000I218750J0D01*
G01*
X76031250Y-107125000D01*
G75*
G02*
X76250000Y-107343750I0J-218750D01*
G01*
G37*
G36*
G01*
X77825000Y-107343750D02*
X77825000Y-107856250D01*
G75*
G02*
X77606250Y-108075000I-218750J0D01*
G01*
X77168750Y-108075000D01*
G75*
G02*
X76950000Y-107856250I0J218750D01*
G01*
X76950000Y-107343750D01*
G75*
G02*
X77168750Y-107125000I218750J0D01*
G01*
X77606250Y-107125000D01*
G75*
G02*
X77825000Y-107343750I0J-218750D01*
G01*
G37*
G36*
G01*
X79243750Y-104950000D02*
X79756250Y-104950000D01*
G75*
G02*
X79975000Y-105168750I0J-218750D01*
G01*
X79975000Y-105606250D01*
G75*
G02*
X79756250Y-105825000I-218750J0D01*
G01*
X79243750Y-105825000D01*
G75*
G02*
X79025000Y-105606250I0J218750D01*
G01*
X79025000Y-105168750D01*
G75*
G02*
X79243750Y-104950000I218750J0D01*
G01*
G37*
G36*
G01*
X79243750Y-103375000D02*
X79756250Y-103375000D01*
G75*
G02*
X79975000Y-103593750I0J-218750D01*
G01*
X79975000Y-104031250D01*
G75*
G02*
X79756250Y-104250000I-218750J0D01*
G01*
X79243750Y-104250000D01*
G75*
G02*
X79025000Y-104031250I0J218750D01*
G01*
X79025000Y-103593750D01*
G75*
G02*
X79243750Y-103375000I218750J0D01*
G01*
G37*
G36*
G01*
X78262500Y-91756250D02*
X78262500Y-91243750D01*
G75*
G02*
X78481250Y-91025000I218750J0D01*
G01*
X78918750Y-91025000D01*
G75*
G02*
X79137500Y-91243750I0J-218750D01*
G01*
X79137500Y-91756250D01*
G75*
G02*
X78918750Y-91975000I-218750J0D01*
G01*
X78481250Y-91975000D01*
G75*
G02*
X78262500Y-91756250I0J218750D01*
G01*
G37*
G36*
G01*
X76687500Y-91756250D02*
X76687500Y-91243750D01*
G75*
G02*
X76906250Y-91025000I218750J0D01*
G01*
X77343750Y-91025000D01*
G75*
G02*
X77562500Y-91243750I0J-218750D01*
G01*
X77562500Y-91756250D01*
G75*
G02*
X77343750Y-91975000I-218750J0D01*
G01*
X76906250Y-91975000D01*
G75*
G02*
X76687500Y-91756250I0J218750D01*
G01*
G37*
G36*
G01*
X62856250Y-117837500D02*
X62343750Y-117837500D01*
G75*
G02*
X62125000Y-117618750I0J218750D01*
G01*
X62125000Y-117181250D01*
G75*
G02*
X62343750Y-116962500I218750J0D01*
G01*
X62856250Y-116962500D01*
G75*
G02*
X63075000Y-117181250I0J-218750D01*
G01*
X63075000Y-117618750D01*
G75*
G02*
X62856250Y-117837500I-218750J0D01*
G01*
G37*
G36*
G01*
X62856250Y-119412500D02*
X62343750Y-119412500D01*
G75*
G02*
X62125000Y-119193750I0J218750D01*
G01*
X62125000Y-118756250D01*
G75*
G02*
X62343750Y-118537500I218750J0D01*
G01*
X62856250Y-118537500D01*
G75*
G02*
X63075000Y-118756250I0J-218750D01*
G01*
X63075000Y-119193750D01*
G75*
G02*
X62856250Y-119412500I-218750J0D01*
G01*
G37*
G36*
G01*
X138056250Y-67750000D02*
X137543750Y-67750000D01*
G75*
G02*
X137325000Y-67531250I0J218750D01*
G01*
X137325000Y-67093750D01*
G75*
G02*
X137543750Y-66875000I218750J0D01*
G01*
X138056250Y-66875000D01*
G75*
G02*
X138275000Y-67093750I0J-218750D01*
G01*
X138275000Y-67531250D01*
G75*
G02*
X138056250Y-67750000I-218750J0D01*
G01*
G37*
G36*
G01*
X138056250Y-69325000D02*
X137543750Y-69325000D01*
G75*
G02*
X137325000Y-69106250I0J218750D01*
G01*
X137325000Y-68668750D01*
G75*
G02*
X137543750Y-68450000I218750J0D01*
G01*
X138056250Y-68450000D01*
G75*
G02*
X138275000Y-68668750I0J-218750D01*
G01*
X138275000Y-69106250D01*
G75*
G02*
X138056250Y-69325000I-218750J0D01*
G01*
G37*
G36*
G01*
X139756250Y-67750000D02*
X139243750Y-67750000D01*
G75*
G02*
X139025000Y-67531250I0J218750D01*
G01*
X139025000Y-67093750D01*
G75*
G02*
X139243750Y-66875000I218750J0D01*
G01*
X139756250Y-66875000D01*
G75*
G02*
X139975000Y-67093750I0J-218750D01*
G01*
X139975000Y-67531250D01*
G75*
G02*
X139756250Y-67750000I-218750J0D01*
G01*
G37*
G36*
G01*
X139756250Y-69325000D02*
X139243750Y-69325000D01*
G75*
G02*
X139025000Y-69106250I0J218750D01*
G01*
X139025000Y-68668750D01*
G75*
G02*
X139243750Y-68450000I218750J0D01*
G01*
X139756250Y-68450000D01*
G75*
G02*
X139975000Y-68668750I0J-218750D01*
G01*
X139975000Y-69106250D01*
G75*
G02*
X139756250Y-69325000I-218750J0D01*
G01*
G37*
G36*
G01*
X141456250Y-67750000D02*
X140943750Y-67750000D01*
G75*
G02*
X140725000Y-67531250I0J218750D01*
G01*
X140725000Y-67093750D01*
G75*
G02*
X140943750Y-66875000I218750J0D01*
G01*
X141456250Y-66875000D01*
G75*
G02*
X141675000Y-67093750I0J-218750D01*
G01*
X141675000Y-67531250D01*
G75*
G02*
X141456250Y-67750000I-218750J0D01*
G01*
G37*
G36*
G01*
X141456250Y-69325000D02*
X140943750Y-69325000D01*
G75*
G02*
X140725000Y-69106250I0J218750D01*
G01*
X140725000Y-68668750D01*
G75*
G02*
X140943750Y-68450000I218750J0D01*
G01*
X141456250Y-68450000D01*
G75*
G02*
X141675000Y-68668750I0J-218750D01*
G01*
X141675000Y-69106250D01*
G75*
G02*
X141456250Y-69325000I-218750J0D01*
G01*
G37*
G36*
G01*
X143156250Y-67750000D02*
X142643750Y-67750000D01*
G75*
G02*
X142425000Y-67531250I0J218750D01*
G01*
X142425000Y-67093750D01*
G75*
G02*
X142643750Y-66875000I218750J0D01*
G01*
X143156250Y-66875000D01*
G75*
G02*
X143375000Y-67093750I0J-218750D01*
G01*
X143375000Y-67531250D01*
G75*
G02*
X143156250Y-67750000I-218750J0D01*
G01*
G37*
G36*
G01*
X143156250Y-69325000D02*
X142643750Y-69325000D01*
G75*
G02*
X142425000Y-69106250I0J218750D01*
G01*
X142425000Y-68668750D01*
G75*
G02*
X142643750Y-68450000I218750J0D01*
G01*
X143156250Y-68450000D01*
G75*
G02*
X143375000Y-68668750I0J-218750D01*
G01*
X143375000Y-69106250D01*
G75*
G02*
X143156250Y-69325000I-218750J0D01*
G01*
G37*
G36*
G01*
X144856250Y-67750000D02*
X144343750Y-67750000D01*
G75*
G02*
X144125000Y-67531250I0J218750D01*
G01*
X144125000Y-67093750D01*
G75*
G02*
X144343750Y-66875000I218750J0D01*
G01*
X144856250Y-66875000D01*
G75*
G02*
X145075000Y-67093750I0J-218750D01*
G01*
X145075000Y-67531250D01*
G75*
G02*
X144856250Y-67750000I-218750J0D01*
G01*
G37*
G36*
G01*
X144856250Y-69325000D02*
X144343750Y-69325000D01*
G75*
G02*
X144125000Y-69106250I0J218750D01*
G01*
X144125000Y-68668750D01*
G75*
G02*
X144343750Y-68450000I218750J0D01*
G01*
X144856250Y-68450000D01*
G75*
G02*
X145075000Y-68668750I0J-218750D01*
G01*
X145075000Y-69106250D01*
G75*
G02*
X144856250Y-69325000I-218750J0D01*
G01*
G37*
G36*
G01*
X146556250Y-67750000D02*
X146043750Y-67750000D01*
G75*
G02*
X145825000Y-67531250I0J218750D01*
G01*
X145825000Y-67093750D01*
G75*
G02*
X146043750Y-66875000I218750J0D01*
G01*
X146556250Y-66875000D01*
G75*
G02*
X146775000Y-67093750I0J-218750D01*
G01*
X146775000Y-67531250D01*
G75*
G02*
X146556250Y-67750000I-218750J0D01*
G01*
G37*
G36*
G01*
X146556250Y-69325000D02*
X146043750Y-69325000D01*
G75*
G02*
X145825000Y-69106250I0J218750D01*
G01*
X145825000Y-68668750D01*
G75*
G02*
X146043750Y-68450000I218750J0D01*
G01*
X146556250Y-68450000D01*
G75*
G02*
X146775000Y-68668750I0J-218750D01*
G01*
X146775000Y-69106250D01*
G75*
G02*
X146556250Y-69325000I-218750J0D01*
G01*
G37*
G36*
G01*
X148256250Y-67750000D02*
X147743750Y-67750000D01*
G75*
G02*
X147525000Y-67531250I0J218750D01*
G01*
X147525000Y-67093750D01*
G75*
G02*
X147743750Y-66875000I218750J0D01*
G01*
X148256250Y-66875000D01*
G75*
G02*
X148475000Y-67093750I0J-218750D01*
G01*
X148475000Y-67531250D01*
G75*
G02*
X148256250Y-67750000I-218750J0D01*
G01*
G37*
G36*
G01*
X148256250Y-69325000D02*
X147743750Y-69325000D01*
G75*
G02*
X147525000Y-69106250I0J218750D01*
G01*
X147525000Y-68668750D01*
G75*
G02*
X147743750Y-68450000I218750J0D01*
G01*
X148256250Y-68450000D01*
G75*
G02*
X148475000Y-68668750I0J-218750D01*
G01*
X148475000Y-69106250D01*
G75*
G02*
X148256250Y-69325000I-218750J0D01*
G01*
G37*
M02*
